<?xml version="1.0" encoding="UTF-8" standalone="no"?>
<!DOCTYPE svg PUBLIC "-//W3C//DTD SVG 1.1//EN"
 "http://www.w3.org/Graphics/SVG/1.1/DTD/svg11.dtd">
<!-- Generated by graphviz version 2.43.0 (0)
 -->
<!-- Title: exchange.apps.ExchangeConfig Pages: 1 -->
<svg width="173pt" height="157pt"
 viewBox="0.00 0.00 173.00 157.00" xmlns="http://www.w3.org/2000/svg" xmlns:xlink="http://www.w3.org/1999/xlink">
<g id="graph0" class="graph" transform="scale(1 1) rotate(0) translate(4 153)">
<title>exchange.apps.ExchangeConfig</title>
<!-- Node1 -->
<g id="Node000001" class="node">
<title>Node1</title>
<g id="a_Node000001"><a xlink:title=" ">
<polygon fill="#999999" stroke="transparent" points="165,-64 0,-64 0,0 165,0 165,-64"/>
<text text-anchor="start" x="5.5" y="-52" font-family="Helvetica,sans-Serif" font-size="10.00">exchange.apps.ExchangeConfig</text>
<text text-anchor="start" x="18.5" y="-37" font-family="Helvetica,sans-Serif" font-size="10.00">+</text>
<text text-anchor="start" x="45.5" y="-37" font-family="Helvetica,sans-Serif" font-size="10.00">default_auto_field</text>
<text text-anchor="start" x="18.5" y="-22" font-family="Helvetica,sans-Serif" font-size="10.00">+</text>
<text text-anchor="start" x="45.5" y="-22" font-family="Helvetica,sans-Serif" font-size="10.00">name</text>
<text text-anchor="start" x="18.5" y="-7" font-family="Helvetica,sans-Serif" font-size="10.00">+</text>
<text text-anchor="start" x="45.5" y="-7" font-family="Helvetica,sans-Serif" font-size="10.00">ready()</text>
<polygon fill="#666666" stroke="#666666" points="0.5,-47 0.5,-47 165.5,-47 165.5,-47 0.5,-47"/>
<polygon fill="#666666" stroke="#666666" points="0.5,-17 0.5,-17 43.5,-17 43.5,-17 0.5,-17"/>
<polygon fill="#666666" stroke="#666666" points="43.5,-17 43.5,-17 165.5,-17 165.5,-17 43.5,-17"/>
<polygon fill="none" stroke="#666666" points="0,0 0,-64 165,-64 165,0 0,0"/>
</a>
</g>
</g>
<!-- Node2 -->
<g id="Node000002" class="node">
<title>Node2</title>
<g id="a_Node000002"><a xlink:title=" ">
<polygon fill="white" stroke="transparent" points="112.5,-149 52.5,-149 52.5,-100 112.5,-100 112.5,-149"/>
<text text-anchor="start" x="57.5" y="-136.5" font-family="Helvetica,sans-Serif" font-size="10.00">AppConfig</text>
<text text-anchor="start" x="80.5" y="-121.5" font-family="Helvetica,sans-Serif" font-size="10.00"> </text>
<text text-anchor="start" x="80.5" y="-106.5" font-family="Helvetica,sans-Serif" font-size="10.00"> </text>
<polygon fill="#666666" stroke="#666666" points="52.5,-131.5 52.5,-131.5 112.5,-131.5 112.5,-131.5 52.5,-131.5"/>
<polygon fill="#666666" stroke="#666666" points="52.5,-116.5 52.5,-116.5 112.5,-116.5 112.5,-116.5 52.5,-116.5"/>
<polygon fill="none" stroke="#666666" points="52.5,-100 52.5,-149 112.5,-149 112.5,-100 52.5,-100"/>
</a>
</g>
</g>
<!-- Node2&#45;&gt;Node1 -->
<g id="edge2_Node000001_Node000002" class="edge">
<title>Node2&#45;&gt;Node1</title>
<g id="a_edge2_Node000001_Node000002"><a xlink:title=" ">
<path fill="none" stroke="#63b8ff" d="M82.5,-89.54C82.5,-81.2 82.5,-72.31 82.5,-64.11"/>
<polygon fill="none" stroke="#63b8ff" points="79,-89.72 82.5,-99.72 86,-89.72 79,-89.72"/>
</a>
</g>
</g>
</g>
</svg>
