<?xml version="1.0" encoding="UTF-8" standalone="no"?>
<!DOCTYPE svg PUBLIC "-//W3C//DTD SVG 1.1//EN"
 "http://www.w3.org/Graphics/SVG/1.1/DTD/svg11.dtd">
<!-- Generated by graphviz version 2.43.0 (0)
 -->
<!-- Title: exchange.views.CommentCreateView Pages: 1 -->
<svg width="234pt" height="153pt"
 viewBox="0.00 0.00 233.50 153.00" xmlns="http://www.w3.org/2000/svg" xmlns:xlink="http://www.w3.org/1999/xlink">
<g id="graph0" class="graph" transform="scale(1 1) rotate(0) translate(4 149)">
<title>exchange.views.CommentCreateView</title>
<!-- Node1 -->
<g id="Node000001" class="node">
<title>Node1</title>
<g id="a_Node000001"><a xlink:title=" ">
<polygon fill="#999999" stroke="transparent" points="197,-49 0,-49 0,0 197,0 197,-49"/>
<text text-anchor="start" x="5.5" y="-36.5" font-family="Helvetica,sans-Serif" font-size="10.00">exchange.views.CommentCreateView</text>
<text text-anchor="start" x="97" y="-21.5" font-family="Helvetica,sans-Serif" font-size="10.00"> </text>
<text text-anchor="start" x="41" y="-6.5" font-family="Helvetica,sans-Serif" font-size="10.00">+</text>
<text text-anchor="start" x="90.5" y="-6.5" font-family="Helvetica,sans-Serif" font-size="10.00">post()</text>
<polygon fill="#666666" stroke="#666666" points="0.5,-31.5 0.5,-31.5 197.5,-31.5 197.5,-31.5 0.5,-31.5"/>
<polygon fill="#666666" stroke="#666666" points="0.5,-16.5 0.5,-16.5 197.5,-16.5 197.5,-16.5 0.5,-16.5"/>
<polygon fill="none" stroke="#666666" points="0,0 0,-49 197,-49 197,0 0,0"/>
</a>
</g>
</g>
<!-- Node2 -->
<g id="Node000002" class="node">
<title>Node2</title>
<g id="a_Node000002"><a xlink:title=" ">
<polygon fill="white" stroke="transparent" points="101.5,-145 19.5,-145 19.5,-96 101.5,-96 101.5,-145"/>
<text text-anchor="start" x="24.5" y="-132.5" font-family="Helvetica,sans-Serif" font-size="10.00">views.APIView</text>
<text text-anchor="start" x="58.5" y="-117.5" font-family="Helvetica,sans-Serif" font-size="10.00"> </text>
<text text-anchor="start" x="58.5" y="-102.5" font-family="Helvetica,sans-Serif" font-size="10.00"> </text>
<polygon fill="#666666" stroke="#666666" points="19.5,-127.5 19.5,-127.5 101.5,-127.5 101.5,-127.5 19.5,-127.5"/>
<polygon fill="#666666" stroke="#666666" points="19.5,-112.5 19.5,-112.5 101.5,-112.5 101.5,-112.5 19.5,-112.5"/>
<polygon fill="none" stroke="#666666" points="19.5,-96 19.5,-145 101.5,-145 101.5,-96 19.5,-96"/>
</a>
</g>
</g>
<!-- Node2&#45;&gt;Node1 -->
<g id="edge3_Node000001_Node000002" class="edge">
<title>Node2&#45;&gt;Node1</title>
<g id="a_edge3_Node000001_Node000002"><a xlink:title=" ">
<path fill="none" stroke="#63b8ff" d="M73.91,-86.32C78.86,-74.08 84.37,-60.46 88.91,-49.21"/>
<polygon fill="none" stroke="#63b8ff" points="70.59,-85.2 70.09,-95.78 77.08,-87.82 70.59,-85.2"/>
</a>
</g>
</g>
<!-- Node3 -->
<g id="Node000003" class="node">
<title>Node3</title>
<g id="a_Node000003"><a xlink:title=" ">
<polygon fill="white" stroke="transparent" points="155,-145 120,-145 120,-96 155,-96 155,-145"/>
<text text-anchor="start" x="125.5" y="-132.5" font-family="Helvetica,sans-Serif" font-size="10.00">tuple</text>
<text text-anchor="start" x="136" y="-117.5" font-family="Helvetica,sans-Serif" font-size="10.00"> </text>
<text text-anchor="start" x="136" y="-102.5" font-family="Helvetica,sans-Serif" font-size="10.00"> </text>
<polygon fill="#666666" stroke="#666666" points="120.5,-127.5 120.5,-127.5 155.5,-127.5 155.5,-127.5 120.5,-127.5"/>
<polygon fill="#666666" stroke="#666666" points="120.5,-112.5 120.5,-112.5 155.5,-112.5 155.5,-112.5 120.5,-112.5"/>
<polygon fill="none" stroke="#666666" points="120,-96 120,-145 155,-145 155,-96 120,-96"/>
</a>
</g>
</g>
<!-- Node3&#45;&gt;Node1 -->
<g id="edge4_Node000001_Node000003" class="edge">
<title>Node3&#45;&gt;Node1</title>
<g id="a_edge4_Node000001_Node000003"><a xlink:title=" ">
<path fill="none" stroke="#63b8ff" d="M127.66,-95.78C123.22,-85.09 117.9,-72.26 113.02,-60.5"/>
<polygon fill="none" stroke="#63b8ff" points="112.94,-60.3 106.94,-56.29 108.34,-49.21 114.33,-53.22 112.94,-60.3"/>
</a>
</g>
<text text-anchor="middle" x="172" y="-70" font-family="Helvetica,sans-Serif" font-size="10.00" fill="grey"> +permission_classes</text>
</g>
</g>
</svg>
