<?xml version="1.0" encoding="UTF-8" standalone="no"?>
<!DOCTYPE svg PUBLIC "-//W3C//DTD SVG 1.1//EN"
 "http://www.w3.org/Graphics/SVG/1.1/DTD/svg11.dtd">
<!-- Generated by graphviz version 2.43.0 (0)
 -->
<!-- Title: exchange.models.Upvote.Meta Pages: 1 -->
<svg width="181pt" height="153pt"
 viewBox="0.00 0.00 180.50 153.00" xmlns="http://www.w3.org/2000/svg" xmlns:xlink="http://www.w3.org/1999/xlink">
<g id="graph0" class="graph" transform="scale(1 1) rotate(0) translate(4 149)">
<title>exchange.models.Upvote.Meta</title>
<!-- Node1 -->
<g id="Node000001" class="node">
<title>Node1</title>
<g id="a_Node000001"><a xlink:title=" ">
<polygon fill="#999999" stroke="transparent" points="163,-49 0,-49 0,0 163,0 163,-49"/>
<text text-anchor="start" x="5.5" y="-36.5" font-family="Helvetica,sans-Serif" font-size="10.00">exchange.models.Upvote.Meta</text>
<text text-anchor="start" x="80" y="-21.5" font-family="Helvetica,sans-Serif" font-size="10.00"> </text>
<text text-anchor="start" x="80" y="-6.5" font-family="Helvetica,sans-Serif" font-size="10.00"> </text>
<polygon fill="#666666" stroke="#666666" points="0.5,-31.5 0.5,-31.5 163.5,-31.5 163.5,-31.5 0.5,-31.5"/>
<polygon fill="#666666" stroke="#666666" points="0.5,-16.5 0.5,-16.5 163.5,-16.5 163.5,-16.5 0.5,-16.5"/>
<polygon fill="none" stroke="#666666" points="0,0 0,-49 163,-49 163,0 0,0"/>
</a>
</g>
</g>
<!-- Node2 -->
<g id="Node000002" class="node">
<title>Node2</title>
<g id="a_Node000002"><a xlink:title=" ">
<polygon fill="white" stroke="transparent" points="99,-145 64,-145 64,-96 99,-96 99,-145"/>
<text text-anchor="start" x="69.5" y="-132.5" font-family="Helvetica,sans-Serif" font-size="10.00">tuple</text>
<text text-anchor="start" x="80" y="-117.5" font-family="Helvetica,sans-Serif" font-size="10.00"> </text>
<text text-anchor="start" x="80" y="-102.5" font-family="Helvetica,sans-Serif" font-size="10.00"> </text>
<polygon fill="#666666" stroke="#666666" points="64.5,-127.5 64.5,-127.5 99.5,-127.5 99.5,-127.5 64.5,-127.5"/>
<polygon fill="#666666" stroke="#666666" points="64.5,-112.5 64.5,-112.5 99.5,-112.5 99.5,-112.5 64.5,-112.5"/>
<polygon fill="none" stroke="#666666" points="64,-96 64,-145 99,-145 99,-96 64,-96"/>
</a>
</g>
</g>
<!-- Node2&#45;&gt;Node1 -->
<g id="edge2_Node000001_Node000002" class="edge">
<title>Node2&#45;&gt;Node1</title>
<g id="a_edge2_Node000001_Node000002"><a xlink:title=" ">
<path fill="none" stroke="#63b8ff" d="M81.5,-95.78C81.5,-85.32 81.5,-72.79 81.5,-61.23"/>
<polygon fill="none" stroke="#63b8ff" points="81.5,-61.21 77.5,-55.21 81.5,-49.21 85.5,-55.21 81.5,-61.21"/>
</a>
</g>
<text text-anchor="middle" x="127" y="-70" font-family="Helvetica,sans-Serif" font-size="10.00" fill="grey"> +unique_together</text>
</g>
</g>
</svg>
