<?xml version="1.0" encoding="UTF-8" standalone="no"?>
<!DOCTYPE svg PUBLIC "-//W3C//DTD SVG 1.1//EN"
 "http://www.w3.org/Graphics/SVG/1.1/DTD/svg11.dtd">
<!-- Generated by graphviz version 2.43.0 (0)
 -->
<!-- Title: chat.middleware.TokenAuthMiddleware Pages: 1 -->
<svg width="154pt" height="168pt"
 viewBox="0.00 0.00 154.00 168.00" xmlns="http://www.w3.org/2000/svg" xmlns:xlink="http://www.w3.org/1999/xlink">
<g id="graph0" class="graph" transform="scale(1 1) rotate(0) translate(4 164)">
<title>chat.middleware.TokenAuthMiddleware</title>
<!-- Node1 -->
<g id="Node000001" class="node">
<title>Node1</title>
<g id="a_Node000001"><a xlink:title=" ">
<polygon fill="#999999" stroke="transparent" points="146,-75 0,-75 0,0 146,0 146,-75"/>
<text text-anchor="start" x="5" y="-62.5" font-family="Helvetica,sans-Serif" font-size="10.00">chat.middleware.TokenAuth</text>
<text text-anchor="start" x="44" y="-51.5" font-family="Helvetica,sans-Serif" font-size="10.00">Middleware</text>
<text text-anchor="start" x="22.5" y="-36.5" font-family="Helvetica,sans-Serif" font-size="10.00">+</text>
<text text-anchor="start" x="54" y="-36.5" font-family="Helvetica,sans-Serif" font-size="10.00">jwt_object</text>
<text text-anchor="start" x="22.5" y="-21.5" font-family="Helvetica,sans-Serif" font-size="10.00">+</text>
<text text-anchor="start" x="54" y="-21.5" font-family="Helvetica,sans-Serif" font-size="10.00">__init__()</text>
<text text-anchor="start" x="22.5" y="-6.5" font-family="Helvetica,sans-Serif" font-size="10.00">+</text>
<text text-anchor="start" x="54" y="-6.5" font-family="Helvetica,sans-Serif" font-size="10.00">__call__()</text>
<polygon fill="#666666" stroke="#666666" points="0,-46.5 0,-46.5 146,-46.5 146,-46.5 0,-46.5"/>
<polygon fill="#666666" stroke="#666666" points="0,-31.5 0,-31.5 52,-31.5 52,-31.5 0,-31.5"/>
<polygon fill="#666666" stroke="#666666" points="52,-31.5 52,-31.5 146,-31.5 146,-31.5 52,-31.5"/>
<polygon fill="none" stroke="#666666" points="0,0 0,-75 146,-75 146,0 0,0"/>
</a>
</g>
</g>
<!-- Node2 -->
<g id="Node000002" class="node">
<title>Node2</title>
<g id="a_Node000002"><a xlink:title=" ">
<polygon fill="white" stroke="transparent" points="119,-160 27,-160 27,-111 119,-111 119,-160"/>
<text text-anchor="start" x="32" y="-147.5" font-family="Helvetica,sans-Serif" font-size="10.00">BaseMiddleware</text>
<text text-anchor="start" x="71" y="-132.5" font-family="Helvetica,sans-Serif" font-size="10.00"> </text>
<text text-anchor="start" x="71" y="-117.5" font-family="Helvetica,sans-Serif" font-size="10.00"> </text>
<polygon fill="#666666" stroke="#666666" points="27,-142.5 27,-142.5 119,-142.5 119,-142.5 27,-142.5"/>
<polygon fill="#666666" stroke="#666666" points="27,-127.5 27,-127.5 119,-127.5 119,-127.5 27,-127.5"/>
<polygon fill="none" stroke="#666666" points="27,-111 27,-160 119,-160 119,-111 27,-111"/>
</a>
</g>
</g>
<!-- Node2&#45;&gt;Node1 -->
<g id="edge2_Node000001_Node000002" class="edge">
<title>Node2&#45;&gt;Node1</title>
<g id="a_edge2_Node000001_Node000002"><a xlink:title=" ">
<path fill="none" stroke="#63b8ff" d="M73,-100.68C73,-92.38 73,-83.46 73,-75.04"/>
<polygon fill="none" stroke="#63b8ff" points="69.5,-100.77 73,-110.77 76.5,-100.77 69.5,-100.77"/>
</a>
</g>
</g>
</g>
</svg>
