<?xml version="1.0" encoding="UTF-8" standalone="no"?>
<!DOCTYPE svg PUBLIC "-//W3C//DTD SVG 1.1//EN"
 "http://www.w3.org/Graphics/SVG/1.1/DTD/svg11.dtd">
<!-- Generated by graphviz version 2.43.0 (0)
 -->
<!-- Title: exchange.serializers.QuestionSerializer.Meta Pages: 1 -->
<svg width="166pt" height="164pt"
 viewBox="0.00 0.00 166.00 164.00" xmlns="http://www.w3.org/2000/svg" xmlns:xlink="http://www.w3.org/1999/xlink">
<g id="graph0" class="graph" transform="scale(1 1) rotate(0) translate(4 160)">
<title>exchange.serializers.QuestionSerializer.Meta</title>
<!-- Node1 -->
<g id="Node000001" class="node">
<title>Node1</title>
<g id="a_Node000001"><a xlink:title=" ">
<polygon fill="#999999" stroke="transparent" points="158,-60 0,-60 0,0 158,0 158,-60"/>
<text text-anchor="start" x="5" y="-48" font-family="Helvetica,sans-Serif" font-size="10.00">exchange.serializers.Question</text>
<text text-anchor="start" x="42.5" y="-37" font-family="Helvetica,sans-Serif" font-size="10.00">Serializer.Meta</text>
<text text-anchor="start" x="30.5" y="-22" font-family="Helvetica,sans-Serif" font-size="10.00">+</text>
<text text-anchor="start" x="70" y="-22" font-family="Helvetica,sans-Serif" font-size="10.00">model</text>
<text text-anchor="start" x="77" y="-7" font-family="Helvetica,sans-Serif" font-size="10.00"> </text>
<polygon fill="#666666" stroke="#666666" points="0,-32 0,-32 158,-32 158,-32 0,-32"/>
<polygon fill="#666666" stroke="#666666" points="0,-17 0,-17 68,-17 68,-17 0,-17"/>
<polygon fill="#666666" stroke="#666666" points="68,-17 68,-17 158,-17 158,-17 68,-17"/>
<polygon fill="none" stroke="#666666" points="0,0 0,-60 158,-60 158,0 0,0"/>
</a>
</g>
</g>
<!-- Node2 -->
<g id="Node000002" class="node">
<title>Node2</title>
<g id="a_Node000002"><a xlink:title=" ">
<polygon fill="white" stroke="transparent" points="92,-156 66,-156 66,-107 92,-107 92,-156"/>
<text text-anchor="start" x="71" y="-143.5" font-family="Helvetica,sans-Serif" font-size="10.00">list</text>
<text text-anchor="start" x="77" y="-128.5" font-family="Helvetica,sans-Serif" font-size="10.00"> </text>
<text text-anchor="start" x="77" y="-113.5" font-family="Helvetica,sans-Serif" font-size="10.00"> </text>
<polygon fill="#666666" stroke="#666666" points="66,-138.5 66,-138.5 92,-138.5 92,-138.5 66,-138.5"/>
<polygon fill="#666666" stroke="#666666" points="66,-123.5 66,-123.5 92,-123.5 92,-123.5 66,-123.5"/>
<polygon fill="none" stroke="#666666" points="66,-107 66,-156 92,-156 92,-107 66,-107"/>
</a>
</g>
</g>
<!-- Node2&#45;&gt;Node1 -->
<g id="edge2_Node000001_Node000002" class="edge">
<title>Node2&#45;&gt;Node1</title>
<g id="a_edge2_Node000001_Node000002"><a xlink:title=" ">
<path fill="none" stroke="#63b8ff" d="M79,-106.92C79,-96.51 79,-83.97 79,-72.1"/>
<polygon fill="none" stroke="#63b8ff" points="79,-72.1 75,-66.1 79,-60.1 83,-66.1 79,-72.1"/>
</a>
</g>
<text text-anchor="middle" x="98" y="-81" font-family="Helvetica,sans-Serif" font-size="10.00" fill="grey"> +fields</text>
</g>
</g>
</svg>
