<?xml version="1.0" encoding="UTF-8" standalone="no"?>
<!DOCTYPE svg PUBLIC "-//W3C//DTD SVG 1.1//EN"
 "http://www.w3.org/Graphics/SVG/1.1/DTD/svg11.dtd">
<!-- Generated by graphviz version 2.43.0 (0)
 -->
<!-- Title: user.models.MyAccountManager Pages: 1 -->
<svg width="178pt" height="157pt"
 viewBox="0.00 0.00 178.00 157.00" xmlns="http://www.w3.org/2000/svg" xmlns:xlink="http://www.w3.org/1999/xlink">
<g id="graph0" class="graph" transform="scale(1 1) rotate(0) translate(4 153)">
<title>user.models.MyAccountManager</title>
<!-- Node1 -->
<g id="Node000001" class="node">
<title>Node1</title>
<g id="a_Node000001"><a xlink:title=" ">
<polygon fill="#999999" stroke="transparent" points="170,-64 0,-64 0,0 170,0 170,-64"/>
<text text-anchor="start" x="5" y="-52" font-family="Helvetica,sans-Serif" font-size="10.00">user.models.MyAccountManager</text>
<text text-anchor="start" x="83" y="-37" font-family="Helvetica,sans-Serif" font-size="10.00"> </text>
<text text-anchor="start" x="18" y="-22" font-family="Helvetica,sans-Serif" font-size="10.00">+</text>
<text text-anchor="start" x="45" y="-22" font-family="Helvetica,sans-Serif" font-size="10.00">create_user()</text>
<text text-anchor="start" x="18" y="-7" font-family="Helvetica,sans-Serif" font-size="10.00">+</text>
<text text-anchor="start" x="45" y="-7" font-family="Helvetica,sans-Serif" font-size="10.00">create_superuser()</text>
<polygon fill="#666666" stroke="#666666" points="0,-47 0,-47 170,-47 170,-47 0,-47"/>
<polygon fill="#666666" stroke="#666666" points="0,-32 0,-32 170,-32 170,-32 0,-32"/>
<polygon fill="none" stroke="#666666" points="0,0 0,-64 170,-64 170,0 0,0"/>
</a>
</g>
</g>
<!-- Node2 -->
<g id="Node000002" class="node">
<title>Node2</title>
<g id="a_Node000002"><a xlink:title=" ">
<polygon fill="white" stroke="transparent" points="135,-149 35,-149 35,-100 135,-100 135,-149"/>
<text text-anchor="start" x="40" y="-136.5" font-family="Helvetica,sans-Serif" font-size="10.00">BaseUserManager</text>
<text text-anchor="start" x="83" y="-121.5" font-family="Helvetica,sans-Serif" font-size="10.00"> </text>
<text text-anchor="start" x="83" y="-106.5" font-family="Helvetica,sans-Serif" font-size="10.00"> </text>
<polygon fill="#666666" stroke="#666666" points="35,-131.5 35,-131.5 135,-131.5 135,-131.5 35,-131.5"/>
<polygon fill="#666666" stroke="#666666" points="35,-116.5 35,-116.5 135,-116.5 135,-116.5 35,-116.5"/>
<polygon fill="none" stroke="#666666" points="35,-100 35,-149 135,-149 135,-100 35,-100"/>
</a>
</g>
</g>
<!-- Node2&#45;&gt;Node1 -->
<g id="edge2_Node000001_Node000002" class="edge">
<title>Node2&#45;&gt;Node1</title>
<g id="a_edge2_Node000001_Node000002"><a xlink:title=" ">
<path fill="none" stroke="#63b8ff" d="M85,-89.54C85,-81.2 85,-72.31 85,-64.11"/>
<polygon fill="none" stroke="#63b8ff" points="81.5,-89.72 85,-99.72 88.5,-89.72 81.5,-89.72"/>
</a>
</g>
</g>
</g>
</svg>
