<?xml version="1.0" encoding="UTF-8" standalone="no"?>
<!DOCTYPE svg PUBLIC "-//W3C//DTD SVG 1.1//EN"
 "http://www.w3.org/Graphics/SVG/1.1/DTD/svg11.dtd">
<!-- Generated by graphviz version 2.43.0 (0)
 -->
<!-- Title: assignment.serializers.AssignmentSerializer Pages: 1 -->
<svg width="190pt" height="153pt"
 viewBox="0.00 0.00 190.00 153.00" xmlns="http://www.w3.org/2000/svg" xmlns:xlink="http://www.w3.org/1999/xlink">
<g id="graph0" class="graph" transform="scale(1 1) rotate(0) translate(4 149)">
<title>assignment.serializers.AssignmentSerializer</title>
<!-- Node1 -->
<g id="Node000001" class="node">
<title>Node1</title>
<g id="a_Node000001"><a xlink:title=" ">
<polygon fill="#999999" stroke="transparent" points="182,-60 0,-60 0,0 182,0 182,-60"/>
<text text-anchor="start" x="5" y="-48" font-family="Helvetica,sans-Serif" font-size="10.00">assignment.serializers.Assignment</text>
<text text-anchor="start" x="68" y="-37" font-family="Helvetica,sans-Serif" font-size="10.00">Serializer</text>
<text text-anchor="start" x="89" y="-22" font-family="Helvetica,sans-Serif" font-size="10.00"> </text>
<text text-anchor="start" x="89" y="-7" font-family="Helvetica,sans-Serif" font-size="10.00"> </text>
<polygon fill="#666666" stroke="#666666" points="0,-32 0,-32 182,-32 182,-32 0,-32"/>
<polygon fill="#666666" stroke="#666666" points="0,-17 0,-17 182,-17 182,-17 0,-17"/>
<polygon fill="none" stroke="#666666" points="0,0 0,-60 182,-60 182,0 0,0"/>
</a>
</g>
</g>
<!-- Node2 -->
<g id="Node000002" class="node">
<title>Node2</title>
<g id="a_Node000002"><a xlink:title=" ">
<polygon fill="white" stroke="transparent" points="161,-145 21,-145 21,-96 161,-96 161,-145"/>
<text text-anchor="start" x="26" y="-132.5" font-family="Helvetica,sans-Serif" font-size="10.00">serializers.ModelSerializer</text>
<text text-anchor="start" x="89" y="-117.5" font-family="Helvetica,sans-Serif" font-size="10.00"> </text>
<text text-anchor="start" x="89" y="-102.5" font-family="Helvetica,sans-Serif" font-size="10.00"> </text>
<polygon fill="#666666" stroke="#666666" points="21,-127.5 21,-127.5 161,-127.5 161,-127.5 21,-127.5"/>
<polygon fill="#666666" stroke="#666666" points="21,-112.5 21,-112.5 161,-112.5 161,-112.5 21,-112.5"/>
<polygon fill="none" stroke="#666666" points="21,-96 21,-145 161,-145 161,-96 21,-96"/>
</a>
</g>
</g>
<!-- Node2&#45;&gt;Node1 -->
<g id="edge2_Node000001_Node000002" class="edge">
<title>Node2&#45;&gt;Node1</title>
<g id="a_edge2_Node000001_Node000002"><a xlink:title=" ">
<path fill="none" stroke="#63b8ff" d="M91,-85.55C91,-77.18 91,-68.28 91,-60.16"/>
<polygon fill="none" stroke="#63b8ff" points="87.5,-85.78 91,-95.78 94.5,-85.78 87.5,-85.78"/>
</a>
</g>
</g>
</g>
</svg>
