<?xml version="1.0" encoding="UTF-8" standalone="no"?>
<!DOCTYPE svg PUBLIC "-//W3C//DTD SVG 1.1//EN"
 "http://www.w3.org/Graphics/SVG/1.1/DTD/svg11.dtd">
<!-- Generated by graphviz version 2.43.0 (0)
 -->
<!-- Title: assignment.views.AssignmentCreate Pages: 1 -->
<svg width="218pt" height="164pt"
 viewBox="0.00 0.00 217.50 164.00" xmlns="http://www.w3.org/2000/svg" xmlns:xlink="http://www.w3.org/1999/xlink">
<g id="graph0" class="graph" transform="scale(1 1) rotate(0) translate(4 160)">
<title>assignment.views.AssignmentCreate</title>
<!-- Node1 -->
<g id="Node000001" class="node">
<title>Node1</title>
<g id="a_Node000001"><a xlink:title=" ">
<polygon fill="#999999" stroke="transparent" points="161.5,-60 1.5,-60 1.5,0 161.5,0 161.5,-60"/>
<text text-anchor="start" x="6.5" y="-48" font-family="Helvetica,sans-Serif" font-size="10.00">assignment.views.Assignment</text>
<text text-anchor="start" x="65" y="-37" font-family="Helvetica,sans-Serif" font-size="10.00">Create</text>
<text text-anchor="start" x="79.5" y="-22" font-family="Helvetica,sans-Serif" font-size="10.00"> </text>
<text text-anchor="start" x="33" y="-7" font-family="Helvetica,sans-Serif" font-size="10.00">+</text>
<text text-anchor="start" x="73.5" y="-7" font-family="Helvetica,sans-Serif" font-size="10.00">post()</text>
<polygon fill="#666666" stroke="#666666" points="1.5,-32 1.5,-32 161.5,-32 161.5,-32 1.5,-32"/>
<polygon fill="#666666" stroke="#666666" points="1.5,-17 1.5,-17 161.5,-17 161.5,-17 1.5,-17"/>
<polygon fill="none" stroke="#666666" points="1.5,0 1.5,-60 161.5,-60 161.5,0 1.5,0"/>
</a>
</g>
</g>
<!-- Node2 -->
<g id="Node000002" class="node">
<title>Node2</title>
<g id="a_Node000002"><a xlink:title=" ">
<polygon fill="white" stroke="transparent" points="85,-156 0,-156 0,-107 85,-107 85,-156"/>
<text text-anchor="start" x="5.5" y="-143.5" font-family="Helvetica,sans-Serif" font-size="10.00">views::APIView</text>
<text text-anchor="start" x="41" y="-128.5" font-family="Helvetica,sans-Serif" font-size="10.00"> </text>
<text text-anchor="start" x="41" y="-113.5" font-family="Helvetica,sans-Serif" font-size="10.00"> </text>
<polygon fill="#666666" stroke="#666666" points="0.5,-138.5 0.5,-138.5 85.5,-138.5 85.5,-138.5 0.5,-138.5"/>
<polygon fill="#666666" stroke="#666666" points="0.5,-123.5 0.5,-123.5 85.5,-123.5 85.5,-123.5 0.5,-123.5"/>
<polygon fill="none" stroke="#666666" points="0,-107 0,-156 85,-156 85,-107 0,-107"/>
</a>
</g>
</g>
<!-- Node2&#45;&gt;Node1 -->
<g id="edge3_Node000001_Node000002" class="edge">
<title>Node2&#45;&gt;Node1</title>
<g id="a_edge3_Node000001_Node000002"><a xlink:title=" ">
<path fill="none" stroke="#63b8ff" d="M55.4,-97.59C60.15,-85.48 65.49,-71.86 70.09,-60.1"/>
<polygon fill="none" stroke="#63b8ff" points="52.13,-96.33 51.74,-106.92 58.65,-98.89 52.13,-96.33"/>
</a>
</g>
</g>
<!-- Node3 -->
<g id="Node000003" class="node">
<title>Node3</title>
<g id="a_Node000003"><a xlink:title=" ">
<polygon fill="white" stroke="transparent" points="138,-156 103,-156 103,-107 138,-107 138,-156"/>
<text text-anchor="start" x="108.5" y="-143.5" font-family="Helvetica,sans-Serif" font-size="10.00">tuple</text>
<text text-anchor="start" x="119" y="-128.5" font-family="Helvetica,sans-Serif" font-size="10.00"> </text>
<text text-anchor="start" x="119" y="-113.5" font-family="Helvetica,sans-Serif" font-size="10.00"> </text>
<polygon fill="#666666" stroke="#666666" points="103.5,-138.5 103.5,-138.5 138.5,-138.5 138.5,-138.5 103.5,-138.5"/>
<polygon fill="#666666" stroke="#666666" points="103.5,-123.5 103.5,-123.5 138.5,-123.5 138.5,-123.5 103.5,-123.5"/>
<polygon fill="none" stroke="#666666" points="103,-107 103,-156 138,-156 138,-107 103,-107"/>
</a>
</g>
</g>
<!-- Node3&#45;&gt;Node1 -->
<g id="edge4_Node000001_Node000003" class="edge">
<title>Node3&#45;&gt;Node1</title>
<g id="a_edge4_Node000001_Node000003"><a xlink:title=" ">
<path fill="none" stroke="#63b8ff" d="M111.26,-106.92C107.09,-96.29 102.05,-83.44 97.32,-71.36"/>
<polygon fill="none" stroke="#63b8ff" points="97.29,-71.27 91.37,-67.15 92.91,-60.1 98.82,-64.23 97.29,-71.27"/>
</a>
</g>
<text text-anchor="middle" x="156" y="-81" font-family="Helvetica,sans-Serif" font-size="10.00" fill="grey"> +permission_classes</text>
</g>
</g>
</svg>
