<?xml version="1.0" encoding="UTF-8" standalone="no"?>
<!DOCTYPE svg PUBLIC "-//W3C//DTD SVG 1.1//EN"
 "http://www.w3.org/Graphics/SVG/1.1/DTD/svg11.dtd">
<!-- Generated by graphviz version 2.43.0 (0)
 -->
<!-- Title: exchange.views.QuestionRetrieveView Pages: 1 -->
<svg width="209pt" height="172pt"
 viewBox="0.00 0.00 209.00 172.00" xmlns="http://www.w3.org/2000/svg" xmlns:xlink="http://www.w3.org/1999/xlink">
<g id="graph0" class="graph" transform="scale(1 1) rotate(0) translate(4 168)">
<title>exchange.views.QuestionRetrieveView</title>
<!-- Node1 -->
<g id="Node000001" class="node">
<title>Node1</title>
<g id="a_Node000001"><a xlink:title=" ">
<polygon fill="#999999" stroke="transparent" points="201,-79 0,-79 0,0 201,0 201,-79"/>
<text text-anchor="start" x="5.5" y="-66.5" font-family="Helvetica,sans-Serif" font-size="10.00">exchange.views.QuestionRetrieveView</text>
<text text-anchor="start" x="25.5" y="-51.5" font-family="Helvetica,sans-Serif" font-size="10.00">+</text>
<text text-anchor="start" x="59.5" y="-51.5" font-family="Helvetica,sans-Serif" font-size="10.00">queryset</text>
<text text-anchor="start" x="25.5" y="-36.5" font-family="Helvetica,sans-Serif" font-size="10.00">+</text>
<text text-anchor="start" x="59.5" y="-36.5" font-family="Helvetica,sans-Serif" font-size="10.00">permission_classes</text>
<text text-anchor="start" x="25.5" y="-21.5" font-family="Helvetica,sans-Serif" font-size="10.00">+</text>
<text text-anchor="start" x="59.5" y="-21.5" font-family="Helvetica,sans-Serif" font-size="10.00">serializer_class</text>
<text text-anchor="start" x="99" y="-6.5" font-family="Helvetica,sans-Serif" font-size="10.00"> </text>
<polygon fill="#666666" stroke="#666666" points="0.5,-61.5 0.5,-61.5 201.5,-61.5 201.5,-61.5 0.5,-61.5"/>
<polygon fill="#666666" stroke="#666666" points="0.5,-16.5 0.5,-16.5 57.5,-16.5 57.5,-16.5 0.5,-16.5"/>
<polygon fill="#666666" stroke="#666666" points="57.5,-16.5 57.5,-16.5 201.5,-16.5 201.5,-16.5 57.5,-16.5"/>
<polygon fill="none" stroke="#666666" points="0,0 0,-79 201,-79 201,0 0,0"/>
</a>
</g>
</g>
<!-- Node2 -->
<g id="Node000002" class="node">
<title>Node2</title>
<g id="a_Node000002"><a xlink:title=" ">
<polygon fill="white" stroke="transparent" points="168.5,-164 32.5,-164 32.5,-115 168.5,-115 168.5,-164"/>
<text text-anchor="start" x="37.5" y="-151.5" font-family="Helvetica,sans-Serif" font-size="10.00">generics.RetrieveAPIView</text>
<text text-anchor="start" x="98.5" y="-136.5" font-family="Helvetica,sans-Serif" font-size="10.00"> </text>
<text text-anchor="start" x="98.5" y="-121.5" font-family="Helvetica,sans-Serif" font-size="10.00"> </text>
<polygon fill="#666666" stroke="#666666" points="32.5,-146.5 32.5,-146.5 168.5,-146.5 168.5,-146.5 32.5,-146.5"/>
<polygon fill="#666666" stroke="#666666" points="32.5,-131.5 32.5,-131.5 168.5,-131.5 168.5,-131.5 32.5,-131.5"/>
<polygon fill="none" stroke="#666666" points="32.5,-115 32.5,-164 168.5,-164 168.5,-115 32.5,-115"/>
</a>
</g>
</g>
<!-- Node2&#45;&gt;Node1 -->
<g id="edge2_Node000001_Node000002" class="edge">
<title>Node2&#45;&gt;Node1</title>
<g id="a_edge2_Node000001_Node000002"><a xlink:title=" ">
<path fill="none" stroke="#63b8ff" d="M100.5,-104.52C100.5,-96.38 100.5,-87.63 100.5,-79.29"/>
<polygon fill="none" stroke="#63b8ff" points="97,-104.78 100.5,-114.78 104,-104.78 97,-104.78"/>
</a>
</g>
</g>
</g>
</svg>
