<?xml version="1.0" encoding="UTF-8" standalone="no"?>
<!DOCTYPE svg PUBLIC "-//W3C//DTD SVG 1.1//EN"
 "http://www.w3.org/Graphics/SVG/1.1/DTD/svg11.dtd">
<!-- Generated by graphviz version 2.43.0 (0)
 -->
<!-- Title: classroom.models.Classroom Pages: 1 -->
<svg width="163pt" height="157pt"
 viewBox="0.00 0.00 163.00 157.00" xmlns="http://www.w3.org/2000/svg" xmlns:xlink="http://www.w3.org/1999/xlink">
<g id="graph0" class="graph" transform="scale(1 1) rotate(0) translate(4 153)">
<title>classroom.models.Classroom</title>
<!-- Node1 -->
<g id="Node000001" class="node">
<title>Node1</title>
<g id="a_Node000001"><a xlink:title=" ">
<polygon fill="#999999" stroke="transparent" points="155,-64 0,-64 0,0 155,0 155,-64"/>
<text text-anchor="start" x="5.5" y="-52" font-family="Helvetica,sans-Serif" font-size="10.00">classroom.models.Classroom</text>
<text text-anchor="start" x="20.5" y="-37" font-family="Helvetica,sans-Serif" font-size="10.00">+</text>
<text text-anchor="start" x="49.5" y="-37" font-family="Helvetica,sans-Serif" font-size="10.00">name</text>
<text text-anchor="start" x="20.5" y="-22" font-family="Helvetica,sans-Serif" font-size="10.00">+</text>
<text text-anchor="start" x="49.5" y="-22" font-family="Helvetica,sans-Serif" font-size="10.00">total_strength</text>
<text text-anchor="start" x="76" y="-7" font-family="Helvetica,sans-Serif" font-size="10.00"> </text>
<polygon fill="#666666" stroke="#666666" points="0.5,-47 0.5,-47 155.5,-47 155.5,-47 0.5,-47"/>
<polygon fill="#666666" stroke="#666666" points="0.5,-17 0.5,-17 47.5,-17 47.5,-17 0.5,-17"/>
<polygon fill="#666666" stroke="#666666" points="47.5,-17 47.5,-17 155.5,-17 155.5,-17 47.5,-17"/>
<polygon fill="none" stroke="#666666" points="0,0 0,-64 155,-64 155,0 0,0"/>
</a>
</g>
</g>
<!-- Node2 -->
<g id="Node000002" class="node">
<title>Node2</title>
<g id="a_Node000002"><a xlink:title=" ">
<polygon fill="white" stroke="transparent" points="117.5,-149 37.5,-149 37.5,-100 117.5,-100 117.5,-149"/>
<text text-anchor="start" x="42.5" y="-136.5" font-family="Helvetica,sans-Serif" font-size="10.00">models.Model</text>
<text text-anchor="start" x="75.5" y="-121.5" font-family="Helvetica,sans-Serif" font-size="10.00"> </text>
<text text-anchor="start" x="75.5" y="-106.5" font-family="Helvetica,sans-Serif" font-size="10.00"> </text>
<polygon fill="#666666" stroke="#666666" points="37.5,-131.5 37.5,-131.5 117.5,-131.5 117.5,-131.5 37.5,-131.5"/>
<polygon fill="#666666" stroke="#666666" points="37.5,-116.5 37.5,-116.5 117.5,-116.5 117.5,-116.5 37.5,-116.5"/>
<polygon fill="none" stroke="#666666" points="37.5,-100 37.5,-149 117.5,-149 117.5,-100 37.5,-100"/>
</a>
</g>
</g>
<!-- Node2&#45;&gt;Node1 -->
<g id="edge2_Node000001_Node000002" class="edge">
<title>Node2&#45;&gt;Node1</title>
<g id="a_edge2_Node000001_Node000002"><a xlink:title=" ">
<path fill="none" stroke="#63b8ff" d="M77.5,-89.54C77.5,-81.2 77.5,-72.31 77.5,-64.11"/>
<polygon fill="none" stroke="#63b8ff" points="74,-89.72 77.5,-99.72 81,-89.72 74,-89.72"/>
</a>
</g>
</g>
</g>
</svg>
