<?xml version="1.0" encoding="UTF-8" standalone="no"?>
<!DOCTYPE svg PUBLIC "-//W3C//DTD SVG 1.1//EN"
 "http://www.w3.org/Graphics/SVG/1.1/DTD/svg11.dtd">
<!-- Generated by graphviz version 2.43.0 (0)
 -->
<!-- Title: exchange.views.QuestionListView Pages: 1 -->
<svg width="185pt" height="172pt"
 viewBox="0.00 0.00 185.00 172.00" xmlns="http://www.w3.org/2000/svg" xmlns:xlink="http://www.w3.org/1999/xlink">
<g id="graph0" class="graph" transform="scale(1 1) rotate(0) translate(4 168)">
<title>exchange.views.QuestionListView</title>
<!-- Node1 -->
<g id="Node000001" class="node">
<title>Node1</title>
<g id="a_Node000001"><a xlink:title=" ">
<polygon fill="#999999" stroke="transparent" points="177,-79 0,-79 0,0 177,0 177,-79"/>
<text text-anchor="start" x="5.5" y="-66.5" font-family="Helvetica,sans-Serif" font-size="10.00">exchange.views.QuestionListView</text>
<text text-anchor="start" x="19.5" y="-51.5" font-family="Helvetica,sans-Serif" font-size="10.00">+</text>
<text text-anchor="start" x="47.5" y="-51.5" font-family="Helvetica,sans-Serif" font-size="10.00">queryset</text>
<text text-anchor="start" x="19.5" y="-36.5" font-family="Helvetica,sans-Serif" font-size="10.00">+</text>
<text text-anchor="start" x="47.5" y="-36.5" font-family="Helvetica,sans-Serif" font-size="10.00">permission_classes</text>
<text text-anchor="start" x="19.5" y="-21.5" font-family="Helvetica,sans-Serif" font-size="10.00">+</text>
<text text-anchor="start" x="47.5" y="-21.5" font-family="Helvetica,sans-Serif" font-size="10.00">serializer_class</text>
<text text-anchor="start" x="87" y="-6.5" font-family="Helvetica,sans-Serif" font-size="10.00"> </text>
<polygon fill="#666666" stroke="#666666" points="0.5,-61.5 0.5,-61.5 177.5,-61.5 177.5,-61.5 0.5,-61.5"/>
<polygon fill="#666666" stroke="#666666" points="0.5,-16.5 0.5,-16.5 45.5,-16.5 45.5,-16.5 0.5,-16.5"/>
<polygon fill="#666666" stroke="#666666" points="45.5,-16.5 45.5,-16.5 177.5,-16.5 177.5,-16.5 45.5,-16.5"/>
<polygon fill="none" stroke="#666666" points="0,0 0,-79 177,-79 177,0 0,0"/>
</a>
</g>
</g>
<!-- Node2 -->
<g id="Node000002" class="node">
<title>Node2</title>
<g id="a_Node000002"><a xlink:title=" ">
<polygon fill="white" stroke="transparent" points="144.5,-164 32.5,-164 32.5,-115 144.5,-115 144.5,-164"/>
<text text-anchor="start" x="37.5" y="-151.5" font-family="Helvetica,sans-Serif" font-size="10.00">generics.ListAPIView</text>
<text text-anchor="start" x="86.5" y="-136.5" font-family="Helvetica,sans-Serif" font-size="10.00"> </text>
<text text-anchor="start" x="86.5" y="-121.5" font-family="Helvetica,sans-Serif" font-size="10.00"> </text>
<polygon fill="#666666" stroke="#666666" points="32.5,-146.5 32.5,-146.5 144.5,-146.5 144.5,-146.5 32.5,-146.5"/>
<polygon fill="#666666" stroke="#666666" points="32.5,-131.5 32.5,-131.5 144.5,-131.5 144.5,-131.5 32.5,-131.5"/>
<polygon fill="none" stroke="#666666" points="32.5,-115 32.5,-164 144.5,-164 144.5,-115 32.5,-115"/>
</a>
</g>
</g>
<!-- Node2&#45;&gt;Node1 -->
<g id="edge2_Node000001_Node000002" class="edge">
<title>Node2&#45;&gt;Node1</title>
<g id="a_edge2_Node000001_Node000002"><a xlink:title=" ">
<path fill="none" stroke="#63b8ff" d="M88.5,-104.52C88.5,-96.38 88.5,-87.63 88.5,-79.29"/>
<polygon fill="none" stroke="#63b8ff" points="85,-104.78 88.5,-114.78 92,-104.78 85,-104.78"/>
</a>
</g>
</g>
</g>
</svg>
