<?xml version="1.0" encoding="UTF-8" standalone="no"?>
<!DOCTYPE svg PUBLIC "-//W3C//DTD SVG 1.1//EN"
 "http://www.w3.org/Graphics/SVG/1.1/DTD/svg11.dtd">
<!-- Generated by graphviz version 2.43.0 (0)
 -->
<!-- Title: user.admin.UserAdmin Pages: 1 -->
<svg width="304pt" height="175pt"
 viewBox="0.00 0.00 303.50 175.00" xmlns="http://www.w3.org/2000/svg" xmlns:xlink="http://www.w3.org/1999/xlink">
<g id="graph0" class="graph" transform="scale(1 1) rotate(0) translate(4 171)">
<title>user.admin.UserAdmin</title>
<!-- Node1 -->
<g id="Node000001" class="node">
<title>Node1</title>
<g id="a_Node000001"><a xlink:title=" ">
<polygon fill="#999999" stroke="transparent" points="181.5,-49 59.5,-49 59.5,0 181.5,0 181.5,-49"/>
<text text-anchor="start" x="64.5" y="-36.5" font-family="Helvetica,sans-Serif" font-size="10.00">user.admin.UserAdmin</text>
<text text-anchor="start" x="118.5" y="-21.5" font-family="Helvetica,sans-Serif" font-size="10.00"> </text>
<text text-anchor="start" x="118.5" y="-6.5" font-family="Helvetica,sans-Serif" font-size="10.00"> </text>
<polygon fill="#666666" stroke="#666666" points="59.5,-31.5 59.5,-31.5 181.5,-31.5 181.5,-31.5 59.5,-31.5"/>
<polygon fill="#666666" stroke="#666666" points="59.5,-16.5 59.5,-16.5 181.5,-16.5 181.5,-16.5 59.5,-16.5"/>
<polygon fill="none" stroke="#666666" points="59.5,0 59.5,-49 181.5,-49 181.5,0 59.5,0"/>
</a>
</g>
</g>
<!-- Node2 -->
<g id="Node000002" class="node">
<title>Node2</title>
<g id="a_Node000002"><a xlink:href="$classBaseUserAdmin.html" xlink:title=" ">
<polygon fill="white" stroke="transparent" points="89,-167 0,-167 0,-118 89,-118 89,-167"/>
<text text-anchor="start" x="5.5" y="-154.5" font-family="Helvetica,sans-Serif" font-size="10.00">BaseUserAdmin</text>
<text text-anchor="start" x="43" y="-139.5" font-family="Helvetica,sans-Serif" font-size="10.00"> </text>
<text text-anchor="start" x="43" y="-124.5" font-family="Helvetica,sans-Serif" font-size="10.00"> </text>
<polygon fill="#666666" stroke="#666666" points="0.5,-149.5 0.5,-149.5 89.5,-149.5 89.5,-149.5 0.5,-149.5"/>
<polygon fill="#666666" stroke="#666666" points="0.5,-134.5 0.5,-134.5 89.5,-134.5 89.5,-134.5 0.5,-134.5"/>
<polygon fill="none" stroke="#666666" points="0,-118 0,-167 89,-167 89,-118 0,-118"/>
</a>
</g>
</g>
<!-- Node2&#45;&gt;Node1 -->
<g id="edge4_Node000001_Node000002" class="edge">
<title>Node2&#45;&gt;Node1</title>
<g id="a_edge4_Node000001_Node000002"><a xlink:title=" ">
<path fill="none" stroke="#63b8ff" d="M65.56,-109.36C78.04,-90.31 93.59,-66.57 104.96,-49.22"/>
<polygon fill="none" stroke="#63b8ff" points="62.62,-107.46 60.06,-117.75 68.47,-111.3 62.62,-107.46"/>
</a>
</g>
</g>
<!-- Node3 -->
<g id="Node000003" class="node">
<title>Node3</title>
<g id="a_Node000003"><a xlink:title=" ">
<polygon fill="white" stroke="transparent" points="133.5,-167 107.5,-167 107.5,-118 133.5,-118 133.5,-167"/>
<text text-anchor="start" x="112.5" y="-154.5" font-family="Helvetica,sans-Serif" font-size="10.00">list</text>
<text text-anchor="start" x="118.5" y="-139.5" font-family="Helvetica,sans-Serif" font-size="10.00"> </text>
<text text-anchor="start" x="118.5" y="-124.5" font-family="Helvetica,sans-Serif" font-size="10.00"> </text>
<polygon fill="#666666" stroke="#666666" points="107.5,-149.5 107.5,-149.5 133.5,-149.5 133.5,-149.5 107.5,-149.5"/>
<polygon fill="#666666" stroke="#666666" points="107.5,-134.5 107.5,-134.5 133.5,-134.5 133.5,-134.5 107.5,-134.5"/>
<polygon fill="none" stroke="#666666" points="107.5,-118 107.5,-167 133.5,-167 133.5,-118 107.5,-118"/>
</a>
</g>
</g>
<!-- Node3&#45;&gt;Node1 -->
<g id="edge5_Node000001_Node000003" class="edge">
<title>Node3&#45;&gt;Node1</title>
<g id="a_edge5_Node000001_Node000003"><a xlink:title=" ">
<path fill="none" stroke="#63b8ff" d="M120.5,-117.75C120.5,-101.48 120.5,-79.62 120.5,-61.26"/>
<polygon fill="none" stroke="#63b8ff" points="120.5,-61.22 116.5,-55.22 120.5,-49.22 124.5,-55.22 120.5,-61.22"/>
</a>
</g>
<text text-anchor="middle" x="162" y="-92" font-family="Helvetica,sans-Serif" font-size="10.00" fill="grey"> +list_display</text>
<text text-anchor="middle" x="162" y="-81" font-family="Helvetica,sans-Serif" font-size="10.00" fill="grey">+ordering</text>
<text text-anchor="middle" x="162" y="-70" font-family="Helvetica,sans-Serif" font-size="10.00" fill="grey">+readonly_fields</text>
</g>
<!-- Node4 -->
<g id="Node000004" class="node">
<title>Node4</title>
<g id="a_Node000004"><a xlink:title=" ">
<polygon fill="white" stroke="transparent" points="244,-167 209,-167 209,-118 244,-118 244,-167"/>
<text text-anchor="start" x="214.5" y="-154.5" font-family="Helvetica,sans-Serif" font-size="10.00">tuple</text>
<text text-anchor="start" x="225" y="-139.5" font-family="Helvetica,sans-Serif" font-size="10.00"> </text>
<text text-anchor="start" x="225" y="-124.5" font-family="Helvetica,sans-Serif" font-size="10.00"> </text>
<polygon fill="#666666" stroke="#666666" points="209.5,-149.5 209.5,-149.5 244.5,-149.5 244.5,-149.5 209.5,-149.5"/>
<polygon fill="#666666" stroke="#666666" points="209.5,-134.5 209.5,-134.5 244.5,-134.5 244.5,-134.5 209.5,-134.5"/>
<polygon fill="none" stroke="#666666" points="209,-118 209,-167 244,-167 244,-118 209,-118"/>
</a>
</g>
</g>
<!-- Node4&#45;&gt;Node1 -->
<g id="edge6_Node000001_Node000004" class="edge">
<title>Node4&#45;&gt;Node1</title>
<g id="a_edge6_Node000001_Node000004"><a xlink:title=" ">
<path fill="none" stroke="#63b8ff" d="M224.42,-117.68C221.94,-101.78 216.48,-81.24 204.5,-67 200.77,-62.57 196.45,-58.56 191.78,-54.96"/>
<polygon fill="none" stroke="#63b8ff" points="191.67,-54.88 184.46,-54.79 181.77,-48.1 188.98,-48.19 191.67,-54.88"/>
</a>
</g>
<text text-anchor="middle" x="257.5" y="-86.5" font-family="Helvetica,sans-Serif" font-size="10.00" fill="grey"> +add_fieldsets</text>
<text text-anchor="middle" x="257.5" y="-75.5" font-family="Helvetica,sans-Serif" font-size="10.00" fill="grey">+fieldsets</text>
</g>
</g>
</svg>
