<?xml version="1.0" encoding="UTF-8" standalone="no"?>
<!DOCTYPE svg PUBLIC "-//W3C//DTD SVG 1.1//EN"
 "http://www.w3.org/Graphics/SVG/1.1/DTD/svg11.dtd">
<!-- Generated by graphviz version 2.43.0 (0)
 -->
<!-- Title: attendance.views.AttendanceCreateView Pages: 1 -->
<svg width="258pt" height="164pt"
 viewBox="0.00 0.00 258.00 164.00" xmlns="http://www.w3.org/2000/svg" xmlns:xlink="http://www.w3.org/1999/xlink">
<g id="graph0" class="graph" transform="scale(1 1) rotate(0) translate(4 160)">
<title>attendance.views.AttendanceCreateView</title>
<!-- Node1 -->
<g id="Node000001" class="node">
<title>Node1</title>
<g id="a_Node000001"><a xlink:title=" ">
<polygon fill="#999999" stroke="transparent" points="192.5,-60 37.5,-60 37.5,0 192.5,0 192.5,-60"/>
<text text-anchor="start" x="43" y="-48" font-family="Helvetica,sans-Serif" font-size="10.00">attendance.views.Attendance</text>
<text text-anchor="start" x="87" y="-37" font-family="Helvetica,sans-Serif" font-size="10.00">CreateView</text>
<text text-anchor="start" x="56.5" y="-22" font-family="Helvetica,sans-Serif" font-size="10.00">+</text>
<text text-anchor="start" x="84" y="-22" font-family="Helvetica,sans-Serif" font-size="10.00">serializer_class</text>
<text text-anchor="start" x="56.5" y="-7" font-family="Helvetica,sans-Serif" font-size="10.00">+</text>
<text text-anchor="start" x="84" y="-7" font-family="Helvetica,sans-Serif" font-size="10.00">post()</text>
<polygon fill="#666666" stroke="#666666" points="38,-32 38,-32 193,-32 193,-32 38,-32"/>
<polygon fill="#666666" stroke="#666666" points="38,-17 38,-17 82,-17 82,-17 38,-17"/>
<polygon fill="#666666" stroke="#666666" points="82,-17 82,-17 193,-17 193,-17 82,-17"/>
<polygon fill="none" stroke="#666666" points="37.5,0 37.5,-60 192.5,-60 192.5,0 37.5,0"/>
</a>
</g>
</g>
<!-- Node2 -->
<g id="Node000002" class="node">
<title>Node2</title>
<g id="a_Node000002"><a xlink:title=" ">
<polygon fill="white" stroke="transparent" points="130,-156 0,-156 0,-107 130,-107 130,-156"/>
<text text-anchor="start" x="5" y="-143.5" font-family="Helvetica,sans-Serif" font-size="10.00">generics::CreateAPIView</text>
<text text-anchor="start" x="63" y="-128.5" font-family="Helvetica,sans-Serif" font-size="10.00"> </text>
<text text-anchor="start" x="63" y="-113.5" font-family="Helvetica,sans-Serif" font-size="10.00"> </text>
<polygon fill="#666666" stroke="#666666" points="0,-138.5 0,-138.5 130,-138.5 130,-138.5 0,-138.5"/>
<polygon fill="#666666" stroke="#666666" points="0,-123.5 0,-123.5 130,-123.5 130,-123.5 0,-123.5"/>
<polygon fill="none" stroke="#666666" points="0,-107 0,-156 130,-156 130,-107 0,-107"/>
</a>
</g>
</g>
<!-- Node2&#45;&gt;Node1 -->
<g id="edge3_Node000001_Node000002" class="edge">
<title>Node2&#45;&gt;Node1</title>
<g id="a_edge3_Node000001_Node000002"><a xlink:title=" ">
<path fill="none" stroke="#63b8ff" d="M81.36,-97.95C87.49,-85.75 94.41,-71.97 100.38,-60.1"/>
<polygon fill="none" stroke="#63b8ff" points="78.21,-96.41 76.85,-106.92 84.47,-99.56 78.21,-96.41"/>
</a>
</g>
</g>
<!-- Node3 -->
<g id="Node000003" class="node">
<title>Node3</title>
<g id="a_Node000003"><a xlink:title=" ">
<polygon fill="white" stroke="transparent" points="183.5,-156 148.5,-156 148.5,-107 183.5,-107 183.5,-156"/>
<text text-anchor="start" x="154" y="-143.5" font-family="Helvetica,sans-Serif" font-size="10.00">tuple</text>
<text text-anchor="start" x="164.5" y="-128.5" font-family="Helvetica,sans-Serif" font-size="10.00"> </text>
<text text-anchor="start" x="164.5" y="-113.5" font-family="Helvetica,sans-Serif" font-size="10.00"> </text>
<polygon fill="#666666" stroke="#666666" points="149,-138.5 149,-138.5 184,-138.5 184,-138.5 149,-138.5"/>
<polygon fill="#666666" stroke="#666666" points="149,-123.5 149,-123.5 184,-123.5 184,-123.5 149,-123.5"/>
<polygon fill="none" stroke="#666666" points="148.5,-107 148.5,-156 183.5,-156 183.5,-107 148.5,-107"/>
</a>
</g>
</g>
<!-- Node3&#45;&gt;Node1 -->
<g id="edge4_Node000001_Node000003" class="edge">
<title>Node3&#45;&gt;Node1</title>
<g id="a_edge4_Node000001_Node000003"><a xlink:title=" ">
<path fill="none" stroke="#63b8ff" d="M153.91,-106.92C148.41,-96.18 141.74,-83.18 135.49,-70.98"/>
<polygon fill="none" stroke="#63b8ff" points="135.39,-70.78 129.09,-67.27 129.92,-60.1 136.21,-63.62 135.39,-70.78"/>
</a>
</g>
<text text-anchor="middle" x="196.5" y="-81" font-family="Helvetica,sans-Serif" font-size="10.00" fill="grey"> +permission_classes</text>
</g>
</g>
</svg>
