<?xml version="1.0" encoding="UTF-8" standalone="no"?>
<!DOCTYPE svg PUBLIC "-//W3C//DTD SVG 1.1//EN"
 "http://www.w3.org/Graphics/SVG/1.1/DTD/svg11.dtd">
<!-- Generated by graphviz version 2.43.0 (0)
 -->
<!-- Title: exchange.views.CommentRetrieveView Pages: 1 -->
<svg width="214pt" height="172pt"
 viewBox="0.00 0.00 214.00 172.00" xmlns="http://www.w3.org/2000/svg" xmlns:xlink="http://www.w3.org/1999/xlink">
<g id="graph0" class="graph" transform="scale(1 1) rotate(0) translate(4 168)">
<title>exchange.views.CommentRetrieveView</title>
<!-- Node1 -->
<g id="Node000001" class="node">
<title>Node1</title>
<g id="a_Node000001"><a xlink:title=" ">
<polygon fill="#999999" stroke="transparent" points="206,-79 0,-79 0,0 206,0 206,-79"/>
<text text-anchor="start" x="5" y="-66.5" font-family="Helvetica,sans-Serif" font-size="10.00">exchange.views.CommentRetrieveView</text>
<text text-anchor="start" x="26" y="-51.5" font-family="Helvetica,sans-Serif" font-size="10.00">+</text>
<text text-anchor="start" x="61" y="-51.5" font-family="Helvetica,sans-Serif" font-size="10.00">queryset</text>
<text text-anchor="start" x="26" y="-36.5" font-family="Helvetica,sans-Serif" font-size="10.00">+</text>
<text text-anchor="start" x="61" y="-36.5" font-family="Helvetica,sans-Serif" font-size="10.00">permission_classes</text>
<text text-anchor="start" x="26" y="-21.5" font-family="Helvetica,sans-Serif" font-size="10.00">+</text>
<text text-anchor="start" x="61" y="-21.5" font-family="Helvetica,sans-Serif" font-size="10.00">serializer_class</text>
<text text-anchor="start" x="101" y="-6.5" font-family="Helvetica,sans-Serif" font-size="10.00"> </text>
<polygon fill="#666666" stroke="#666666" points="0,-61.5 0,-61.5 206,-61.5 206,-61.5 0,-61.5"/>
<polygon fill="#666666" stroke="#666666" points="0,-16.5 0,-16.5 59,-16.5 59,-16.5 0,-16.5"/>
<polygon fill="#666666" stroke="#666666" points="59,-16.5 59,-16.5 206,-16.5 206,-16.5 59,-16.5"/>
<polygon fill="none" stroke="#666666" points="0,0 0,-79 206,-79 206,0 0,0"/>
</a>
</g>
</g>
<!-- Node2 -->
<g id="Node000002" class="node">
<title>Node2</title>
<g id="a_Node000002"><a xlink:title=" ">
<polygon fill="white" stroke="transparent" points="172.5,-164 33.5,-164 33.5,-115 172.5,-115 172.5,-164"/>
<text text-anchor="start" x="39" y="-151.5" font-family="Helvetica,sans-Serif" font-size="10.00">generics::RetrieveAPIView</text>
<text text-anchor="start" x="101.5" y="-136.5" font-family="Helvetica,sans-Serif" font-size="10.00"> </text>
<text text-anchor="start" x="101.5" y="-121.5" font-family="Helvetica,sans-Serif" font-size="10.00"> </text>
<polygon fill="#666666" stroke="#666666" points="34,-146.5 34,-146.5 173,-146.5 173,-146.5 34,-146.5"/>
<polygon fill="#666666" stroke="#666666" points="34,-131.5 34,-131.5 173,-131.5 173,-131.5 34,-131.5"/>
<polygon fill="none" stroke="#666666" points="33.5,-115 33.5,-164 172.5,-164 172.5,-115 33.5,-115"/>
</a>
</g>
</g>
<!-- Node2&#45;&gt;Node1 -->
<g id="edge2_Node000001_Node000002" class="edge">
<title>Node2&#45;&gt;Node1</title>
<g id="a_edge2_Node000001_Node000002"><a xlink:title=" ">
<path fill="none" stroke="#63b8ff" d="M103,-104.52C103,-96.38 103,-87.63 103,-79.29"/>
<polygon fill="none" stroke="#63b8ff" points="99.5,-104.78 103,-114.78 106.5,-104.78 99.5,-104.78"/>
</a>
</g>
</g>
</g>
</svg>
