<?xml version="1.0" encoding="UTF-8" standalone="no"?>
<!DOCTYPE svg PUBLIC "-//W3C//DTD SVG 1.1//EN"
 "http://www.w3.org/Graphics/SVG/1.1/DTD/svg11.dtd">
<!-- Generated by graphviz version 2.43.0 (0)
 -->
<!-- Title: grade.serializer.MarkSerializer.Meta Pages: 1 -->
<svg width="194pt" height="153pt"
 viewBox="0.00 0.00 194.00 153.00" xmlns="http://www.w3.org/2000/svg" xmlns:xlink="http://www.w3.org/1999/xlink">
<g id="graph0" class="graph" transform="scale(1 1) rotate(0) translate(4 149)">
<title>grade.serializer.MarkSerializer.Meta</title>
<!-- Node1 -->
<g id="Node000001" class="node">
<title>Node1</title>
<g id="a_Node000001"><a xlink:title=" ">
<polygon fill="#999999" stroke="transparent" points="186,-49 0,-49 0,0 186,0 186,-49"/>
<text text-anchor="start" x="5" y="-36.5" font-family="Helvetica,sans-Serif" font-size="10.00">grade.serializer.MarkSerializer.Meta</text>
<text text-anchor="start" x="37.5" y="-21.5" font-family="Helvetica,sans-Serif" font-size="10.00">+</text>
<text text-anchor="start" x="84" y="-21.5" font-family="Helvetica,sans-Serif" font-size="10.00">model</text>
<text text-anchor="start" x="91" y="-6.5" font-family="Helvetica,sans-Serif" font-size="10.00"> </text>
<polygon fill="#666666" stroke="#666666" points="0,-31.5 0,-31.5 186,-31.5 186,-31.5 0,-31.5"/>
<polygon fill="#666666" stroke="#666666" points="0,-16.5 0,-16.5 82,-16.5 82,-16.5 0,-16.5"/>
<polygon fill="#666666" stroke="#666666" points="82,-16.5 82,-16.5 186,-16.5 186,-16.5 82,-16.5"/>
<polygon fill="none" stroke="#666666" points="0,0 0,-49 186,-49 186,0 0,0"/>
</a>
</g>
</g>
<!-- Node2 -->
<g id="Node000002" class="node">
<title>Node2</title>
<g id="a_Node000002"><a xlink:title=" ">
<polygon fill="white" stroke="transparent" points="106,-145 80,-145 80,-96 106,-96 106,-145"/>
<text text-anchor="start" x="85" y="-132.5" font-family="Helvetica,sans-Serif" font-size="10.00">list</text>
<text text-anchor="start" x="91" y="-117.5" font-family="Helvetica,sans-Serif" font-size="10.00"> </text>
<text text-anchor="start" x="91" y="-102.5" font-family="Helvetica,sans-Serif" font-size="10.00"> </text>
<polygon fill="#666666" stroke="#666666" points="80,-127.5 80,-127.5 106,-127.5 106,-127.5 80,-127.5"/>
<polygon fill="#666666" stroke="#666666" points="80,-112.5 80,-112.5 106,-112.5 106,-112.5 80,-112.5"/>
<polygon fill="none" stroke="#666666" points="80,-96 80,-145 106,-145 106,-96 80,-96"/>
</a>
</g>
</g>
<!-- Node2&#45;&gt;Node1 -->
<g id="edge2_Node000001_Node000002" class="edge">
<title>Node2&#45;&gt;Node1</title>
<g id="a_edge2_Node000001_Node000002"><a xlink:title=" ">
<path fill="none" stroke="#63b8ff" d="M93,-95.78C93,-85.32 93,-72.79 93,-61.23"/>
<polygon fill="none" stroke="#63b8ff" points="93,-61.21 89,-55.21 93,-49.21 97,-55.21 93,-61.21"/>
</a>
</g>
<text text-anchor="middle" x="112" y="-70" font-family="Helvetica,sans-Serif" font-size="10.00" fill="grey"> +fields</text>
</g>
</g>
</svg>
