<?xml version="1.0" encoding="UTF-8" standalone="no"?>
<!DOCTYPE svg PUBLIC "-//W3C//DTD SVG 1.1//EN"
 "http://www.w3.org/Graphics/SVG/1.1/DTD/svg11.dtd">
<!-- Generated by graphviz version 2.43.0 (0)
 -->
<!-- Title: grade.views.MarkListView Pages: 1 -->
<svg width="244pt" height="168pt"
 viewBox="0.00 0.00 244.00 168.00" xmlns="http://www.w3.org/2000/svg" xmlns:xlink="http://www.w3.org/1999/xlink">
<g id="graph0" class="graph" transform="scale(1 1) rotate(0) translate(4 164)">
<title>grade.views.MarkListView</title>
<!-- Node1 -->
<g id="Node000001" class="node">
<title>Node1</title>
<g id="a_Node000001"><a xlink:title=" ">
<polygon fill="#999999" stroke="transparent" points="171.5,-64 32.5,-64 32.5,0 171.5,0 171.5,-64"/>
<text text-anchor="start" x="38" y="-52" font-family="Helvetica,sans-Serif" font-size="10.00">grade.views.MarkListView</text>
<text text-anchor="start" x="47.5" y="-37" font-family="Helvetica,sans-Serif" font-size="10.00">+</text>
<text text-anchor="start" x="71" y="-37" font-family="Helvetica,sans-Serif" font-size="10.00">queryset</text>
<text text-anchor="start" x="47.5" y="-22" font-family="Helvetica,sans-Serif" font-size="10.00">+</text>
<text text-anchor="start" x="71" y="-22" font-family="Helvetica,sans-Serif" font-size="10.00">serializer_class</text>
<text text-anchor="start" x="100.5" y="-7" font-family="Helvetica,sans-Serif" font-size="10.00"> </text>
<polygon fill="#666666" stroke="#666666" points="33,-47 33,-47 172,-47 172,-47 33,-47"/>
<polygon fill="#666666" stroke="#666666" points="33,-17 33,-17 69,-17 69,-17 33,-17"/>
<polygon fill="#666666" stroke="#666666" points="69,-17 69,-17 172,-17 172,-17 69,-17"/>
<polygon fill="none" stroke="#666666" points="32.5,0 32.5,-64 171.5,-64 171.5,0 32.5,0"/>
</a>
</g>
</g>
<!-- Node2 -->
<g id="Node000002" class="node">
<title>Node2</title>
<g id="a_Node000002"><a xlink:title=" ">
<polygon fill="white" stroke="transparent" points="112,-160 0,-160 0,-111 112,-111 112,-160"/>
<text text-anchor="start" x="5" y="-147.5" font-family="Helvetica,sans-Serif" font-size="10.00">generics.ListAPIView</text>
<text text-anchor="start" x="54" y="-132.5" font-family="Helvetica,sans-Serif" font-size="10.00"> </text>
<text text-anchor="start" x="54" y="-117.5" font-family="Helvetica,sans-Serif" font-size="10.00"> </text>
<polygon fill="#666666" stroke="#666666" points="0,-142.5 0,-142.5 112,-142.5 112,-142.5 0,-142.5"/>
<polygon fill="#666666" stroke="#666666" points="0,-127.5 0,-127.5 112,-127.5 112,-127.5 0,-127.5"/>
<polygon fill="none" stroke="#666666" points="0,-111 0,-160 112,-160 112,-111 0,-111"/>
</a>
</g>
</g>
<!-- Node2&#45;&gt;Node1 -->
<g id="edge3_Node000001_Node000002" class="edge">
<title>Node2&#45;&gt;Node1</title>
<g id="a_edge3_Node000001_Node000002"><a xlink:title=" ">
<path fill="none" stroke="#63b8ff" d="M70.87,-101.68C76.34,-89.62 82.51,-76.01 87.9,-64.11"/>
<polygon fill="none" stroke="#63b8ff" points="67.61,-100.41 66.67,-110.96 73.98,-103.3 67.61,-100.41"/>
</a>
</g>
</g>
<!-- Node3 -->
<g id="Node000003" class="node">
<title>Node3</title>
<g id="a_Node000003"><a xlink:title=" ">
<polygon fill="white" stroke="transparent" points="165.5,-160 130.5,-160 130.5,-111 165.5,-111 165.5,-160"/>
<text text-anchor="start" x="136" y="-147.5" font-family="Helvetica,sans-Serif" font-size="10.00">tuple</text>
<text text-anchor="start" x="146.5" y="-132.5" font-family="Helvetica,sans-Serif" font-size="10.00"> </text>
<text text-anchor="start" x="146.5" y="-117.5" font-family="Helvetica,sans-Serif" font-size="10.00"> </text>
<polygon fill="#666666" stroke="#666666" points="131,-142.5 131,-142.5 166,-142.5 166,-142.5 131,-142.5"/>
<polygon fill="#666666" stroke="#666666" points="131,-127.5 131,-127.5 166,-127.5 166,-127.5 131,-127.5"/>
<polygon fill="none" stroke="#666666" points="130.5,-111 130.5,-160 165.5,-160 165.5,-111 130.5,-111"/>
</a>
</g>
</g>
<!-- Node3&#45;&gt;Node1 -->
<g id="edge4_Node000001_Node000003" class="edge">
<title>Node3&#45;&gt;Node1</title>
<g id="a_edge4_Node000001_Node000003"><a xlink:title=" ">
<path fill="none" stroke="#63b8ff" d="M137.33,-110.96C132.49,-100.29 126.63,-87.34 121.07,-75.08"/>
<polygon fill="none" stroke="#63b8ff" points="121.05,-75.04 114.93,-71.22 116.1,-64.11 122.22,-67.92 121.05,-75.04"/>
</a>
</g>
<text text-anchor="middle" x="182.5" y="-85" font-family="Helvetica,sans-Serif" font-size="10.00" fill="grey"> +permission_classes</text>
</g>
</g>
</svg>
