<?xml version="1.0" encoding="UTF-8" standalone="no"?>
<!DOCTYPE svg PUBLIC "-//W3C//DTD SVG 1.1//EN"
 "http://www.w3.org/Graphics/SVG/1.1/DTD/svg11.dtd">
<!-- Generated by graphviz version 2.43.0 (0)
 -->
<!-- Title: attendance.migrations.0009_alter_studentattendance_student_and_more.Migration Pages: 1 -->
<svg width="164pt" height="179pt"
 viewBox="0.00 0.00 164.00 179.00" xmlns="http://www.w3.org/2000/svg" xmlns:xlink="http://www.w3.org/1999/xlink">
<g id="graph0" class="graph" transform="scale(1 1) rotate(0) translate(4 175)">
<title>attendance.migrations.0009_alter_studentattendance_student_and_more.Migration</title>
<!-- Node1 -->
<g id="Node000001" class="node">
<title>Node1</title>
<g id="a_Node000001"><a xlink:title=" ">
<polygon fill="#999999" stroke="transparent" points="156,-86 0,-86 0,0 156,0 156,-86"/>
<text text-anchor="start" x="5" y="-74" font-family="Helvetica,sans-Serif" font-size="10.00">attendance.migrations.0009</text>
<text text-anchor="start" x="5" y="-63" font-family="Helvetica,sans-Serif" font-size="10.00">_alter_studentattendance</text>
<text text-anchor="start" x="5" y="-52" font-family="Helvetica,sans-Serif" font-size="10.00">_student_and_more.Migration</text>
<text text-anchor="start" x="20.5" y="-37" font-family="Helvetica,sans-Serif" font-size="10.00">+</text>
<text text-anchor="start" x="50" y="-37" font-family="Helvetica,sans-Serif" font-size="10.00">dependencies</text>
<text text-anchor="start" x="20.5" y="-22" font-family="Helvetica,sans-Serif" font-size="10.00">+</text>
<text text-anchor="start" x="50" y="-22" font-family="Helvetica,sans-Serif" font-size="10.00">operations</text>
<text text-anchor="start" x="76" y="-7" font-family="Helvetica,sans-Serif" font-size="10.00"> </text>
<polygon fill="#666666" stroke="#666666" points="0,-47 0,-47 156,-47 156,-47 0,-47"/>
<polygon fill="#666666" stroke="#666666" points="0,-17 0,-17 48,-17 48,-17 0,-17"/>
<polygon fill="#666666" stroke="#666666" points="48,-17 48,-17 156,-17 156,-17 48,-17"/>
<polygon fill="none" stroke="#666666" points="0,0 0,-86 156,-86 156,0 0,0"/>
</a>
</g>
</g>
<!-- Node2 -->
<g id="Node000002" class="node">
<title>Node2</title>
<g id="a_Node000002"><a xlink:title=" ">
<polygon fill="white" stroke="transparent" points="134.5,-171 21.5,-171 21.5,-122 134.5,-122 134.5,-171"/>
<text text-anchor="start" x="27" y="-158.5" font-family="Helvetica,sans-Serif" font-size="10.00">migrations.Migration</text>
<text text-anchor="start" x="76.5" y="-143.5" font-family="Helvetica,sans-Serif" font-size="10.00"> </text>
<text text-anchor="start" x="76.5" y="-128.5" font-family="Helvetica,sans-Serif" font-size="10.00"> </text>
<polygon fill="#666666" stroke="#666666" points="22,-153.5 22,-153.5 135,-153.5 135,-153.5 22,-153.5"/>
<polygon fill="#666666" stroke="#666666" points="22,-138.5 22,-138.5 135,-138.5 135,-138.5 22,-138.5"/>
<polygon fill="none" stroke="#666666" points="21.5,-122 21.5,-171 134.5,-171 134.5,-122 21.5,-122"/>
</a>
</g>
</g>
<!-- Node2&#45;&gt;Node1 -->
<g id="edge2_Node000001_Node000002" class="edge">
<title>Node2&#45;&gt;Node1</title>
<g id="a_edge2_Node000001_Node000002"><a xlink:title=" ">
<path fill="none" stroke="#63b8ff" d="M78,-111.94C78,-103.68 78,-94.73 78,-86.13"/>
<polygon fill="none" stroke="#63b8ff" points="74.5,-111.96 78,-121.96 81.5,-111.96 74.5,-111.96"/>
</a>
</g>
</g>
</g>
</svg>
