<?xml version="1.0" encoding="UTF-8" standalone="no"?>
<!DOCTYPE svg PUBLIC "-//W3C//DTD SVG 1.1//EN"
 "http://www.w3.org/Graphics/SVG/1.1/DTD/svg11.dtd">
<!-- Generated by graphviz version 2.43.0 (0)
 -->
<!-- Title: user.views.RegisterView Pages: 1 -->
<svg width="211pt" height="153pt"
 viewBox="0.00 0.00 211.00 153.00" xmlns="http://www.w3.org/2000/svg" xmlns:xlink="http://www.w3.org/1999/xlink">
<g id="graph0" class="graph" transform="scale(1 1) rotate(0) translate(4 149)">
<title>user.views.RegisterView</title>
<!-- Node1 -->
<g id="Node000001" class="node">
<title>Node1</title>
<g id="a_Node000001"><a xlink:title=" ">
<polygon fill="#999999" stroke="transparent" points="142,-49 12,-49 12,0 142,0 142,-49"/>
<text text-anchor="start" x="17" y="-36.5" font-family="Helvetica,sans-Serif" font-size="10.00">user.views.RegisterView</text>
<text text-anchor="start" x="75" y="-21.5" font-family="Helvetica,sans-Serif" font-size="10.00"> </text>
<text text-anchor="start" x="36" y="-6.5" font-family="Helvetica,sans-Serif" font-size="10.00">+</text>
<text text-anchor="start" x="69" y="-6.5" font-family="Helvetica,sans-Serif" font-size="10.00">post()</text>
<polygon fill="#666666" stroke="#666666" points="12,-31.5 12,-31.5 142,-31.5 142,-31.5 12,-31.5"/>
<polygon fill="#666666" stroke="#666666" points="12,-16.5 12,-16.5 142,-16.5 142,-16.5 12,-16.5"/>
<polygon fill="none" stroke="#666666" points="12,0 12,-49 142,-49 142,0 12,0"/>
</a>
</g>
</g>
<!-- Node2 -->
<g id="Node000002" class="node">
<title>Node2</title>
<g id="a_Node000002"><a xlink:title=" ">
<polygon fill="white" stroke="transparent" points="82,-145 0,-145 0,-96 82,-96 82,-145"/>
<text text-anchor="start" x="5" y="-132.5" font-family="Helvetica,sans-Serif" font-size="10.00">views.APIView</text>
<text text-anchor="start" x="39" y="-117.5" font-family="Helvetica,sans-Serif" font-size="10.00"> </text>
<text text-anchor="start" x="39" y="-102.5" font-family="Helvetica,sans-Serif" font-size="10.00"> </text>
<polygon fill="#666666" stroke="#666666" points="0,-127.5 0,-127.5 82,-127.5 82,-127.5 0,-127.5"/>
<polygon fill="#666666" stroke="#666666" points="0,-112.5 0,-112.5 82,-112.5 82,-112.5 0,-112.5"/>
<polygon fill="none" stroke="#666666" points="0,-96 0,-145 82,-145 82,-96 0,-96"/>
</a>
</g>
</g>
<!-- Node2&#45;&gt;Node1 -->
<g id="edge3_Node000001_Node000002" class="edge">
<title>Node2&#45;&gt;Node1</title>
<g id="a_edge3_Node000001_Node000002"><a xlink:title=" ">
<path fill="none" stroke="#63b8ff" d="M53.71,-86.32C58.4,-74.08 63.61,-60.46 67.92,-49.21"/>
<polygon fill="none" stroke="#63b8ff" points="50.39,-85.19 50.08,-95.78 56.93,-87.69 50.39,-85.19"/>
</a>
</g>
</g>
<!-- Node3 -->
<g id="Node000003" class="node">
<title>Node3</title>
<g id="a_Node000003"><a xlink:title=" ">
<polygon fill="white" stroke="transparent" points="126,-145 100,-145 100,-96 126,-96 126,-145"/>
<text text-anchor="start" x="105" y="-132.5" font-family="Helvetica,sans-Serif" font-size="10.00">list</text>
<text text-anchor="start" x="111" y="-117.5" font-family="Helvetica,sans-Serif" font-size="10.00"> </text>
<text text-anchor="start" x="111" y="-102.5" font-family="Helvetica,sans-Serif" font-size="10.00"> </text>
<polygon fill="#666666" stroke="#666666" points="100,-127.5 100,-127.5 126,-127.5 126,-127.5 100,-127.5"/>
<polygon fill="#666666" stroke="#666666" points="100,-112.5 100,-112.5 126,-112.5 126,-112.5 100,-112.5"/>
<polygon fill="none" stroke="#666666" points="100,-96 100,-145 126,-145 126,-96 100,-96"/>
</a>
</g>
</g>
<!-- Node3&#45;&gt;Node1 -->
<g id="edge4_Node000001_Node000003" class="edge">
<title>Node3&#45;&gt;Node1</title>
<g id="a_edge4_Node000001_Node000003"><a xlink:title=" ">
<path fill="none" stroke="#63b8ff" d="M103.92,-95.78C99.82,-85.09 94.91,-72.26 90.4,-60.5"/>
<polygon fill="none" stroke="#63b8ff" points="90.37,-60.42 84.49,-56.25 86.08,-49.21 91.96,-53.39 90.37,-60.42"/>
</a>
</g>
<text text-anchor="middle" x="149.5" y="-70" font-family="Helvetica,sans-Serif" font-size="10.00" fill="grey"> +permission_classes</text>
</g>
</g>
</svg>
