<?xml version="1.0" encoding="UTF-8" standalone="no"?>
<!DOCTYPE svg PUBLIC "-//W3C//DTD SVG 1.1//EN"
 "http://www.w3.org/Graphics/SVG/1.1/DTD/svg11.dtd">
<!-- Generated by graphviz version 2.43.0 (0)
 -->
<!-- Title: assignment.views.AssignmentMarkCreate Pages: 1 -->
<svg width="216pt" height="164pt"
 viewBox="0.00 0.00 216.00 164.00" xmlns="http://www.w3.org/2000/svg" xmlns:xlink="http://www.w3.org/1999/xlink">
<g id="graph0" class="graph" transform="scale(1 1) rotate(0) translate(4 160)">
<title>assignment.views.AssignmentMarkCreate</title>
<!-- Node1 -->
<g id="Node000001" class="node">
<title>Node1</title>
<g id="a_Node000001"><a xlink:title=" ">
<polygon fill="#999999" stroke="transparent" points="160,-60 0,-60 0,0 160,0 160,-60"/>
<text text-anchor="start" x="5" y="-48" font-family="Helvetica,sans-Serif" font-size="10.00">assignment.views.Assignment</text>
<text text-anchor="start" x="51" y="-37" font-family="Helvetica,sans-Serif" font-size="10.00">MarkCreate</text>
<text text-anchor="start" x="78" y="-22" font-family="Helvetica,sans-Serif" font-size="10.00"> </text>
<text text-anchor="start" x="31.5" y="-7" font-family="Helvetica,sans-Serif" font-size="10.00">+</text>
<text text-anchor="start" x="72" y="-7" font-family="Helvetica,sans-Serif" font-size="10.00">post()</text>
<polygon fill="#666666" stroke="#666666" points="0,-32 0,-32 160,-32 160,-32 0,-32"/>
<polygon fill="#666666" stroke="#666666" points="0,-17 0,-17 160,-17 160,-17 0,-17"/>
<polygon fill="none" stroke="#666666" points="0,0 0,-60 160,-60 160,0 0,0"/>
</a>
</g>
</g>
<!-- Node2 -->
<g id="Node000002" class="node">
<title>Node2</title>
<g id="a_Node000002"><a xlink:title=" ">
<polygon fill="white" stroke="transparent" points="83,-156 1,-156 1,-107 83,-107 83,-156"/>
<text text-anchor="start" x="6" y="-143.5" font-family="Helvetica,sans-Serif" font-size="10.00">views.APIView</text>
<text text-anchor="start" x="40" y="-128.5" font-family="Helvetica,sans-Serif" font-size="10.00"> </text>
<text text-anchor="start" x="40" y="-113.5" font-family="Helvetica,sans-Serif" font-size="10.00"> </text>
<polygon fill="#666666" stroke="#666666" points="1,-138.5 1,-138.5 83,-138.5 83,-138.5 1,-138.5"/>
<polygon fill="#666666" stroke="#666666" points="1,-123.5 1,-123.5 83,-123.5 83,-123.5 1,-123.5"/>
<polygon fill="none" stroke="#666666" points="1,-107 1,-156 83,-156 83,-107 1,-107"/>
</a>
</g>
</g>
<!-- Node2&#45;&gt;Node1 -->
<g id="edge3_Node000001_Node000002" class="edge">
<title>Node2&#45;&gt;Node1</title>
<g id="a_edge3_Node000001_Node000002"><a xlink:title=" ">
<path fill="none" stroke="#63b8ff" d="M54.7,-97.23C59.3,-85.21 64.44,-71.74 68.89,-60.1"/>
<polygon fill="none" stroke="#63b8ff" points="51.3,-96.33 51.01,-106.92 57.84,-98.83 51.3,-96.33"/>
</a>
</g>
</g>
<!-- Node3 -->
<g id="Node000003" class="node">
<title>Node3</title>
<g id="a_Node000003"><a xlink:title=" ">
<polygon fill="white" stroke="transparent" points="136.5,-156 101.5,-156 101.5,-107 136.5,-107 136.5,-156"/>
<text text-anchor="start" x="107" y="-143.5" font-family="Helvetica,sans-Serif" font-size="10.00">tuple</text>
<text text-anchor="start" x="117.5" y="-128.5" font-family="Helvetica,sans-Serif" font-size="10.00"> </text>
<text text-anchor="start" x="117.5" y="-113.5" font-family="Helvetica,sans-Serif" font-size="10.00"> </text>
<polygon fill="#666666" stroke="#666666" points="102,-138.5 102,-138.5 137,-138.5 137,-138.5 102,-138.5"/>
<polygon fill="#666666" stroke="#666666" points="102,-123.5 102,-123.5 137,-123.5 137,-123.5 102,-123.5"/>
<polygon fill="none" stroke="#666666" points="101.5,-107 101.5,-156 136.5,-156 136.5,-107 101.5,-107"/>
</a>
</g>
</g>
<!-- Node3&#45;&gt;Node1 -->
<g id="edge4_Node000001_Node000003" class="edge">
<title>Node3&#45;&gt;Node1</title>
<g id="a_edge4_Node000001_Node000003"><a xlink:title=" ">
<path fill="none" stroke="#63b8ff" d="M109.76,-106.92C105.59,-96.29 100.55,-83.44 95.82,-71.36"/>
<polygon fill="none" stroke="#63b8ff" points="95.79,-71.27 89.87,-67.15 91.41,-60.1 97.32,-64.23 95.79,-71.27"/>
</a>
</g>
<text text-anchor="middle" x="154.5" y="-81" font-family="Helvetica,sans-Serif" font-size="10.00" fill="grey"> +permission_classes</text>
</g>
</g>
</svg>
