<?xml version="1.0" encoding="UTF-8" standalone="no"?>
<!DOCTYPE svg PUBLIC "-//W3C//DTD SVG 1.1//EN"
 "http://www.w3.org/Graphics/SVG/1.1/DTD/svg11.dtd">
<!-- Generated by graphviz version 2.43.0 (0)
 -->
<!-- Title: chat.views.CreateRoomView Pages: 1 -->
<svg width="159pt" height="142pt"
 viewBox="0.00 0.00 159.00 142.00" xmlns="http://www.w3.org/2000/svg" xmlns:xlink="http://www.w3.org/1999/xlink">
<g id="graph0" class="graph" transform="scale(1 1) rotate(0) translate(4 138)">
<title>chat.views.CreateRoomView</title>
<!-- Node1 -->
<g id="Node000001" class="node">
<title>Node1</title>
<g id="a_Node000001"><a xlink:title=" ">
<polygon fill="#999999" stroke="transparent" points="151,-49 0,-49 0,0 151,0 151,-49"/>
<text text-anchor="start" x="5.5" y="-36.5" font-family="Helvetica,sans-Serif" font-size="10.00">chat.views.CreateRoomView</text>
<text text-anchor="start" x="13" y="-21.5" font-family="Helvetica,sans-Serif" font-size="10.00">+</text>
<text text-anchor="start" x="34.5" y="-21.5" font-family="Helvetica,sans-Serif" font-size="10.00">permission_classes</text>
<text text-anchor="start" x="13" y="-6.5" font-family="Helvetica,sans-Serif" font-size="10.00">+</text>
<text text-anchor="start" x="34.5" y="-6.5" font-family="Helvetica,sans-Serif" font-size="10.00">post()</text>
<polygon fill="#666666" stroke="#666666" points="0.5,-31.5 0.5,-31.5 151.5,-31.5 151.5,-31.5 0.5,-31.5"/>
<polygon fill="#666666" stroke="#666666" points="0.5,-16.5 0.5,-16.5 32.5,-16.5 32.5,-16.5 0.5,-16.5"/>
<polygon fill="#666666" stroke="#666666" points="32.5,-16.5 32.5,-16.5 151.5,-16.5 151.5,-16.5 32.5,-16.5"/>
<polygon fill="none" stroke="#666666" points="0,0 0,-49 151,-49 151,0 0,0"/>
</a>
</g>
</g>
<!-- Node2 -->
<g id="Node000002" class="node">
<title>Node2</title>
<g id="a_Node000002"><a xlink:title=" ">
<polygon fill="white" stroke="transparent" points="139,-134 12,-134 12,-85 139,-85 139,-134"/>
<text text-anchor="start" x="17.5" y="-121.5" font-family="Helvetica,sans-Serif" font-size="10.00">generics.CreateAPIView</text>
<text text-anchor="start" x="74" y="-106.5" font-family="Helvetica,sans-Serif" font-size="10.00"> </text>
<text text-anchor="start" x="74" y="-91.5" font-family="Helvetica,sans-Serif" font-size="10.00"> </text>
<polygon fill="#666666" stroke="#666666" points="12.5,-116.5 12.5,-116.5 139.5,-116.5 139.5,-116.5 12.5,-116.5"/>
<polygon fill="#666666" stroke="#666666" points="12.5,-101.5 12.5,-101.5 139.5,-101.5 139.5,-101.5 12.5,-101.5"/>
<polygon fill="none" stroke="#666666" points="12,-85 12,-134 139,-134 139,-85 12,-85"/>
</a>
</g>
</g>
<!-- Node2&#45;&gt;Node1 -->
<g id="edge2_Node000001_Node000002" class="edge">
<title>Node2&#45;&gt;Node1</title>
<g id="a_edge2_Node000001_Node000002"><a xlink:title=" ">
<path fill="none" stroke="#63b8ff" d="M75.5,-74.77C75.5,-66.17 75.5,-57.1 75.5,-49.12"/>
<polygon fill="none" stroke="#63b8ff" points="72,-74.94 75.5,-84.94 79,-74.94 72,-74.94"/>
</a>
</g>
</g>
</g>
</svg>
