<?xml version="1.0" encoding="UTF-8" standalone="no"?>
<!DOCTYPE svg PUBLIC "-//W3C//DTD SVG 1.1//EN"
 "http://www.w3.org/Graphics/SVG/1.1/DTD/svg11.dtd">
<!-- Generated by graphviz version 2.43.0 (0)
 -->
<!-- Title: user.models.Subject Pages: 1 -->
<svg width="117pt" height="142pt"
 viewBox="0.00 0.00 117.00 142.00" xmlns="http://www.w3.org/2000/svg" xmlns:xlink="http://www.w3.org/1999/xlink">
<g id="graph0" class="graph" transform="scale(1 1) rotate(0) translate(4 138)">
<title>user.models.Subject</title>
<!-- Node1 -->
<g id="Node000001" class="node">
<title>Node1</title>
<g id="a_Node000001"><a xlink:title=" ">
<polygon fill="#999999" stroke="transparent" points="109,-49 0,-49 0,0 109,0 109,-49"/>
<text text-anchor="start" x="5.5" y="-36.5" font-family="Helvetica,sans-Serif" font-size="10.00">user.models.Subject</text>
<text text-anchor="start" x="19.5" y="-21.5" font-family="Helvetica,sans-Serif" font-size="10.00">+</text>
<text text-anchor="start" x="47.5" y="-21.5" font-family="Helvetica,sans-Serif" font-size="10.00">name</text>
<text text-anchor="start" x="53" y="-6.5" font-family="Helvetica,sans-Serif" font-size="10.00"> </text>
<polygon fill="#666666" stroke="#666666" points="0.5,-31.5 0.5,-31.5 109.5,-31.5 109.5,-31.5 0.5,-31.5"/>
<polygon fill="#666666" stroke="#666666" points="0.5,-16.5 0.5,-16.5 45.5,-16.5 45.5,-16.5 0.5,-16.5"/>
<polygon fill="#666666" stroke="#666666" points="45.5,-16.5 45.5,-16.5 109.5,-16.5 109.5,-16.5 45.5,-16.5"/>
<polygon fill="none" stroke="#666666" points="0,0 0,-49 109,-49 109,0 0,0"/>
</a>
</g>
</g>
<!-- Node2 -->
<g id="Node000002" class="node">
<title>Node2</title>
<g id="a_Node000002"><a xlink:title=" ">
<polygon fill="white" stroke="transparent" points="94.5,-134 14.5,-134 14.5,-85 94.5,-85 94.5,-134"/>
<text text-anchor="start" x="19.5" y="-121.5" font-family="Helvetica,sans-Serif" font-size="10.00">models.Model</text>
<text text-anchor="start" x="52.5" y="-106.5" font-family="Helvetica,sans-Serif" font-size="10.00"> </text>
<text text-anchor="start" x="52.5" y="-91.5" font-family="Helvetica,sans-Serif" font-size="10.00"> </text>
<polygon fill="#666666" stroke="#666666" points="14.5,-116.5 14.5,-116.5 94.5,-116.5 94.5,-116.5 14.5,-116.5"/>
<polygon fill="#666666" stroke="#666666" points="14.5,-101.5 14.5,-101.5 94.5,-101.5 94.5,-101.5 14.5,-101.5"/>
<polygon fill="none" stroke="#666666" points="14.5,-85 14.5,-134 94.5,-134 94.5,-85 14.5,-85"/>
</a>
</g>
</g>
<!-- Node2&#45;&gt;Node1 -->
<g id="edge2_Node000001_Node000002" class="edge">
<title>Node2&#45;&gt;Node1</title>
<g id="a_edge2_Node000001_Node000002"><a xlink:title=" ">
<path fill="none" stroke="#63b8ff" d="M54.5,-74.77C54.5,-66.17 54.5,-57.1 54.5,-49.12"/>
<polygon fill="none" stroke="#63b8ff" points="51,-74.94 54.5,-84.94 58,-74.94 51,-74.94"/>
</a>
</g>
</g>
</g>
</svg>
