<?xml version="1.0" encoding="UTF-8" standalone="no"?>
<!DOCTYPE svg PUBLIC "-//W3C//DTD SVG 1.1//EN"
 "http://www.w3.org/Graphics/SVG/1.1/DTD/svg11.dtd">
<!-- Generated by graphviz version 2.43.0 (0)
 -->
<!-- Title: exam.models.Exam.Meta Pages: 1 -->
<svg width="144pt" height="153pt"
 viewBox="0.00 0.00 144.00 153.00" xmlns="http://www.w3.org/2000/svg" xmlns:xlink="http://www.w3.org/1999/xlink">
<g id="graph0" class="graph" transform="scale(1 1) rotate(0) translate(4 149)">
<title>exam.models.Exam.Meta</title>
<!-- Node1 -->
<g id="Node000001" class="node">
<title>Node1</title>
<g id="a_Node000001"><a xlink:title=" ">
<polygon fill="#999999" stroke="transparent" points="136,-49 0,-49 0,0 136,0 136,-49"/>
<text text-anchor="start" x="5" y="-36.5" font-family="Helvetica,sans-Serif" font-size="10.00">exam.models.Exam.Meta</text>
<text text-anchor="start" x="66" y="-21.5" font-family="Helvetica,sans-Serif" font-size="10.00"> </text>
<text text-anchor="start" x="66" y="-6.5" font-family="Helvetica,sans-Serif" font-size="10.00"> </text>
<polygon fill="#666666" stroke="#666666" points="0,-31.5 0,-31.5 136,-31.5 136,-31.5 0,-31.5"/>
<polygon fill="#666666" stroke="#666666" points="0,-16.5 0,-16.5 136,-16.5 136,-16.5 0,-16.5"/>
<polygon fill="none" stroke="#666666" points="0,0 0,-49 136,-49 136,0 0,0"/>
</a>
</g>
</g>
<!-- Node2 -->
<g id="Node000002" class="node">
<title>Node2</title>
<g id="a_Node000002"><a xlink:title=" ">
<polygon fill="white" stroke="transparent" points="79.5,-145 56.5,-145 56.5,-96 79.5,-96 79.5,-145"/>
<text text-anchor="start" x="62" y="-132.5" font-family="Helvetica,sans-Serif" font-size="10.00">str</text>
<text text-anchor="start" x="66.5" y="-117.5" font-family="Helvetica,sans-Serif" font-size="10.00"> </text>
<text text-anchor="start" x="66.5" y="-102.5" font-family="Helvetica,sans-Serif" font-size="10.00"> </text>
<polygon fill="#666666" stroke="#666666" points="57,-127.5 57,-127.5 80,-127.5 80,-127.5 57,-127.5"/>
<polygon fill="#666666" stroke="#666666" points="57,-112.5 57,-112.5 80,-112.5 80,-112.5 57,-112.5"/>
<polygon fill="none" stroke="#666666" points="56.5,-96 56.5,-145 79.5,-145 79.5,-96 56.5,-96"/>
</a>
</g>
</g>
<!-- Node2&#45;&gt;Node1 -->
<g id="edge2_Node000001_Node000002" class="edge">
<title>Node2&#45;&gt;Node1</title>
<g id="a_edge2_Node000001_Node000002"><a xlink:title=" ">
<path fill="none" stroke="#63b8ff" d="M68,-95.78C68,-85.32 68,-72.79 68,-61.23"/>
<polygon fill="none" stroke="#63b8ff" points="68,-61.21 64,-55.21 68,-49.21 72,-55.21 68,-61.21"/>
</a>
</g>
<text text-anchor="middle" x="95" y="-70" font-family="Helvetica,sans-Serif" font-size="10.00" fill="grey"> +db_table</text>
</g>
</g>
</svg>
