<?xml version="1.0" encoding="UTF-8" standalone="no"?>
<!DOCTYPE svg PUBLIC "-//W3C//DTD SVG 1.1//EN"
 "http://www.w3.org/Graphics/SVG/1.1/DTD/svg11.dtd">
<!-- Generated by graphviz version 2.43.0 (0)
 -->
<!-- Title: payment.apps.PaymentConfig Pages: 1 -->
<svg width="204pt" height="164pt"
 viewBox="0.00 0.00 203.50 164.00" xmlns="http://www.w3.org/2000/svg" xmlns:xlink="http://www.w3.org/1999/xlink">
<g id="graph0" class="graph" transform="scale(1 1) rotate(0) translate(4 160)">
<title>payment.apps.PaymentConfig</title>
<!-- Node1 -->
<g id="Node000001" class="node">
<title>Node1</title>
<g id="a_Node000001"><a xlink:title=" ">
<polygon fill="#999999" stroke="transparent" points="157,-49 0,-49 0,0 157,0 157,-49"/>
<text text-anchor="start" x="5.5" y="-36.5" font-family="Helvetica,sans-Serif" font-size="10.00">payment.apps.PaymentConfig</text>
<text text-anchor="start" x="77" y="-21.5" font-family="Helvetica,sans-Serif" font-size="10.00"> </text>
<text text-anchor="start" x="77" y="-6.5" font-family="Helvetica,sans-Serif" font-size="10.00"> </text>
<polygon fill="#666666" stroke="#666666" points="0.5,-31.5 0.5,-31.5 157.5,-31.5 157.5,-31.5 0.5,-31.5"/>
<polygon fill="#666666" stroke="#666666" points="0.5,-16.5 0.5,-16.5 157.5,-16.5 157.5,-16.5 0.5,-16.5"/>
<polygon fill="none" stroke="#666666" points="0,0 0,-49 157,-49 157,0 0,0"/>
</a>
</g>
</g>
<!-- Node2 -->
<g id="Node000002" class="node">
<title>Node2</title>
<g id="a_Node000002"><a xlink:title=" ">
<polygon fill="white" stroke="transparent" points="78.5,-156 18.5,-156 18.5,-107 78.5,-107 78.5,-156"/>
<text text-anchor="start" x="23.5" y="-143.5" font-family="Helvetica,sans-Serif" font-size="10.00">AppConfig</text>
<text text-anchor="start" x="46.5" y="-128.5" font-family="Helvetica,sans-Serif" font-size="10.00"> </text>
<text text-anchor="start" x="46.5" y="-113.5" font-family="Helvetica,sans-Serif" font-size="10.00"> </text>
<polygon fill="#666666" stroke="#666666" points="18.5,-138.5 18.5,-138.5 78.5,-138.5 78.5,-138.5 18.5,-138.5"/>
<polygon fill="#666666" stroke="#666666" points="18.5,-123.5 18.5,-123.5 78.5,-123.5 78.5,-123.5 18.5,-123.5"/>
<polygon fill="none" stroke="#666666" points="18.5,-107 18.5,-156 78.5,-156 78.5,-107 18.5,-107"/>
</a>
</g>
</g>
<!-- Node2&#45;&gt;Node1 -->
<g id="edge3_Node000001_Node000002" class="edge">
<title>Node2&#45;&gt;Node1</title>
<g id="a_edge3_Node000001_Node000002"><a xlink:title=" ">
<path fill="none" stroke="#63b8ff" d="M58.02,-97.17C62.46,-81.63 67.65,-63.49 71.69,-49.35"/>
<polygon fill="none" stroke="#63b8ff" points="54.61,-96.36 55.23,-106.94 61.35,-98.28 54.61,-96.36"/>
</a>
</g>
</g>
<!-- Node3 -->
<g id="Node000003" class="node">
<title>Node3</title>
<g id="a_Node000003"><a xlink:title=" ">
<polygon fill="white" stroke="transparent" points="120,-156 97,-156 97,-107 120,-107 120,-156"/>
<text text-anchor="start" x="102.5" y="-143.5" font-family="Helvetica,sans-Serif" font-size="10.00">str</text>
<text text-anchor="start" x="107" y="-128.5" font-family="Helvetica,sans-Serif" font-size="10.00"> </text>
<text text-anchor="start" x="107" y="-113.5" font-family="Helvetica,sans-Serif" font-size="10.00"> </text>
<polygon fill="#666666" stroke="#666666" points="97.5,-138.5 97.5,-138.5 120.5,-138.5 120.5,-138.5 97.5,-138.5"/>
<polygon fill="#666666" stroke="#666666" points="97.5,-123.5 97.5,-123.5 120.5,-123.5 120.5,-123.5 97.5,-123.5"/>
<polygon fill="none" stroke="#666666" points="97,-107 97,-156 120,-156 120,-107 97,-107"/>
</a>
</g>
</g>
<!-- Node3&#45;&gt;Node1 -->
<g id="edge4_Node000001_Node000003" class="edge">
<title>Node3&#45;&gt;Node1</title>
<g id="a_edge4_Node000001_Node000003"><a xlink:title=" ">
<path fill="none" stroke="#63b8ff" d="M101.77,-106.94C97.9,-93.39 92.96,-76.1 88.63,-60.94"/>
<polygon fill="none" stroke="#63b8ff" points="88.61,-60.89 83.12,-56.22 85.31,-49.35 90.81,-54.02 88.61,-60.89"/>
</a>
</g>
<text text-anchor="middle" x="145.5" y="-81" font-family="Helvetica,sans-Serif" font-size="10.00" fill="grey"> +default_auto_field</text>
<text text-anchor="middle" x="145.5" y="-70" font-family="Helvetica,sans-Serif" font-size="10.00" fill="grey">+name</text>
</g>
</g>
</svg>
