<?xml version="1.0" encoding="UTF-8" standalone="no"?>
<!DOCTYPE svg PUBLIC "-//W3C//DTD SVG 1.1//EN"
 "http://www.w3.org/Graphics/SVG/1.1/DTD/svg11.dtd">
<!-- Generated by graphviz version 2.43.0 (0)
 -->
<!-- Title: user.migrations.0007_alter_student_classroom.Migration Pages: 1 -->
<svg width="193pt" height="168pt"
 viewBox="0.00 0.00 193.00 168.00" xmlns="http://www.w3.org/2000/svg" xmlns:xlink="http://www.w3.org/1999/xlink">
<g id="graph0" class="graph" transform="scale(1 1) rotate(0) translate(4 164)">
<title>user.migrations.0007_alter_student_classroom.Migration</title>
<!-- Node1 -->
<g id="Node000001" class="node">
<title>Node1</title>
<g id="a_Node000001"><a xlink:title=" ">
<polygon fill="#999999" stroke="transparent" points="185,-75 0,-75 0,0 185,0 185,-75"/>
<text text-anchor="start" x="5.5" y="-62.5" font-family="Helvetica,sans-Serif" font-size="10.00">user.migrations.0007</text>
<text text-anchor="start" x="5.5" y="-51.5" font-family="Helvetica,sans-Serif" font-size="10.00">_alter_student_classroom.Migration</text>
<text text-anchor="start" x="28.5" y="-36.5" font-family="Helvetica,sans-Serif" font-size="10.00">+</text>
<text text-anchor="start" x="65.5" y="-36.5" font-family="Helvetica,sans-Serif" font-size="10.00">dependencies</text>
<text text-anchor="start" x="28.5" y="-21.5" font-family="Helvetica,sans-Serif" font-size="10.00">+</text>
<text text-anchor="start" x="65.5" y="-21.5" font-family="Helvetica,sans-Serif" font-size="10.00">operations</text>
<text text-anchor="start" x="91" y="-6.5" font-family="Helvetica,sans-Serif" font-size="10.00"> </text>
<polygon fill="#666666" stroke="#666666" points="0.5,-46.5 0.5,-46.5 185.5,-46.5 185.5,-46.5 0.5,-46.5"/>
<polygon fill="#666666" stroke="#666666" points="0.5,-16.5 0.5,-16.5 63.5,-16.5 63.5,-16.5 0.5,-16.5"/>
<polygon fill="#666666" stroke="#666666" points="63.5,-16.5 63.5,-16.5 185.5,-16.5 185.5,-16.5 63.5,-16.5"/>
<polygon fill="none" stroke="#666666" points="0,0 0,-75 185,-75 185,0 0,0"/>
</a>
</g>
</g>
<!-- Node2 -->
<g id="Node000002" class="node">
<title>Node2</title>
<g id="a_Node000002"><a xlink:title=" ">
<polygon fill="white" stroke="transparent" points="149,-160 36,-160 36,-111 149,-111 149,-160"/>
<text text-anchor="start" x="41.5" y="-147.5" font-family="Helvetica,sans-Serif" font-size="10.00">migrations.Migration</text>
<text text-anchor="start" x="91" y="-132.5" font-family="Helvetica,sans-Serif" font-size="10.00"> </text>
<text text-anchor="start" x="91" y="-117.5" font-family="Helvetica,sans-Serif" font-size="10.00"> </text>
<polygon fill="#666666" stroke="#666666" points="36.5,-142.5 36.5,-142.5 149.5,-142.5 149.5,-142.5 36.5,-142.5"/>
<polygon fill="#666666" stroke="#666666" points="36.5,-127.5 36.5,-127.5 149.5,-127.5 149.5,-127.5 36.5,-127.5"/>
<polygon fill="none" stroke="#666666" points="36,-111 36,-160 149,-160 149,-111 36,-111"/>
</a>
</g>
</g>
<!-- Node2&#45;&gt;Node1 -->
<g id="edge2_Node000001_Node000002" class="edge">
<title>Node2&#45;&gt;Node1</title>
<g id="a_edge2_Node000001_Node000002"><a xlink:title=" ">
<path fill="none" stroke="#63b8ff" d="M92.5,-100.68C92.5,-92.38 92.5,-83.46 92.5,-75.04"/>
<polygon fill="none" stroke="#63b8ff" points="89,-100.77 92.5,-110.77 96,-100.77 89,-100.77"/>
</a>
</g>
</g>
</g>
</svg>
