<?xml version="1.0" encoding="UTF-8" standalone="no"?>
<!DOCTYPE svg PUBLIC "-//W3C//DTD SVG 1.1//EN"
 "http://www.w3.org/Graphics/SVG/1.1/DTD/svg11.dtd">
<!-- Generated by graphviz version 2.43.0 (0)
 -->
<!-- Title: exchange.views.CommentUpdateView Pages: 1 -->
<svg width="263pt" height="168pt"
 viewBox="0.00 0.00 262.50 168.00" xmlns="http://www.w3.org/2000/svg" xmlns:xlink="http://www.w3.org/1999/xlink">
<g id="graph0" class="graph" transform="scale(1 1) rotate(0) translate(4 164)">
<title>exchange.views.CommentUpdateView</title>
<!-- Node1 -->
<g id="Node000001" class="node">
<title>Node1</title>
<g id="a_Node000001"><a xlink:title=" ">
<polygon fill="#999999" stroke="transparent" points="217.5,-64 17.5,-64 17.5,0 217.5,0 217.5,-64"/>
<text text-anchor="start" x="22.5" y="-52" font-family="Helvetica,sans-Serif" font-size="10.00">exchange.views.CommentUpdateView</text>
<text text-anchor="start" x="47" y="-37" font-family="Helvetica,sans-Serif" font-size="10.00">+</text>
<text text-anchor="start" x="85.5" y="-37" font-family="Helvetica,sans-Serif" font-size="10.00">queryset</text>
<text text-anchor="start" x="47" y="-22" font-family="Helvetica,sans-Serif" font-size="10.00">+</text>
<text text-anchor="start" x="85.5" y="-22" font-family="Helvetica,sans-Serif" font-size="10.00">serializer_class</text>
<text text-anchor="start" x="115.5" y="-7" font-family="Helvetica,sans-Serif" font-size="10.00"> </text>
<polygon fill="#666666" stroke="#666666" points="17.5,-47 17.5,-47 217.5,-47 217.5,-47 17.5,-47"/>
<polygon fill="#666666" stroke="#666666" points="17.5,-17 17.5,-17 83.5,-17 83.5,-17 17.5,-17"/>
<polygon fill="#666666" stroke="#666666" points="83.5,-17 83.5,-17 217.5,-17 217.5,-17 83.5,-17"/>
<polygon fill="none" stroke="#666666" points="17.5,0 17.5,-64 217.5,-64 217.5,0 17.5,0"/>
</a>
</g>
</g>
<!-- Node2 -->
<g id="Node000002" class="node">
<title>Node2</title>
<g id="a_Node000002"><a xlink:title=" ">
<polygon fill="white" stroke="transparent" points="133,-160 0,-160 0,-111 133,-111 133,-160"/>
<text text-anchor="start" x="5.5" y="-147.5" font-family="Helvetica,sans-Serif" font-size="10.00">generics::UpdateAPIView</text>
<text text-anchor="start" x="65" y="-132.5" font-family="Helvetica,sans-Serif" font-size="10.00"> </text>
<text text-anchor="start" x="65" y="-117.5" font-family="Helvetica,sans-Serif" font-size="10.00"> </text>
<polygon fill="#666666" stroke="#666666" points="0.5,-142.5 0.5,-142.5 133.5,-142.5 133.5,-142.5 0.5,-142.5"/>
<polygon fill="#666666" stroke="#666666" points="0.5,-127.5 0.5,-127.5 133.5,-127.5 133.5,-127.5 0.5,-127.5"/>
<polygon fill="none" stroke="#666666" points="0,-111 0,-160 133,-160 133,-111 0,-111"/>
</a>
</g>
</g>
<!-- Node2&#45;&gt;Node1 -->
<g id="edge3_Node000001_Node000002" class="edge">
<title>Node2&#45;&gt;Node1</title>
<g id="a_edge3_Node000001_Node000002"><a xlink:title=" ">
<path fill="none" stroke="#63b8ff" d="M82.99,-101.68C89.05,-89.62 95.89,-76.01 101.87,-64.11"/>
<polygon fill="none" stroke="#63b8ff" points="79.69,-100.45 78.33,-110.96 85.95,-103.59 79.69,-100.45"/>
</a>
</g>
</g>
<!-- Node3 -->
<g id="Node000003" class="node">
<title>Node3</title>
<g id="a_Node000003"><a xlink:title=" ">
<polygon fill="white" stroke="transparent" points="186,-160 151,-160 151,-111 186,-111 186,-160"/>
<text text-anchor="start" x="156.5" y="-147.5" font-family="Helvetica,sans-Serif" font-size="10.00">tuple</text>
<text text-anchor="start" x="167" y="-132.5" font-family="Helvetica,sans-Serif" font-size="10.00"> </text>
<text text-anchor="start" x="167" y="-117.5" font-family="Helvetica,sans-Serif" font-size="10.00"> </text>
<polygon fill="#666666" stroke="#666666" points="151.5,-142.5 151.5,-142.5 186.5,-142.5 186.5,-142.5 151.5,-142.5"/>
<polygon fill="#666666" stroke="#666666" points="151.5,-127.5 151.5,-127.5 186.5,-127.5 186.5,-127.5 151.5,-127.5"/>
<polygon fill="none" stroke="#666666" points="151,-111 151,-160 186,-160 186,-111 151,-111"/>
</a>
</g>
</g>
<!-- Node3&#45;&gt;Node1 -->
<g id="edge4_Node000001_Node000003" class="edge">
<title>Node3&#45;&gt;Node1</title>
<g id="a_edge4_Node000001_Node000003"><a xlink:title=" ">
<path fill="none" stroke="#63b8ff" d="M156.67,-110.96C151.31,-100.29 144.8,-87.34 138.64,-75.08"/>
<polygon fill="none" stroke="#63b8ff" points="138.52,-74.83 132.25,-71.27 133.13,-64.11 139.4,-67.67 138.52,-74.83"/>
</a>
</g>
<text text-anchor="middle" x="201" y="-85" font-family="Helvetica,sans-Serif" font-size="10.00" fill="grey"> +permission_classes</text>
</g>
</g>
</svg>
