<?xml version="1.0" encoding="UTF-8" standalone="no"?>
<!DOCTYPE svg PUBLIC "-//W3C//DTD SVG 1.1//EN"
 "http://www.w3.org/Graphics/SVG/1.1/DTD/svg11.dtd">
<!-- Generated by graphviz version 2.43.0 (0)
 -->
<!-- Title: chat.migrations.0002_alter_room_name.Migration Pages: 1 -->
<svg width="160pt" height="168pt"
 viewBox="0.00 0.00 160.00 168.00" xmlns="http://www.w3.org/2000/svg" xmlns:xlink="http://www.w3.org/1999/xlink">
<g id="graph0" class="graph" transform="scale(1 1) rotate(0) translate(4 164)">
<title>chat.migrations.0002_alter_room_name.Migration</title>
<!-- Node1 -->
<g id="Node000001" class="node">
<title>Node1</title>
<g id="a_Node000001"><a xlink:title=" ">
<polygon fill="#999999" stroke="transparent" points="152,-75 0,-75 0,0 152,0 152,-75"/>
<text text-anchor="start" x="5" y="-62.5" font-family="Helvetica,sans-Serif" font-size="10.00">chat.migrations.0002</text>
<text text-anchor="start" x="5" y="-51.5" font-family="Helvetica,sans-Serif" font-size="10.00">_alter_room_name.Migration</text>
<text text-anchor="start" x="19.5" y="-36.5" font-family="Helvetica,sans-Serif" font-size="10.00">+</text>
<text text-anchor="start" x="48" y="-36.5" font-family="Helvetica,sans-Serif" font-size="10.00">dependencies</text>
<text text-anchor="start" x="19.5" y="-21.5" font-family="Helvetica,sans-Serif" font-size="10.00">+</text>
<text text-anchor="start" x="48" y="-21.5" font-family="Helvetica,sans-Serif" font-size="10.00">operations</text>
<text text-anchor="start" x="74" y="-6.5" font-family="Helvetica,sans-Serif" font-size="10.00"> </text>
<polygon fill="#666666" stroke="#666666" points="0,-46.5 0,-46.5 152,-46.5 152,-46.5 0,-46.5"/>
<polygon fill="#666666" stroke="#666666" points="0,-16.5 0,-16.5 46,-16.5 46,-16.5 0,-16.5"/>
<polygon fill="#666666" stroke="#666666" points="46,-16.5 46,-16.5 152,-16.5 152,-16.5 46,-16.5"/>
<polygon fill="none" stroke="#666666" points="0,0 0,-75 152,-75 152,0 0,0"/>
</a>
</g>
</g>
<!-- Node2 -->
<g id="Node000002" class="node">
<title>Node2</title>
<g id="a_Node000002"><a xlink:title=" ">
<polygon fill="white" stroke="transparent" points="132.5,-160 19.5,-160 19.5,-111 132.5,-111 132.5,-160"/>
<text text-anchor="start" x="25" y="-147.5" font-family="Helvetica,sans-Serif" font-size="10.00">migrations.Migration</text>
<text text-anchor="start" x="74.5" y="-132.5" font-family="Helvetica,sans-Serif" font-size="10.00"> </text>
<text text-anchor="start" x="74.5" y="-117.5" font-family="Helvetica,sans-Serif" font-size="10.00"> </text>
<polygon fill="#666666" stroke="#666666" points="20,-142.5 20,-142.5 133,-142.5 133,-142.5 20,-142.5"/>
<polygon fill="#666666" stroke="#666666" points="20,-127.5 20,-127.5 133,-127.5 133,-127.5 20,-127.5"/>
<polygon fill="none" stroke="#666666" points="19.5,-111 19.5,-160 132.5,-160 132.5,-111 19.5,-111"/>
</a>
</g>
</g>
<!-- Node2&#45;&gt;Node1 -->
<g id="edge2_Node000001_Node000002" class="edge">
<title>Node2&#45;&gt;Node1</title>
<g id="a_edge2_Node000001_Node000002"><a xlink:title=" ">
<path fill="none" stroke="#63b8ff" d="M76,-100.68C76,-92.38 76,-83.46 76,-75.04"/>
<polygon fill="none" stroke="#63b8ff" points="72.5,-100.77 76,-110.77 79.5,-100.77 72.5,-100.77"/>
</a>
</g>
</g>
</g>
</svg>
