<?xml version="1.0" encoding="UTF-8" standalone="no"?>
<!DOCTYPE svg PUBLIC "-//W3C//DTD SVG 1.1//EN"
 "http://www.w3.org/Graphics/SVG/1.1/DTD/svg11.dtd">
<!-- Generated by graphviz version 2.43.0 (0)
 -->
<!-- Title: user.MyBackend.CustomBackend Pages: 1 -->
<svg width="180pt" height="172pt"
 viewBox="0.00 0.00 180.00 172.00" xmlns="http://www.w3.org/2000/svg" xmlns:xlink="http://www.w3.org/1999/xlink">
<g id="graph0" class="graph" transform="scale(1 1) rotate(0) translate(4 168)">
<title>user.MyBackend.CustomBackend</title>
<!-- Node1 -->
<g id="Node000001" class="node">
<title>Node1</title>
<g id="a_Node000001"><a xlink:title=" ">
<polygon fill="#999999" stroke="transparent" points="172,-79 0,-79 0,0 172,0 172,-79"/>
<text text-anchor="start" x="5" y="-66.5" font-family="Helvetica,sans-Serif" font-size="10.00">user.MyBackend.CustomBackend</text>
<text text-anchor="start" x="84" y="-51.5" font-family="Helvetica,sans-Serif" font-size="10.00"> </text>
<text text-anchor="start" x="11.5" y="-36.5" font-family="Helvetica,sans-Serif" font-size="10.00">+</text>
<text text-anchor="start" x="32" y="-36.5" font-family="Helvetica,sans-Serif" font-size="10.00">authenticate()</text>
<text text-anchor="start" x="11.5" y="-21.5" font-family="Helvetica,sans-Serif" font-size="10.00">+</text>
<text text-anchor="start" x="32" y="-21.5" font-family="Helvetica,sans-Serif" font-size="10.00">get_user()</text>
<text text-anchor="start" x="11.5" y="-6.5" font-family="Helvetica,sans-Serif" font-size="10.00">+</text>
<text text-anchor="start" x="32" y="-6.5" font-family="Helvetica,sans-Serif" font-size="10.00">get_user_by_username()</text>
<polygon fill="#666666" stroke="#666666" points="0,-61.5 0,-61.5 172,-61.5 172,-61.5 0,-61.5"/>
<polygon fill="#666666" stroke="#666666" points="0,-46.5 0,-46.5 172,-46.5 172,-46.5 0,-46.5"/>
<polygon fill="none" stroke="#666666" points="0,0 0,-79 172,-79 172,0 0,0"/>
</a>
</g>
</g>
<!-- Node2 -->
<g id="Node000002" class="node">
<title>Node2</title>
<g id="a_Node000002"><a xlink:title=" ">
<polygon fill="white" stroke="transparent" points="127,-164 45,-164 45,-115 127,-115 127,-164"/>
<text text-anchor="start" x="50" y="-151.5" font-family="Helvetica,sans-Serif" font-size="10.00">ModelBackend</text>
<text text-anchor="start" x="84" y="-136.5" font-family="Helvetica,sans-Serif" font-size="10.00"> </text>
<text text-anchor="start" x="84" y="-121.5" font-family="Helvetica,sans-Serif" font-size="10.00"> </text>
<polygon fill="#666666" stroke="#666666" points="45,-146.5 45,-146.5 127,-146.5 127,-146.5 45,-146.5"/>
<polygon fill="#666666" stroke="#666666" points="45,-131.5 45,-131.5 127,-131.5 127,-131.5 45,-131.5"/>
<polygon fill="none" stroke="#666666" points="45,-115 45,-164 127,-164 127,-115 45,-115"/>
</a>
</g>
</g>
<!-- Node2&#45;&gt;Node1 -->
<g id="edge2_Node000001_Node000002" class="edge">
<title>Node2&#45;&gt;Node1</title>
<g id="a_edge2_Node000001_Node000002"><a xlink:title=" ">
<path fill="none" stroke="#63b8ff" d="M86,-104.52C86,-96.38 86,-87.63 86,-79.29"/>
<polygon fill="none" stroke="#63b8ff" points="82.5,-104.78 86,-114.78 89.5,-104.78 82.5,-104.78"/>
</a>
</g>
</g>
</g>
</svg>
