<?xml version="1.0" encoding="UTF-8" standalone="no"?>
<!DOCTYPE svg PUBLIC "-//W3C//DTD SVG 1.1//EN"
 "http://www.w3.org/Graphics/SVG/1.1/DTD/svg11.dtd">
<!-- Generated by graphviz version 2.43.0 (0)
 -->
<!-- Title: user.apps.UserConfig Pages: 1 -->
<svg width="121pt" height="157pt"
 viewBox="0.00 0.00 121.00 157.00" xmlns="http://www.w3.org/2000/svg" xmlns:xlink="http://www.w3.org/1999/xlink">
<g id="graph0" class="graph" transform="scale(1 1) rotate(0) translate(4 153)">
<title>user.apps.UserConfig</title>
<!-- Node1 -->
<g id="Node000001" class="node">
<title>Node1</title>
<g id="a_Node000001"><a xlink:title=" ">
<polygon fill="#999999" stroke="transparent" points="113,-64 0,-64 0,0 113,0 113,-64"/>
<text text-anchor="start" x="5.5" y="-52" font-family="Helvetica,sans-Serif" font-size="10.00">user.apps.UserConfig</text>
<text text-anchor="start" x="5.5" y="-37" font-family="Helvetica,sans-Serif" font-size="10.00">+</text>
<text text-anchor="start" x="19.5" y="-37" font-family="Helvetica,sans-Serif" font-size="10.00">default_auto_field</text>
<text text-anchor="start" x="5.5" y="-22" font-family="Helvetica,sans-Serif" font-size="10.00">+</text>
<text text-anchor="start" x="19.5" y="-22" font-family="Helvetica,sans-Serif" font-size="10.00">name</text>
<text text-anchor="start" x="5.5" y="-7" font-family="Helvetica,sans-Serif" font-size="10.00">+</text>
<text text-anchor="start" x="19.5" y="-7" font-family="Helvetica,sans-Serif" font-size="10.00">ready()</text>
<polygon fill="#666666" stroke="#666666" points="0.5,-47 0.5,-47 113.5,-47 113.5,-47 0.5,-47"/>
<polygon fill="#666666" stroke="#666666" points="0.5,-17 0.5,-17 17.5,-17 17.5,-17 0.5,-17"/>
<polygon fill="#666666" stroke="#666666" points="17.5,-17 17.5,-17 113.5,-17 113.5,-17 17.5,-17"/>
<polygon fill="none" stroke="#666666" points="0,0 0,-64 113,-64 113,0 0,0"/>
</a>
</g>
</g>
<!-- Node2 -->
<g id="Node000002" class="node">
<title>Node2</title>
<g id="a_Node000002"><a xlink:title=" ">
<polygon fill="white" stroke="transparent" points="86.5,-149 26.5,-149 26.5,-100 86.5,-100 86.5,-149"/>
<text text-anchor="start" x="31.5" y="-136.5" font-family="Helvetica,sans-Serif" font-size="10.00">AppConfig</text>
<text text-anchor="start" x="54.5" y="-121.5" font-family="Helvetica,sans-Serif" font-size="10.00"> </text>
<text text-anchor="start" x="54.5" y="-106.5" font-family="Helvetica,sans-Serif" font-size="10.00"> </text>
<polygon fill="#666666" stroke="#666666" points="26.5,-131.5 26.5,-131.5 86.5,-131.5 86.5,-131.5 26.5,-131.5"/>
<polygon fill="#666666" stroke="#666666" points="26.5,-116.5 26.5,-116.5 86.5,-116.5 86.5,-116.5 26.5,-116.5"/>
<polygon fill="none" stroke="#666666" points="26.5,-100 26.5,-149 86.5,-149 86.5,-100 26.5,-100"/>
</a>
</g>
</g>
<!-- Node2&#45;&gt;Node1 -->
<g id="edge2_Node000001_Node000002" class="edge">
<title>Node2&#45;&gt;Node1</title>
<g id="a_edge2_Node000001_Node000002"><a xlink:title=" ">
<path fill="none" stroke="#63b8ff" d="M56.5,-89.54C56.5,-81.2 56.5,-72.31 56.5,-64.11"/>
<polygon fill="none" stroke="#63b8ff" points="53,-89.72 56.5,-99.72 60,-89.72 53,-89.72"/>
</a>
</g>
</g>
</g>
</svg>
