<?xml version="1.0" encoding="UTF-8" standalone="no"?>
<!DOCTYPE svg PUBLIC "-//W3C//DTD SVG 1.1//EN"
 "http://www.w3.org/Graphics/SVG/1.1/DTD/svg11.dtd">
<!-- Generated by graphviz version 2.43.0 (0)
 -->
<!-- Title: exchange.serializers.CommentSerializer.Meta Pages: 1 -->
<svg width="170pt" height="164pt"
 viewBox="0.00 0.00 170.00 164.00" xmlns="http://www.w3.org/2000/svg" xmlns:xlink="http://www.w3.org/1999/xlink">
<g id="graph0" class="graph" transform="scale(1 1) rotate(0) translate(4 160)">
<title>exchange.serializers.CommentSerializer.Meta</title>
<!-- Node1 -->
<g id="Node000001" class="node">
<title>Node1</title>
<g id="a_Node000001"><a xlink:title=" ">
<polygon fill="#999999" stroke="transparent" points="162,-60 0,-60 0,0 162,0 162,-60"/>
<text text-anchor="start" x="5" y="-48" font-family="Helvetica,sans-Serif" font-size="10.00">exchange.serializers.Comment</text>
<text text-anchor="start" x="44.5" y="-37" font-family="Helvetica,sans-Serif" font-size="10.00">Serializer.Meta</text>
<text text-anchor="start" x="31.5" y="-22" font-family="Helvetica,sans-Serif" font-size="10.00">+</text>
<text text-anchor="start" x="72" y="-22" font-family="Helvetica,sans-Serif" font-size="10.00">model</text>
<text text-anchor="start" x="79" y="-7" font-family="Helvetica,sans-Serif" font-size="10.00"> </text>
<polygon fill="#666666" stroke="#666666" points="0,-32 0,-32 162,-32 162,-32 0,-32"/>
<polygon fill="#666666" stroke="#666666" points="0,-17 0,-17 70,-17 70,-17 0,-17"/>
<polygon fill="#666666" stroke="#666666" points="70,-17 70,-17 162,-17 162,-17 70,-17"/>
<polygon fill="none" stroke="#666666" points="0,0 0,-60 162,-60 162,0 0,0"/>
</a>
</g>
</g>
<!-- Node2 -->
<g id="Node000002" class="node">
<title>Node2</title>
<g id="a_Node000002"><a xlink:title=" ">
<polygon fill="white" stroke="transparent" points="94,-156 68,-156 68,-107 94,-107 94,-156"/>
<text text-anchor="start" x="73" y="-143.5" font-family="Helvetica,sans-Serif" font-size="10.00">list</text>
<text text-anchor="start" x="79" y="-128.5" font-family="Helvetica,sans-Serif" font-size="10.00"> </text>
<text text-anchor="start" x="79" y="-113.5" font-family="Helvetica,sans-Serif" font-size="10.00"> </text>
<polygon fill="#666666" stroke="#666666" points="68,-138.5 68,-138.5 94,-138.5 94,-138.5 68,-138.5"/>
<polygon fill="#666666" stroke="#666666" points="68,-123.5 68,-123.5 94,-123.5 94,-123.5 68,-123.5"/>
<polygon fill="none" stroke="#666666" points="68,-107 68,-156 94,-156 94,-107 68,-107"/>
</a>
</g>
</g>
<!-- Node2&#45;&gt;Node1 -->
<g id="edge2_Node000001_Node000002" class="edge">
<title>Node2&#45;&gt;Node1</title>
<g id="a_edge2_Node000001_Node000002"><a xlink:title=" ">
<path fill="none" stroke="#63b8ff" d="M81,-106.92C81,-96.51 81,-83.97 81,-72.1"/>
<polygon fill="none" stroke="#63b8ff" points="81,-72.1 77,-66.1 81,-60.1 85,-66.1 81,-72.1"/>
</a>
</g>
<text text-anchor="middle" x="100" y="-81" font-family="Helvetica,sans-Serif" font-size="10.00" fill="grey"> +fields</text>
</g>
</g>
</svg>
