<?xml version="1.0" encoding="UTF-8" standalone="no"?>
<!DOCTYPE svg PUBLIC "-//W3C//DTD SVG 1.1//EN"
 "http://www.w3.org/Graphics/SVG/1.1/DTD/svg11.dtd">
<!-- Generated by graphviz version 2.43.0 (0)
 -->
<!-- Title: attendance.migrations.0008_mainattendance_classroom.Migration Pages: 1 -->
<svg width="208pt" height="168pt"
 viewBox="0.00 0.00 208.00 168.00" xmlns="http://www.w3.org/2000/svg" xmlns:xlink="http://www.w3.org/1999/xlink">
<g id="graph0" class="graph" transform="scale(1 1) rotate(0) translate(4 164)">
<title>attendance.migrations.0008_mainattendance_classroom.Migration</title>
<!-- Node1 -->
<g id="Node000001" class="node">
<title>Node1</title>
<g id="a_Node000001"><a xlink:title=" ">
<polygon fill="#999999" stroke="transparent" points="200,-75 0,-75 0,0 200,0 200,-75"/>
<text text-anchor="start" x="5" y="-62.5" font-family="Helvetica,sans-Serif" font-size="10.00">attendance.migrations.0008</text>
<text text-anchor="start" x="5" y="-51.5" font-family="Helvetica,sans-Serif" font-size="10.00">_mainattendance_classroom.Migration</text>
<text text-anchor="start" x="31.5" y="-36.5" font-family="Helvetica,sans-Serif" font-size="10.00">+</text>
<text text-anchor="start" x="72" y="-36.5" font-family="Helvetica,sans-Serif" font-size="10.00">dependencies</text>
<text text-anchor="start" x="31.5" y="-21.5" font-family="Helvetica,sans-Serif" font-size="10.00">+</text>
<text text-anchor="start" x="72" y="-21.5" font-family="Helvetica,sans-Serif" font-size="10.00">operations</text>
<text text-anchor="start" x="98" y="-6.5" font-family="Helvetica,sans-Serif" font-size="10.00"> </text>
<polygon fill="#666666" stroke="#666666" points="0,-46.5 0,-46.5 200,-46.5 200,-46.5 0,-46.5"/>
<polygon fill="#666666" stroke="#666666" points="0,-16.5 0,-16.5 70,-16.5 70,-16.5 0,-16.5"/>
<polygon fill="#666666" stroke="#666666" points="70,-16.5 70,-16.5 200,-16.5 200,-16.5 70,-16.5"/>
<polygon fill="none" stroke="#666666" points="0,0 0,-75 200,-75 200,0 0,0"/>
</a>
</g>
</g>
<!-- Node2 -->
<g id="Node000002" class="node">
<title>Node2</title>
<g id="a_Node000002"><a xlink:title=" ">
<polygon fill="white" stroke="transparent" points="156.5,-160 43.5,-160 43.5,-111 156.5,-111 156.5,-160"/>
<text text-anchor="start" x="49" y="-147.5" font-family="Helvetica,sans-Serif" font-size="10.00">migrations.Migration</text>
<text text-anchor="start" x="98.5" y="-132.5" font-family="Helvetica,sans-Serif" font-size="10.00"> </text>
<text text-anchor="start" x="98.5" y="-117.5" font-family="Helvetica,sans-Serif" font-size="10.00"> </text>
<polygon fill="#666666" stroke="#666666" points="44,-142.5 44,-142.5 157,-142.5 157,-142.5 44,-142.5"/>
<polygon fill="#666666" stroke="#666666" points="44,-127.5 44,-127.5 157,-127.5 157,-127.5 44,-127.5"/>
<polygon fill="none" stroke="#666666" points="43.5,-111 43.5,-160 156.5,-160 156.5,-111 43.5,-111"/>
</a>
</g>
</g>
<!-- Node2&#45;&gt;Node1 -->
<g id="edge2_Node000001_Node000002" class="edge">
<title>Node2&#45;&gt;Node1</title>
<g id="a_edge2_Node000001_Node000002"><a xlink:title=" ">
<path fill="none" stroke="#63b8ff" d="M100,-100.68C100,-92.38 100,-83.46 100,-75.04"/>
<polygon fill="none" stroke="#63b8ff" points="96.5,-100.77 100,-110.77 103.5,-100.77 96.5,-100.77"/>
</a>
</g>
</g>
</g>
</svg>
