<?xml version="1.0" encoding="UTF-8" standalone="no"?>
<!DOCTYPE svg PUBLIC "-//W3C//DTD SVG 1.1//EN"
 "http://www.w3.org/Graphics/SVG/1.1/DTD/svg11.dtd">
<!-- Generated by graphviz version 2.43.0 (0)
 -->
<!-- Title: grade.views.MarkListView Pages: 1 -->
<svg width="147pt" height="172pt"
 viewBox="0.00 0.00 147.00 172.00" xmlns="http://www.w3.org/2000/svg" xmlns:xlink="http://www.w3.org/1999/xlink">
<g id="graph0" class="graph" transform="scale(1 1) rotate(0) translate(4 168)">
<title>grade.views.MarkListView</title>
<!-- Node1 -->
<g id="Node000001" class="node">
<title>Node1</title>
<g id="a_Node000001"><a xlink:title=" ">
<polygon fill="#999999" stroke="transparent" points="139,-79 0,-79 0,0 139,0 139,-79"/>
<text text-anchor="start" x="5.5" y="-66.5" font-family="Helvetica,sans-Serif" font-size="10.00">grade.views.MarkListView</text>
<text text-anchor="start" x="10" y="-51.5" font-family="Helvetica,sans-Serif" font-size="10.00">+</text>
<text text-anchor="start" x="28.5" y="-51.5" font-family="Helvetica,sans-Serif" font-size="10.00">queryset</text>
<text text-anchor="start" x="10" y="-36.5" font-family="Helvetica,sans-Serif" font-size="10.00">+</text>
<text text-anchor="start" x="28.5" y="-36.5" font-family="Helvetica,sans-Serif" font-size="10.00">permission_classes</text>
<text text-anchor="start" x="10" y="-21.5" font-family="Helvetica,sans-Serif" font-size="10.00">+</text>
<text text-anchor="start" x="28.5" y="-21.5" font-family="Helvetica,sans-Serif" font-size="10.00">serializer_class</text>
<text text-anchor="start" x="68" y="-6.5" font-family="Helvetica,sans-Serif" font-size="10.00"> </text>
<polygon fill="#666666" stroke="#666666" points="0.5,-61.5 0.5,-61.5 139.5,-61.5 139.5,-61.5 0.5,-61.5"/>
<polygon fill="#666666" stroke="#666666" points="0.5,-16.5 0.5,-16.5 26.5,-16.5 26.5,-16.5 0.5,-16.5"/>
<polygon fill="#666666" stroke="#666666" points="26.5,-16.5 26.5,-16.5 139.5,-16.5 139.5,-16.5 26.5,-16.5"/>
<polygon fill="none" stroke="#666666" points="0,0 0,-79 139,-79 139,0 0,0"/>
</a>
</g>
</g>
<!-- Node2 -->
<g id="Node000002" class="node">
<title>Node2</title>
<g id="a_Node000002"><a xlink:title=" ">
<polygon fill="white" stroke="transparent" points="125.5,-164 13.5,-164 13.5,-115 125.5,-115 125.5,-164"/>
<text text-anchor="start" x="18.5" y="-151.5" font-family="Helvetica,sans-Serif" font-size="10.00">generics.ListAPIView</text>
<text text-anchor="start" x="67.5" y="-136.5" font-family="Helvetica,sans-Serif" font-size="10.00"> </text>
<text text-anchor="start" x="67.5" y="-121.5" font-family="Helvetica,sans-Serif" font-size="10.00"> </text>
<polygon fill="#666666" stroke="#666666" points="13.5,-146.5 13.5,-146.5 125.5,-146.5 125.5,-146.5 13.5,-146.5"/>
<polygon fill="#666666" stroke="#666666" points="13.5,-131.5 13.5,-131.5 125.5,-131.5 125.5,-131.5 13.5,-131.5"/>
<polygon fill="none" stroke="#666666" points="13.5,-115 13.5,-164 125.5,-164 125.5,-115 13.5,-115"/>
</a>
</g>
</g>
<!-- Node2&#45;&gt;Node1 -->
<g id="edge2_Node000001_Node000002" class="edge">
<title>Node2&#45;&gt;Node1</title>
<g id="a_edge2_Node000001_Node000002"><a xlink:title=" ">
<path fill="none" stroke="#63b8ff" d="M69.5,-104.52C69.5,-96.38 69.5,-87.63 69.5,-79.29"/>
<polygon fill="none" stroke="#63b8ff" points="66,-104.78 69.5,-114.78 73,-104.78 66,-104.78"/>
</a>
</g>
</g>
</g>
</svg>
