<?xml version="1.0" encoding="UTF-8" standalone="no"?>
<!DOCTYPE svg PUBLIC "-//W3C//DTD SVG 1.1//EN"
 "http://www.w3.org/Graphics/SVG/1.1/DTD/svg11.dtd">
<!-- Generated by graphviz version 2.43.0 (0)
 -->
<!-- Title: exchange.views.QuestionCreateView Pages: 1 -->
<svg width="231pt" height="153pt"
 viewBox="0.00 0.00 231.00 153.00" xmlns="http://www.w3.org/2000/svg" xmlns:xlink="http://www.w3.org/1999/xlink">
<g id="graph0" class="graph" transform="scale(1 1) rotate(0) translate(4 149)">
<title>exchange.views.QuestionCreateView</title>
<!-- Node1 -->
<g id="Node000001" class="node">
<title>Node1</title>
<g id="a_Node000001"><a xlink:title=" ">
<polygon fill="#999999" stroke="transparent" points="192,-49 0,-49 0,0 192,0 192,-49"/>
<text text-anchor="start" x="5" y="-36.5" font-family="Helvetica,sans-Serif" font-size="10.00">exchange.views.QuestionCreateView</text>
<text text-anchor="start" x="94" y="-21.5" font-family="Helvetica,sans-Serif" font-size="10.00"> </text>
<text text-anchor="start" x="39.5" y="-6.5" font-family="Helvetica,sans-Serif" font-size="10.00">+</text>
<text text-anchor="start" x="88" y="-6.5" font-family="Helvetica,sans-Serif" font-size="10.00">post()</text>
<polygon fill="#666666" stroke="#666666" points="0,-31.5 0,-31.5 192,-31.5 192,-31.5 0,-31.5"/>
<polygon fill="#666666" stroke="#666666" points="0,-16.5 0,-16.5 192,-16.5 192,-16.5 0,-16.5"/>
<polygon fill="none" stroke="#666666" points="0,0 0,-49 192,-49 192,0 0,0"/>
</a>
</g>
</g>
<!-- Node2 -->
<g id="Node000002" class="node">
<title>Node2</title>
<g id="a_Node000002"><a xlink:title=" ">
<polygon fill="white" stroke="transparent" points="99,-145 17,-145 17,-96 99,-96 99,-145"/>
<text text-anchor="start" x="22" y="-132.5" font-family="Helvetica,sans-Serif" font-size="10.00">views.APIView</text>
<text text-anchor="start" x="56" y="-117.5" font-family="Helvetica,sans-Serif" font-size="10.00"> </text>
<text text-anchor="start" x="56" y="-102.5" font-family="Helvetica,sans-Serif" font-size="10.00"> </text>
<polygon fill="#666666" stroke="#666666" points="17,-127.5 17,-127.5 99,-127.5 99,-127.5 17,-127.5"/>
<polygon fill="#666666" stroke="#666666" points="17,-112.5 17,-112.5 99,-112.5 99,-112.5 17,-112.5"/>
<polygon fill="none" stroke="#666666" points="17,-96 17,-145 99,-145 99,-96 17,-96"/>
</a>
</g>
</g>
<!-- Node2&#45;&gt;Node1 -->
<g id="edge3_Node000001_Node000002" class="edge">
<title>Node2&#45;&gt;Node1</title>
<g id="a_edge3_Node000001_Node000002"><a xlink:title=" ">
<path fill="none" stroke="#63b8ff" d="M71.41,-86.32C76.36,-74.08 81.87,-60.46 86.41,-49.21"/>
<polygon fill="none" stroke="#63b8ff" points="68.09,-85.2 67.59,-95.78 74.58,-87.82 68.09,-85.2"/>
</a>
</g>
</g>
<!-- Node3 -->
<g id="Node000003" class="node">
<title>Node3</title>
<g id="a_Node000003"><a xlink:title=" ">
<polygon fill="white" stroke="transparent" points="152.5,-145 117.5,-145 117.5,-96 152.5,-96 152.5,-145"/>
<text text-anchor="start" x="123" y="-132.5" font-family="Helvetica,sans-Serif" font-size="10.00">tuple</text>
<text text-anchor="start" x="133.5" y="-117.5" font-family="Helvetica,sans-Serif" font-size="10.00"> </text>
<text text-anchor="start" x="133.5" y="-102.5" font-family="Helvetica,sans-Serif" font-size="10.00"> </text>
<polygon fill="#666666" stroke="#666666" points="118,-127.5 118,-127.5 153,-127.5 153,-127.5 118,-127.5"/>
<polygon fill="#666666" stroke="#666666" points="118,-112.5 118,-112.5 153,-112.5 153,-112.5 118,-112.5"/>
<polygon fill="none" stroke="#666666" points="117.5,-96 117.5,-145 152.5,-145 152.5,-96 117.5,-96"/>
</a>
</g>
</g>
<!-- Node3&#45;&gt;Node1 -->
<g id="edge4_Node000001_Node000003" class="edge">
<title>Node3&#45;&gt;Node1</title>
<g id="a_edge4_Node000001_Node000003"><a xlink:title=" ">
<path fill="none" stroke="#63b8ff" d="M125.16,-95.78C120.72,-85.09 115.4,-72.26 110.52,-60.5"/>
<polygon fill="none" stroke="#63b8ff" points="110.44,-60.3 104.44,-56.29 105.84,-49.21 111.83,-53.22 110.44,-60.3"/>
</a>
</g>
<text text-anchor="middle" x="169.5" y="-70" font-family="Helvetica,sans-Serif" font-size="10.00" fill="grey"> +permission_classes</text>
</g>
</g>
</svg>
