<?xml version="1.0" encoding="UTF-8" standalone="no"?>
<!DOCTYPE svg PUBLIC "-//W3C//DTD SVG 1.1//EN"
 "http://www.w3.org/Graphics/SVG/1.1/DTD/svg11.dtd">
<!-- Generated by graphviz version 2.43.0 (0)
 -->
<!-- Title: exchange.permission.CanRemoveUpvote Pages: 1 -->
<svg width="185pt" height="153pt"
 viewBox="0.00 0.00 185.00 153.00" xmlns="http://www.w3.org/2000/svg" xmlns:xlink="http://www.w3.org/1999/xlink">
<g id="graph0" class="graph" transform="scale(1 1) rotate(0) translate(4 149)">
<title>exchange.permission.CanRemoveUpvote</title>
<!-- Node1 -->
<g id="Node000001" class="node">
<title>Node1</title>
<g id="a_Node000001"><a xlink:title=" ">
<polygon fill="#999999" stroke="transparent" points="177,-60 0,-60 0,0 177,0 177,-60"/>
<text text-anchor="start" x="5.5" y="-48" font-family="Helvetica,sans-Serif" font-size="10.00">exchange.permission.CanRemove</text>
<text text-anchor="start" x="71" y="-37" font-family="Helvetica,sans-Serif" font-size="10.00">Upvote</text>
<text text-anchor="start" x="87" y="-22" font-family="Helvetica,sans-Serif" font-size="10.00"> </text>
<text text-anchor="start" x="13.5" y="-7" font-family="Helvetica,sans-Serif" font-size="10.00">+</text>
<text text-anchor="start" x="35.5" y="-7" font-family="Helvetica,sans-Serif" font-size="10.00">has_object_permission()</text>
<polygon fill="#666666" stroke="#666666" points="0.5,-32 0.5,-32 177.5,-32 177.5,-32 0.5,-32"/>
<polygon fill="#666666" stroke="#666666" points="0.5,-17 0.5,-17 177.5,-17 177.5,-17 0.5,-17"/>
<polygon fill="none" stroke="#666666" points="0,0 0,-60 177,-60 177,0 0,0"/>
</a>
</g>
</g>
<!-- Node2 -->
<g id="Node000002" class="node">
<title>Node2</title>
<g id="a_Node000002"><a xlink:title=" ">
<polygon fill="white" stroke="transparent" points="164,-145 13,-145 13,-96 164,-96 164,-145"/>
<text text-anchor="start" x="18.5" y="-132.5" font-family="Helvetica,sans-Serif" font-size="10.00">permissions.BasePermission</text>
<text text-anchor="start" x="87" y="-117.5" font-family="Helvetica,sans-Serif" font-size="10.00"> </text>
<text text-anchor="start" x="87" y="-102.5" font-family="Helvetica,sans-Serif" font-size="10.00"> </text>
<polygon fill="#666666" stroke="#666666" points="13.5,-127.5 13.5,-127.5 164.5,-127.5 164.5,-127.5 13.5,-127.5"/>
<polygon fill="#666666" stroke="#666666" points="13.5,-112.5 13.5,-112.5 164.5,-112.5 164.5,-112.5 13.5,-112.5"/>
<polygon fill="none" stroke="#666666" points="13,-96 13,-145 164,-145 164,-96 13,-96"/>
</a>
</g>
</g>
<!-- Node2&#45;&gt;Node1 -->
<g id="edge2_Node000001_Node000002" class="edge">
<title>Node2&#45;&gt;Node1</title>
<g id="a_edge2_Node000001_Node000002"><a xlink:title=" ">
<path fill="none" stroke="#63b8ff" d="M88.5,-85.55C88.5,-77.18 88.5,-68.28 88.5,-60.16"/>
<polygon fill="none" stroke="#63b8ff" points="85,-85.78 88.5,-95.78 92,-85.78 85,-85.78"/>
</a>
</g>
</g>
</g>
</svg>
