<?xml version="1.0" encoding="UTF-8" standalone="no"?>
<!DOCTYPE svg PUBLIC "-//W3C//DTD SVG 1.1//EN"
 "http://www.w3.org/Graphics/SVG/1.1/DTD/svg11.dtd">
<!-- Generated by graphviz version 2.43.0 (0)
 -->
<!-- Title: exchange.apps.ExchangeConfig Pages: 1 -->
<svg width="208pt" height="164pt"
 viewBox="0.00 0.00 207.50 164.00" xmlns="http://www.w3.org/2000/svg" xmlns:xlink="http://www.w3.org/1999/xlink">

<svg id="main" version="1.1" xmlns="http://www.w3.org/2000/svg" xmlns:xlink="http://www.w3.org/1999/xlink" xml:space="preserve" onload="init(evt)">
<style type="text/css"><![CDATA[
.node, .edge {opacity: 0.7;}
.node.selected, .edge.selected {opacity: 1;}
.edge:hover path { stroke: red; }
.edge:hover polygon { stroke: red; fill: red; }
]]></style>
<script type="application/ecmascript" xlink:href="svg.min.js"/>
<svg id="graph" class="graph">
<g id="graph0" class="graph" transform="scale(1 1) rotate(0) translate(4 160)">
<title>exchange.apps.ExchangeConfig</title>
<!-- Node1 -->
<g id="Node000001" class="node">
<title>Node1</title>
<g id="a_Node000001"><a xlink:title=" ">
<polygon fill="#999999" stroke="transparent" points="165,-49 0,-49 0,0 165,0 165,-49"/>
<text text-anchor="start" x="5.5" y="-36.5" font-family="Helvetica,sans-Serif" font-size="10.00">exchange.apps.ExchangeConfig</text>
<text text-anchor="start" x="81" y="-21.5" font-family="Helvetica,sans-Serif" font-size="10.00"> </text>
<text text-anchor="start" x="31.5" y="-6.5" font-family="Helvetica,sans-Serif" font-size="10.00">+</text>
<text text-anchor="start" x="71.5" y="-6.5" font-family="Helvetica,sans-Serif" font-size="10.00">ready()</text>
<polygon fill="#666666" stroke="#666666" points="0.5,-31.5 0.5,-31.5 165.5,-31.5 165.5,-31.5 0.5,-31.5"/>
<polygon fill="#666666" stroke="#666666" points="0.5,-16.5 0.5,-16.5 165.5,-16.5 165.5,-16.5 0.5,-16.5"/>
<polygon fill="none" stroke="#666666" points="0,0 0,-49 165,-49 165,0 0,0"/>
</a>
</g>
</g>
<!-- Node2 -->
<g id="Node000002" class="node">
<title>Node2</title>
<g id="a_Node000002"><a xlink:title=" ">
<polygon fill="white" stroke="transparent" points="82.5,-156 22.5,-156 22.5,-107 82.5,-107 82.5,-156"/>
<text text-anchor="start" x="27.5" y="-143.5" font-family="Helvetica,sans-Serif" font-size="10.00">AppConfig</text>
<text text-anchor="start" x="50.5" y="-128.5" font-family="Helvetica,sans-Serif" font-size="10.00"> </text>
<text text-anchor="start" x="50.5" y="-113.5" font-family="Helvetica,sans-Serif" font-size="10.00"> </text>
<polygon fill="#666666" stroke="#666666" points="22.5,-138.5 22.5,-138.5 82.5,-138.5 82.5,-138.5 22.5,-138.5"/>
<polygon fill="#666666" stroke="#666666" points="22.5,-123.5 22.5,-123.5 82.5,-123.5 82.5,-123.5 22.5,-123.5"/>
<polygon fill="none" stroke="#666666" points="22.5,-107 22.5,-156 82.5,-156 82.5,-107 22.5,-107"/>
</a>
</g>
</g>
<!-- Node2&#45;&gt;Node1 -->
<g id="edge1_Node000001_Node000002" class="edge">
<title>Node2&#45;&gt;Node1</title>
<g id="a_edge1_Node000001_Node000002"><a xlink:title=" ">
<path fill="none" stroke="#63b8ff" d="M62.02,-97.17C66.46,-81.63 71.65,-63.49 75.69,-49.35"/>
<polygon fill="none" stroke="#63b8ff" points="58.61,-96.36 59.23,-106.94 65.35,-98.28 58.61,-96.36"/>
</a>
</g>
</g>
<!-- Node3 -->
<g id="Node000003" class="node">
<title>Node3</title>
<g id="a_Node000003"><a xlink:title=" ">
<polygon fill="white" stroke="transparent" points="124,-156 101,-156 101,-107 124,-107 124,-156"/>
<text text-anchor="start" x="106.5" y="-143.5" font-family="Helvetica,sans-Serif" font-size="10.00">str</text>
<text text-anchor="start" x="111" y="-128.5" font-family="Helvetica,sans-Serif" font-size="10.00"> </text>
<text text-anchor="start" x="111" y="-113.5" font-family="Helvetica,sans-Serif" font-size="10.00"> </text>
<polygon fill="#666666" stroke="#666666" points="101.5,-138.5 101.5,-138.5 124.5,-138.5 124.5,-138.5 101.5,-138.5"/>
<polygon fill="#666666" stroke="#666666" points="101.5,-123.5 101.5,-123.5 124.5,-123.5 124.5,-123.5 101.5,-123.5"/>
<polygon fill="none" stroke="#666666" points="101,-107 101,-156 124,-156 124,-107 101,-107"/>
</a>
</g>
</g>
<!-- Node3&#45;&gt;Node1 -->
<g id="edge2_Node000001_Node000003" class="edge">
<title>Node3&#45;&gt;Node1</title>
<g id="a_edge2_Node000001_Node000003"><a xlink:title=" ">
<path fill="none" stroke="#63b8ff" d="M105.77,-106.94C101.9,-93.39 96.96,-76.1 92.63,-60.94"/>
<polygon fill="none" stroke="#63b8ff" points="92.61,-60.89 87.12,-56.22 89.31,-49.35 94.81,-54.02 92.61,-60.89"/>
</a>
</g>
<text text-anchor="middle" x="149.5" y="-81" font-family="Helvetica,sans-Serif" font-size="10.00" fill="grey"> +default_auto_field</text>
<text text-anchor="middle" x="149.5" y="-70" font-family="Helvetica,sans-Serif" font-size="10.00" fill="grey">+name</text>
</g>
</g>
</svg>
</svg>

<style type='text/css'>
<![CDATA[
[data-mouse-over-selected='false'] { opacity: 0.7; }
[data-mouse-over-selected='true']  { opacity: 1.0; }
]]>
</style>
<script type="application/ecmascript"><![CDATA[
document.addEventListener('DOMContentLoaded', (event) => {
  highlightEdges();
  highlightAdjacentNodes();
});
]]></script>
</svg>
