<?xml version="1.0" encoding="UTF-8" standalone="no"?>
<!DOCTYPE svg PUBLIC "-//W3C//DTD SVG 1.1//EN"
 "http://www.w3.org/Graphics/SVG/1.1/DTD/svg11.dtd">
<!-- Generated by graphviz version 2.43.0 (0)
 -->
<!-- Title: chat.models.Message Pages: 1 -->
<svg width="125pt" height="187pt"
 viewBox="0.00 0.00 125.00 187.00" xmlns="http://www.w3.org/2000/svg" xmlns:xlink="http://www.w3.org/1999/xlink">
<g id="graph0" class="graph" transform="scale(1 1) rotate(0) translate(4 183)">
<title>chat.models.Message</title>
<!-- Node1 -->
<g id="Node000001" class="node">
<title>Node1</title>
<g id="a_Node000001"><a xlink:title=" ">
<polygon fill="#999999" stroke="transparent" points="117,-94 0,-94 0,0 117,0 117,-94"/>
<text text-anchor="start" x="5.5" y="-82" font-family="Helvetica,sans-Serif" font-size="10.00">chat.models.Message</text>
<text text-anchor="start" x="15" y="-67" font-family="Helvetica,sans-Serif" font-size="10.00">+</text>
<text text-anchor="start" x="38.5" y="-67" font-family="Helvetica,sans-Serif" font-size="10.00">user</text>
<text text-anchor="start" x="15" y="-52" font-family="Helvetica,sans-Serif" font-size="10.00">+</text>
<text text-anchor="start" x="38.5" y="-52" font-family="Helvetica,sans-Serif" font-size="10.00">room</text>
<text text-anchor="start" x="15" y="-37" font-family="Helvetica,sans-Serif" font-size="10.00">+</text>
<text text-anchor="start" x="38.5" y="-37" font-family="Helvetica,sans-Serif" font-size="10.00">content</text>
<text text-anchor="start" x="15" y="-22" font-family="Helvetica,sans-Serif" font-size="10.00">+</text>
<text text-anchor="start" x="38.5" y="-22" font-family="Helvetica,sans-Serif" font-size="10.00">timestamp</text>
<text text-anchor="start" x="57" y="-7" font-family="Helvetica,sans-Serif" font-size="10.00"> </text>
<polygon fill="#666666" stroke="#666666" points="0.5,-77 0.5,-77 117.5,-77 117.5,-77 0.5,-77"/>
<polygon fill="#666666" stroke="#666666" points="0.5,-17 0.5,-17 36.5,-17 36.5,-17 0.5,-17"/>
<polygon fill="#666666" stroke="#666666" points="36.5,-17 36.5,-17 117.5,-17 117.5,-17 36.5,-17"/>
<polygon fill="none" stroke="#666666" points="0,0 0,-94 117,-94 117,0 0,0"/>
</a>
</g>
</g>
<!-- Node2 -->
<g id="Node000002" class="node">
<title>Node2</title>
<g id="a_Node000002"><a xlink:title=" ">
<polygon fill="white" stroke="transparent" points="98.5,-179 18.5,-179 18.5,-130 98.5,-130 98.5,-179"/>
<text text-anchor="start" x="23.5" y="-166.5" font-family="Helvetica,sans-Serif" font-size="10.00">models.Model</text>
<text text-anchor="start" x="56.5" y="-151.5" font-family="Helvetica,sans-Serif" font-size="10.00"> </text>
<text text-anchor="start" x="56.5" y="-136.5" font-family="Helvetica,sans-Serif" font-size="10.00"> </text>
<polygon fill="#666666" stroke="#666666" points="18.5,-161.5 18.5,-161.5 98.5,-161.5 98.5,-161.5 18.5,-161.5"/>
<polygon fill="#666666" stroke="#666666" points="18.5,-146.5 18.5,-146.5 98.5,-146.5 98.5,-146.5 18.5,-146.5"/>
<polygon fill="none" stroke="#666666" points="18.5,-130 18.5,-179 98.5,-179 98.5,-130 18.5,-130"/>
</a>
</g>
</g>
<!-- Node2&#45;&gt;Node1 -->
<g id="edge1_Node000001_Node000002" class="edge">
<title>Node2&#45;&gt;Node1</title>
<g id="a_edge1_Node000001_Node000002"><a xlink:title=" ">
<path fill="none" stroke="#63b8ff" d="M58.5,-119.61C58.5,-111.48 58.5,-102.66 58.5,-94.08"/>
<polygon fill="none" stroke="#63b8ff" points="55,-119.82 58.5,-129.82 62,-119.82 55,-119.82"/>
</a>
</g>
</g>
</g>
</svg>
