<?xml version="1.0" encoding="UTF-8" standalone="no"?>
<!DOCTYPE svg PUBLIC "-//W3C//DTD SVG 1.1//EN"
 "http://www.w3.org/Graphics/SVG/1.1/DTD/svg11.dtd">
<!-- Generated by graphviz version 2.43.0 (0)
 -->
<!-- Title: assignment.views.AssignmentMarkCreate Pages: 1 -->
<svg width="168pt" height="153pt"
 viewBox="0.00 0.00 168.00 153.00" xmlns="http://www.w3.org/2000/svg" xmlns:xlink="http://www.w3.org/1999/xlink">
<g id="graph0" class="graph" transform="scale(1 1) rotate(0) translate(4 149)">
<title>assignment.views.AssignmentMarkCreate</title>
<!-- Node1 -->
<g id="Node000001" class="node">
<title>Node1</title>
<g id="a_Node000001"><a xlink:title=" ">
<polygon fill="#999999" stroke="transparent" points="160,-60 0,-60 0,0 160,0 160,-60"/>
<text text-anchor="start" x="5" y="-48" font-family="Helvetica,sans-Serif" font-size="10.00">assignment.views.Assignment</text>
<text text-anchor="start" x="51" y="-37" font-family="Helvetica,sans-Serif" font-size="10.00">MarkCreate</text>
<text text-anchor="start" x="14.5" y="-22" font-family="Helvetica,sans-Serif" font-size="10.00">+</text>
<text text-anchor="start" x="38" y="-22" font-family="Helvetica,sans-Serif" font-size="10.00">permission_classes</text>
<text text-anchor="start" x="14.5" y="-7" font-family="Helvetica,sans-Serif" font-size="10.00">+</text>
<text text-anchor="start" x="38" y="-7" font-family="Helvetica,sans-Serif" font-size="10.00">post()</text>
<polygon fill="#666666" stroke="#666666" points="0,-32 0,-32 160,-32 160,-32 0,-32"/>
<polygon fill="#666666" stroke="#666666" points="0,-17 0,-17 36,-17 36,-17 0,-17"/>
<polygon fill="#666666" stroke="#666666" points="36,-17 36,-17 160,-17 160,-17 36,-17"/>
<polygon fill="none" stroke="#666666" points="0,0 0,-60 160,-60 160,0 0,0"/>
</a>
</g>
</g>
<!-- Node2 -->
<g id="Node000002" class="node">
<title>Node2</title>
<g id="a_Node000002"><a xlink:title=" ">
<polygon fill="white" stroke="transparent" points="121,-145 39,-145 39,-96 121,-96 121,-145"/>
<text text-anchor="start" x="44" y="-132.5" font-family="Helvetica,sans-Serif" font-size="10.00">views.APIView</text>
<text text-anchor="start" x="78" y="-117.5" font-family="Helvetica,sans-Serif" font-size="10.00"> </text>
<text text-anchor="start" x="78" y="-102.5" font-family="Helvetica,sans-Serif" font-size="10.00"> </text>
<polygon fill="#666666" stroke="#666666" points="39,-127.5 39,-127.5 121,-127.5 121,-127.5 39,-127.5"/>
<polygon fill="#666666" stroke="#666666" points="39,-112.5 39,-112.5 121,-112.5 121,-112.5 39,-112.5"/>
<polygon fill="none" stroke="#666666" points="39,-96 39,-145 121,-145 121,-96 39,-96"/>
</a>
</g>
</g>
<!-- Node2&#45;&gt;Node1 -->
<g id="edge1_Node000001_Node000002" class="edge">
<title>Node2&#45;&gt;Node1</title>
<g id="a_edge1_Node000001_Node000002"><a xlink:title=" ">
<path fill="none" stroke="#63b8ff" d="M80,-85.55C80,-77.18 80,-68.28 80,-60.16"/>
<polygon fill="none" stroke="#63b8ff" points="76.5,-85.78 80,-95.78 83.5,-85.78 76.5,-85.78"/>
</a>
</g>
</g>
</g>
</svg>
