<?xml version="1.0" encoding="UTF-8" standalone="no"?>
<!DOCTYPE svg PUBLIC "-//W3C//DTD SVG 1.1//EN"
 "http://www.w3.org/Graphics/SVG/1.1/DTD/svg11.dtd">
<!-- Generated by graphviz version 2.43.0 (0)
 -->
<!-- Title: user.migrations.0004_subject_alter_hod_options_alter_teacher_options_and_more.Migration Pages: 1 -->
<svg width="153pt" height="190pt"
 viewBox="0.00 0.00 153.00 190.00" xmlns="http://www.w3.org/2000/svg" xmlns:xlink="http://www.w3.org/1999/xlink">
<g id="graph0" class="graph" transform="scale(1 1) rotate(0) translate(4 186)">
<title>user.migrations.0004_subject_alter_hod_options_alter_teacher_options_and_more.Migration</title>
<!-- Node1 -->
<g id="Node000001" class="node">
<title>Node1</title>
<g id="a_Node000001"><a xlink:title=" ">
<polygon fill="#999999" stroke="transparent" points="145,-97 0,-97 0,0 145,0 145,-97"/>
<text text-anchor="start" x="5.5" y="-84.5" font-family="Helvetica,sans-Serif" font-size="10.00">user.migrations.0004</text>
<text text-anchor="start" x="5.5" y="-73.5" font-family="Helvetica,sans-Serif" font-size="10.00">_subject_alter_hod_options</text>
<text text-anchor="start" x="5.5" y="-62.5" font-family="Helvetica,sans-Serif" font-size="10.00">_alter_teacher_options_and</text>
<text text-anchor="start" x="32.5" y="-51.5" font-family="Helvetica,sans-Serif" font-size="10.00">_more.Migration</text>
<text text-anchor="start" x="18.5" y="-36.5" font-family="Helvetica,sans-Serif" font-size="10.00">+</text>
<text text-anchor="start" x="45.5" y="-36.5" font-family="Helvetica,sans-Serif" font-size="10.00">dependencies</text>
<text text-anchor="start" x="18.5" y="-21.5" font-family="Helvetica,sans-Serif" font-size="10.00">+</text>
<text text-anchor="start" x="45.5" y="-21.5" font-family="Helvetica,sans-Serif" font-size="10.00">operations</text>
<text text-anchor="start" x="71" y="-6.5" font-family="Helvetica,sans-Serif" font-size="10.00"> </text>
<polygon fill="#666666" stroke="#666666" points="0.5,-46.5 0.5,-46.5 145.5,-46.5 145.5,-46.5 0.5,-46.5"/>
<polygon fill="#666666" stroke="#666666" points="0.5,-16.5 0.5,-16.5 43.5,-16.5 43.5,-16.5 0.5,-16.5"/>
<polygon fill="#666666" stroke="#666666" points="43.5,-16.5 43.5,-16.5 145.5,-16.5 145.5,-16.5 43.5,-16.5"/>
<polygon fill="none" stroke="#666666" points="0,0 0,-97 145,-97 145,0 0,0"/>
</a>
</g>
</g>
<!-- Node2 -->
<g id="Node000002" class="node">
<title>Node2</title>
<g id="a_Node000002"><a xlink:title=" ">
<polygon fill="white" stroke="transparent" points="129,-182 16,-182 16,-133 129,-133 129,-182"/>
<text text-anchor="start" x="21.5" y="-169.5" font-family="Helvetica,sans-Serif" font-size="10.00">migrations.Migration</text>
<text text-anchor="start" x="71" y="-154.5" font-family="Helvetica,sans-Serif" font-size="10.00"> </text>
<text text-anchor="start" x="71" y="-139.5" font-family="Helvetica,sans-Serif" font-size="10.00"> </text>
<polygon fill="#666666" stroke="#666666" points="16.5,-164.5 16.5,-164.5 129.5,-164.5 129.5,-164.5 16.5,-164.5"/>
<polygon fill="#666666" stroke="#666666" points="16.5,-149.5 16.5,-149.5 129.5,-149.5 129.5,-149.5 16.5,-149.5"/>
<polygon fill="none" stroke="#666666" points="16,-133 16,-182 129,-182 129,-133 16,-133"/>
</a>
</g>
</g>
<!-- Node2&#45;&gt;Node1 -->
<g id="edge1_Node000001_Node000002" class="edge">
<title>Node2&#45;&gt;Node1</title>
<g id="a_edge1_Node000001_Node000002"><a xlink:title=" ">
<path fill="none" stroke="#63b8ff" d="M72.5,-122.64C72.5,-114.59 72.5,-105.85 72.5,-97.3"/>
<polygon fill="none" stroke="#63b8ff" points="69,-122.75 72.5,-132.75 76,-122.75 69,-122.75"/>
</a>
</g>
</g>
</g>
</svg>
