<?xml version="1.0" encoding="UTF-8" standalone="no"?>
<!DOCTYPE svg PUBLIC "-//W3C//DTD SVG 1.1//EN"
 "http://www.w3.org/Graphics/SVG/1.1/DTD/svg11.dtd">
<!-- Generated by graphviz version 2.43.0 (0)
 -->
<!-- Title: grade.migrations.0003_alter_mark_student_alter_mark_teacher.Migration Pages: 1 -->
<svg width="215pt" height="186pt"
 viewBox="0.00 0.00 214.50 186.00" xmlns="http://www.w3.org/2000/svg" xmlns:xlink="http://www.w3.org/1999/xlink">

<svg id="main" version="1.1" xmlns="http://www.w3.org/2000/svg" xmlns:xlink="http://www.w3.org/1999/xlink" xml:space="preserve" onload="init(evt)">
<style type="text/css"><![CDATA[
.node, .edge {opacity: 0.7;}
.node.selected, .edge.selected {opacity: 1;}
.edge:hover path { stroke: red; }
.edge:hover polygon { stroke: red; fill: red; }
]]></style>
<script type="application/ecmascript" xlink:href="svg.min.js"/>
<svg id="graph" class="graph">
<g id="graph0" class="graph" transform="scale(1 1) rotate(0) translate(4 182)">
<title>grade.migrations.0003_alter_mark_student_alter_mark_teacher.Migration</title>
<!-- Node1 -->
<g id="Node000001" class="node">
<title>Node1</title>
<g id="a_Node000001"><a xlink:title=" ">
<polygon fill="#999999" stroke="transparent" points="170,-71 31,-71 31,0 170,0 170,-71"/>
<text text-anchor="start" x="36.5" y="-58.5" font-family="Helvetica,sans-Serif" font-size="10.00">grade.migrations.0003</text>
<text text-anchor="start" x="36.5" y="-47.5" font-family="Helvetica,sans-Serif" font-size="10.00">_alter_mark_student_alter</text>
<text text-anchor="start" x="40" y="-36.5" font-family="Helvetica,sans-Serif" font-size="10.00">_mark_teacher.Migration</text>
<text text-anchor="start" x="99" y="-21.5" font-family="Helvetica,sans-Serif" font-size="10.00"> </text>
<text text-anchor="start" x="99" y="-6.5" font-family="Helvetica,sans-Serif" font-size="10.00"> </text>
<polygon fill="#666666" stroke="#666666" points="31.5,-31.5 31.5,-31.5 170.5,-31.5 170.5,-31.5 31.5,-31.5"/>
<polygon fill="#666666" stroke="#666666" points="31.5,-16.5 31.5,-16.5 170.5,-16.5 170.5,-16.5 31.5,-16.5"/>
<polygon fill="none" stroke="#666666" points="31,0 31,-71 170,-71 170,0 31,0"/>
</a>
</g>
</g>
<!-- Node2 -->
<g id="Node000002" class="node">
<title>Node2</title>
<g id="a_Node000002"><a xlink:title=" ">
<polygon fill="white" stroke="transparent" points="113,-178 0,-178 0,-129 113,-129 113,-178"/>
<text text-anchor="start" x="5.5" y="-165.5" font-family="Helvetica,sans-Serif" font-size="10.00">migrations.Migration</text>
<text text-anchor="start" x="55" y="-150.5" font-family="Helvetica,sans-Serif" font-size="10.00"> </text>
<text text-anchor="start" x="55" y="-135.5" font-family="Helvetica,sans-Serif" font-size="10.00"> </text>
<polygon fill="#666666" stroke="#666666" points="0.5,-160.5 0.5,-160.5 113.5,-160.5 113.5,-160.5 0.5,-160.5"/>
<polygon fill="#666666" stroke="#666666" points="0.5,-145.5 0.5,-145.5 113.5,-145.5 113.5,-145.5 0.5,-145.5"/>
<polygon fill="none" stroke="#666666" points="0,-129 0,-178 113,-178 113,-129 0,-129"/>
</a>
</g>
</g>
<!-- Node2&#45;&gt;Node1 -->
<g id="edge1_Node000001_Node000002" class="edge">
<title>Node2&#45;&gt;Node1</title>
<g id="a_edge1_Node000001_Node000002"><a xlink:title=" ">
<path fill="none" stroke="#63b8ff" d="M69.09,-119.31C74.8,-104.25 81.55,-86.46 87.33,-71.23"/>
<polygon fill="none" stroke="#63b8ff" points="65.78,-118.15 65.51,-128.75 72.33,-120.64 65.78,-118.15"/>
</a>
</g>
</g>
<!-- Node3 -->
<g id="Node000003" class="node">
<title>Node3</title>
<g id="a_Node000003"><a xlink:title=" ">
<polygon fill="white" stroke="transparent" points="157.5,-178 131.5,-178 131.5,-129 157.5,-129 157.5,-178"/>
<text text-anchor="start" x="136.5" y="-165.5" font-family="Helvetica,sans-Serif" font-size="10.00">list</text>
<text text-anchor="start" x="142.5" y="-150.5" font-family="Helvetica,sans-Serif" font-size="10.00"> </text>
<text text-anchor="start" x="142.5" y="-135.5" font-family="Helvetica,sans-Serif" font-size="10.00"> </text>
<polygon fill="#666666" stroke="#666666" points="131.5,-160.5 131.5,-160.5 157.5,-160.5 157.5,-160.5 131.5,-160.5"/>
<polygon fill="#666666" stroke="#666666" points="131.5,-145.5 131.5,-145.5 157.5,-145.5 157.5,-145.5 131.5,-145.5"/>
<polygon fill="none" stroke="#666666" points="131.5,-129 131.5,-178 157.5,-178 157.5,-129 131.5,-129"/>
</a>
</g>
</g>
<!-- Node3&#45;&gt;Node1 -->
<g id="edge2_Node000001_Node000003" class="edge">
<title>Node3&#45;&gt;Node1</title>
<g id="a_edge2_Node000001_Node000003"><a xlink:title=" ">
<path fill="none" stroke="#63b8ff" d="M135.49,-128.75C130.43,-115.41 123.95,-98.31 117.94,-82.47"/>
<polygon fill="none" stroke="#63b8ff" points="117.93,-82.45 112.06,-78.26 113.67,-71.23 119.54,-75.42 117.93,-82.45"/>
</a>
</g>
<text text-anchor="middle" x="167" y="-103" font-family="Helvetica,sans-Serif" font-size="10.00" fill="grey"> +dependencies</text>
<text text-anchor="middle" x="167" y="-92" font-family="Helvetica,sans-Serif" font-size="10.00" fill="grey">+operations</text>
</g>
</g>
</svg>
</svg>

<style type='text/css'>
<![CDATA[
[data-mouse-over-selected='false'] { opacity: 0.7; }
[data-mouse-over-selected='true']  { opacity: 1.0; }
]]>
</style>
<script type="application/ecmascript"><![CDATA[
document.addEventListener('DOMContentLoaded', (event) => {
  highlightEdges();
  highlightAdjacentNodes();
});
]]></script>
</svg>
