<?xml version="1.0" encoding="UTF-8" standalone="no"?>
<!DOCTYPE svg PUBLIC "-//W3C//DTD SVG 1.1//EN"
 "http://www.w3.org/Graphics/SVG/1.1/DTD/svg11.dtd">
<!-- Generated by graphviz version 2.43.0 (0)
 -->
<!-- Title: attendance.models.MainAttendance.Meta Pages: 1 -->
<svg width="223pt" height="153pt"
 viewBox="0.00 0.00 223.00 153.00" xmlns="http://www.w3.org/2000/svg" xmlns:xlink="http://www.w3.org/1999/xlink">
<g id="graph0" class="graph" transform="scale(1 1) rotate(0) translate(4 149)">
<title>attendance.models.MainAttendance.Meta</title>
<!-- Node1 -->
<g id="Node000001" class="node">
<title>Node1</title>
<g id="a_Node000001"><a xlink:title=" ">
<polygon fill="#999999" stroke="transparent" points="215,-49 0,-49 0,0 215,0 215,-49"/>
<text text-anchor="start" x="5.5" y="-36.5" font-family="Helvetica,sans-Serif" font-size="10.00">attendance.models.MainAttendance.Meta</text>
<text text-anchor="start" x="106" y="-21.5" font-family="Helvetica,sans-Serif" font-size="10.00"> </text>
<text text-anchor="start" x="106" y="-6.5" font-family="Helvetica,sans-Serif" font-size="10.00"> </text>
<polygon fill="#666666" stroke="#666666" points="0.5,-31.5 0.5,-31.5 215.5,-31.5 215.5,-31.5 0.5,-31.5"/>
<polygon fill="#666666" stroke="#666666" points="0.5,-16.5 0.5,-16.5 215.5,-16.5 215.5,-16.5 0.5,-16.5"/>
<polygon fill="none" stroke="#666666" points="0,0 0,-49 215,-49 215,0 0,0"/>
</a>
</g>
</g>
<!-- Node2 -->
<g id="Node000002" class="node">
<title>Node2</title>
<g id="a_Node000002"><a xlink:title=" ">
<polygon fill="white" stroke="transparent" points="68,-145 33,-145 33,-96 68,-96 68,-145"/>
<text text-anchor="start" x="38.5" y="-132.5" font-family="Helvetica,sans-Serif" font-size="10.00">tuple</text>
<text text-anchor="start" x="49" y="-117.5" font-family="Helvetica,sans-Serif" font-size="10.00"> </text>
<text text-anchor="start" x="49" y="-102.5" font-family="Helvetica,sans-Serif" font-size="10.00"> </text>
<polygon fill="#666666" stroke="#666666" points="33.5,-127.5 33.5,-127.5 68.5,-127.5 68.5,-127.5 33.5,-127.5"/>
<polygon fill="#666666" stroke="#666666" points="33.5,-112.5 33.5,-112.5 68.5,-112.5 68.5,-112.5 33.5,-112.5"/>
<polygon fill="none" stroke="#666666" points="33,-96 33,-145 68,-145 68,-96 33,-96"/>
</a>
</g>
</g>
<!-- Node2&#45;&gt;Node1 -->
<g id="edge1_Node000001_Node000002" class="edge">
<title>Node2&#45;&gt;Node1</title>
<g id="a_edge1_Node000001_Node000002"><a xlink:title=" ">
<path fill="none" stroke="#63b8ff" d="M46.59,-95.92C46.11,-86.46 46.99,-75.75 51.5,-67 53.14,-63.82 55.14,-60.83 57.41,-58.01"/>
<polygon fill="none" stroke="#63b8ff" points="57.63,-57.78 58.92,-50.69 65.96,-49.14 64.68,-56.24 57.63,-57.78"/>
</a>
</g>
<text text-anchor="middle" x="97" y="-70" font-family="Helvetica,sans-Serif" font-size="10.00" fill="grey"> +unique_together</text>
</g>
<!-- Node3 -->
<g id="Node000003" class="node">
<title>Node3</title>
<g id="a_Node000003"><a xlink:title=" ">
<polygon fill="white" stroke="transparent" points="176,-145 153,-145 153,-96 176,-96 176,-145"/>
<text text-anchor="start" x="158.5" y="-132.5" font-family="Helvetica,sans-Serif" font-size="10.00">str</text>
<text text-anchor="start" x="163" y="-117.5" font-family="Helvetica,sans-Serif" font-size="10.00"> </text>
<text text-anchor="start" x="163" y="-102.5" font-family="Helvetica,sans-Serif" font-size="10.00"> </text>
<polygon fill="#666666" stroke="#666666" points="153.5,-127.5 153.5,-127.5 176.5,-127.5 176.5,-127.5 153.5,-127.5"/>
<polygon fill="#666666" stroke="#666666" points="153.5,-112.5 153.5,-112.5 176.5,-112.5 176.5,-112.5 153.5,-112.5"/>
<polygon fill="none" stroke="#666666" points="153,-96 153,-145 176,-145 176,-96 153,-96"/>
</a>
</g>
</g>
<!-- Node3&#45;&gt;Node1 -->
<g id="edge2_Node000001_Node000003" class="edge">
<title>Node3&#45;&gt;Node1</title>
<g id="a_edge2_Node000001_Node000003"><a xlink:title=" ">
<path fill="none" stroke="#63b8ff" d="M156.32,-95.75C152.67,-86.47 147.96,-75.94 142.5,-67 140.81,-64.23 138.94,-61.46 136.97,-58.73"/>
<polygon fill="none" stroke="#63b8ff" points="136.88,-58.62 130.05,-56.33 129.54,-49.13 136.37,-51.43 136.88,-58.62"/>
</a>
</g>
<text text-anchor="middle" x="174.5" y="-70" font-family="Helvetica,sans-Serif" font-size="10.00" fill="grey"> +db_table</text>
</g>
</g>
</svg>
