<?xml version="1.0" encoding="UTF-8" standalone="no"?>
<!DOCTYPE svg PUBLIC "-//W3C//DTD SVG 1.1//EN"
 "http://www.w3.org/Graphics/SVG/1.1/DTD/svg11.dtd">
<!-- Generated by graphviz version 2.43.0 (0)
 -->
<!-- Title: classroom.views.ClassroomListView Pages: 1 -->
<svg width="244pt" height="179pt"
 viewBox="0.00 0.00 244.00 179.00" xmlns="http://www.w3.org/2000/svg" xmlns:xlink="http://www.w3.org/1999/xlink">

<svg id="main" version="1.1" xmlns="http://www.w3.org/2000/svg" xmlns:xlink="http://www.w3.org/1999/xlink" xml:space="preserve" onload="init(evt)">
<style type="text/css"><![CDATA[
.node, .edge {opacity: 0.7;}
.node.selected, .edge.selected {opacity: 1;}
.edge:hover path { stroke: red; }
.edge:hover polygon { stroke: red; fill: red; }
]]></style>
<script type="application/ecmascript" xlink:href="svg.min.js"/>
<svg id="graph" class="graph">
<g id="graph0" class="graph" transform="scale(1 1) rotate(0) translate(4 175)">
<title>classroom.views.ClassroomListView</title>
<!-- Node1 -->
<g id="Node000001" class="node">
<title>Node1</title>
<g id="a_Node000001"><a xlink:title=" ">
<polygon fill="#999999" stroke="transparent" points="175.5,-75 28.5,-75 28.5,0 175.5,0 175.5,-75"/>
<text text-anchor="start" x="34" y="-62.5" font-family="Helvetica,sans-Serif" font-size="10.00">classroom.views.Classroom</text>
<text text-anchor="start" x="81.5" y="-51.5" font-family="Helvetica,sans-Serif" font-size="10.00">ListView</text>
<text text-anchor="start" x="45.5" y="-36.5" font-family="Helvetica,sans-Serif" font-size="10.00">+</text>
<text text-anchor="start" x="71" y="-36.5" font-family="Helvetica,sans-Serif" font-size="10.00">queryset</text>
<text text-anchor="start" x="45.5" y="-21.5" font-family="Helvetica,sans-Serif" font-size="10.00">+</text>
<text text-anchor="start" x="71" y="-21.5" font-family="Helvetica,sans-Serif" font-size="10.00">serializer_class</text>
<text text-anchor="start" x="100.5" y="-6.5" font-family="Helvetica,sans-Serif" font-size="10.00"> </text>
<polygon fill="#666666" stroke="#666666" points="29,-46.5 29,-46.5 176,-46.5 176,-46.5 29,-46.5"/>
<polygon fill="#666666" stroke="#666666" points="29,-16.5 29,-16.5 69,-16.5 69,-16.5 29,-16.5"/>
<polygon fill="#666666" stroke="#666666" points="69,-16.5 69,-16.5 176,-16.5 176,-16.5 69,-16.5"/>
<polygon fill="none" stroke="#666666" points="28.5,0 28.5,-75 175.5,-75 175.5,0 28.5,0"/>
</a>
</g>
</g>
<!-- Node2 -->
<g id="Node000002" class="node">
<title>Node2</title>
<g id="a_Node000002"><a xlink:title=" ">
<polygon fill="white" stroke="transparent" points="112,-171 0,-171 0,-122 112,-122 112,-171"/>
<text text-anchor="start" x="5" y="-158.5" font-family="Helvetica,sans-Serif" font-size="10.00">generics.ListAPIView</text>
<text text-anchor="start" x="54" y="-143.5" font-family="Helvetica,sans-Serif" font-size="10.00"> </text>
<text text-anchor="start" x="54" y="-128.5" font-family="Helvetica,sans-Serif" font-size="10.00"> </text>
<polygon fill="#666666" stroke="#666666" points="0,-153.5 0,-153.5 112,-153.5 112,-153.5 0,-153.5"/>
<polygon fill="#666666" stroke="#666666" points="0,-138.5 0,-138.5 112,-138.5 112,-138.5 0,-138.5"/>
<polygon fill="none" stroke="#666666" points="0,-122 0,-171 112,-171 112,-122 0,-122"/>
</a>
</g>
</g>
<!-- Node2&#45;&gt;Node1 -->
<g id="edge1_Node000001_Node000002" class="edge">
<title>Node2&#45;&gt;Node1</title>
<g id="a_edge1_Node000001_Node000002"><a xlink:title=" ">
<path fill="none" stroke="#63b8ff" d="M70.27,-112.3C75.33,-100.54 81.04,-87.25 86.22,-75.22"/>
<polygon fill="none" stroke="#63b8ff" points="66.94,-111.18 66.21,-121.75 73.37,-113.95 66.94,-111.18"/>
</a>
</g>
</g>
<!-- Node3 -->
<g id="Node000003" class="node">
<title>Node3</title>
<g id="a_Node000003"><a xlink:title=" ">
<polygon fill="white" stroke="transparent" points="165.5,-171 130.5,-171 130.5,-122 165.5,-122 165.5,-171"/>
<text text-anchor="start" x="136" y="-158.5" font-family="Helvetica,sans-Serif" font-size="10.00">tuple</text>
<text text-anchor="start" x="146.5" y="-143.5" font-family="Helvetica,sans-Serif" font-size="10.00"> </text>
<text text-anchor="start" x="146.5" y="-128.5" font-family="Helvetica,sans-Serif" font-size="10.00"> </text>
<polygon fill="#666666" stroke="#666666" points="131,-153.5 131,-153.5 166,-153.5 166,-153.5 131,-153.5"/>
<polygon fill="#666666" stroke="#666666" points="131,-138.5 131,-138.5 166,-138.5 166,-138.5 131,-138.5"/>
<polygon fill="none" stroke="#666666" points="130.5,-122 130.5,-171 165.5,-171 165.5,-122 130.5,-122"/>
</a>
</g>
</g>
<!-- Node3&#45;&gt;Node1 -->
<g id="edge2_Node000001_Node000003" class="edge">
<title>Node3&#45;&gt;Node1</title>
<g id="a_edge2_Node000001_Node000003"><a xlink:title=" ">
<path fill="none" stroke="#63b8ff" d="M137.79,-121.75C133.29,-111.29 127.84,-98.6 122.55,-86.31"/>
<polygon fill="none" stroke="#63b8ff" points="122.52,-86.24 116.48,-82.31 117.78,-75.22 123.83,-79.15 122.52,-86.24"/>
</a>
</g>
<text text-anchor="middle" x="182.5" y="-96" font-family="Helvetica,sans-Serif" font-size="10.00" fill="grey"> +permission_classes</text>
</g>
</g>
</svg>
</svg>

<style type='text/css'>
<![CDATA[
[data-mouse-over-selected='false'] { opacity: 0.7; }
[data-mouse-over-selected='true']  { opacity: 1.0; }
]]>
</style>
<script type="application/ecmascript"><![CDATA[
document.addEventListener('DOMContentLoaded', (event) => {
  highlightEdges();
  highlightAdjacentNodes();
});
]]></script>
</svg>
