<?xml version="1.0" encoding="UTF-8" standalone="no"?>
<!DOCTYPE svg PUBLIC "-//W3C//DTD SVG 1.1//EN"
 "http://www.w3.org/Graphics/SVG/1.1/DTD/svg11.dtd">
<!-- Generated by graphviz version 2.43.0 (0)
 -->
<!-- Title: attendance.models.MainAttendance Pages: 1 -->
<svg width="285pt" height="198pt"
 viewBox="0.00 0.00 284.50 198.00" xmlns="http://www.w3.org/2000/svg" xmlns:xlink="http://www.w3.org/1999/xlink">

<svg id="main" version="1.1" xmlns="http://www.w3.org/2000/svg" xmlns:xlink="http://www.w3.org/1999/xlink" xml:space="preserve" onload="init(evt)">
<style type="text/css"><![CDATA[
.node, .edge {opacity: 0.7;}
.node.selected, .edge.selected {opacity: 1;}
.edge:hover path { stroke: red; }
.edge:hover polygon { stroke: red; fill: red; }
]]></style>
<script type="application/ecmascript" xlink:href="svg.min.js"/>
<svg id="graph" class="graph">
<g id="graph0" class="graph" transform="scale(1 1) rotate(0) translate(4 194)">
<title>attendance.models.MainAttendance</title>
<!-- Node1 -->
<g id="Node000001" class="node">
<title>Node1</title>
<g id="a_Node000001"><a xlink:title=" ">
<polygon fill="#999999" stroke="transparent" points="187,-94 0,-94 0,0 187,0 187,-94"/>
<text text-anchor="start" x="5.5" y="-82" font-family="Helvetica,sans-Serif" font-size="10.00">attendance.models.MainAttendance</text>
<text text-anchor="start" x="23" y="-67" font-family="Helvetica,sans-Serif" font-size="10.00">+</text>
<text text-anchor="start" x="54.5" y="-67" font-family="Helvetica,sans-Serif" font-size="10.00">attendance_type</text>
<text text-anchor="start" x="23" y="-52" font-family="Helvetica,sans-Serif" font-size="10.00">+</text>
<text text-anchor="start" x="54.5" y="-52" font-family="Helvetica,sans-Serif" font-size="10.00">date_of_producing</text>
<text text-anchor="start" x="23" y="-37" font-family="Helvetica,sans-Serif" font-size="10.00">+</text>
<text text-anchor="start" x="54.5" y="-37" font-family="Helvetica,sans-Serif" font-size="10.00">initiated_by</text>
<text text-anchor="start" x="23" y="-22" font-family="Helvetica,sans-Serif" font-size="10.00">+</text>
<text text-anchor="start" x="54.5" y="-22" font-family="Helvetica,sans-Serif" font-size="10.00">classroom</text>
<text text-anchor="start" x="92" y="-7" font-family="Helvetica,sans-Serif" font-size="10.00"> </text>
<polygon fill="#666666" stroke="#666666" points="0.5,-77 0.5,-77 187.5,-77 187.5,-77 0.5,-77"/>
<polygon fill="#666666" stroke="#666666" points="0.5,-17 0.5,-17 52.5,-17 52.5,-17 0.5,-17"/>
<polygon fill="#666666" stroke="#666666" points="52.5,-17 52.5,-17 187.5,-17 187.5,-17 52.5,-17"/>
<polygon fill="none" stroke="#666666" points="0,0 0,-94 187,-94 187,0 0,0"/>
</a>
</g>
</g>
<!-- Node2 -->
<g id="Node000002" class="node">
<title>Node2</title>
<g id="a_Node000002"><a xlink:title=" ">
<polygon fill="white" stroke="transparent" points="95.5,-190 15.5,-190 15.5,-141 95.5,-141 95.5,-190"/>
<text text-anchor="start" x="20.5" y="-177.5" font-family="Helvetica,sans-Serif" font-size="10.00">models.Model</text>
<text text-anchor="start" x="53.5" y="-162.5" font-family="Helvetica,sans-Serif" font-size="10.00"> </text>
<text text-anchor="start" x="53.5" y="-147.5" font-family="Helvetica,sans-Serif" font-size="10.00"> </text>
<polygon fill="#666666" stroke="#666666" points="15.5,-172.5 15.5,-172.5 95.5,-172.5 95.5,-172.5 15.5,-172.5"/>
<polygon fill="#666666" stroke="#666666" points="15.5,-157.5 15.5,-157.5 95.5,-157.5 95.5,-157.5 15.5,-157.5"/>
<polygon fill="none" stroke="#666666" points="15.5,-141 15.5,-190 95.5,-190 95.5,-141 15.5,-141"/>
</a>
</g>
</g>
<!-- Node2&#45;&gt;Node1 -->
<g id="edge1_Node000001_Node000002" class="edge">
<title>Node2&#45;&gt;Node1</title>
<g id="a_edge1_Node000001_Node000002"><a xlink:title=" ">
<path fill="none" stroke="#63b8ff" d="M66.34,-131.26C70.11,-119.72 74.4,-106.57 78.44,-94.17"/>
<polygon fill="none" stroke="#63b8ff" points="62.96,-130.33 63.19,-140.92 69.62,-132.5 62.96,-130.33"/>
</a>
</g>
</g>
<!-- Node3 -->
<g id="Node000003" class="node">
<title>Node3</title>
<g id="a_Node000003"><a xlink:title=" ">
<polygon fill="white" stroke="transparent" points="149,-190 114,-190 114,-141 149,-141 149,-190"/>
<text text-anchor="start" x="119.5" y="-177.5" font-family="Helvetica,sans-Serif" font-size="10.00">tuple</text>
<text text-anchor="start" x="130" y="-162.5" font-family="Helvetica,sans-Serif" font-size="10.00"> </text>
<text text-anchor="start" x="130" y="-147.5" font-family="Helvetica,sans-Serif" font-size="10.00"> </text>
<polygon fill="#666666" stroke="#666666" points="114.5,-172.5 114.5,-172.5 149.5,-172.5 149.5,-172.5 114.5,-172.5"/>
<polygon fill="#666666" stroke="#666666" points="114.5,-157.5 114.5,-157.5 149.5,-157.5 149.5,-157.5 114.5,-157.5"/>
<polygon fill="none" stroke="#666666" points="114,-141 114,-190 149,-190 149,-141 114,-141"/>
</a>
</g>
</g>
<!-- Node3&#45;&gt;Node1 -->
<g id="edge2_Node000001_Node000003" class="edge">
<title>Node3&#45;&gt;Node1</title>
<g id="a_edge2_Node000001_Node000003"><a xlink:title=" ">
<path fill="none" stroke="#63b8ff" d="M123.81,-140.92C120.46,-130.64 116.36,-118.09 112.28,-105.58"/>
<polygon fill="none" stroke="#63b8ff" points="112.28,-105.58 106.62,-101.12 108.56,-94.17 114.22,-98.64 112.28,-105.58"/>
</a>
</g>
<text text-anchor="middle" x="196.5" y="-115" font-family="Helvetica,sans-Serif" font-size="10.00" fill="grey"> +ATTENDANCE_TYPE_CHOOSES</text>
</g>
</g>
</svg>
</svg>

<style type='text/css'>
<![CDATA[
[data-mouse-over-selected='false'] { opacity: 0.7; }
[data-mouse-over-selected='true']  { opacity: 1.0; }
]]>
</style>
<script type="application/ecmascript"><![CDATA[
document.addEventListener('DOMContentLoaded', (event) => {
  highlightEdges();
  highlightAdjacentNodes();
});
]]></script>
</svg>
