<?xml version="1.0" encoding="UTF-8" standalone="no"?>
<!DOCTYPE svg PUBLIC "-//W3C//DTD SVG 1.1//EN"
 "http://www.w3.org/Graphics/SVG/1.1/DTD/svg11.dtd">
<!-- Generated by graphviz version 2.43.0 (0)
 -->
<!-- Title: user.serializers.StudentAttendanceSerializer.Meta Pages: 1 -->
<svg width="147pt" height="164pt"
 viewBox="0.00 0.00 147.00 164.00" xmlns="http://www.w3.org/2000/svg" xmlns:xlink="http://www.w3.org/1999/xlink">
<g id="graph0" class="graph" transform="scale(1 1) rotate(0) translate(4 160)">
<title>user.serializers.StudentAttendanceSerializer.Meta</title>
<!-- Node1 -->
<g id="Node000001" class="node">
<title>Node1</title>
<g id="a_Node000001"><a xlink:title=" ">
<polygon fill="#999999" stroke="transparent" points="139,-60 0,-60 0,0 139,0 139,-60"/>
<text text-anchor="start" x="5.5" y="-48" font-family="Helvetica,sans-Serif" font-size="10.00">user.serializers.Student</text>
<text text-anchor="start" x="5.5" y="-37" font-family="Helvetica,sans-Serif" font-size="10.00">AttendanceSerializer.Meta</text>
<text text-anchor="start" x="26" y="-22" font-family="Helvetica,sans-Serif" font-size="10.00">+</text>
<text text-anchor="start" x="60.5" y="-22" font-family="Helvetica,sans-Serif" font-size="10.00">model</text>
<text text-anchor="start" x="68" y="-7" font-family="Helvetica,sans-Serif" font-size="10.00"> </text>
<polygon fill="#666666" stroke="#666666" points="0.5,-32 0.5,-32 139.5,-32 139.5,-32 0.5,-32"/>
<polygon fill="#666666" stroke="#666666" points="0.5,-17 0.5,-17 58.5,-17 58.5,-17 0.5,-17"/>
<polygon fill="#666666" stroke="#666666" points="58.5,-17 58.5,-17 139.5,-17 139.5,-17 58.5,-17"/>
<polygon fill="none" stroke="#666666" points="0,0 0,-60 139,-60 139,0 0,0"/>
</a>
</g>
</g>
<!-- Node2 -->
<g id="Node000002" class="node">
<title>Node2</title>
<g id="a_Node000002"><a xlink:title=" ">
<polygon fill="white" stroke="transparent" points="82.5,-156 56.5,-156 56.5,-107 82.5,-107 82.5,-156"/>
<text text-anchor="start" x="61.5" y="-143.5" font-family="Helvetica,sans-Serif" font-size="10.00">list</text>
<text text-anchor="start" x="67.5" y="-128.5" font-family="Helvetica,sans-Serif" font-size="10.00"> </text>
<text text-anchor="start" x="67.5" y="-113.5" font-family="Helvetica,sans-Serif" font-size="10.00"> </text>
<polygon fill="#666666" stroke="#666666" points="56.5,-138.5 56.5,-138.5 82.5,-138.5 82.5,-138.5 56.5,-138.5"/>
<polygon fill="#666666" stroke="#666666" points="56.5,-123.5 56.5,-123.5 82.5,-123.5 82.5,-123.5 56.5,-123.5"/>
<polygon fill="none" stroke="#666666" points="56.5,-107 56.5,-156 82.5,-156 82.5,-107 56.5,-107"/>
</a>
</g>
</g>
<!-- Node2&#45;&gt;Node1 -->
<g id="edge1_Node000001_Node000002" class="edge">
<title>Node2&#45;&gt;Node1</title>
<g id="a_edge1_Node000001_Node000002"><a xlink:title=" ">
<path fill="none" stroke="#63b8ff" d="M69.5,-106.92C69.5,-96.51 69.5,-83.97 69.5,-72.1"/>
<polygon fill="none" stroke="#63b8ff" points="69.5,-72.1 65.5,-66.1 69.5,-60.1 73.5,-66.1 69.5,-72.1"/>
</a>
</g>
<text text-anchor="middle" x="88.5" y="-81" font-family="Helvetica,sans-Serif" font-size="10.00" fill="grey"> +fields</text>
</g>
</g>
</svg>
