<?xml version="1.0" encoding="UTF-8" standalone="no"?>
<!DOCTYPE svg PUBLIC "-//W3C//DTD SVG 1.1//EN"
 "http://www.w3.org/Graphics/SVG/1.1/DTD/svg11.dtd">
<!-- Generated by graphviz version 2.43.0 (0)
 -->
<!-- Title: webhooks.management.commands.set_telegram_webhook.Command Pages: 1 -->
<svg width="211pt" height="179pt"
 viewBox="0.00 0.00 211.00 179.00" xmlns="http://www.w3.org/2000/svg" xmlns:xlink="http://www.w3.org/1999/xlink">

<svg id="main" version="1.1" xmlns="http://www.w3.org/2000/svg" xmlns:xlink="http://www.w3.org/1999/xlink" xml:space="preserve" onload="init(evt)">
<style type="text/css"><![CDATA[
.node, .edge {opacity: 0.7;}
.node.selected, .edge.selected {opacity: 1;}
.edge:hover path { stroke: red; }
.edge:hover polygon { stroke: red; fill: red; }
]]></style>
<script type="application/ecmascript" xlink:href="svg.min.js"/>
<svg id="graph" class="graph">
<g id="graph0" class="graph" transform="scale(1 1) rotate(0) translate(4 175)">
<title>webhooks.management.commands.set_telegram_webhook.Command</title>
<!-- Node1 -->
<g id="Node000001" class="node">
<title>Node1</title>
<g id="a_Node000001"><a xlink:title=" ">
<polygon fill="#999999" stroke="transparent" points="203,-75 0,-75 0,0 203,0 203,-75"/>
<text text-anchor="start" x="5.5" y="-62.5" font-family="Helvetica,sans-Serif" font-size="10.00">webhooks.management.commands.set</text>
<text text-anchor="start" x="25.5" y="-51.5" font-family="Helvetica,sans-Serif" font-size="10.00">_telegram_webhook.Command</text>
<text text-anchor="start" x="100" y="-36.5" font-family="Helvetica,sans-Serif" font-size="10.00"> </text>
<text text-anchor="start" x="29" y="-21.5" font-family="Helvetica,sans-Serif" font-size="10.00">+</text>
<text text-anchor="start" x="66.5" y="-21.5" font-family="Helvetica,sans-Serif" font-size="10.00">add_arguments()</text>
<text text-anchor="start" x="29" y="-6.5" font-family="Helvetica,sans-Serif" font-size="10.00">+</text>
<text text-anchor="start" x="66.5" y="-6.5" font-family="Helvetica,sans-Serif" font-size="10.00">handle()</text>
<polygon fill="#666666" stroke="#666666" points="0.5,-46.5 0.5,-46.5 203.5,-46.5 203.5,-46.5 0.5,-46.5"/>
<polygon fill="#666666" stroke="#666666" points="0.5,-31.5 0.5,-31.5 203.5,-31.5 203.5,-31.5 0.5,-31.5"/>
<polygon fill="none" stroke="#666666" points="0,0 0,-75 203,-75 203,0 0,0"/>
</a>
</g>
</g>
<!-- Node2 -->
<g id="Node000002" class="node">
<title>Node2</title>
<g id="a_Node000002"><a xlink:title=" ">
<polygon fill="white" stroke="transparent" points="108,-171 23,-171 23,-122 108,-122 108,-171"/>
<text text-anchor="start" x="28.5" y="-158.5" font-family="Helvetica,sans-Serif" font-size="10.00">BaseCommand</text>
<text text-anchor="start" x="64" y="-143.5" font-family="Helvetica,sans-Serif" font-size="10.00"> </text>
<text text-anchor="start" x="64" y="-128.5" font-family="Helvetica,sans-Serif" font-size="10.00"> </text>
<polygon fill="#666666" stroke="#666666" points="23.5,-153.5 23.5,-153.5 108.5,-153.5 108.5,-153.5 23.5,-153.5"/>
<polygon fill="#666666" stroke="#666666" points="23.5,-138.5 23.5,-138.5 108.5,-138.5 108.5,-138.5 23.5,-138.5"/>
<polygon fill="none" stroke="#666666" points="23,-122 23,-171 108,-171 108,-122 23,-122"/>
</a>
</g>
</g>
<!-- Node2&#45;&gt;Node1 -->
<g id="edge1_Node000001_Node000002" class="edge">
<title>Node2&#45;&gt;Node1</title>
<g id="a_edge1_Node000001_Node000002"><a xlink:title=" ">
<path fill="none" stroke="#63b8ff" d="M76.79,-111.95C80.72,-100.28 85.14,-87.13 89.15,-75.22"/>
<polygon fill="none" stroke="#63b8ff" points="73.36,-111.16 73.49,-121.75 80,-113.39 73.36,-111.16"/>
</a>
</g>
</g>
<!-- Node3 -->
<g id="Node000003" class="node">
<title>Node3</title>
<g id="a_Node000003"><a xlink:title=" ">
<polygon fill="white" stroke="transparent" points="149,-171 126,-171 126,-122 149,-122 149,-171"/>
<text text-anchor="start" x="131.5" y="-158.5" font-family="Helvetica,sans-Serif" font-size="10.00">str</text>
<text text-anchor="start" x="136" y="-143.5" font-family="Helvetica,sans-Serif" font-size="10.00"> </text>
<text text-anchor="start" x="136" y="-128.5" font-family="Helvetica,sans-Serif" font-size="10.00"> </text>
<polygon fill="#666666" stroke="#666666" points="126.5,-153.5 126.5,-153.5 149.5,-153.5 149.5,-153.5 126.5,-153.5"/>
<polygon fill="#666666" stroke="#666666" points="126.5,-138.5 126.5,-138.5 149.5,-138.5 149.5,-138.5 126.5,-138.5"/>
<polygon fill="none" stroke="#666666" points="126,-122 126,-171 149,-171 149,-122 126,-122"/>
</a>
</g>
</g>
<!-- Node3&#45;&gt;Node1 -->
<g id="edge2_Node000001_Node000003" class="edge">
<title>Node3&#45;&gt;Node1</title>
<g id="a_edge2_Node000001_Node000003"><a xlink:title=" ">
<path fill="none" stroke="#63b8ff" d="M129.51,-121.75C126.03,-111.4 121.81,-98.86 117.71,-86.69"/>
<polygon fill="none" stroke="#63b8ff" points="117.68,-86.59 111.98,-82.18 113.85,-75.22 119.56,-79.63 117.68,-86.59"/>
</a>
</g>
<text text-anchor="middle" x="139" y="-96" font-family="Helvetica,sans-Serif" font-size="10.00" fill="grey"> +help</text>
</g>
</g>
</svg>
</svg>

<style type='text/css'>
<![CDATA[
[data-mouse-over-selected='false'] { opacity: 0.7; }
[data-mouse-over-selected='true']  { opacity: 1.0; }
]]>
</style>
<script type="application/ecmascript"><![CDATA[
document.addEventListener('DOMContentLoaded', (event) => {
  highlightEdges();
  highlightAdjacentNodes();
});
]]></script>
</svg>
