<?xml version="1.0" encoding="UTF-8" standalone="no"?>
<!DOCTYPE svg PUBLIC "-//W3C//DTD SVG 1.1//EN"
 "http://www.w3.org/Graphics/SVG/1.1/DTD/svg11.dtd">
<!-- Generated by graphviz version 2.43.0 (0)
 -->
<!-- Title: exchange.views.CommentRetrieveView Pages: 1 -->
<svg width="268pt" height="168pt"
 viewBox="0.00 0.00 267.50 168.00" xmlns="http://www.w3.org/2000/svg" xmlns:xlink="http://www.w3.org/1999/xlink">
<g id="graph0" class="graph" transform="scale(1 1) rotate(0) translate(4 164)">
<title>exchange.views.CommentRetrieveView</title>
<!-- Node1 -->
<g id="Node000001" class="node">
<title>Node1</title>
<g id="a_Node000001"><a xlink:title=" ">
<polygon fill="#999999" stroke="transparent" points="224.5,-64 18.5,-64 18.5,0 224.5,0 224.5,-64"/>
<text text-anchor="start" x="23.5" y="-52" font-family="Helvetica,sans-Serif" font-size="10.00">exchange.views.CommentRetrieveView</text>
<text text-anchor="start" x="49.5" y="-37" font-family="Helvetica,sans-Serif" font-size="10.00">+</text>
<text text-anchor="start" x="89.5" y="-37" font-family="Helvetica,sans-Serif" font-size="10.00">queryset</text>
<text text-anchor="start" x="49.5" y="-22" font-family="Helvetica,sans-Serif" font-size="10.00">+</text>
<text text-anchor="start" x="89.5" y="-22" font-family="Helvetica,sans-Serif" font-size="10.00">serializer_class</text>
<text text-anchor="start" x="119.5" y="-7" font-family="Helvetica,sans-Serif" font-size="10.00"> </text>
<polygon fill="#666666" stroke="#666666" points="18.5,-47 18.5,-47 224.5,-47 224.5,-47 18.5,-47"/>
<polygon fill="#666666" stroke="#666666" points="18.5,-17 18.5,-17 87.5,-17 87.5,-17 18.5,-17"/>
<polygon fill="#666666" stroke="#666666" points="87.5,-17 87.5,-17 224.5,-17 224.5,-17 87.5,-17"/>
<polygon fill="none" stroke="#666666" points="18.5,0 18.5,-64 224.5,-64 224.5,0 18.5,0"/>
</a>
</g>
</g>
<!-- Node2 -->
<g id="Node000002" class="node">
<title>Node2</title>
<g id="a_Node000002"><a xlink:title=" ">
<polygon fill="white" stroke="transparent" points="139,-160 0,-160 0,-111 139,-111 139,-160"/>
<text text-anchor="start" x="5.5" y="-147.5" font-family="Helvetica,sans-Serif" font-size="10.00">generics::RetrieveAPIView</text>
<text text-anchor="start" x="68" y="-132.5" font-family="Helvetica,sans-Serif" font-size="10.00"> </text>
<text text-anchor="start" x="68" y="-117.5" font-family="Helvetica,sans-Serif" font-size="10.00"> </text>
<polygon fill="#666666" stroke="#666666" points="0.5,-142.5 0.5,-142.5 139.5,-142.5 139.5,-142.5 0.5,-142.5"/>
<polygon fill="#666666" stroke="#666666" points="0.5,-127.5 0.5,-127.5 139.5,-127.5 139.5,-127.5 0.5,-127.5"/>
<polygon fill="none" stroke="#666666" points="0,-111 0,-160 139,-160 139,-111 0,-111"/>
</a>
</g>
</g>
<!-- Node2&#45;&gt;Node1 -->
<g id="edge1_Node000001_Node000002" class="edge">
<title>Node2&#45;&gt;Node1</title>
<g id="a_edge1_Node000001_Node000002"><a xlink:title=" ">
<path fill="none" stroke="#63b8ff" d="M86.13,-102.04C92.35,-89.89 99.4,-76.13 105.56,-64.11"/>
<polygon fill="none" stroke="#63b8ff" points="83.01,-100.46 81.56,-110.96 89.24,-103.65 83.01,-100.46"/>
</a>
</g>
</g>
<!-- Node3 -->
<g id="Node000003" class="node">
<title>Node3</title>
<g id="a_Node000003"><a xlink:title=" ">
<polygon fill="white" stroke="transparent" points="192,-160 157,-160 157,-111 192,-111 192,-160"/>
<text text-anchor="start" x="162.5" y="-147.5" font-family="Helvetica,sans-Serif" font-size="10.00">tuple</text>
<text text-anchor="start" x="173" y="-132.5" font-family="Helvetica,sans-Serif" font-size="10.00"> </text>
<text text-anchor="start" x="173" y="-117.5" font-family="Helvetica,sans-Serif" font-size="10.00"> </text>
<polygon fill="#666666" stroke="#666666" points="157.5,-142.5 157.5,-142.5 192.5,-142.5 192.5,-142.5 157.5,-142.5"/>
<polygon fill="#666666" stroke="#666666" points="157.5,-127.5 157.5,-127.5 192.5,-127.5 192.5,-127.5 157.5,-127.5"/>
<polygon fill="none" stroke="#666666" points="157,-111 157,-160 192,-160 192,-111 157,-111"/>
</a>
</g>
</g>
<!-- Node3&#45;&gt;Node1 -->
<g id="edge2_Node000001_Node000003" class="edge">
<title>Node3&#45;&gt;Node1</title>
<g id="a_edge2_Node000001_Node000003"><a xlink:title=" ">
<path fill="none" stroke="#63b8ff" d="M162.21,-110.96C156.64,-100.29 149.87,-87.34 143.47,-75.08"/>
<polygon fill="none" stroke="#63b8ff" points="143.3,-74.75 136.98,-71.28 137.74,-64.11 144.07,-67.58 143.3,-74.75"/>
</a>
</g>
<text text-anchor="middle" x="206" y="-85" font-family="Helvetica,sans-Serif" font-size="10.00" fill="grey"> +permission_classes</text>
</g>
</g>
</svg>
