<?xml version="1.0" encoding="UTF-8" standalone="no"?>
<!DOCTYPE svg PUBLIC "-//W3C//DTD SVG 1.1//EN"
 "http://www.w3.org/Graphics/SVG/1.1/DTD/svg11.dtd">
<!-- Generated by graphviz version 2.43.0 (0)
 -->
<!-- Title: user.serializers.HODSerializer.Meta Pages: 1 -->
<svg width="190pt" height="153pt"
 viewBox="0.00 0.00 190.00 153.00" xmlns="http://www.w3.org/2000/svg" xmlns:xlink="http://www.w3.org/1999/xlink">
<g id="graph0" class="graph" transform="scale(1 1) rotate(0) translate(4 149)">
<title>user.serializers.HODSerializer.Meta</title>
<!-- Node1 -->
<g id="Node000001" class="node">
<title>Node1</title>
<g id="a_Node000001"><a xlink:title=" ">
<polygon fill="#999999" stroke="transparent" points="182,-49 0,-49 0,0 182,0 182,-49"/>
<text text-anchor="start" x="5" y="-36.5" font-family="Helvetica,sans-Serif" font-size="10.00">user.serializers.HODSerializer.Meta</text>
<text text-anchor="start" x="36.5" y="-21.5" font-family="Helvetica,sans-Serif" font-size="10.00">+</text>
<text text-anchor="start" x="82" y="-21.5" font-family="Helvetica,sans-Serif" font-size="10.00">model</text>
<text text-anchor="start" x="89" y="-6.5" font-family="Helvetica,sans-Serif" font-size="10.00"> </text>
<polygon fill="#666666" stroke="#666666" points="0,-31.5 0,-31.5 182,-31.5 182,-31.5 0,-31.5"/>
<polygon fill="#666666" stroke="#666666" points="0,-16.5 0,-16.5 80,-16.5 80,-16.5 0,-16.5"/>
<polygon fill="#666666" stroke="#666666" points="80,-16.5 80,-16.5 182,-16.5 182,-16.5 80,-16.5"/>
<polygon fill="none" stroke="#666666" points="0,0 0,-49 182,-49 182,0 0,0"/>
</a>
</g>
</g>
<!-- Node2 -->
<g id="Node000002" class="node">
<title>Node2</title>
<g id="a_Node000002"><a xlink:title=" ">
<polygon fill="white" stroke="transparent" points="104,-145 78,-145 78,-96 104,-96 104,-145"/>
<text text-anchor="start" x="83" y="-132.5" font-family="Helvetica,sans-Serif" font-size="10.00">list</text>
<text text-anchor="start" x="89" y="-117.5" font-family="Helvetica,sans-Serif" font-size="10.00"> </text>
<text text-anchor="start" x="89" y="-102.5" font-family="Helvetica,sans-Serif" font-size="10.00"> </text>
<polygon fill="#666666" stroke="#666666" points="78,-127.5 78,-127.5 104,-127.5 104,-127.5 78,-127.5"/>
<polygon fill="#666666" stroke="#666666" points="78,-112.5 78,-112.5 104,-112.5 104,-112.5 78,-112.5"/>
<polygon fill="none" stroke="#666666" points="78,-96 78,-145 104,-145 104,-96 78,-96"/>
</a>
</g>
</g>
<!-- Node2&#45;&gt;Node1 -->
<g id="edge1_Node000001_Node000002" class="edge">
<title>Node2&#45;&gt;Node1</title>
<g id="a_edge1_Node000001_Node000002"><a xlink:title=" ">
<path fill="none" stroke="#63b8ff" d="M91,-95.78C91,-85.32 91,-72.79 91,-61.23"/>
<polygon fill="none" stroke="#63b8ff" points="91,-61.21 87,-55.21 91,-49.21 95,-55.21 91,-61.21"/>
</a>
</g>
<text text-anchor="middle" x="110" y="-70" font-family="Helvetica,sans-Serif" font-size="10.00" fill="grey"> +fields</text>
</g>
</g>
</svg>
