<?xml version="1.0" encoding="UTF-8" standalone="no"?>
<!DOCTYPE svg PUBLIC "-//W3C//DTD SVG 1.1//EN"
 "http://www.w3.org/Graphics/SVG/1.1/DTD/svg11.dtd">
<!-- Generated by graphviz version 2.43.0 (0)
 -->
<!-- Title: exchange.serializers.CommentSerializer Pages: 1 -->
<svg width="170pt" height="153pt"
 viewBox="0.00 0.00 170.00 153.00" xmlns="http://www.w3.org/2000/svg" xmlns:xlink="http://www.w3.org/1999/xlink">
<g id="graph0" class="graph" transform="scale(1 1) rotate(0) translate(4 149)">
<title>exchange.serializers.CommentSerializer</title>
<!-- Node1 -->
<g id="Node000001" class="node">
<title>Node1</title>
<g id="a_Node000001"><a xlink:title=" ">
<polygon fill="#999999" stroke="transparent" points="162,-60 0,-60 0,0 162,0 162,-60"/>
<text text-anchor="start" x="5" y="-48" font-family="Helvetica,sans-Serif" font-size="10.00">exchange.serializers.Comment</text>
<text text-anchor="start" x="58" y="-37" font-family="Helvetica,sans-Serif" font-size="10.00">Serializer</text>
<text text-anchor="start" x="79" y="-22" font-family="Helvetica,sans-Serif" font-size="10.00"> </text>
<text text-anchor="start" x="79" y="-7" font-family="Helvetica,sans-Serif" font-size="10.00"> </text>
<polygon fill="#666666" stroke="#666666" points="0,-32 0,-32 162,-32 162,-32 0,-32"/>
<polygon fill="#666666" stroke="#666666" points="0,-17 0,-17 162,-17 162,-17 0,-17"/>
<polygon fill="none" stroke="#666666" points="0,0 0,-60 162,-60 162,0 0,0"/>
</a>
</g>
</g>
<!-- Node2 -->
<g id="Node000002" class="node">
<title>Node2</title>
<g id="a_Node000002"><a xlink:title=" ">
<polygon fill="white" stroke="transparent" points="151,-145 11,-145 11,-96 151,-96 151,-145"/>
<text text-anchor="start" x="16" y="-132.5" font-family="Helvetica,sans-Serif" font-size="10.00">serializers.ModelSerializer</text>
<text text-anchor="start" x="79" y="-117.5" font-family="Helvetica,sans-Serif" font-size="10.00"> </text>
<text text-anchor="start" x="79" y="-102.5" font-family="Helvetica,sans-Serif" font-size="10.00"> </text>
<polygon fill="#666666" stroke="#666666" points="11,-127.5 11,-127.5 151,-127.5 151,-127.5 11,-127.5"/>
<polygon fill="#666666" stroke="#666666" points="11,-112.5 11,-112.5 151,-112.5 151,-112.5 11,-112.5"/>
<polygon fill="none" stroke="#666666" points="11,-96 11,-145 151,-145 151,-96 11,-96"/>
</a>
</g>
</g>
<!-- Node2&#45;&gt;Node1 -->
<g id="edge1_Node000001_Node000002" class="edge">
<title>Node2&#45;&gt;Node1</title>
<g id="a_edge1_Node000001_Node000002"><a xlink:title=" ">
<path fill="none" stroke="#63b8ff" d="M81,-85.55C81,-77.18 81,-68.28 81,-60.16"/>
<polygon fill="none" stroke="#63b8ff" points="77.5,-85.78 81,-95.78 84.5,-85.78 77.5,-85.78"/>
</a>
</g>
</g>
</g>
</svg>
