<?xml version="1.0" encoding="UTF-8" standalone="no"?>
<!DOCTYPE svg PUBLIC "-//W3C//DTD SVG 1.1//EN"
 "http://www.w3.org/Graphics/SVG/1.1/DTD/svg11.dtd">
<!-- Generated by graphviz version 2.43.0 (0)
 -->
<!-- Title: assignment.apps.AssignmentConfig Pages: 1 -->
<svg width="204pt" height="175pt"
 viewBox="0.00 0.00 203.50 175.00" xmlns="http://www.w3.org/2000/svg" xmlns:xlink="http://www.w3.org/1999/xlink">

<svg id="main" version="1.1" xmlns="http://www.w3.org/2000/svg" xmlns:xlink="http://www.w3.org/1999/xlink" xml:space="preserve" onload="init(evt)">
<style type="text/css"><![CDATA[
.node, .edge {opacity: 0.7;}
.node.selected, .edge.selected {opacity: 1;}
.edge:hover path { stroke: red; }
.edge:hover polygon { stroke: red; fill: red; }
]]></style>
<script type="application/ecmascript" xlink:href="svg.min.js"/>
<svg id="graph" class="graph">
<g id="graph0" class="graph" transform="scale(1 1) rotate(0) translate(4 171)">
<title>assignment.apps.AssignmentConfig</title>
<!-- Node1 -->
<g id="Node000001" class="node">
<title>Node1</title>
<g id="a_Node000001"><a xlink:title=" ">
<polygon fill="#999999" stroke="transparent" points="155,-60 0,-60 0,0 155,0 155,-60"/>
<text text-anchor="start" x="5.5" y="-48" font-family="Helvetica,sans-Serif" font-size="10.00">assignment.apps.Assignment</text>
<text text-anchor="start" x="62.5" y="-37" font-family="Helvetica,sans-Serif" font-size="10.00">Config</text>
<text text-anchor="start" x="76" y="-22" font-family="Helvetica,sans-Serif" font-size="10.00"> </text>
<text text-anchor="start" x="76" y="-7" font-family="Helvetica,sans-Serif" font-size="10.00"> </text>
<polygon fill="#666666" stroke="#666666" points="0.5,-32 0.5,-32 155.5,-32 155.5,-32 0.5,-32"/>
<polygon fill="#666666" stroke="#666666" points="0.5,-17 0.5,-17 155.5,-17 155.5,-17 0.5,-17"/>
<polygon fill="none" stroke="#666666" points="0,0 0,-60 155,-60 155,0 0,0"/>
</a>
</g>
</g>
<!-- Node2 -->
<g id="Node000002" class="node">
<title>Node2</title>
<g id="a_Node000002"><a xlink:title=" ">
<polygon fill="white" stroke="transparent" points="77.5,-167 17.5,-167 17.5,-118 77.5,-118 77.5,-167"/>
<text text-anchor="start" x="22.5" y="-154.5" font-family="Helvetica,sans-Serif" font-size="10.00">AppConfig</text>
<text text-anchor="start" x="45.5" y="-139.5" font-family="Helvetica,sans-Serif" font-size="10.00"> </text>
<text text-anchor="start" x="45.5" y="-124.5" font-family="Helvetica,sans-Serif" font-size="10.00"> </text>
<polygon fill="#666666" stroke="#666666" points="17.5,-149.5 17.5,-149.5 77.5,-149.5 77.5,-149.5 17.5,-149.5"/>
<polygon fill="#666666" stroke="#666666" points="17.5,-134.5 17.5,-134.5 77.5,-134.5 77.5,-134.5 17.5,-134.5"/>
<polygon fill="none" stroke="#666666" points="17.5,-118 17.5,-167 77.5,-167 77.5,-118 17.5,-118"/>
</a>
</g>
</g>
<!-- Node2&#45;&gt;Node1 -->
<g id="edge1_Node000001_Node000002" class="edge">
<title>Node2&#45;&gt;Node1</title>
<g id="a_edge1_Node000001_Node000002"><a xlink:title=" ">
<path fill="none" stroke="#63b8ff" d="M56.66,-107.75C60.79,-92.56 65.61,-74.79 69.58,-60.17"/>
<polygon fill="none" stroke="#63b8ff" points="53.18,-107.23 53.94,-117.79 59.93,-109.06 53.18,-107.23"/>
</a>
</g>
</g>
<!-- Node3 -->
<g id="Node000003" class="node">
<title>Node3</title>
<g id="a_Node000003"><a xlink:title=" ">
<polygon fill="white" stroke="transparent" points="119,-167 96,-167 96,-118 119,-118 119,-167"/>
<text text-anchor="start" x="101.5" y="-154.5" font-family="Helvetica,sans-Serif" font-size="10.00">str</text>
<text text-anchor="start" x="106" y="-139.5" font-family="Helvetica,sans-Serif" font-size="10.00"> </text>
<text text-anchor="start" x="106" y="-124.5" font-family="Helvetica,sans-Serif" font-size="10.00"> </text>
<polygon fill="#666666" stroke="#666666" points="96.5,-149.5 96.5,-149.5 119.5,-149.5 119.5,-149.5 96.5,-149.5"/>
<polygon fill="#666666" stroke="#666666" points="96.5,-134.5 96.5,-134.5 119.5,-134.5 119.5,-134.5 96.5,-134.5"/>
<polygon fill="none" stroke="#666666" points="96,-118 96,-167 119,-167 119,-118 96,-118"/>
</a>
</g>
</g>
<!-- Node3&#45;&gt;Node1 -->
<g id="edge2_Node000001_Node000003" class="edge">
<title>Node3&#45;&gt;Node1</title>
<g id="a_edge2_Node000001_Node000003"><a xlink:title=" ">
<path fill="none" stroke="#63b8ff" d="M101.06,-117.79C97.45,-104.48 92.84,-87.5 88.66,-72.09"/>
<polygon fill="none" stroke="#63b8ff" points="88.56,-71.75 83.13,-67.01 85.42,-60.17 90.85,-64.92 88.56,-71.75"/>
</a>
</g>
<text text-anchor="middle" x="145.5" y="-92" font-family="Helvetica,sans-Serif" font-size="10.00" fill="grey"> +default_auto_field</text>
<text text-anchor="middle" x="145.5" y="-81" font-family="Helvetica,sans-Serif" font-size="10.00" fill="grey">+name</text>
</g>
</g>
</svg>
</svg>

<style type='text/css'>
<![CDATA[
[data-mouse-over-selected='false'] { opacity: 0.7; }
[data-mouse-over-selected='true']  { opacity: 1.0; }
]]>
</style>
<script type="application/ecmascript"><![CDATA[
document.addEventListener('DOMContentLoaded', (event) => {
  highlightEdges();
  highlightAdjacentNodes();
});
]]></script>
</svg>
