<?xml version="1.0" encoding="UTF-8" standalone="no"?>
<!DOCTYPE svg PUBLIC "-//W3C//DTD SVG 1.1//EN"
 "http://www.w3.org/Graphics/SVG/1.1/DTD/svg11.dtd">
<!-- Generated by graphviz version 2.43.0 (0)
 -->
<!-- Title: attendance.serializer.AttendanceSerializer Pages: 1 -->
<svg width="179pt" height="183pt"
 viewBox="0.00 0.00 179.00 183.00" xmlns="http://www.w3.org/2000/svg" xmlns:xlink="http://www.w3.org/1999/xlink">
<g id="graph0" class="graph" transform="scale(1 1) rotate(0) translate(4 179)">
<title>attendance.serializer.AttendanceSerializer</title>
<!-- Node1 -->
<g id="Node000001" class="node">
<title>Node1</title>
<g id="a_Node000001"><a xlink:title=" ">
<polygon fill="#999999" stroke="transparent" points="171,-90 0,-90 0,0 171,0 171,-90"/>
<text text-anchor="start" x="5.5" y="-78" font-family="Helvetica,sans-Serif" font-size="10.00">attendance.serializer.Attendance</text>
<text text-anchor="start" x="63" y="-67" font-family="Helvetica,sans-Serif" font-size="10.00">Serializer</text>
<text text-anchor="start" x="19" y="-52" font-family="Helvetica,sans-Serif" font-size="10.00">+</text>
<text text-anchor="start" x="46.5" y="-52" font-family="Helvetica,sans-Serif" font-size="10.00">id</text>
<text text-anchor="start" x="19" y="-37" font-family="Helvetica,sans-Serif" font-size="10.00">+</text>
<text text-anchor="start" x="46.5" y="-37" font-family="Helvetica,sans-Serif" font-size="10.00">initiated_by</text>
<text text-anchor="start" x="19" y="-22" font-family="Helvetica,sans-Serif" font-size="10.00">+</text>
<text text-anchor="start" x="46.5" y="-22" font-family="Helvetica,sans-Serif" font-size="10.00">date_of_producing</text>
<text text-anchor="start" x="84" y="-7" font-family="Helvetica,sans-Serif" font-size="10.00"> </text>
<polygon fill="#666666" stroke="#666666" points="0.5,-62 0.5,-62 171.5,-62 171.5,-62 0.5,-62"/>
<polygon fill="#666666" stroke="#666666" points="0.5,-17 0.5,-17 44.5,-17 44.5,-17 0.5,-17"/>
<polygon fill="#666666" stroke="#666666" points="44.5,-17 44.5,-17 171.5,-17 171.5,-17 44.5,-17"/>
<polygon fill="none" stroke="#666666" points="0,0 0,-90 171,-90 171,0 0,0"/>
</a>
</g>
</g>
<!-- Node2 -->
<g id="Node000002" class="node">
<title>Node2</title>
<g id="a_Node000002"><a xlink:title=" ">
<polygon fill="white" stroke="transparent" points="155.5,-175 15.5,-175 15.5,-126 155.5,-126 155.5,-175"/>
<text text-anchor="start" x="20.5" y="-162.5" font-family="Helvetica,sans-Serif" font-size="10.00">serializers.ModelSerializer</text>
<text text-anchor="start" x="83.5" y="-147.5" font-family="Helvetica,sans-Serif" font-size="10.00"> </text>
<text text-anchor="start" x="83.5" y="-132.5" font-family="Helvetica,sans-Serif" font-size="10.00"> </text>
<polygon fill="#666666" stroke="#666666" points="15.5,-157.5 15.5,-157.5 155.5,-157.5 155.5,-157.5 15.5,-157.5"/>
<polygon fill="#666666" stroke="#666666" points="15.5,-142.5 15.5,-142.5 155.5,-142.5 155.5,-142.5 15.5,-142.5"/>
<polygon fill="none" stroke="#666666" points="15.5,-126 15.5,-175 155.5,-175 155.5,-126 15.5,-126"/>
</a>
</g>
</g>
<!-- Node2&#45;&gt;Node1 -->
<g id="edge1_Node000001_Node000002" class="edge">
<title>Node2&#45;&gt;Node1</title>
<g id="a_edge1_Node000001_Node000002"><a xlink:title=" ">
<path fill="none" stroke="#63b8ff" d="M85.5,-115.62C85.5,-107.56 85.5,-98.84 85.5,-90.39"/>
<polygon fill="none" stroke="#63b8ff" points="82,-115.75 85.5,-125.76 89,-115.76 82,-115.75"/>
</a>
</g>
</g>
</g>
</svg>
