<?xml version="1.0" encoding="UTF-8" standalone="no"?>
<!DOCTYPE svg PUBLIC "-//W3C//DTD SVG 1.1//EN"
 "http://www.w3.org/Graphics/SVG/1.1/DTD/svg11.dtd">
<!-- Generated by graphviz version 2.43.0 (0)
 -->
<!-- Title: user.serializers.MarkSerializer.Meta Pages: 1 -->
<svg width="193pt" height="153pt"
 viewBox="0.00 0.00 193.00 153.00" xmlns="http://www.w3.org/2000/svg" xmlns:xlink="http://www.w3.org/1999/xlink">
<g id="graph0" class="graph" transform="scale(1 1) rotate(0) translate(4 149)">
<title>user.serializers.MarkSerializer.Meta</title>
<!-- Node1 -->
<g id="Node000001" class="node">
<title>Node1</title>
<g id="a_Node000001"><a xlink:title=" ">
<polygon fill="#999999" stroke="transparent" points="185,-49 0,-49 0,0 185,0 185,-49"/>
<text text-anchor="start" x="5.5" y="-36.5" font-family="Helvetica,sans-Serif" font-size="10.00">user.serializers.MarkSerializer.Meta</text>
<text text-anchor="start" x="37.5" y="-21.5" font-family="Helvetica,sans-Serif" font-size="10.00">+</text>
<text text-anchor="start" x="83.5" y="-21.5" font-family="Helvetica,sans-Serif" font-size="10.00">model</text>
<text text-anchor="start" x="91" y="-6.5" font-family="Helvetica,sans-Serif" font-size="10.00"> </text>
<polygon fill="#666666" stroke="#666666" points="0.5,-31.5 0.5,-31.5 185.5,-31.5 185.5,-31.5 0.5,-31.5"/>
<polygon fill="#666666" stroke="#666666" points="0.5,-16.5 0.5,-16.5 81.5,-16.5 81.5,-16.5 0.5,-16.5"/>
<polygon fill="#666666" stroke="#666666" points="81.5,-16.5 81.5,-16.5 185.5,-16.5 185.5,-16.5 81.5,-16.5"/>
<polygon fill="none" stroke="#666666" points="0,0 0,-49 185,-49 185,0 0,0"/>
</a>
</g>
</g>
<!-- Node2 -->
<g id="Node000002" class="node">
<title>Node2</title>
<g id="a_Node000002"><a xlink:title=" ">
<polygon fill="white" stroke="transparent" points="105.5,-145 79.5,-145 79.5,-96 105.5,-96 105.5,-145"/>
<text text-anchor="start" x="84.5" y="-132.5" font-family="Helvetica,sans-Serif" font-size="10.00">list</text>
<text text-anchor="start" x="90.5" y="-117.5" font-family="Helvetica,sans-Serif" font-size="10.00"> </text>
<text text-anchor="start" x="90.5" y="-102.5" font-family="Helvetica,sans-Serif" font-size="10.00"> </text>
<polygon fill="#666666" stroke="#666666" points="79.5,-127.5 79.5,-127.5 105.5,-127.5 105.5,-127.5 79.5,-127.5"/>
<polygon fill="#666666" stroke="#666666" points="79.5,-112.5 79.5,-112.5 105.5,-112.5 105.5,-112.5 79.5,-112.5"/>
<polygon fill="none" stroke="#666666" points="79.5,-96 79.5,-145 105.5,-145 105.5,-96 79.5,-96"/>
</a>
</g>
</g>
<!-- Node2&#45;&gt;Node1 -->
<g id="edge1_Node000001_Node000002" class="edge">
<title>Node2&#45;&gt;Node1</title>
<g id="a_edge1_Node000001_Node000002"><a xlink:title=" ">
<path fill="none" stroke="#63b8ff" d="M92.5,-95.78C92.5,-85.32 92.5,-72.79 92.5,-61.23"/>
<polygon fill="none" stroke="#63b8ff" points="92.5,-61.21 88.5,-55.21 92.5,-49.21 96.5,-55.21 92.5,-61.21"/>
</a>
</g>
<text text-anchor="middle" x="111.5" y="-70" font-family="Helvetica,sans-Serif" font-size="10.00" fill="grey"> +fields</text>
</g>
</g>
</svg>
