<?xml version="1.0" encoding="UTF-8" standalone="no"?>
<!DOCTYPE svg PUBLIC "-//W3C//DTD SVG 1.1//EN"
 "http://www.w3.org/Graphics/SVG/1.1/DTD/svg11.dtd">
<!-- Generated by graphviz version 2.43.0 (0)
 -->
<!-- Title: webhooks.apps.WebhooksConfig Pages: 1 -->
<svg width="210pt" height="164pt"
 viewBox="0.00 0.00 210.00 164.00" xmlns="http://www.w3.org/2000/svg" xmlns:xlink="http://www.w3.org/1999/xlink">

<svg id="main" version="1.1" xmlns="http://www.w3.org/2000/svg" xmlns:xlink="http://www.w3.org/1999/xlink" xml:space="preserve" onload="init(evt)">
<style type="text/css"><![CDATA[
.node, .edge {opacity: 0.7;}
.node.selected, .edge.selected {opacity: 1;}
.edge:hover path { stroke: red; }
.edge:hover polygon { stroke: red; fill: red; }
]]></style>
<script type="application/ecmascript" xlink:href="svg.min.js"/>
<svg id="graph" class="graph">
<g id="graph0" class="graph" transform="scale(1 1) rotate(0) translate(4 160)">
<title>webhooks.apps.WebhooksConfig</title>
<!-- Node1 -->
<g id="Node000001" class="node">
<title>Node1</title>
<g id="a_Node000001"><a xlink:title=" ">
<polygon fill="#999999" stroke="transparent" points="170,-49 0,-49 0,0 170,0 170,-49"/>
<text text-anchor="start" x="5" y="-36.5" font-family="Helvetica,sans-Serif" font-size="10.00">webhooks.apps.WebhooksConfig</text>
<text text-anchor="start" x="83" y="-21.5" font-family="Helvetica,sans-Serif" font-size="10.00"> </text>
<text text-anchor="start" x="83" y="-6.5" font-family="Helvetica,sans-Serif" font-size="10.00"> </text>
<polygon fill="#666666" stroke="#666666" points="0,-31.5 0,-31.5 170,-31.5 170,-31.5 0,-31.5"/>
<polygon fill="#666666" stroke="#666666" points="0,-16.5 0,-16.5 170,-16.5 170,-16.5 0,-16.5"/>
<polygon fill="none" stroke="#666666" points="0,0 0,-49 170,-49 170,0 0,0"/>
</a>
</g>
</g>
<!-- Node2 -->
<g id="Node000002" class="node">
<title>Node2</title>
<g id="a_Node000002"><a xlink:title=" ">
<polygon fill="white" stroke="transparent" points="85,-156 25,-156 25,-107 85,-107 85,-156"/>
<text text-anchor="start" x="30" y="-143.5" font-family="Helvetica,sans-Serif" font-size="10.00">AppConfig</text>
<text text-anchor="start" x="53" y="-128.5" font-family="Helvetica,sans-Serif" font-size="10.00"> </text>
<text text-anchor="start" x="53" y="-113.5" font-family="Helvetica,sans-Serif" font-size="10.00"> </text>
<polygon fill="#666666" stroke="#666666" points="25,-138.5 25,-138.5 85,-138.5 85,-138.5 25,-138.5"/>
<polygon fill="#666666" stroke="#666666" points="25,-123.5 25,-123.5 85,-123.5 85,-123.5 25,-123.5"/>
<polygon fill="none" stroke="#666666" points="25,-107 25,-156 85,-156 85,-107 25,-107"/>
</a>
</g>
</g>
<!-- Node2&#45;&gt;Node1 -->
<g id="edge1_Node000001_Node000002" class="edge">
<title>Node2&#45;&gt;Node1</title>
<g id="a_edge1_Node000001_Node000002"><a xlink:title=" ">
<path fill="none" stroke="#63b8ff" d="M64.52,-97.17C68.96,-81.63 74.15,-63.49 78.19,-49.35"/>
<polygon fill="none" stroke="#63b8ff" points="61.11,-96.36 61.73,-106.94 67.85,-98.28 61.11,-96.36"/>
</a>
</g>
</g>
<!-- Node3 -->
<g id="Node000003" class="node">
<title>Node3</title>
<g id="a_Node000003"><a xlink:title=" ">
<polygon fill="white" stroke="transparent" points="126.5,-156 103.5,-156 103.5,-107 126.5,-107 126.5,-156"/>
<text text-anchor="start" x="109" y="-143.5" font-family="Helvetica,sans-Serif" font-size="10.00">str</text>
<text text-anchor="start" x="113.5" y="-128.5" font-family="Helvetica,sans-Serif" font-size="10.00"> </text>
<text text-anchor="start" x="113.5" y="-113.5" font-family="Helvetica,sans-Serif" font-size="10.00"> </text>
<polygon fill="#666666" stroke="#666666" points="104,-138.5 104,-138.5 127,-138.5 127,-138.5 104,-138.5"/>
<polygon fill="#666666" stroke="#666666" points="104,-123.5 104,-123.5 127,-123.5 127,-123.5 104,-123.5"/>
<polygon fill="none" stroke="#666666" points="103.5,-107 103.5,-156 126.5,-156 126.5,-107 103.5,-107"/>
</a>
</g>
</g>
<!-- Node3&#45;&gt;Node1 -->
<g id="edge2_Node000001_Node000003" class="edge">
<title>Node3&#45;&gt;Node1</title>
<g id="a_edge2_Node000001_Node000003"><a xlink:title=" ">
<path fill="none" stroke="#63b8ff" d="M108.27,-106.94C104.4,-93.39 99.46,-76.1 95.13,-60.94"/>
<polygon fill="none" stroke="#63b8ff" points="95.11,-60.89 89.62,-56.22 91.81,-49.35 97.31,-54.02 95.11,-60.89"/>
</a>
</g>
<text text-anchor="middle" x="152" y="-81" font-family="Helvetica,sans-Serif" font-size="10.00" fill="grey"> +default_auto_field</text>
<text text-anchor="middle" x="152" y="-70" font-family="Helvetica,sans-Serif" font-size="10.00" fill="grey">+name</text>
</g>
</g>
</svg>
</svg>

<style type='text/css'>
<![CDATA[
[data-mouse-over-selected='false'] { opacity: 0.7; }
[data-mouse-over-selected='true']  { opacity: 1.0; }
]]>
</style>
<script type="application/ecmascript"><![CDATA[
document.addEventListener('DOMContentLoaded', (event) => {
  highlightEdges();
  highlightAdjacentNodes();
});
]]></script>
</svg>
