<?xml version="1.0" encoding="UTF-8" standalone="no"?>
<!DOCTYPE svg PUBLIC "-//W3C//DTD SVG 1.1//EN"
 "http://www.w3.org/Graphics/SVG/1.1/DTD/svg11.dtd">
<!-- Generated by graphviz version 2.43.0 (0)
 -->
<!-- Title: attendance.permission.IsTeacher Pages: 1 -->
<svg width="159pt" height="153pt"
 viewBox="0.00 0.00 159.00 153.00" xmlns="http://www.w3.org/2000/svg" xmlns:xlink="http://www.w3.org/1999/xlink">
<g id="graph0" class="graph" transform="scale(1 1) rotate(0) translate(4 149)">
<title>attendance.permission.IsTeacher</title>
<!-- Node1 -->
<g id="Node000001" class="node">
<title>Node1</title>
<g id="a_Node000001"><a xlink:title=" ">
<polygon fill="#999999" stroke="transparent" points="142.5,-60 8.5,-60 8.5,0 142.5,0 142.5,-60"/>
<text text-anchor="start" x="13.5" y="-48" font-family="Helvetica,sans-Serif" font-size="10.00">attendance.permission.Is</text>
<text text-anchor="start" x="56.5" y="-37" font-family="Helvetica,sans-Serif" font-size="10.00">Teacher</text>
<text text-anchor="start" x="73.5" y="-22" font-family="Helvetica,sans-Serif" font-size="10.00"> </text>
<text text-anchor="start" x="19.5" y="-7" font-family="Helvetica,sans-Serif" font-size="10.00">+</text>
<text text-anchor="start" x="39.5" y="-7" font-family="Helvetica,sans-Serif" font-size="10.00">has_permission()</text>
<polygon fill="#666666" stroke="#666666" points="8.5,-32 8.5,-32 142.5,-32 142.5,-32 8.5,-32"/>
<polygon fill="#666666" stroke="#666666" points="8.5,-17 8.5,-17 142.5,-17 142.5,-17 8.5,-17"/>
<polygon fill="none" stroke="#666666" points="8.5,0 8.5,-60 142.5,-60 142.5,0 8.5,0"/>
</a>
</g>
</g>
<!-- Node2 -->
<g id="Node000002" class="node">
<title>Node2</title>
<g id="a_Node000002"><a xlink:title=" ">
<polygon fill="white" stroke="transparent" points="151,-145 0,-145 0,-96 151,-96 151,-145"/>
<text text-anchor="start" x="5.5" y="-132.5" font-family="Helvetica,sans-Serif" font-size="10.00">permissions.BasePermission</text>
<text text-anchor="start" x="74" y="-117.5" font-family="Helvetica,sans-Serif" font-size="10.00"> </text>
<text text-anchor="start" x="74" y="-102.5" font-family="Helvetica,sans-Serif" font-size="10.00"> </text>
<polygon fill="#666666" stroke="#666666" points="0.5,-127.5 0.5,-127.5 151.5,-127.5 151.5,-127.5 0.5,-127.5"/>
<polygon fill="#666666" stroke="#666666" points="0.5,-112.5 0.5,-112.5 151.5,-112.5 151.5,-112.5 0.5,-112.5"/>
<polygon fill="none" stroke="#666666" points="0,-96 0,-145 151,-145 151,-96 0,-96"/>
</a>
</g>
</g>
<!-- Node2&#45;&gt;Node1 -->
<g id="edge1_Node000001_Node000002" class="edge">
<title>Node2&#45;&gt;Node1</title>
<g id="a_edge1_Node000001_Node000002"><a xlink:title=" ">
<path fill="none" stroke="#63b8ff" d="M75.5,-85.55C75.5,-77.18 75.5,-68.28 75.5,-60.16"/>
<polygon fill="none" stroke="#63b8ff" points="72,-85.78 75.5,-95.78 79,-85.78 72,-85.78"/>
</a>
</g>
</g>
</g>
</svg>
