<?xml version="1.0" encoding="UTF-8" standalone="no"?>
<!DOCTYPE svg PUBLIC "-//W3C//DTD SVG 1.1//EN"
 "http://www.w3.org/Graphics/SVG/1.1/DTD/svg11.dtd">
<!-- Generated by graphviz version 2.43.0 (0)
 -->
<!-- Title: attendance.migrations.0002_alter_mainattendance_attendance_type.Migration Pages: 1 -->
<svg width="191pt" height="179pt"
 viewBox="0.00 0.00 191.00 179.00" xmlns="http://www.w3.org/2000/svg" xmlns:xlink="http://www.w3.org/1999/xlink">
<g id="graph0" class="graph" transform="scale(1 1) rotate(0) translate(4 175)">
<title>attendance.migrations.0002_alter_mainattendance_attendance_type.Migration</title>
<!-- Node1 -->
<g id="Node000001" class="node">
<title>Node1</title>
<g id="a_Node000001"><a xlink:title=" ">
<polygon fill="#999999" stroke="transparent" points="183,-86 0,-86 0,0 183,0 183,-86"/>
<text text-anchor="start" x="5.5" y="-74" font-family="Helvetica,sans-Serif" font-size="10.00">attendance.migrations.0002</text>
<text text-anchor="start" x="5.5" y="-63" font-family="Helvetica,sans-Serif" font-size="10.00">_alter_mainattendance_attendance</text>
<text text-anchor="start" x="53.5" y="-52" font-family="Helvetica,sans-Serif" font-size="10.00">_type.Migration</text>
<text text-anchor="start" x="28" y="-37" font-family="Helvetica,sans-Serif" font-size="10.00">+</text>
<text text-anchor="start" x="64.5" y="-37" font-family="Helvetica,sans-Serif" font-size="10.00">dependencies</text>
<text text-anchor="start" x="28" y="-22" font-family="Helvetica,sans-Serif" font-size="10.00">+</text>
<text text-anchor="start" x="64.5" y="-22" font-family="Helvetica,sans-Serif" font-size="10.00">operations</text>
<text text-anchor="start" x="90" y="-7" font-family="Helvetica,sans-Serif" font-size="10.00"> </text>
<polygon fill="#666666" stroke="#666666" points="0.5,-47 0.5,-47 183.5,-47 183.5,-47 0.5,-47"/>
<polygon fill="#666666" stroke="#666666" points="0.5,-17 0.5,-17 62.5,-17 62.5,-17 0.5,-17"/>
<polygon fill="#666666" stroke="#666666" points="62.5,-17 62.5,-17 183.5,-17 183.5,-17 62.5,-17"/>
<polygon fill="none" stroke="#666666" points="0,0 0,-86 183,-86 183,0 0,0"/>
</a>
</g>
</g>
<!-- Node2 -->
<g id="Node000002" class="node">
<title>Node2</title>
<g id="a_Node000002"><a xlink:title=" ">
<polygon fill="white" stroke="transparent" points="148,-171 35,-171 35,-122 148,-122 148,-171"/>
<text text-anchor="start" x="40.5" y="-158.5" font-family="Helvetica,sans-Serif" font-size="10.00">migrations.Migration</text>
<text text-anchor="start" x="90" y="-143.5" font-family="Helvetica,sans-Serif" font-size="10.00"> </text>
<text text-anchor="start" x="90" y="-128.5" font-family="Helvetica,sans-Serif" font-size="10.00"> </text>
<polygon fill="#666666" stroke="#666666" points="35.5,-153.5 35.5,-153.5 148.5,-153.5 148.5,-153.5 35.5,-153.5"/>
<polygon fill="#666666" stroke="#666666" points="35.5,-138.5 35.5,-138.5 148.5,-138.5 148.5,-138.5 35.5,-138.5"/>
<polygon fill="none" stroke="#666666" points="35,-122 35,-171 148,-171 148,-122 35,-122"/>
</a>
</g>
</g>
<!-- Node2&#45;&gt;Node1 -->
<g id="edge1_Node000001_Node000002" class="edge">
<title>Node2&#45;&gt;Node1</title>
<g id="a_edge1_Node000001_Node000002"><a xlink:title=" ">
<path fill="none" stroke="#63b8ff" d="M91.5,-111.94C91.5,-103.68 91.5,-94.73 91.5,-86.13"/>
<polygon fill="none" stroke="#63b8ff" points="88,-111.96 91.5,-121.96 95,-111.96 88,-111.96"/>
</a>
</g>
</g>
</g>
</svg>
