<?xml version="1.0" encoding="UTF-8" standalone="no"?>
<!DOCTYPE svg PUBLIC "-//W3C//DTD SVG 1.1//EN"
 "http://www.w3.org/Graphics/SVG/1.1/DTD/svg11.dtd">
<!-- Generated by graphviz version 2.43.0 (0)
 -->
<!-- Title: user.apps.UserConfig Pages: 1 -->
<svg width="185pt" height="164pt"
 viewBox="0.00 0.00 185.00 164.00" xmlns="http://www.w3.org/2000/svg" xmlns:xlink="http://www.w3.org/1999/xlink">
<g id="graph0" class="graph" transform="scale(1 1) rotate(0) translate(4 160)">
<title>user.apps.UserConfig</title>
<!-- Node1 -->
<g id="Node000001" class="node">
<title>Node1</title>
<g id="a_Node000001"><a xlink:title=" ">
<polygon fill="#999999" stroke="transparent" points="116.5,-49 3.5,-49 3.5,0 116.5,0 116.5,-49"/>
<text text-anchor="start" x="9" y="-36.5" font-family="Helvetica,sans-Serif" font-size="10.00">user.apps.UserConfig</text>
<text text-anchor="start" x="58.5" y="-21.5" font-family="Helvetica,sans-Serif" font-size="10.00"> </text>
<text text-anchor="start" x="22" y="-6.5" font-family="Helvetica,sans-Serif" font-size="10.00">+</text>
<text text-anchor="start" x="49" y="-6.5" font-family="Helvetica,sans-Serif" font-size="10.00">ready()</text>
<polygon fill="#666666" stroke="#666666" points="4,-31.5 4,-31.5 117,-31.5 117,-31.5 4,-31.5"/>
<polygon fill="#666666" stroke="#666666" points="4,-16.5 4,-16.5 117,-16.5 117,-16.5 4,-16.5"/>
<polygon fill="none" stroke="#666666" points="3.5,0 3.5,-49 116.5,-49 116.5,0 3.5,0"/>
</a>
</g>
</g>
<!-- Node2 -->
<g id="Node000002" class="node">
<title>Node2</title>
<g id="a_Node000002"><a xlink:title=" ">
<polygon fill="white" stroke="transparent" points="60,-156 0,-156 0,-107 60,-107 60,-156"/>
<text text-anchor="start" x="5" y="-143.5" font-family="Helvetica,sans-Serif" font-size="10.00">AppConfig</text>
<text text-anchor="start" x="28" y="-128.5" font-family="Helvetica,sans-Serif" font-size="10.00"> </text>
<text text-anchor="start" x="28" y="-113.5" font-family="Helvetica,sans-Serif" font-size="10.00"> </text>
<polygon fill="#666666" stroke="#666666" points="0,-138.5 0,-138.5 60,-138.5 60,-138.5 0,-138.5"/>
<polygon fill="#666666" stroke="#666666" points="0,-123.5 0,-123.5 60,-123.5 60,-123.5 0,-123.5"/>
<polygon fill="none" stroke="#666666" points="0,-107 0,-156 60,-156 60,-107 0,-107"/>
</a>
</g>
</g>
<!-- Node2&#45;&gt;Node1 -->
<g id="edge1_Node000001_Node000002" class="edge">
<title>Node2&#45;&gt;Node1</title>
<g id="a_edge1_Node000001_Node000002"><a xlink:title=" ">
<path fill="none" stroke="#63b8ff" d="M39.52,-97.17C43.96,-81.63 49.15,-63.49 53.19,-49.35"/>
<polygon fill="none" stroke="#63b8ff" points="36.11,-96.36 36.73,-106.94 42.85,-98.28 36.11,-96.36"/>
</a>
</g>
</g>
<!-- Node3 -->
<g id="Node000003" class="node">
<title>Node3</title>
<g id="a_Node000003"><a xlink:title=" ">
<polygon fill="white" stroke="transparent" points="101.5,-156 78.5,-156 78.5,-107 101.5,-107 101.5,-156"/>
<text text-anchor="start" x="84" y="-143.5" font-family="Helvetica,sans-Serif" font-size="10.00">str</text>
<text text-anchor="start" x="88.5" y="-128.5" font-family="Helvetica,sans-Serif" font-size="10.00"> </text>
<text text-anchor="start" x="88.5" y="-113.5" font-family="Helvetica,sans-Serif" font-size="10.00"> </text>
<polygon fill="#666666" stroke="#666666" points="79,-138.5 79,-138.5 102,-138.5 102,-138.5 79,-138.5"/>
<polygon fill="#666666" stroke="#666666" points="79,-123.5 79,-123.5 102,-123.5 102,-123.5 79,-123.5"/>
<polygon fill="none" stroke="#666666" points="78.5,-107 78.5,-156 101.5,-156 101.5,-107 78.5,-107"/>
</a>
</g>
</g>
<!-- Node3&#45;&gt;Node1 -->
<g id="edge2_Node000001_Node000003" class="edge">
<title>Node3&#45;&gt;Node1</title>
<g id="a_edge2_Node000001_Node000003"><a xlink:title=" ">
<path fill="none" stroke="#63b8ff" d="M83.27,-106.94C79.4,-93.39 74.46,-76.1 70.13,-60.94"/>
<polygon fill="none" stroke="#63b8ff" points="70.11,-60.89 64.62,-56.22 66.81,-49.35 72.31,-54.02 70.11,-60.89"/>
</a>
</g>
<text text-anchor="middle" x="127" y="-81" font-family="Helvetica,sans-Serif" font-size="10.00" fill="grey"> +default_auto_field</text>
<text text-anchor="middle" x="127" y="-70" font-family="Helvetica,sans-Serif" font-size="10.00" fill="grey">+name</text>
</g>
</g>
</svg>
