<?xml version="1.0" encoding="UTF-8" standalone="no"?>
<!DOCTYPE svg PUBLIC "-//W3C//DTD SVG 1.1//EN"
 "http://www.w3.org/Graphics/SVG/1.1/DTD/svg11.dtd">
<!-- Generated by graphviz version 2.43.0 (0)
 -->
<!-- Title: user.models.Account Pages: 1 -->
<!--zoomable 288 -->

<svg id="main" version="1.1" xmlns="http://www.w3.org/2000/svg" xmlns:xlink="http://www.w3.org/1999/xlink" xml:space="preserve" onload="init(evt)">
<style type="text/css"><![CDATA[
.node, .edge {opacity: 0.7;}
.node.selected, .edge.selected {opacity: 1;}
.edge:hover path { stroke: red; }
.edge:hover polygon { stroke: red; fill: red; }
]]></style>

<defs>
  <circle id="rim" cx="0" cy="0" r="7"/>
  <circle id="rim2" cx="0" cy="0" r="3.5"/>
  <g id="zoomPlus">
    <use xlink:href="#rim" fill="#404040"><set attributeName="fill" to="#808080" begin="zoomplus.mouseover" end="zoomplus.mouseout"/></use>
    <path d="M-4,0h8M0,-4v8" fill="none" stroke="white" stroke-width="1.5" pointer-events="none"/>
  </g>
  <g id="zoomMin">
    <use xlink:href="#rim" fill="#404040"><set attributeName="fill" to="#808080" begin="zoomminus.mouseover" end="zoomminus.mouseout"/></use>
    <path d="M-4,0h8" fill="none" stroke="white" stroke-width="1.5" pointer-events="none"/>
  </g>
  <g id="arrowUp" transform="translate(30 24)">
    <use xlink:href="#rim"/>
    <path pointer-events="none" fill="none" stroke="white" stroke-width="1.5" d="M0,-3.0v7 M-2.5,-0.5L0,-3.0L2.5,-0.5"/>
  </g>
  <g id="arrowRight" transform="rotate(90) translate(36 -43)">
    <use xlink:href="#rim"/>
    <path pointer-events="none" fill="none" stroke="white" stroke-width="1.5" d="M0,-3.0v7 M-2.5,-0.5L0,-3.0L2.5,-0.5"/>
  </g>
  <g id="arrowDown" transform="rotate(180) translate(-30 -48)">
    <use xlink:href="#rim"/>
    <path pointer-events="none" fill="none" stroke="white" stroke-width="1.5" d="M0,-3.0v7 M-2.5,-0.5L0,-3.0L2.5,-0.5"/>
  </g>
  <g id="arrowLeft" transform="rotate(270) translate(-36 17)">
    <use xlink:href="#rim"/>
    <path pointer-events="none" fill="none" stroke="white" stroke-width="1.5" d="M0,-3.0v7 M-2.5,-0.5L0,-3.0L2.5,-0.5"/>
  </g>
  <g id="resetDef">
    <use xlink:href="#rim2" fill="#404040"><set attributeName="fill" to="#808080" begin="reset.mouseover" end="reset.mouseout"/></use>
  </g>
</defs>
<script type="application/ecmascript">
var viewWidth = 573;
var viewHeight = 288;
var sectionId = 'dynsection-1';
</script>
<script type="application/ecmascript" xlink:href="svg.min.js"/>
<svg id="graph" class="graph">
<g id="viewport">
<title>user.models.Account</title>
<!-- Node1 -->
<g id="Node000001" class="node">
<title>Node1</title>
<g id="a_Node000001"><a xlink:title=" ">
<polygon fill="#999999" stroke="transparent" points="279,-184 167,-184 167,0 279,0 279,-184"/>
<text text-anchor="start" x="172" y="-172" font-family="Helvetica,sans-Serif" font-size="10.00">user.models.Account</text>
<text text-anchor="start" x="175.5" y="-157" font-family="Helvetica,sans-Serif" font-size="10.00">+</text>
<text text-anchor="start" x="193" y="-157" font-family="Helvetica,sans-Serif" font-size="10.00">username</text>
<text text-anchor="start" x="175.5" y="-142" font-family="Helvetica,sans-Serif" font-size="10.00">+</text>
<text text-anchor="start" x="193" y="-142" font-family="Helvetica,sans-Serif" font-size="10.00">email</text>
<text text-anchor="start" x="175.5" y="-127" font-family="Helvetica,sans-Serif" font-size="10.00">+</text>
<text text-anchor="start" x="193" y="-127" font-family="Helvetica,sans-Serif" font-size="10.00">name</text>
<text text-anchor="start" x="175.5" y="-112" font-family="Helvetica,sans-Serif" font-size="10.00">+</text>
<text text-anchor="start" x="193" y="-112" font-family="Helvetica,sans-Serif" font-size="10.00">phone_number</text>
<text text-anchor="start" x="175.5" y="-97" font-family="Helvetica,sans-Serif" font-size="10.00">+</text>
<text text-anchor="start" x="193" y="-97" font-family="Helvetica,sans-Serif" font-size="10.00">is_active</text>
<text text-anchor="start" x="175.5" y="-82" font-family="Helvetica,sans-Serif" font-size="10.00">+</text>
<text text-anchor="start" x="193" y="-82" font-family="Helvetica,sans-Serif" font-size="10.00">is_staff</text>
<text text-anchor="start" x="175.5" y="-67" font-family="Helvetica,sans-Serif" font-size="10.00">+</text>
<text text-anchor="start" x="193" y="-67" font-family="Helvetica,sans-Serif" font-size="10.00">is_superuser</text>
<text text-anchor="start" x="175.5" y="-52" font-family="Helvetica,sans-Serif" font-size="10.00">+</text>
<text text-anchor="start" x="193" y="-52" font-family="Helvetica,sans-Serif" font-size="10.00">last_login</text>
<text text-anchor="start" x="175.5" y="-37" font-family="Helvetica,sans-Serif" font-size="10.00">+</text>
<text text-anchor="start" x="193" y="-37" font-family="Helvetica,sans-Serif" font-size="10.00">user_type</text>
<text text-anchor="start" x="175.5" y="-22" font-family="Helvetica,sans-Serif" font-size="10.00">+</text>
<text text-anchor="start" x="193" y="-22" font-family="Helvetica,sans-Serif" font-size="10.00">objects</text>
<text text-anchor="start" x="221" y="-7" font-family="Helvetica,sans-Serif" font-size="10.00"> </text>
<polygon fill="#666666" stroke="#666666" points="167,-167 167,-167 279,-167 279,-167 167,-167"/>
<polygon fill="#666666" stroke="#666666" points="167,-17 167,-17 191,-17 191,-17 167,-17"/>
<polygon fill="#666666" stroke="#666666" points="191,-17 191,-17 279,-17 279,-17 191,-17"/>
<polygon fill="none" stroke="#666666" points="167,0 167,-184 279,-184 279,0 167,0"/>
</a>
</g>
</g>
<!-- Node2 -->
<g id="Node000002" class="node">
<title>Node2</title>
<g id="a_Node000002"><a xlink:title=" ">
<polygon fill="white" stroke="transparent" points="98,-280 0,-280 0,-231 98,-231 98,-280"/>
<text text-anchor="start" x="5" y="-267.5" font-family="Helvetica,sans-Serif" font-size="10.00">AbstractBaseUser</text>
<text text-anchor="start" x="47" y="-252.5" font-family="Helvetica,sans-Serif" font-size="10.00"> </text>
<text text-anchor="start" x="47" y="-237.5" font-family="Helvetica,sans-Serif" font-size="10.00"> </text>
<polygon fill="#666666" stroke="#666666" points="0,-262.5 0,-262.5 98,-262.5 98,-262.5 0,-262.5"/>
<polygon fill="#666666" stroke="#666666" points="0,-247.5 0,-247.5 98,-247.5 98,-247.5 0,-247.5"/>
<polygon fill="none" stroke="#666666" points="0,-231 0,-280 98,-280 98,-231 0,-231"/>
</a>
</g>
</g>
<!-- Node2&#45;&gt;Node1 -->
<g id="edge1_Node000001_Node000002" class="edge">
<title>Node2&#45;&gt;Node1</title>
<g id="a_edge1_Node000001_Node000002"><a xlink:title=" ">
<path fill="none" stroke="#63b8ff" d="M82.12,-223.76C106.06,-201.54 138.99,-170.98 166.99,-144.99"/>
<polygon fill="none" stroke="#63b8ff" points="79.62,-221.3 74.67,-230.67 84.38,-226.43 79.62,-221.3"/>
</a>
</g>
</g>
<!-- Node3 -->
<g id="Node000003" class="node">
<title>Node3</title>
<g id="a_Node000003"><a xlink:title=" ">
<polygon fill="white" stroke="transparent" points="213.5,-280 116.5,-280 116.5,-231 213.5,-231 213.5,-280"/>
<text text-anchor="start" x="122" y="-267.5" font-family="Helvetica,sans-Serif" font-size="10.00">PermissionsMixin</text>
<text text-anchor="start" x="163.5" y="-252.5" font-family="Helvetica,sans-Serif" font-size="10.00"> </text>
<text text-anchor="start" x="163.5" y="-237.5" font-family="Helvetica,sans-Serif" font-size="10.00"> </text>
<polygon fill="#666666" stroke="#666666" points="117,-262.5 117,-262.5 214,-262.5 214,-262.5 117,-262.5"/>
<polygon fill="#666666" stroke="#666666" points="117,-247.5 117,-247.5 214,-247.5 214,-247.5 117,-247.5"/>
<polygon fill="none" stroke="#666666" points="116.5,-231 116.5,-280 213.5,-280 213.5,-231 116.5,-231"/>
</a>
</g>
</g>
<!-- Node3&#45;&gt;Node1 -->
<g id="edge2_Node000001_Node000003" class="edge">
<title>Node3&#45;&gt;Node1</title>
<g id="a_edge2_Node000001_Node000003"><a xlink:title=" ">
<path fill="none" stroke="#63b8ff" d="M176.98,-221.13C180.93,-210.15 185.52,-197.36 190.25,-184.19"/>
<polygon fill="none" stroke="#63b8ff" points="173.64,-220.08 173.56,-230.67 180.23,-222.44 173.64,-220.08"/>
</a>
</g>
</g>
<!-- Node4 -->
<g id="Node000004" class="node">
<title>Node4</title>
<g id="a_Node000004"><a xlink:title=" ">
<polygon fill="white" stroke="transparent" points="266.5,-280 231.5,-280 231.5,-231 266.5,-231 266.5,-280"/>
<text text-anchor="start" x="237" y="-267.5" font-family="Helvetica,sans-Serif" font-size="10.00">tuple</text>
<text text-anchor="start" x="247.5" y="-252.5" font-family="Helvetica,sans-Serif" font-size="10.00"> </text>
<text text-anchor="start" x="247.5" y="-237.5" font-family="Helvetica,sans-Serif" font-size="10.00"> </text>
<polygon fill="#666666" stroke="#666666" points="232,-262.5 232,-262.5 267,-262.5 267,-262.5 232,-262.5"/>
<polygon fill="#666666" stroke="#666666" points="232,-247.5 232,-247.5 267,-247.5 267,-247.5 232,-247.5"/>
<polygon fill="none" stroke="#666666" points="231.5,-231 231.5,-280 266.5,-280 266.5,-231 231.5,-231"/>
</a>
</g>
</g>
<!-- Node4&#45;&gt;Node1 -->
<g id="edge3_Node000001_Node000004" class="edge">
<title>Node4&#45;&gt;Node1</title>
<g id="a_edge3_Node000001_Node000004"><a xlink:title=" ">
<path fill="none" stroke="#63b8ff" d="M231.88,-230.93C228.65,-225.31 225.74,-219.15 224,-213 222.45,-207.52 221.23,-201.85 220.27,-196.08"/>
<polygon fill="none" stroke="#63b8ff" points="220.26,-196.04 215.49,-190.63 218.66,-184.15 223.42,-189.56 220.26,-196.04"/>
</a>
</g>
<text text-anchor="middle" x="284" y="-205" font-family="Helvetica,sans-Serif" font-size="10.00" fill="grey"> +USER_TYPE_CHOOSES</text>
</g>
<!-- Node5 -->
<g id="Node000005" class="node">
<title>Node5</title>
<g id="a_Node000005"><a xlink:title=" ">
<polygon fill="white" stroke="transparent" points="377.5,-280 354.5,-280 354.5,-231 377.5,-231 377.5,-280"/>
<text text-anchor="start" x="360" y="-267.5" font-family="Helvetica,sans-Serif" font-size="10.00">str</text>
<text text-anchor="start" x="364.5" y="-252.5" font-family="Helvetica,sans-Serif" font-size="10.00"> </text>
<text text-anchor="start" x="364.5" y="-237.5" font-family="Helvetica,sans-Serif" font-size="10.00"> </text>
<polygon fill="#666666" stroke="#666666" points="355,-262.5 355,-262.5 378,-262.5 378,-262.5 355,-262.5"/>
<polygon fill="#666666" stroke="#666666" points="355,-247.5 355,-247.5 378,-247.5 378,-247.5 355,-247.5"/>
<polygon fill="none" stroke="#666666" points="354.5,-231 354.5,-280 377.5,-280 377.5,-231 354.5,-231"/>
</a>
</g>
</g>
<!-- Node5&#45;&gt;Node1 -->
<g id="edge4_Node000001_Node000005" class="edge">
<title>Node5&#45;&gt;Node1</title>
<g id="a_edge4_Node000001_Node000005"><a xlink:title=" ">
<path fill="none" stroke="#63b8ff" d="M358.64,-230.88C355.06,-221.41 350.18,-210.7 344,-202 328.6,-180.3 308.18,-159.83 288.5,-142.61"/>
<polygon fill="none" stroke="#63b8ff" points="288.35,-142.48 281.19,-141.62 279.23,-134.68 286.39,-135.54 288.35,-142.48"/>
</a>
</g>
<text text-anchor="middle" x="400" y="-205" font-family="Helvetica,sans-Serif" font-size="10.00" fill="grey"> +USERNAME_FIELD</text>
</g>
<!-- Node6 -->
<g id="Node000006" class="node">
<title>Node6</title>
<g id="a_Node000006"><a xlink:title=" ">
<polygon fill="white" stroke="transparent" points="502,-280 476,-280 476,-231 502,-231 502,-280"/>
<text text-anchor="start" x="481" y="-267.5" font-family="Helvetica,sans-Serif" font-size="10.00">list</text>
<text text-anchor="start" x="487" y="-252.5" font-family="Helvetica,sans-Serif" font-size="10.00"> </text>
<text text-anchor="start" x="487" y="-237.5" font-family="Helvetica,sans-Serif" font-size="10.00"> </text>
<polygon fill="#666666" stroke="#666666" points="476,-262.5 476,-262.5 502,-262.5 502,-262.5 476,-262.5"/>
<polygon fill="#666666" stroke="#666666" points="476,-247.5 476,-247.5 502,-247.5 502,-247.5 476,-247.5"/>
<polygon fill="none" stroke="#666666" points="476,-231 476,-280 502,-280 502,-231 476,-231"/>
</a>
</g>
</g>
<!-- Node6&#45;&gt;Node1 -->
<g id="edge5_Node000001_Node000006" class="edge">
<title>Node6&#45;&gt;Node1</title>
<g id="a_edge5_Node000001_Node000006"><a xlink:title=" ">
<path fill="none" stroke="#63b8ff" d="M477.05,-230.96C471.15,-221.06 463.29,-210.01 454,-202 406.13,-160.7 339.93,-131.6 290.67,-113.91"/>
<polygon fill="none" stroke="#63b8ff" points="290.49,-113.85 283.51,-115.64 279.17,-109.88 286.15,-108.09 290.49,-113.85"/>
</a>
</g>
<text text-anchor="middle" x="514" y="-205" font-family="Helvetica,sans-Serif" font-size="10.00" fill="grey"> +REQUIRED_FIELDS</text>
</g>
</g>
</svg>

<g id="navigator" transform="translate(0 0)" fill="#404254">
  <rect fill="#f2f5e9" fill-opacity="0.5" stroke="#606060" stroke-width=".5" x="0" y="0" width="60" height="60"/>
  <use id="zoomplus" xlink:href="#zoomPlus" x="17" y="9" onmousedown="handleZoom(evt,'in')"/>
  <use id="zoomminus" xlink:href="#zoomMin" x="42" y="9" onmousedown="handleZoom(evt,'out')"/>
  <use id="reset" xlink:href="#resetDef" x="30" y="36" onmousedown="handleReset()"/>
   <use id="arrowup" xlink:href="#arrowUp" x="0" y="0" onmousedown="handlePan(0,-1)"/>
  <use id="arrowright" xlink:href="#arrowRight" x="0" y="0" onmousedown="handlePan(1,0)"/>
  <use id="arrowdown" xlink:href="#arrowDown" x="0" y="0" onmousedown="handlePan(0,1)"/>
  <use id="arrowleft" xlink:href="#arrowLeft" x="0" y="0" onmousedown="handlePan(-1,0)"/>
</g>
<svg viewBox="0 0 15 15" width="100%" height="30px" preserveAspectRatio="xMaxYMin meet">
 <g id="arrow_out" transform="scale(0.3 0.3)">
  <a xlink:href="classuser_1_1models_1_1Account__coll__graph_org.svg" target="_base">
   <rect id="button" ry="5" rx="5" y="6" x="6" height="38" width="38"
        fill="#f2f5e9" fill-opacity="0.5" stroke="#606060" stroke-width="1.0"/>
   <path id="arrow"
     d="M 11.500037,31.436501 C 11.940474,20.09759 22.043105,11.32322 32.158766,21.979434 L 37.068811,17.246167 C 37.068811,17.246167 37.088388,32 37.088388,32 L 22.160133,31.978069 C 22.160133,31.978069 26.997745,27.140456 26.997745,27.140456 C 18.528582,18.264221 13.291696,25.230495 11.500037,31.436501 z"
     style="fill:#404040;"/>
  </a>
 </g>
</svg>

<style type='text/css'>
<![CDATA[
[data-mouse-over-selected='false'] { opacity: 0.7; }
[data-mouse-over-selected='true']  { opacity: 1.0; }
]]>
</style>
<script type="application/ecmascript"><![CDATA[
document.addEventListener('DOMContentLoaded', (event) => {
  highlightEdges();
  highlightAdjacentNodes();
});
]]></script>
</svg>
