<?xml version="1.0" encoding="UTF-8" standalone="no"?>
<!DOCTYPE svg PUBLIC "-//W3C//DTD SVG 1.1//EN"
 "http://www.w3.org/Graphics/SVG/1.1/DTD/svg11.dtd">
<!-- Generated by graphviz version 2.43.0 (0)
 -->
<!-- Title: exchange.views.CommentDeleteView Pages: 1 -->
<svg width="265pt" height="168pt"
 viewBox="0.00 0.00 265.00 168.00" xmlns="http://www.w3.org/2000/svg" xmlns:xlink="http://www.w3.org/1999/xlink">

<svg id="main" version="1.1" xmlns="http://www.w3.org/2000/svg" xmlns:xlink="http://www.w3.org/1999/xlink" xml:space="preserve" onload="init(evt)">
<style type="text/css"><![CDATA[
.node, .edge {opacity: 0.7;}
.node.selected, .edge.selected {opacity: 1;}
.edge:hover path { stroke: red; }
.edge:hover polygon { stroke: red; fill: red; }
]]></style>
<script type="application/ecmascript" xlink:href="svg.min.js"/>
<svg id="graph" class="graph">
<g id="graph0" class="graph" transform="scale(1 1) rotate(0) translate(4 164)">
<title>exchange.views.CommentDeleteView</title>
<!-- Node1 -->
<g id="Node000001" class="node">
<title>Node1</title>
<g id="a_Node000001"><a xlink:title=" ">
<polygon fill="#999999" stroke="transparent" points="218.5,-64 21.5,-64 21.5,0 218.5,0 218.5,-64"/>
<text text-anchor="start" x="27" y="-52" font-family="Helvetica,sans-Serif" font-size="10.00">exchange.views.CommentDeleteView</text>
<text text-anchor="start" x="51" y="-37" font-family="Helvetica,sans-Serif" font-size="10.00">+</text>
<text text-anchor="start" x="89" y="-37" font-family="Helvetica,sans-Serif" font-size="10.00">queryset</text>
<text text-anchor="start" x="51" y="-22" font-family="Helvetica,sans-Serif" font-size="10.00">+</text>
<text text-anchor="start" x="89" y="-22" font-family="Helvetica,sans-Serif" font-size="10.00">serializer_class</text>
<text text-anchor="start" x="51" y="-7" font-family="Helvetica,sans-Serif" font-size="10.00">+</text>
<text text-anchor="start" x="89" y="-7" font-family="Helvetica,sans-Serif" font-size="10.00">delete()</text>
<polygon fill="#666666" stroke="#666666" points="22,-47 22,-47 219,-47 219,-47 22,-47"/>
<polygon fill="#666666" stroke="#666666" points="22,-17 22,-17 87,-17 87,-17 22,-17"/>
<polygon fill="#666666" stroke="#666666" points="87,-17 87,-17 219,-17 219,-17 87,-17"/>
<polygon fill="none" stroke="#666666" points="21.5,0 21.5,-64 218.5,-64 218.5,0 21.5,0"/>
</a>
</g>
</g>
<!-- Node2 -->
<g id="Node000002" class="node">
<title>Node2</title>
<g id="a_Node000002"><a xlink:title=" ">
<polygon fill="white" stroke="transparent" points="136,-160 0,-160 0,-111 136,-111 136,-160"/>
<text text-anchor="start" x="5" y="-147.5" font-family="Helvetica,sans-Serif" font-size="10.00">generics::DestroyAPIView</text>
<text text-anchor="start" x="66" y="-132.5" font-family="Helvetica,sans-Serif" font-size="10.00"> </text>
<text text-anchor="start" x="66" y="-117.5" font-family="Helvetica,sans-Serif" font-size="10.00"> </text>
<polygon fill="#666666" stroke="#666666" points="0,-142.5 0,-142.5 136,-142.5 136,-142.5 0,-142.5"/>
<polygon fill="#666666" stroke="#666666" points="0,-127.5 0,-127.5 136,-127.5 136,-127.5 0,-127.5"/>
<polygon fill="none" stroke="#666666" points="0,-111 0,-160 136,-160 136,-111 0,-111"/>
</a>
</g>
</g>
<!-- Node2&#45;&gt;Node1 -->
<g id="edge1_Node000001_Node000002" class="edge">
<title>Node2&#45;&gt;Node1</title>
<g id="a_edge1_Node000001_Node000002"><a xlink:title=" ">
<path fill="none" stroke="#63b8ff" d="M84.63,-102.04C90.85,-89.89 97.9,-76.13 104.06,-64.11"/>
<polygon fill="none" stroke="#63b8ff" points="81.51,-100.46 80.06,-110.96 87.74,-103.65 81.51,-100.46"/>
</a>
</g>
</g>
<!-- Node3 -->
<g id="Node000003" class="node">
<title>Node3</title>
<g id="a_Node000003"><a xlink:title=" ">
<polygon fill="white" stroke="transparent" points="189.5,-160 154.5,-160 154.5,-111 189.5,-111 189.5,-160"/>
<text text-anchor="start" x="160" y="-147.5" font-family="Helvetica,sans-Serif" font-size="10.00">tuple</text>
<text text-anchor="start" x="170.5" y="-132.5" font-family="Helvetica,sans-Serif" font-size="10.00"> </text>
<text text-anchor="start" x="170.5" y="-117.5" font-family="Helvetica,sans-Serif" font-size="10.00"> </text>
<polygon fill="#666666" stroke="#666666" points="155,-142.5 155,-142.5 190,-142.5 190,-142.5 155,-142.5"/>
<polygon fill="#666666" stroke="#666666" points="155,-127.5 155,-127.5 190,-127.5 190,-127.5 155,-127.5"/>
<polygon fill="none" stroke="#666666" points="154.5,-111 154.5,-160 189.5,-160 189.5,-111 154.5,-111"/>
</a>
</g>
</g>
<!-- Node3&#45;&gt;Node1 -->
<g id="edge2_Node000001_Node000003" class="edge">
<title>Node3&#45;&gt;Node1</title>
<g id="a_edge2_Node000001_Node000003"><a xlink:title=" ">
<path fill="none" stroke="#63b8ff" d="M159.94,-110.96C154.47,-100.29 147.84,-87.34 141.56,-75.08"/>
<polygon fill="none" stroke="#63b8ff" points="141.41,-74.79 135.11,-71.27 135.94,-64.11 142.23,-67.62 141.41,-74.79"/>
</a>
</g>
<text text-anchor="middle" x="203.5" y="-85" font-family="Helvetica,sans-Serif" font-size="10.00" fill="grey"> +permission_classes</text>
</g>
</g>
</svg>
</svg>

<style type='text/css'>
<![CDATA[
[data-mouse-over-selected='false'] { opacity: 0.7; }
[data-mouse-over-selected='true']  { opacity: 1.0; }
]]>
</style>
<script type="application/ecmascript"><![CDATA[
document.addEventListener('DOMContentLoaded', (event) => {
  highlightEdges();
  highlightAdjacentNodes();
});
]]></script>
</svg>
