<?xml version="1.0" encoding="UTF-8" standalone="no"?>
<!DOCTYPE svg PUBLIC "-//W3C//DTD SVG 1.1//EN"
 "http://www.w3.org/Graphics/SVG/1.1/DTD/svg11.dtd">
<!-- Generated by graphviz version 2.43.0 (0)
 -->
<!-- Title: assignment.serializers.AssignmentSerializer.Meta Pages: 1 -->
<svg width="190pt" height="164pt"
 viewBox="0.00 0.00 190.00 164.00" xmlns="http://www.w3.org/2000/svg" xmlns:xlink="http://www.w3.org/1999/xlink">
<g id="graph0" class="graph" transform="scale(1 1) rotate(0) translate(4 160)">
<title>assignment.serializers.AssignmentSerializer.Meta</title>
<!-- Node1 -->
<g id="Node000001" class="node">
<title>Node1</title>
<g id="a_Node000001"><a xlink:title=" ">
<polygon fill="#999999" stroke="transparent" points="182,-60 0,-60 0,0 182,0 182,-60"/>
<text text-anchor="start" x="5" y="-48" font-family="Helvetica,sans-Serif" font-size="10.00">assignment.serializers.Assignment</text>
<text text-anchor="start" x="54.5" y="-37" font-family="Helvetica,sans-Serif" font-size="10.00">Serializer.Meta</text>
<text text-anchor="start" x="36.5" y="-22" font-family="Helvetica,sans-Serif" font-size="10.00">+</text>
<text text-anchor="start" x="82" y="-22" font-family="Helvetica,sans-Serif" font-size="10.00">model</text>
<text text-anchor="start" x="89" y="-7" font-family="Helvetica,sans-Serif" font-size="10.00"> </text>
<polygon fill="#666666" stroke="#666666" points="0,-32 0,-32 182,-32 182,-32 0,-32"/>
<polygon fill="#666666" stroke="#666666" points="0,-17 0,-17 80,-17 80,-17 0,-17"/>
<polygon fill="#666666" stroke="#666666" points="80,-17 80,-17 182,-17 182,-17 80,-17"/>
<polygon fill="none" stroke="#666666" points="0,0 0,-60 182,-60 182,0 0,0"/>
</a>
</g>
</g>
<!-- Node2 -->
<g id="Node000002" class="node">
<title>Node2</title>
<g id="a_Node000002"><a xlink:title=" ">
<polygon fill="white" stroke="transparent" points="104,-156 78,-156 78,-107 104,-107 104,-156"/>
<text text-anchor="start" x="83" y="-143.5" font-family="Helvetica,sans-Serif" font-size="10.00">list</text>
<text text-anchor="start" x="89" y="-128.5" font-family="Helvetica,sans-Serif" font-size="10.00"> </text>
<text text-anchor="start" x="89" y="-113.5" font-family="Helvetica,sans-Serif" font-size="10.00"> </text>
<polygon fill="#666666" stroke="#666666" points="78,-138.5 78,-138.5 104,-138.5 104,-138.5 78,-138.5"/>
<polygon fill="#666666" stroke="#666666" points="78,-123.5 78,-123.5 104,-123.5 104,-123.5 78,-123.5"/>
<polygon fill="none" stroke="#666666" points="78,-107 78,-156 104,-156 104,-107 78,-107"/>
</a>
</g>
</g>
<!-- Node2&#45;&gt;Node1 -->
<g id="edge1_Node000001_Node000002" class="edge">
<title>Node2&#45;&gt;Node1</title>
<g id="a_edge1_Node000001_Node000002"><a xlink:title=" ">
<path fill="none" stroke="#63b8ff" d="M91,-106.92C91,-96.51 91,-83.97 91,-72.1"/>
<polygon fill="none" stroke="#63b8ff" points="91,-72.1 87,-66.1 91,-60.1 95,-66.1 91,-72.1"/>
</a>
</g>
<text text-anchor="middle" x="110" y="-81" font-family="Helvetica,sans-Serif" font-size="10.00" fill="grey"> +fields</text>
</g>
</g>
</svg>
