<?xml version="1.0" encoding="UTF-8" standalone="no"?>
<!DOCTYPE svg PUBLIC "-//W3C//DTD SVG 1.1//EN"
 "http://www.w3.org/Graphics/SVG/1.1/DTD/svg11.dtd">
<!-- Generated by graphviz version 2.43.0 (0)
 -->
<!-- Title: exchange.views.UpvoteDeleteView Pages: 1 -->
<svg width="192pt" height="172pt"
 viewBox="0.00 0.00 192.00 172.00" xmlns="http://www.w3.org/2000/svg" xmlns:xlink="http://www.w3.org/1999/xlink">
<g id="graph0" class="graph" transform="scale(1 1) rotate(0) translate(4 168)">
<title>exchange.views.UpvoteDeleteView</title>
<!-- Node1 -->
<g id="Node000001" class="node">
<title>Node1</title>
<g id="a_Node000001"><a xlink:title=" ">
<polygon fill="#999999" stroke="transparent" points="184,-79 0,-79 0,0 184,0 184,-79"/>
<text text-anchor="start" x="5" y="-66.5" font-family="Helvetica,sans-Serif" font-size="10.00">exchange.views.UpvoteDeleteView</text>
<text text-anchor="start" x="20.5" y="-51.5" font-family="Helvetica,sans-Serif" font-size="10.00">+</text>
<text text-anchor="start" x="50" y="-51.5" font-family="Helvetica,sans-Serif" font-size="10.00">queryset</text>
<text text-anchor="start" x="20.5" y="-36.5" font-family="Helvetica,sans-Serif" font-size="10.00">+</text>
<text text-anchor="start" x="50" y="-36.5" font-family="Helvetica,sans-Serif" font-size="10.00">permission_classes</text>
<text text-anchor="start" x="20.5" y="-21.5" font-family="Helvetica,sans-Serif" font-size="10.00">+</text>
<text text-anchor="start" x="50" y="-21.5" font-family="Helvetica,sans-Serif" font-size="10.00">serializer_class</text>
<text text-anchor="start" x="20.5" y="-6.5" font-family="Helvetica,sans-Serif" font-size="10.00">+</text>
<text text-anchor="start" x="50" y="-6.5" font-family="Helvetica,sans-Serif" font-size="10.00">delete()</text>
<polygon fill="#666666" stroke="#666666" points="0,-61.5 0,-61.5 184,-61.5 184,-61.5 0,-61.5"/>
<polygon fill="#666666" stroke="#666666" points="0,-16.5 0,-16.5 48,-16.5 48,-16.5 0,-16.5"/>
<polygon fill="#666666" stroke="#666666" points="48,-16.5 48,-16.5 184,-16.5 184,-16.5 48,-16.5"/>
<polygon fill="none" stroke="#666666" points="0,0 0,-79 184,-79 184,0 0,0"/>
</a>
</g>
</g>
<!-- Node2 -->
<g id="Node000002" class="node">
<title>Node2</title>
<g id="a_Node000002"><a xlink:title=" ">
<polygon fill="white" stroke="transparent" points="158.5,-164 25.5,-164 25.5,-115 158.5,-115 158.5,-164"/>
<text text-anchor="start" x="31" y="-151.5" font-family="Helvetica,sans-Serif" font-size="10.00">generics.DestroyAPIView</text>
<text text-anchor="start" x="90.5" y="-136.5" font-family="Helvetica,sans-Serif" font-size="10.00"> </text>
<text text-anchor="start" x="90.5" y="-121.5" font-family="Helvetica,sans-Serif" font-size="10.00"> </text>
<polygon fill="#666666" stroke="#666666" points="26,-146.5 26,-146.5 159,-146.5 159,-146.5 26,-146.5"/>
<polygon fill="#666666" stroke="#666666" points="26,-131.5 26,-131.5 159,-131.5 159,-131.5 26,-131.5"/>
<polygon fill="none" stroke="#666666" points="25.5,-115 25.5,-164 158.5,-164 158.5,-115 25.5,-115"/>
</a>
</g>
</g>
<!-- Node2&#45;&gt;Node1 -->
<g id="edge1_Node000001_Node000002" class="edge">
<title>Node2&#45;&gt;Node1</title>
<g id="a_edge1_Node000001_Node000002"><a xlink:title=" ">
<path fill="none" stroke="#63b8ff" d="M92,-104.52C92,-96.38 92,-87.63 92,-79.29"/>
<polygon fill="none" stroke="#63b8ff" points="88.5,-104.78 92,-114.78 95.5,-104.78 88.5,-104.78"/>
</a>
</g>
</g>
</g>
</svg>
