<?xml version="1.0" encoding="UTF-8" standalone="no"?>
<!DOCTYPE svg PUBLIC "-//W3C//DTD SVG 1.1//EN"
 "http://www.w3.org/Graphics/SVG/1.1/DTD/svg11.dtd">
<!-- Generated by graphviz version 2.43.0 (0)
 -->
<!-- Title: user.serializers.StudentViewSerializer Pages: 1 -->
<svg width="148pt" height="198pt"
 viewBox="0.00 0.00 148.00 198.00" xmlns="http://www.w3.org/2000/svg" xmlns:xlink="http://www.w3.org/1999/xlink">
<g id="graph0" class="graph" transform="scale(1 1) rotate(0) translate(4 194)">
<title>user.serializers.StudentViewSerializer</title>
<!-- Node1 -->
<g id="Node000001" class="node">
<title>Node1</title>
<g id="a_Node000001"><a xlink:title=" ">
<polygon fill="#999999" stroke="transparent" points="132.5,-105 7.5,-105 7.5,0 132.5,0 132.5,-105"/>
<text text-anchor="start" x="13" y="-92.5" font-family="Helvetica,sans-Serif" font-size="10.00">user.serializers.Student</text>
<text text-anchor="start" x="35.5" y="-81.5" font-family="Helvetica,sans-Serif" font-size="10.00">ViewSerializer</text>
<text text-anchor="start" x="24" y="-66.5" font-family="Helvetica,sans-Serif" font-size="10.00">+</text>
<text text-anchor="start" x="49" y="-66.5" font-family="Helvetica,sans-Serif" font-size="10.00">mark</text>
<text text-anchor="start" x="24" y="-51.5" font-family="Helvetica,sans-Serif" font-size="10.00">+</text>
<text text-anchor="start" x="49" y="-51.5" font-family="Helvetica,sans-Serif" font-size="10.00">attendance</text>
<text text-anchor="start" x="24" y="-36.5" font-family="Helvetica,sans-Serif" font-size="10.00">+</text>
<text text-anchor="start" x="49" y="-36.5" font-family="Helvetica,sans-Serif" font-size="10.00">student</text>
<text text-anchor="start" x="24" y="-21.5" font-family="Helvetica,sans-Serif" font-size="10.00">+</text>
<text text-anchor="start" x="49" y="-21.5" font-family="Helvetica,sans-Serif" font-size="10.00">classroom</text>
<text text-anchor="start" x="68.5" y="-6.5" font-family="Helvetica,sans-Serif" font-size="10.00"> </text>
<polygon fill="#666666" stroke="#666666" points="8,-76.5 8,-76.5 133,-76.5 133,-76.5 8,-76.5"/>
<polygon fill="#666666" stroke="#666666" points="8,-16.5 8,-16.5 47,-16.5 47,-16.5 8,-16.5"/>
<polygon fill="#666666" stroke="#666666" points="47,-16.5 47,-16.5 133,-16.5 133,-16.5 47,-16.5"/>
<polygon fill="none" stroke="#666666" points="7.5,0 7.5,-105 132.5,-105 132.5,0 7.5,0"/>
</a>
</g>
</g>
<!-- Node2 -->
<g id="Node000002" class="node">
<title>Node2</title>
<g id="a_Node000002"><a xlink:title=" ">
<polygon fill="white" stroke="transparent" points="140,-190 0,-190 0,-141 140,-141 140,-190"/>
<text text-anchor="start" x="5" y="-177.5" font-family="Helvetica,sans-Serif" font-size="10.00">serializers.ModelSerializer</text>
<text text-anchor="start" x="68" y="-162.5" font-family="Helvetica,sans-Serif" font-size="10.00"> </text>
<text text-anchor="start" x="68" y="-147.5" font-family="Helvetica,sans-Serif" font-size="10.00"> </text>
<polygon fill="#666666" stroke="#666666" points="0,-172.5 0,-172.5 140,-172.5 140,-172.5 0,-172.5"/>
<polygon fill="#666666" stroke="#666666" points="0,-157.5 0,-157.5 140,-157.5 140,-157.5 0,-157.5"/>
<polygon fill="none" stroke="#666666" points="0,-141 0,-190 140,-190 140,-141 0,-141"/>
</a>
</g>
</g>
<!-- Node2&#45;&gt;Node1 -->
<g id="edge1_Node000001_Node000002" class="edge">
<title>Node2&#45;&gt;Node1</title>
<g id="a_edge1_Node000001_Node000002"><a xlink:title=" ">
<path fill="none" stroke="#63b8ff" d="M70,-130.85C70,-122.79 70,-114 70,-105.32"/>
<polygon fill="none" stroke="#63b8ff" points="66.5,-130.96 70,-140.96 73.5,-130.96 66.5,-130.96"/>
</a>
</g>
</g>
</g>
</svg>
