<?xml version="1.0" encoding="UTF-8" standalone="no"?>
<!DOCTYPE svg PUBLIC "-//W3C//DTD SVG 1.1//EN"
 "http://www.w3.org/Graphics/SVG/1.1/DTD/svg11.dtd">
<!-- Generated by graphviz version 2.43.0 (0)
 -->
<!-- Title: attendance.migrations.0007_alter_hodattendance_table_alter_mainattendance_table_and_more.Migration Pages: 1 -->
<svg width="161pt" height="190pt"
 viewBox="0.00 0.00 161.00 190.00" xmlns="http://www.w3.org/2000/svg" xmlns:xlink="http://www.w3.org/1999/xlink">

<svg id="main" version="1.1" xmlns="http://www.w3.org/2000/svg" xmlns:xlink="http://www.w3.org/1999/xlink" xml:space="preserve" onload="init(evt)">
<style type="text/css"><![CDATA[
.node, .edge {opacity: 0.7;}
.node.selected, .edge.selected {opacity: 1;}
.edge:hover path { stroke: red; }
.edge:hover polygon { stroke: red; fill: red; }
]]></style>
<script type="application/ecmascript" xlink:href="svg.min.js"/>
<svg id="graph" class="graph">
<g id="graph0" class="graph" transform="scale(1 1) rotate(0) translate(4 186)">
<title>attendance.migrations.0007_alter_hodattendance_table_alter_mainattendance_table_and_more.Migration</title>
<!-- Node1 -->
<g id="Node000001" class="node">
<title>Node1</title>
<g id="a_Node000001"><a xlink:title=" ">
<polygon fill="#999999" stroke="transparent" points="153,-97 0,-97 0,0 153,0 153,-97"/>
<text text-anchor="start" x="5.5" y="-84.5" font-family="Helvetica,sans-Serif" font-size="10.00">attendance.migrations.0007</text>
<text text-anchor="start" x="5.5" y="-73.5" font-family="Helvetica,sans-Serif" font-size="10.00">_alter_hodattendance_table</text>
<text text-anchor="start" x="5.5" y="-62.5" font-family="Helvetica,sans-Serif" font-size="10.00">_alter_mainattendance_table</text>
<text text-anchor="start" x="25" y="-51.5" font-family="Helvetica,sans-Serif" font-size="10.00">_and_more.Migration</text>
<text text-anchor="start" x="20.5" y="-36.5" font-family="Helvetica,sans-Serif" font-size="10.00">+</text>
<text text-anchor="start" x="49.5" y="-36.5" font-family="Helvetica,sans-Serif" font-size="10.00">dependencies</text>
<text text-anchor="start" x="20.5" y="-21.5" font-family="Helvetica,sans-Serif" font-size="10.00">+</text>
<text text-anchor="start" x="49.5" y="-21.5" font-family="Helvetica,sans-Serif" font-size="10.00">operations</text>
<text text-anchor="start" x="75" y="-6.5" font-family="Helvetica,sans-Serif" font-size="10.00"> </text>
<polygon fill="#666666" stroke="#666666" points="0.5,-46.5 0.5,-46.5 153.5,-46.5 153.5,-46.5 0.5,-46.5"/>
<polygon fill="#666666" stroke="#666666" points="0.5,-16.5 0.5,-16.5 47.5,-16.5 47.5,-16.5 0.5,-16.5"/>
<polygon fill="#666666" stroke="#666666" points="47.5,-16.5 47.5,-16.5 153.5,-16.5 153.5,-16.5 47.5,-16.5"/>
<polygon fill="none" stroke="#666666" points="0,0 0,-97 153,-97 153,0 0,0"/>
</a>
</g>
</g>
<!-- Node2 -->
<g id="Node000002" class="node">
<title>Node2</title>
<g id="a_Node000002"><a xlink:title=" ">
<polygon fill="white" stroke="transparent" points="133,-182 20,-182 20,-133 133,-133 133,-182"/>
<text text-anchor="start" x="25.5" y="-169.5" font-family="Helvetica,sans-Serif" font-size="10.00">migrations.Migration</text>
<text text-anchor="start" x="75" y="-154.5" font-family="Helvetica,sans-Serif" font-size="10.00"> </text>
<text text-anchor="start" x="75" y="-139.5" font-family="Helvetica,sans-Serif" font-size="10.00"> </text>
<polygon fill="#666666" stroke="#666666" points="20.5,-164.5 20.5,-164.5 133.5,-164.5 133.5,-164.5 20.5,-164.5"/>
<polygon fill="#666666" stroke="#666666" points="20.5,-149.5 20.5,-149.5 133.5,-149.5 133.5,-149.5 20.5,-149.5"/>
<polygon fill="none" stroke="#666666" points="20,-133 20,-182 133,-182 133,-133 20,-133"/>
</a>
</g>
</g>
<!-- Node2&#45;&gt;Node1 -->
<g id="edge1_Node000001_Node000002" class="edge">
<title>Node2&#45;&gt;Node1</title>
<g id="a_edge1_Node000001_Node000002"><a xlink:title=" ">
<path fill="none" stroke="#63b8ff" d="M76.5,-122.64C76.5,-114.59 76.5,-105.85 76.5,-97.3"/>
<polygon fill="none" stroke="#63b8ff" points="73,-122.75 76.5,-132.75 80,-122.75 73,-122.75"/>
</a>
</g>
</g>
</g>
</svg>
</svg>

<style type='text/css'>
<![CDATA[
[data-mouse-over-selected='false'] { opacity: 0.7; }
[data-mouse-over-selected='true']  { opacity: 1.0; }
]]>
</style>
<script type="application/ecmascript"><![CDATA[
document.addEventListener('DOMContentLoaded', (event) => {
  highlightEdges();
  highlightAdjacentNodes();
});
]]></script>
</svg>
