<?xml version="1.0" encoding="UTF-8" standalone="no"?>
<!DOCTYPE svg PUBLIC "-//W3C//DTD SVG 1.1//EN"
 "http://www.w3.org/Graphics/SVG/1.1/DTD/svg11.dtd">
<!-- Generated by graphviz version 2.43.0 (0)
 -->
<!-- Title: attendance.apps.AttendanceConfig Pages: 1 -->
<svg width="201pt" height="175pt"
 viewBox="0.00 0.00 201.00 175.00" xmlns="http://www.w3.org/2000/svg" xmlns:xlink="http://www.w3.org/1999/xlink">
<g id="graph0" class="graph" transform="scale(1 1) rotate(0) translate(4 171)">
<title>attendance.apps.AttendanceConfig</title>
<!-- Node1 -->
<g id="Node000001" class="node">
<title>Node1</title>
<g id="a_Node000001"><a xlink:title=" ">
<polygon fill="#999999" stroke="transparent" points="150,-60 0,-60 0,0 150,0 150,-60"/>
<text text-anchor="start" x="5" y="-48" font-family="Helvetica,sans-Serif" font-size="10.00">attendance.apps.Attendance</text>
<text text-anchor="start" x="59.5" y="-37" font-family="Helvetica,sans-Serif" font-size="10.00">Config</text>
<text text-anchor="start" x="73" y="-22" font-family="Helvetica,sans-Serif" font-size="10.00"> </text>
<text text-anchor="start" x="73" y="-7" font-family="Helvetica,sans-Serif" font-size="10.00"> </text>
<polygon fill="#666666" stroke="#666666" points="0,-32 0,-32 150,-32 150,-32 0,-32"/>
<polygon fill="#666666" stroke="#666666" points="0,-17 0,-17 150,-17 150,-17 0,-17"/>
<polygon fill="none" stroke="#666666" points="0,0 0,-60 150,-60 150,0 0,0"/>
</a>
</g>
</g>
<!-- Node2 -->
<g id="Node000002" class="node">
<title>Node2</title>
<g id="a_Node000002"><a xlink:title=" ">
<polygon fill="white" stroke="transparent" points="75,-167 15,-167 15,-118 75,-118 75,-167"/>
<text text-anchor="start" x="20" y="-154.5" font-family="Helvetica,sans-Serif" font-size="10.00">AppConfig</text>
<text text-anchor="start" x="43" y="-139.5" font-family="Helvetica,sans-Serif" font-size="10.00"> </text>
<text text-anchor="start" x="43" y="-124.5" font-family="Helvetica,sans-Serif" font-size="10.00"> </text>
<polygon fill="#666666" stroke="#666666" points="15,-149.5 15,-149.5 75,-149.5 75,-149.5 15,-149.5"/>
<polygon fill="#666666" stroke="#666666" points="15,-134.5 15,-134.5 75,-134.5 75,-134.5 15,-134.5"/>
<polygon fill="none" stroke="#666666" points="15,-118 15,-167 75,-167 75,-118 15,-118"/>
</a>
</g>
</g>
<!-- Node2&#45;&gt;Node1 -->
<g id="edge1_Node000001_Node000002" class="edge">
<title>Node2&#45;&gt;Node1</title>
<g id="a_edge1_Node000001_Node000002"><a xlink:title=" ">
<path fill="none" stroke="#63b8ff" d="M54.16,-107.75C58.29,-92.56 63.11,-74.79 67.08,-60.17"/>
<polygon fill="none" stroke="#63b8ff" points="50.68,-107.23 51.44,-117.79 57.43,-109.06 50.68,-107.23"/>
</a>
</g>
</g>
<!-- Node3 -->
<g id="Node000003" class="node">
<title>Node3</title>
<g id="a_Node000003"><a xlink:title=" ">
<polygon fill="white" stroke="transparent" points="116.5,-167 93.5,-167 93.5,-118 116.5,-118 116.5,-167"/>
<text text-anchor="start" x="99" y="-154.5" font-family="Helvetica,sans-Serif" font-size="10.00">str</text>
<text text-anchor="start" x="103.5" y="-139.5" font-family="Helvetica,sans-Serif" font-size="10.00"> </text>
<text text-anchor="start" x="103.5" y="-124.5" font-family="Helvetica,sans-Serif" font-size="10.00"> </text>
<polygon fill="#666666" stroke="#666666" points="94,-149.5 94,-149.5 117,-149.5 117,-149.5 94,-149.5"/>
<polygon fill="#666666" stroke="#666666" points="94,-134.5 94,-134.5 117,-134.5 117,-134.5 94,-134.5"/>
<polygon fill="none" stroke="#666666" points="93.5,-118 93.5,-167 116.5,-167 116.5,-118 93.5,-118"/>
</a>
</g>
</g>
<!-- Node3&#45;&gt;Node1 -->
<g id="edge2_Node000001_Node000003" class="edge">
<title>Node3&#45;&gt;Node1</title>
<g id="a_edge2_Node000001_Node000003"><a xlink:title=" ">
<path fill="none" stroke="#63b8ff" d="M98.56,-117.79C94.95,-104.48 90.34,-87.5 86.16,-72.09"/>
<polygon fill="none" stroke="#63b8ff" points="86.06,-71.75 80.63,-67.01 82.92,-60.17 88.35,-64.92 86.06,-71.75"/>
</a>
</g>
<text text-anchor="middle" x="143" y="-92" font-family="Helvetica,sans-Serif" font-size="10.00" fill="grey"> +default_auto_field</text>
<text text-anchor="middle" x="143" y="-81" font-family="Helvetica,sans-Serif" font-size="10.00" fill="grey">+name</text>
</g>
</g>
</svg>
