<?xml version="1.0" encoding="UTF-8" standalone="no"?>
<!DOCTYPE svg PUBLIC "-//W3C//DTD SVG 1.1//EN"
 "http://www.w3.org/Graphics/SVG/1.1/DTD/svg11.dtd">
<!-- Generated by graphviz version 2.43.0 (0)
 -->
<!-- Title: attendance.migrations.0004_alter_studentattendance_date_of_marking.Migration Pages: 1 -->
<svg width="156pt" height="179pt"
 viewBox="0.00 0.00 156.00 179.00" xmlns="http://www.w3.org/2000/svg" xmlns:xlink="http://www.w3.org/1999/xlink">
<g id="graph0" class="graph" transform="scale(1 1) rotate(0) translate(4 175)">
<title>attendance.migrations.0004_alter_studentattendance_date_of_marking.Migration</title>
<!-- Node1 -->
<g id="Node000001" class="node">
<title>Node1</title>
<g id="a_Node000001"><a xlink:title=" ">
<polygon fill="#999999" stroke="transparent" points="148,-86 0,-86 0,0 148,0 148,-86"/>
<text text-anchor="start" x="5" y="-74" font-family="Helvetica,sans-Serif" font-size="10.00">attendance.migrations.0004</text>
<text text-anchor="start" x="5" y="-63" font-family="Helvetica,sans-Serif" font-size="10.00">_alter_studentattendance</text>
<text text-anchor="start" x="5" y="-52" font-family="Helvetica,sans-Serif" font-size="10.00">_date_of_marking.Migration</text>
<text text-anchor="start" x="18.5" y="-37" font-family="Helvetica,sans-Serif" font-size="10.00">+</text>
<text text-anchor="start" x="46" y="-37" font-family="Helvetica,sans-Serif" font-size="10.00">dependencies</text>
<text text-anchor="start" x="18.5" y="-22" font-family="Helvetica,sans-Serif" font-size="10.00">+</text>
<text text-anchor="start" x="46" y="-22" font-family="Helvetica,sans-Serif" font-size="10.00">operations</text>
<text text-anchor="start" x="72" y="-7" font-family="Helvetica,sans-Serif" font-size="10.00"> </text>
<polygon fill="#666666" stroke="#666666" points="0,-47 0,-47 148,-47 148,-47 0,-47"/>
<polygon fill="#666666" stroke="#666666" points="0,-17 0,-17 44,-17 44,-17 0,-17"/>
<polygon fill="#666666" stroke="#666666" points="44,-17 44,-17 148,-17 148,-17 44,-17"/>
<polygon fill="none" stroke="#666666" points="0,0 0,-86 148,-86 148,0 0,0"/>
</a>
</g>
</g>
<!-- Node2 -->
<g id="Node000002" class="node">
<title>Node2</title>
<g id="a_Node000002"><a xlink:title=" ">
<polygon fill="white" stroke="transparent" points="130.5,-171 17.5,-171 17.5,-122 130.5,-122 130.5,-171"/>
<text text-anchor="start" x="23" y="-158.5" font-family="Helvetica,sans-Serif" font-size="10.00">migrations.Migration</text>
<text text-anchor="start" x="72.5" y="-143.5" font-family="Helvetica,sans-Serif" font-size="10.00"> </text>
<text text-anchor="start" x="72.5" y="-128.5" font-family="Helvetica,sans-Serif" font-size="10.00"> </text>
<polygon fill="#666666" stroke="#666666" points="18,-153.5 18,-153.5 131,-153.5 131,-153.5 18,-153.5"/>
<polygon fill="#666666" stroke="#666666" points="18,-138.5 18,-138.5 131,-138.5 131,-138.5 18,-138.5"/>
<polygon fill="none" stroke="#666666" points="17.5,-122 17.5,-171 130.5,-171 130.5,-122 17.5,-122"/>
</a>
</g>
</g>
<!-- Node2&#45;&gt;Node1 -->
<g id="edge1_Node000001_Node000002" class="edge">
<title>Node2&#45;&gt;Node1</title>
<g id="a_edge1_Node000001_Node000002"><a xlink:title=" ">
<path fill="none" stroke="#63b8ff" d="M74,-111.94C74,-103.68 74,-94.73 74,-86.13"/>
<polygon fill="none" stroke="#63b8ff" points="70.5,-111.96 74,-121.96 77.5,-111.96 70.5,-111.96"/>
</a>
</g>
</g>
</g>
</svg>
