<?xml version="1.0" encoding="UTF-8" standalone="no"?>
<!DOCTYPE svg PUBLIC "-//W3C//DTD SVG 1.1//EN"
 "http://www.w3.org/Graphics/SVG/1.1/DTD/svg11.dtd">
<!-- Generated by graphviz version 2.43.0 (0)
 -->
<!-- Title: exchange.migrations.0001_initial.Migration Pages: 1 -->
<svg width="148pt" height="183pt"
 viewBox="0.00 0.00 148.00 183.00" xmlns="http://www.w3.org/2000/svg" xmlns:xlink="http://www.w3.org/1999/xlink">
<g id="graph0" class="graph" transform="scale(1 1) rotate(0) translate(4 179)">
<title>exchange.migrations.0001_initial.Migration</title>
<!-- Node1 -->
<g id="Node000001" class="node">
<title>Node1</title>
<g id="a_Node000001"><a xlink:title=" ">
<polygon fill="#999999" stroke="transparent" points="140,-90 0,-90 0,0 140,0 140,-90"/>
<text text-anchor="start" x="5" y="-78" font-family="Helvetica,sans-Serif" font-size="10.00">exchange.migrations.0001</text>
<text text-anchor="start" x="28.5" y="-67" font-family="Helvetica,sans-Serif" font-size="10.00">_initial.Migration</text>
<text text-anchor="start" x="16.5" y="-52" font-family="Helvetica,sans-Serif" font-size="10.00">+</text>
<text text-anchor="start" x="42" y="-52" font-family="Helvetica,sans-Serif" font-size="10.00">initial</text>
<text text-anchor="start" x="16.5" y="-37" font-family="Helvetica,sans-Serif" font-size="10.00">+</text>
<text text-anchor="start" x="42" y="-37" font-family="Helvetica,sans-Serif" font-size="10.00">dependencies</text>
<text text-anchor="start" x="16.5" y="-22" font-family="Helvetica,sans-Serif" font-size="10.00">+</text>
<text text-anchor="start" x="42" y="-22" font-family="Helvetica,sans-Serif" font-size="10.00">operations</text>
<text text-anchor="start" x="68" y="-7" font-family="Helvetica,sans-Serif" font-size="10.00"> </text>
<polygon fill="#666666" stroke="#666666" points="0,-62 0,-62 140,-62 140,-62 0,-62"/>
<polygon fill="#666666" stroke="#666666" points="0,-17 0,-17 40,-17 40,-17 0,-17"/>
<polygon fill="#666666" stroke="#666666" points="40,-17 40,-17 140,-17 140,-17 40,-17"/>
<polygon fill="none" stroke="#666666" points="0,0 0,-90 140,-90 140,0 0,0"/>
</a>
</g>
</g>
<!-- Node2 -->
<g id="Node000002" class="node">
<title>Node2</title>
<g id="a_Node000002"><a xlink:title=" ">
<polygon fill="white" stroke="transparent" points="126.5,-175 13.5,-175 13.5,-126 126.5,-126 126.5,-175"/>
<text text-anchor="start" x="19" y="-162.5" font-family="Helvetica,sans-Serif" font-size="10.00">migrations.Migration</text>
<text text-anchor="start" x="68.5" y="-147.5" font-family="Helvetica,sans-Serif" font-size="10.00"> </text>
<text text-anchor="start" x="68.5" y="-132.5" font-family="Helvetica,sans-Serif" font-size="10.00"> </text>
<polygon fill="#666666" stroke="#666666" points="14,-157.5 14,-157.5 127,-157.5 127,-157.5 14,-157.5"/>
<polygon fill="#666666" stroke="#666666" points="14,-142.5 14,-142.5 127,-142.5 127,-142.5 14,-142.5"/>
<polygon fill="none" stroke="#666666" points="13.5,-126 13.5,-175 126.5,-175 126.5,-126 13.5,-126"/>
</a>
</g>
</g>
<!-- Node2&#45;&gt;Node1 -->
<g id="edge1_Node000001_Node000002" class="edge">
<title>Node2&#45;&gt;Node1</title>
<g id="a_edge1_Node000001_Node000002"><a xlink:title=" ">
<path fill="none" stroke="#63b8ff" d="M70,-115.62C70,-107.56 70,-98.84 70,-90.39"/>
<polygon fill="none" stroke="#63b8ff" points="66.5,-115.75 70,-125.76 73.5,-115.76 66.5,-115.75"/>
</a>
</g>
</g>
</g>
</svg>
