<?xml version="1.0" encoding="UTF-8" standalone="no"?>
<!DOCTYPE svg PUBLIC "-//W3C//DTD SVG 1.1//EN"
 "http://www.w3.org/Graphics/SVG/1.1/DTD/svg11.dtd">
<!-- Generated by graphviz version 2.43.0 (0)
 -->
<!-- Title: user.migrations.0012_student_assignment.Migration Pages: 1 -->
<svg width="172pt" height="168pt"
 viewBox="0.00 0.00 172.00 168.00" xmlns="http://www.w3.org/2000/svg" xmlns:xlink="http://www.w3.org/1999/xlink">
<g id="graph0" class="graph" transform="scale(1 1) rotate(0) translate(4 164)">
<title>user.migrations.0012_student_assignment.Migration</title>
<!-- Node1 -->
<g id="Node000001" class="node">
<title>Node1</title>
<g id="a_Node000001"><a xlink:title=" ">
<polygon fill="#999999" stroke="transparent" points="164,-75 0,-75 0,0 164,0 164,-75"/>
<text text-anchor="start" x="5" y="-62.5" font-family="Helvetica,sans-Serif" font-size="10.00">user.migrations.0012</text>
<text text-anchor="start" x="5" y="-51.5" font-family="Helvetica,sans-Serif" font-size="10.00">_student_assignment.Migration</text>
<text text-anchor="start" x="22.5" y="-36.5" font-family="Helvetica,sans-Serif" font-size="10.00">+</text>
<text text-anchor="start" x="54" y="-36.5" font-family="Helvetica,sans-Serif" font-size="10.00">dependencies</text>
<text text-anchor="start" x="22.5" y="-21.5" font-family="Helvetica,sans-Serif" font-size="10.00">+</text>
<text text-anchor="start" x="54" y="-21.5" font-family="Helvetica,sans-Serif" font-size="10.00">operations</text>
<text text-anchor="start" x="80" y="-6.5" font-family="Helvetica,sans-Serif" font-size="10.00"> </text>
<polygon fill="#666666" stroke="#666666" points="0,-46.5 0,-46.5 164,-46.5 164,-46.5 0,-46.5"/>
<polygon fill="#666666" stroke="#666666" points="0,-16.5 0,-16.5 52,-16.5 52,-16.5 0,-16.5"/>
<polygon fill="#666666" stroke="#666666" points="52,-16.5 52,-16.5 164,-16.5 164,-16.5 52,-16.5"/>
<polygon fill="none" stroke="#666666" points="0,0 0,-75 164,-75 164,0 0,0"/>
</a>
</g>
</g>
<!-- Node2 -->
<g id="Node000002" class="node">
<title>Node2</title>
<g id="a_Node000002"><a xlink:title=" ">
<polygon fill="white" stroke="transparent" points="138.5,-160 25.5,-160 25.5,-111 138.5,-111 138.5,-160"/>
<text text-anchor="start" x="31" y="-147.5" font-family="Helvetica,sans-Serif" font-size="10.00">migrations.Migration</text>
<text text-anchor="start" x="80.5" y="-132.5" font-family="Helvetica,sans-Serif" font-size="10.00"> </text>
<text text-anchor="start" x="80.5" y="-117.5" font-family="Helvetica,sans-Serif" font-size="10.00"> </text>
<polygon fill="#666666" stroke="#666666" points="26,-142.5 26,-142.5 139,-142.5 139,-142.5 26,-142.5"/>
<polygon fill="#666666" stroke="#666666" points="26,-127.5 26,-127.5 139,-127.5 139,-127.5 26,-127.5"/>
<polygon fill="none" stroke="#666666" points="25.5,-111 25.5,-160 138.5,-160 138.5,-111 25.5,-111"/>
</a>
</g>
</g>
<!-- Node2&#45;&gt;Node1 -->
<g id="edge1_Node000001_Node000002" class="edge">
<title>Node2&#45;&gt;Node1</title>
<g id="a_edge1_Node000001_Node000002"><a xlink:title=" ">
<path fill="none" stroke="#63b8ff" d="M82,-100.68C82,-92.38 82,-83.46 82,-75.04"/>
<polygon fill="none" stroke="#63b8ff" points="78.5,-100.77 82,-110.77 85.5,-100.77 78.5,-100.77"/>
</a>
</g>
</g>
</g>
</svg>
