<?xml version="1.0" encoding="UTF-8" standalone="no"?>
<!DOCTYPE svg PUBLIC "-//W3C//DTD SVG 1.1//EN"
 "http://www.w3.org/Graphics/SVG/1.1/DTD/svg11.dtd">
<!-- Generated by graphviz version 2.43.0 (0)
 -->
<!-- Title: attendance.migrations.0007_alter_hodattendance_table_alter_mainattendance_table_and_more.Migration Pages: 1 -->
<svg width="216pt" height="197pt"
 viewBox="0.00 0.00 215.50 197.00" xmlns="http://www.w3.org/2000/svg" xmlns:xlink="http://www.w3.org/1999/xlink">

<svg id="main" version="1.1" xmlns="http://www.w3.org/2000/svg" xmlns:xlink="http://www.w3.org/1999/xlink" xml:space="preserve" onload="init(evt)">
<style type="text/css"><![CDATA[
.node, .edge {opacity: 0.7;}
.node.selected, .edge.selected {opacity: 1;}
.edge:hover path { stroke: red; }
.edge:hover polygon { stroke: red; fill: red; }
]]></style>
<script type="application/ecmascript" xlink:href="svg.min.js"/>
<svg id="graph" class="graph">
<g id="graph0" class="graph" transform="scale(1 1) rotate(0) translate(4 193)">
<title>attendance.migrations.0007_alter_hodattendance_table_alter_mainattendance_table_and_more.Migration</title>
<!-- Node1 -->
<g id="Node000001" class="node">
<title>Node1</title>
<g id="a_Node000001"><a xlink:title=" ">
<polygon fill="#999999" stroke="transparent" points="177,-82 24,-82 24,0 177,0 177,-82"/>
<text text-anchor="start" x="29.5" y="-70" font-family="Helvetica,sans-Serif" font-size="10.00">attendance.migrations.0007</text>
<text text-anchor="start" x="29.5" y="-59" font-family="Helvetica,sans-Serif" font-size="10.00">_alter_hodattendance_table</text>
<text text-anchor="start" x="29.5" y="-48" font-family="Helvetica,sans-Serif" font-size="10.00">_alter_mainattendance_table</text>
<text text-anchor="start" x="49" y="-37" font-family="Helvetica,sans-Serif" font-size="10.00">_and_more.Migration</text>
<text text-anchor="start" x="99" y="-22" font-family="Helvetica,sans-Serif" font-size="10.00"> </text>
<text text-anchor="start" x="99" y="-7" font-family="Helvetica,sans-Serif" font-size="10.00"> </text>
<polygon fill="#666666" stroke="#666666" points="24.5,-32 24.5,-32 177.5,-32 177.5,-32 24.5,-32"/>
<polygon fill="#666666" stroke="#666666" points="24.5,-17 24.5,-17 177.5,-17 177.5,-17 24.5,-17"/>
<polygon fill="none" stroke="#666666" points="24,0 24,-82 177,-82 177,0 24,0"/>
</a>
</g>
</g>
<!-- Node2 -->
<g id="Node000002" class="node">
<title>Node2</title>
<g id="a_Node000002"><a xlink:title=" ">
<polygon fill="white" stroke="transparent" points="113,-189 0,-189 0,-140 113,-140 113,-189"/>
<text text-anchor="start" x="5.5" y="-176.5" font-family="Helvetica,sans-Serif" font-size="10.00">migrations.Migration</text>
<text text-anchor="start" x="55" y="-161.5" font-family="Helvetica,sans-Serif" font-size="10.00"> </text>
<text text-anchor="start" x="55" y="-146.5" font-family="Helvetica,sans-Serif" font-size="10.00"> </text>
<polygon fill="#666666" stroke="#666666" points="0.5,-171.5 0.5,-171.5 113.5,-171.5 113.5,-171.5 0.5,-171.5"/>
<polygon fill="#666666" stroke="#666666" points="0.5,-156.5 0.5,-156.5 113.5,-156.5 113.5,-156.5 0.5,-156.5"/>
<polygon fill="none" stroke="#666666" points="0,-140 0,-189 113,-189 113,-140 0,-140"/>
</a>
</g>
</g>
<!-- Node2&#45;&gt;Node1 -->
<g id="edge1_Node000001_Node000002" class="edge">
<title>Node2&#45;&gt;Node1</title>
<g id="a_edge1_Node000001_Node000002"><a xlink:title=" ">
<path fill="none" stroke="#63b8ff" d="M68.61,-130.07C73.95,-115.32 80.27,-97.87 85.87,-82.4"/>
<polygon fill="none" stroke="#63b8ff" points="65.2,-129.19 65.09,-139.79 71.78,-131.57 65.2,-129.19"/>
</a>
</g>
</g>
<!-- Node3 -->
<g id="Node000003" class="node">
<title>Node3</title>
<g id="a_Node000003"><a xlink:title=" ">
<polygon fill="white" stroke="transparent" points="157.5,-189 131.5,-189 131.5,-140 157.5,-140 157.5,-189"/>
<text text-anchor="start" x="136.5" y="-176.5" font-family="Helvetica,sans-Serif" font-size="10.00">list</text>
<text text-anchor="start" x="142.5" y="-161.5" font-family="Helvetica,sans-Serif" font-size="10.00"> </text>
<text text-anchor="start" x="142.5" y="-146.5" font-family="Helvetica,sans-Serif" font-size="10.00"> </text>
<polygon fill="#666666" stroke="#666666" points="131.5,-171.5 131.5,-171.5 157.5,-171.5 157.5,-171.5 131.5,-171.5"/>
<polygon fill="#666666" stroke="#666666" points="131.5,-156.5 131.5,-156.5 157.5,-156.5 157.5,-156.5 131.5,-156.5"/>
<polygon fill="none" stroke="#666666" points="131.5,-140 131.5,-189 157.5,-189 157.5,-140 131.5,-140"/>
</a>
</g>
</g>
<!-- Node3&#45;&gt;Node1 -->
<g id="edge2_Node000001_Node000003" class="edge">
<title>Node3&#45;&gt;Node1</title>
<g id="a_edge2_Node000001_Node000003"><a xlink:title=" ">
<path fill="none" stroke="#63b8ff" d="M135.91,-139.79C131.16,-126.67 125.06,-109.83 119.27,-93.84"/>
<polygon fill="none" stroke="#63b8ff" points="119.22,-93.69 113.41,-89.41 115.13,-82.4 120.94,-86.68 119.22,-93.69"/>
</a>
</g>
<text text-anchor="middle" x="168" y="-114" font-family="Helvetica,sans-Serif" font-size="10.00" fill="grey"> +dependencies</text>
<text text-anchor="middle" x="168" y="-103" font-family="Helvetica,sans-Serif" font-size="10.00" fill="grey">+operations</text>
</g>
</g>
</svg>
</svg>

<style type='text/css'>
<![CDATA[
[data-mouse-over-selected='false'] { opacity: 0.7; }
[data-mouse-over-selected='true']  { opacity: 1.0; }
]]>
</style>
<script type="application/ecmascript"><![CDATA[
document.addEventListener('DOMContentLoaded', (event) => {
  highlightEdges();
  highlightAdjacentNodes();
});
]]></script>
</svg>
