<?xml version="1.0" encoding="UTF-8" standalone="no"?>
<!DOCTYPE svg PUBLIC "-//W3C//DTD SVG 1.1//EN"
 "http://www.w3.org/Graphics/SVG/1.1/DTD/svg11.dtd">
<!-- Generated by graphviz version 2.43.0 (0)
 -->
<!-- Title: grade.models.Mark Pages: 1 -->
<svg width="113pt" height="202pt"
 viewBox="0.00 0.00 113.00 202.00" xmlns="http://www.w3.org/2000/svg" xmlns:xlink="http://www.w3.org/1999/xlink">

<svg id="main" version="1.1" xmlns="http://www.w3.org/2000/svg" xmlns:xlink="http://www.w3.org/1999/xlink" xml:space="preserve" onload="init(evt)">
<style type="text/css"><![CDATA[
.node, .edge {opacity: 0.7;}
.node.selected, .edge.selected {opacity: 1;}
.edge:hover path { stroke: red; }
.edge:hover polygon { stroke: red; fill: red; }
]]></style>
<script type="application/ecmascript" xlink:href="svg.min.js"/>
<svg id="graph" class="graph">
<g id="graph0" class="graph" transform="scale(1 1) rotate(0) translate(4 198)">
<title>grade.models.Mark</title>
<!-- Node1 -->
<g id="Node000001" class="node">
<title>Node1</title>
<g id="a_Node000001"><a xlink:title=" ">
<polygon fill="#999999" stroke="transparent" points="105,-109 0,-109 0,0 105,0 105,-109"/>
<text text-anchor="start" x="5.5" y="-96.5" font-family="Helvetica,sans-Serif" font-size="10.00">grade.models.Mark</text>
<text text-anchor="start" x="16" y="-81.5" font-family="Helvetica,sans-Serif" font-size="10.00">+</text>
<text text-anchor="start" x="40.5" y="-81.5" font-family="Helvetica,sans-Serif" font-size="10.00">student</text>
<text text-anchor="start" x="16" y="-66.5" font-family="Helvetica,sans-Serif" font-size="10.00">+</text>
<text text-anchor="start" x="40.5" y="-66.5" font-family="Helvetica,sans-Serif" font-size="10.00">teacher</text>
<text text-anchor="start" x="16" y="-51.5" font-family="Helvetica,sans-Serif" font-size="10.00">+</text>
<text text-anchor="start" x="40.5" y="-51.5" font-family="Helvetica,sans-Serif" font-size="10.00">sub1</text>
<text text-anchor="start" x="16" y="-36.5" font-family="Helvetica,sans-Serif" font-size="10.00">+</text>
<text text-anchor="start" x="40.5" y="-36.5" font-family="Helvetica,sans-Serif" font-size="10.00">sub2</text>
<text text-anchor="start" x="16" y="-21.5" font-family="Helvetica,sans-Serif" font-size="10.00">+</text>
<text text-anchor="start" x="40.5" y="-21.5" font-family="Helvetica,sans-Serif" font-size="10.00">sub3</text>
<text text-anchor="start" x="51" y="-6.5" font-family="Helvetica,sans-Serif" font-size="10.00"> </text>
<polygon fill="#666666" stroke="#666666" points="0.5,-91.5 0.5,-91.5 105.5,-91.5 105.5,-91.5 0.5,-91.5"/>
<polygon fill="#666666" stroke="#666666" points="0.5,-16.5 0.5,-16.5 38.5,-16.5 38.5,-16.5 0.5,-16.5"/>
<polygon fill="#666666" stroke="#666666" points="38.5,-16.5 38.5,-16.5 105.5,-16.5 105.5,-16.5 38.5,-16.5"/>
<polygon fill="none" stroke="#666666" points="0,0 0,-109 105,-109 105,0 0,0"/>
</a>
</g>
</g>
<!-- Node2 -->
<g id="Node000002" class="node">
<title>Node2</title>
<g id="a_Node000002"><a xlink:title=" ">
<polygon fill="white" stroke="transparent" points="92.5,-194 12.5,-194 12.5,-145 92.5,-145 92.5,-194"/>
<text text-anchor="start" x="17.5" y="-181.5" font-family="Helvetica,sans-Serif" font-size="10.00">models.Model</text>
<text text-anchor="start" x="50.5" y="-166.5" font-family="Helvetica,sans-Serif" font-size="10.00"> </text>
<text text-anchor="start" x="50.5" y="-151.5" font-family="Helvetica,sans-Serif" font-size="10.00"> </text>
<polygon fill="#666666" stroke="#666666" points="12.5,-176.5 12.5,-176.5 92.5,-176.5 92.5,-176.5 12.5,-176.5"/>
<polygon fill="#666666" stroke="#666666" points="12.5,-161.5 12.5,-161.5 92.5,-161.5 92.5,-161.5 12.5,-161.5"/>
<polygon fill="none" stroke="#666666" points="12.5,-145 12.5,-194 92.5,-194 92.5,-145 12.5,-145"/>
</a>
</g>
</g>
<!-- Node2&#45;&gt;Node1 -->
<g id="edge1_Node000001_Node000002" class="edge">
<title>Node2&#45;&gt;Node1</title>
<g id="a_edge1_Node000001_Node000002"><a xlink:title=" ">
<path fill="none" stroke="#63b8ff" d="M52.5,-134.79C52.5,-126.79 52.5,-118.06 52.5,-109.41"/>
<polygon fill="none" stroke="#63b8ff" points="49,-134.81 52.5,-144.81 56,-134.81 49,-134.81"/>
</a>
</g>
</g>
</g>
</svg>
</svg>

<style type='text/css'>
<![CDATA[
[data-mouse-over-selected='false'] { opacity: 0.7; }
[data-mouse-over-selected='true']  { opacity: 1.0; }
]]>
</style>
<script type="application/ecmascript"><![CDATA[
document.addEventListener('DOMContentLoaded', (event) => {
  highlightEdges();
  highlightAdjacentNodes();
});
]]></script>
</svg>
