<?xml version="1.0" encoding="UTF-8" standalone="no"?>
<!DOCTYPE svg PUBLIC "-//W3C//DTD SVG 1.1//EN"
 "http://www.w3.org/Graphics/SVG/1.1/DTD/svg11.dtd">
<!-- Generated by graphviz version 2.43.0 (0)
 -->
<!-- Title: exchange.permission.IsStudent Pages: 1 -->
<svg width="172pt" height="157pt"
 viewBox="0.00 0.00 172.00 157.00" xmlns="http://www.w3.org/2000/svg" xmlns:xlink="http://www.w3.org/1999/xlink">
<g id="graph0" class="graph" transform="scale(1 1) rotate(0) translate(4 153)">
<title>exchange.permission.IsStudent</title>
<!-- Node1 -->
<g id="Node000001" class="node">
<title>Node1</title>
<g id="a_Node000001"><a xlink:title=" ">
<polygon fill="#999999" stroke="transparent" points="164,-64 0,-64 0,0 164,0 164,-64"/>
<text text-anchor="start" x="5" y="-52" font-family="Helvetica,sans-Serif" font-size="10.00">exchange.permission.IsStudent</text>
<text text-anchor="start" x="80" y="-37" font-family="Helvetica,sans-Serif" font-size="10.00"> </text>
<text text-anchor="start" x="9.5" y="-22" font-family="Helvetica,sans-Serif" font-size="10.00">+</text>
<text text-anchor="start" x="28" y="-22" font-family="Helvetica,sans-Serif" font-size="10.00">has_permission()</text>
<text text-anchor="start" x="9.5" y="-7" font-family="Helvetica,sans-Serif" font-size="10.00">+</text>
<text text-anchor="start" x="28" y="-7" font-family="Helvetica,sans-Serif" font-size="10.00">has_object_permission()</text>
<polygon fill="#666666" stroke="#666666" points="0,-47 0,-47 164,-47 164,-47 0,-47"/>
<polygon fill="#666666" stroke="#666666" points="0,-32 0,-32 164,-32 164,-32 0,-32"/>
<polygon fill="none" stroke="#666666" points="0,0 0,-64 164,-64 164,0 0,0"/>
</a>
</g>
</g>
<!-- Node2 -->
<g id="Node000002" class="node">
<title>Node2</title>
<g id="a_Node000002"><a xlink:title=" ">
<polygon fill="white" stroke="transparent" points="157.5,-149 6.5,-149 6.5,-100 157.5,-100 157.5,-149"/>
<text text-anchor="start" x="12" y="-136.5" font-family="Helvetica,sans-Serif" font-size="10.00">permissions.BasePermission</text>
<text text-anchor="start" x="80.5" y="-121.5" font-family="Helvetica,sans-Serif" font-size="10.00"> </text>
<text text-anchor="start" x="80.5" y="-106.5" font-family="Helvetica,sans-Serif" font-size="10.00"> </text>
<polygon fill="#666666" stroke="#666666" points="7,-131.5 7,-131.5 158,-131.5 158,-131.5 7,-131.5"/>
<polygon fill="#666666" stroke="#666666" points="7,-116.5 7,-116.5 158,-116.5 158,-116.5 7,-116.5"/>
<polygon fill="none" stroke="#666666" points="6.5,-100 6.5,-149 157.5,-149 157.5,-100 6.5,-100"/>
</a>
</g>
</g>
<!-- Node2&#45;&gt;Node1 -->
<g id="edge1_Node000001_Node000002" class="edge">
<title>Node2&#45;&gt;Node1</title>
<g id="a_edge1_Node000001_Node000002"><a xlink:title=" ">
<path fill="none" stroke="#63b8ff" d="M82,-89.54C82,-81.2 82,-72.31 82,-64.11"/>
<polygon fill="none" stroke="#63b8ff" points="78.5,-89.72 82,-99.72 85.5,-89.72 78.5,-89.72"/>
</a>
</g>
</g>
</g>
</svg>
