<?xml version="1.0" encoding="UTF-8" standalone="no"?>
<!DOCTYPE svg PUBLIC "-//W3C//DTD SVG 1.1//EN"
 "http://www.w3.org/Graphics/SVG/1.1/DTD/svg11.dtd">
<!-- Generated by graphviz version 2.43.0 (0)
 -->
<!-- Title: chat.models.Room Pages: 1 -->
<svg width="235pt" height="228pt"
 viewBox="0.00 0.00 235.00 228.00" xmlns="http://www.w3.org/2000/svg" xmlns:xlink="http://www.w3.org/1999/xlink">
<g id="graph0" class="graph" transform="scale(1 1) rotate(0) translate(4 224)">
<title>chat.models.Room</title>
<!-- Node1 -->
<g id="Node000001" class="node">
<title>Node1</title>
<g id="a_Node000001"><a xlink:title=" ">
<polygon fill="#999999" stroke="transparent" points="134,-124 22,-124 22,0 134,0 134,-124"/>
<text text-anchor="start" x="32" y="-112" font-family="Helvetica,sans-Serif" font-size="10.00">chat.models.Room</text>
<text text-anchor="start" x="26" y="-97" font-family="Helvetica,sans-Serif" font-size="10.00">+</text>
<text text-anchor="start" x="39" y="-97" font-family="Helvetica,sans-Serif" font-size="10.00">name</text>
<text text-anchor="start" x="26" y="-82" font-family="Helvetica,sans-Serif" font-size="10.00">+</text>
<text text-anchor="start" x="39" y="-82" font-family="Helvetica,sans-Serif" font-size="10.00">type</text>
<text text-anchor="start" x="26" y="-67" font-family="Helvetica,sans-Serif" font-size="10.00">+</text>
<text text-anchor="start" x="39" y="-67" font-family="Helvetica,sans-Serif" font-size="10.00">online</text>
<text text-anchor="start" x="26" y="-52" font-family="Helvetica,sans-Serif" font-size="10.00">+</text>
<text text-anchor="start" x="39" y="-52" font-family="Helvetica,sans-Serif" font-size="10.00">created_by</text>
<text text-anchor="start" x="26" y="-37" font-family="Helvetica,sans-Serif" font-size="10.00">+</text>
<text text-anchor="start" x="39" y="-37" font-family="Helvetica,sans-Serif" font-size="10.00">get_online_count()</text>
<text text-anchor="start" x="26" y="-22" font-family="Helvetica,sans-Serif" font-size="10.00">+</text>
<text text-anchor="start" x="39" y="-22" font-family="Helvetica,sans-Serif" font-size="10.00">join()</text>
<text text-anchor="start" x="26" y="-7" font-family="Helvetica,sans-Serif" font-size="10.00">+</text>
<text text-anchor="start" x="39" y="-7" font-family="Helvetica,sans-Serif" font-size="10.00">leave()</text>
<polygon fill="#666666" stroke="#666666" points="22,-107 22,-107 134,-107 134,-107 22,-107"/>
<polygon fill="#666666" stroke="#666666" points="22,-47 22,-47 37,-47 37,-47 22,-47"/>
<polygon fill="#666666" stroke="#666666" points="37,-47 37,-47 134,-47 134,-47 37,-47"/>
<polygon fill="none" stroke="#666666" points="22,0 22,-124 134,-124 134,0 22,0"/>
</a>
</g>
</g>
<!-- Node2 -->
<g id="Node000002" class="node">
<title>Node2</title>
<g id="a_Node000002"><a xlink:title=" ">
<polygon fill="white" stroke="transparent" points="80,-220 0,-220 0,-171 80,-171 80,-220"/>
<text text-anchor="start" x="5" y="-207.5" font-family="Helvetica,sans-Serif" font-size="10.00">models.Model</text>
<text text-anchor="start" x="38" y="-192.5" font-family="Helvetica,sans-Serif" font-size="10.00"> </text>
<text text-anchor="start" x="38" y="-177.5" font-family="Helvetica,sans-Serif" font-size="10.00"> </text>
<polygon fill="#666666" stroke="#666666" points="0,-202.5 0,-202.5 80,-202.5 80,-202.5 0,-202.5"/>
<polygon fill="#666666" stroke="#666666" points="0,-187.5 0,-187.5 80,-187.5 80,-187.5 0,-187.5"/>
<polygon fill="none" stroke="#666666" points="0,-171 0,-220 80,-220 80,-171 0,-171"/>
</a>
</g>
</g>
<!-- Node2&#45;&gt;Node1 -->
<g id="edge1_Node000001_Node000002" class="edge">
<title>Node2&#45;&gt;Node1</title>
<g id="a_edge1_Node000001_Node000002"><a xlink:title=" ">
<path fill="none" stroke="#63b8ff" d="M49.64,-161.16C52.9,-149.87 56.65,-136.88 60.34,-124.12"/>
<polygon fill="none" stroke="#63b8ff" points="46.21,-160.41 46.79,-170.99 52.93,-162.36 46.21,-160.41"/>
</a>
</g>
</g>
<!-- Node3 -->
<g id="Node000003" class="node">
<title>Node3</title>
<g id="a_Node000003"><a xlink:title=" ">
<polygon fill="white" stroke="transparent" points="133.5,-220 98.5,-220 98.5,-171 133.5,-171 133.5,-220"/>
<text text-anchor="start" x="104" y="-207.5" font-family="Helvetica,sans-Serif" font-size="10.00">tuple</text>
<text text-anchor="start" x="114.5" y="-192.5" font-family="Helvetica,sans-Serif" font-size="10.00"> </text>
<text text-anchor="start" x="114.5" y="-177.5" font-family="Helvetica,sans-Serif" font-size="10.00"> </text>
<polygon fill="#666666" stroke="#666666" points="99,-202.5 99,-202.5 134,-202.5 134,-202.5 99,-202.5"/>
<polygon fill="#666666" stroke="#666666" points="99,-187.5 99,-187.5 134,-187.5 134,-187.5 99,-187.5"/>
<polygon fill="none" stroke="#666666" points="98.5,-171 98.5,-220 133.5,-220 133.5,-171 98.5,-171"/>
</a>
</g>
</g>
<!-- Node3&#45;&gt;Node1 -->
<g id="edge2_Node000001_Node000003" class="edge">
<title>Node3&#45;&gt;Node1</title>
<g id="a_edge2_Node000001_Node000003"><a xlink:title=" ">
<path fill="none" stroke="#63b8ff" d="M109.21,-170.99C106.3,-160.92 102.73,-148.56 99.05,-135.85"/>
<polygon fill="none" stroke="#63b8ff" points="98.99,-135.65 93.49,-131 95.66,-124.12 101.17,-128.78 98.99,-135.65"/>
</a>
</g>
<text text-anchor="middle" x="165" y="-145" font-family="Helvetica,sans-Serif" font-size="10.00" fill="grey"> +ROOM_TYPE_CHOOSES</text>
</g>
</g>
</svg>
