<?xml version="1.0" encoding="UTF-8" standalone="no"?>
<!DOCTYPE svg PUBLIC "-//W3C//DTD SVG 1.1//EN"
 "http://www.w3.org/Graphics/SVG/1.1/DTD/svg11.dtd">
<!-- Generated by graphviz version 2.43.0 (0)
 -->
<!-- Title: user.serializers.UserSerializer.Meta Pages: 1 -->
<svg width="193pt" height="153pt"
 viewBox="0.00 0.00 193.00 153.00" xmlns="http://www.w3.org/2000/svg" xmlns:xlink="http://www.w3.org/1999/xlink">
<g id="graph0" class="graph" transform="scale(1 1) rotate(0) translate(4 149)">
<title>user.serializers.UserSerializer.Meta</title>
<!-- Node1 -->
<g id="Node000001" class="node">
<title>Node1</title>
<g id="a_Node000001"><a xlink:title=" ">
<polygon fill="#999999" stroke="transparent" points="182,-49 0,-49 0,0 182,0 182,-49"/>
<text text-anchor="start" x="5" y="-36.5" font-family="Helvetica,sans-Serif" font-size="10.00">user.serializers.UserSerializer.Meta</text>
<text text-anchor="start" x="36.5" y="-21.5" font-family="Helvetica,sans-Serif" font-size="10.00">+</text>
<text text-anchor="start" x="82" y="-21.5" font-family="Helvetica,sans-Serif" font-size="10.00">model</text>
<text text-anchor="start" x="89" y="-6.5" font-family="Helvetica,sans-Serif" font-size="10.00"> </text>
<polygon fill="#666666" stroke="#666666" points="0,-31.5 0,-31.5 182,-31.5 182,-31.5 0,-31.5"/>
<polygon fill="#666666" stroke="#666666" points="0,-16.5 0,-16.5 80,-16.5 80,-16.5 0,-16.5"/>
<polygon fill="#666666" stroke="#666666" points="80,-16.5 80,-16.5 182,-16.5 182,-16.5 80,-16.5"/>
<polygon fill="none" stroke="#666666" points="0,0 0,-49 182,-49 182,0 0,0"/>
</a>
</g>
</g>
<!-- Node2 -->
<g id="Node000002" class="node">
<title>Node2</title>
<g id="a_Node000002"><a xlink:title=" ">
<polygon fill="white" stroke="transparent" points="74,-145 48,-145 48,-96 74,-96 74,-145"/>
<text text-anchor="start" x="53" y="-132.5" font-family="Helvetica,sans-Serif" font-size="10.00">list</text>
<text text-anchor="start" x="59" y="-117.5" font-family="Helvetica,sans-Serif" font-size="10.00"> </text>
<text text-anchor="start" x="59" y="-102.5" font-family="Helvetica,sans-Serif" font-size="10.00"> </text>
<polygon fill="#666666" stroke="#666666" points="48,-127.5 48,-127.5 74,-127.5 74,-127.5 48,-127.5"/>
<polygon fill="#666666" stroke="#666666" points="48,-112.5 48,-112.5 74,-112.5 74,-112.5 48,-112.5"/>
<polygon fill="none" stroke="#666666" points="48,-96 48,-145 74,-145 74,-96 48,-96"/>
</a>
</g>
</g>
<!-- Node2&#45;&gt;Node1 -->
<g id="edge1_Node000001_Node000002" class="edge">
<title>Node2&#45;&gt;Node1</title>
<g id="a_edge1_Node000001_Node000002"><a xlink:title=" ">
<path fill="none" stroke="#63b8ff" d="M58.54,-95.75C58.34,-86.57 59.04,-76.1 62,-67 62.79,-64.58 63.76,-62.18 64.88,-59.83"/>
<polygon fill="none" stroke="#63b8ff" points="64.98,-59.65 64.47,-52.46 70.92,-49.22 71.43,-56.42 64.98,-59.65"/>
</a>
</g>
<text text-anchor="middle" x="81" y="-70" font-family="Helvetica,sans-Serif" font-size="10.00" fill="grey"> +fields</text>
</g>
<!-- Node3 -->
<g id="Node000003" class="node">
<title>Node3</title>
<g id="a_Node000003"><a xlink:title=" ">
<polygon fill="white" stroke="transparent" points="136.5,-145 107.5,-145 107.5,-96 136.5,-96 136.5,-145"/>
<text text-anchor="start" x="113" y="-132.5" font-family="Helvetica,sans-Serif" font-size="10.00">dict</text>
<text text-anchor="start" x="120.5" y="-117.5" font-family="Helvetica,sans-Serif" font-size="10.00"> </text>
<text text-anchor="start" x="120.5" y="-102.5" font-family="Helvetica,sans-Serif" font-size="10.00"> </text>
<polygon fill="#666666" stroke="#666666" points="108,-127.5 108,-127.5 137,-127.5 137,-127.5 108,-127.5"/>
<polygon fill="#666666" stroke="#666666" points="108,-112.5 108,-112.5 137,-112.5 137,-112.5 108,-112.5"/>
<polygon fill="none" stroke="#666666" points="107.5,-96 107.5,-145 136.5,-145 136.5,-96 107.5,-96"/>
</a>
</g>
</g>
<!-- Node3&#45;&gt;Node1 -->
<g id="edge2_Node000001_Node000003" class="edge">
<title>Node3&#45;&gt;Node1</title>
<g id="a_edge2_Node000001_Node000003"><a xlink:title=" ">
<path fill="none" stroke="#63b8ff" d="M114.18,-95.78C110.69,-85.2 106.51,-72.52 102.66,-60.86"/>
<polygon fill="none" stroke="#63b8ff" points="102.58,-60.61 96.9,-56.16 98.82,-49.21 104.5,-53.66 102.58,-60.61"/>
</a>
</g>
<text text-anchor="middle" x="146" y="-70" font-family="Helvetica,sans-Serif" font-size="10.00" fill="grey"> +extra_kwargs</text>
</g>
</g>
</svg>
