<?xml version="1.0" encoding="UTF-8" standalone="no"?>
<!DOCTYPE svg PUBLIC "-//W3C//DTD SVG 1.1//EN"
 "http://www.w3.org/Graphics/SVG/1.1/DTD/svg11.dtd">
<!-- Generated by graphviz version 2.43.0 (0)
 -->
<!-- Title: chat.views.CreateRoomView Pages: 1 -->
<svg width="254pt" height="153pt"
 viewBox="0.00 0.00 253.50 153.00" xmlns="http://www.w3.org/2000/svg" xmlns:xlink="http://www.w3.org/1999/xlink">
<g id="graph0" class="graph" transform="scale(1 1) rotate(0) translate(4 149)">
<title>chat.views.CreateRoomView</title>
<!-- Node1 -->
<g id="Node000001" class="node">
<title>Node1</title>
<g id="a_Node000001"><a xlink:title=" ">
<polygon fill="#999999" stroke="transparent" points="188,-49 37,-49 37,0 188,0 188,-49"/>
<text text-anchor="start" x="42.5" y="-36.5" font-family="Helvetica,sans-Serif" font-size="10.00">chat.views.CreateRoomView</text>
<text text-anchor="start" x="111" y="-21.5" font-family="Helvetica,sans-Serif" font-size="10.00"> </text>
<text text-anchor="start" x="66.5" y="-6.5" font-family="Helvetica,sans-Serif" font-size="10.00">+</text>
<text text-anchor="start" x="104.5" y="-6.5" font-family="Helvetica,sans-Serif" font-size="10.00">post()</text>
<polygon fill="#666666" stroke="#666666" points="37.5,-31.5 37.5,-31.5 188.5,-31.5 188.5,-31.5 37.5,-31.5"/>
<polygon fill="#666666" stroke="#666666" points="37.5,-16.5 37.5,-16.5 188.5,-16.5 188.5,-16.5 37.5,-16.5"/>
<polygon fill="none" stroke="#666666" points="37,0 37,-49 188,-49 188,0 37,0"/>
</a>
</g>
</g>
<!-- Node2 -->
<g id="Node000002" class="node">
<title>Node2</title>
<g id="a_Node000002"><a xlink:title=" ">
<polygon fill="white" stroke="transparent" points="127,-145 0,-145 0,-96 127,-96 127,-145"/>
<text text-anchor="start" x="5.5" y="-132.5" font-family="Helvetica,sans-Serif" font-size="10.00">generics.CreateAPIView</text>
<text text-anchor="start" x="62" y="-117.5" font-family="Helvetica,sans-Serif" font-size="10.00"> </text>
<text text-anchor="start" x="62" y="-102.5" font-family="Helvetica,sans-Serif" font-size="10.00"> </text>
<polygon fill="#666666" stroke="#666666" points="0.5,-127.5 0.5,-127.5 127.5,-127.5 127.5,-127.5 0.5,-127.5"/>
<polygon fill="#666666" stroke="#666666" points="0.5,-112.5 0.5,-112.5 127.5,-112.5 127.5,-112.5 0.5,-112.5"/>
<polygon fill="none" stroke="#666666" points="0,-96 0,-145 127,-145 127,-96 0,-96"/>
</a>
</g>
</g>
<!-- Node2&#45;&gt;Node1 -->
<g id="edge1_Node000001_Node000002" class="edge">
<title>Node2&#45;&gt;Node1</title>
<g id="a_edge1_Node000001_Node000002"><a xlink:title=" ">
<path fill="none" stroke="#63b8ff" d="M80.6,-86.69C87.04,-74.35 94.22,-60.57 100.14,-49.21"/>
<polygon fill="none" stroke="#63b8ff" points="77.38,-85.29 75.86,-95.78 83.59,-88.53 77.38,-85.29"/>
</a>
</g>
</g>
<!-- Node3 -->
<g id="Node000003" class="node">
<title>Node3</title>
<g id="a_Node000003"><a xlink:title=" ">
<polygon fill="white" stroke="transparent" points="180,-145 145,-145 145,-96 180,-96 180,-145"/>
<text text-anchor="start" x="150.5" y="-132.5" font-family="Helvetica,sans-Serif" font-size="10.00">tuple</text>
<text text-anchor="start" x="161" y="-117.5" font-family="Helvetica,sans-Serif" font-size="10.00"> </text>
<text text-anchor="start" x="161" y="-102.5" font-family="Helvetica,sans-Serif" font-size="10.00"> </text>
<polygon fill="#666666" stroke="#666666" points="145.5,-127.5 145.5,-127.5 180.5,-127.5 180.5,-127.5 145.5,-127.5"/>
<polygon fill="#666666" stroke="#666666" points="145.5,-112.5 145.5,-112.5 180.5,-112.5 180.5,-112.5 145.5,-112.5"/>
<polygon fill="none" stroke="#666666" points="145,-96 145,-145 180,-145 180,-96 145,-96"/>
</a>
</g>
</g>
<!-- Node3&#45;&gt;Node1 -->
<g id="edge2_Node000001_Node000003" class="edge">
<title>Node3&#45;&gt;Node1</title>
<g id="a_edge2_Node000001_Node000003"><a xlink:title=" ">
<path fill="none" stroke="#63b8ff" d="M149.88,-95.78C144.14,-84.98 137.23,-71.99 130.92,-60.13"/>
<polygon fill="none" stroke="#63b8ff" points="130.75,-59.81 124.4,-56.39 125.11,-49.21 131.46,-52.63 130.75,-59.81"/>
</a>
</g>
<text text-anchor="middle" x="192" y="-70" font-family="Helvetica,sans-Serif" font-size="10.00" fill="grey"> +permission_classes</text>
</g>
</g>
</svg>
