<?xml version="1.0" encoding="UTF-8" standalone="no"?>
<!DOCTYPE svg PUBLIC "-//W3C//DTD SVG 1.1//EN"
 "http://www.w3.org/Graphics/SVG/1.1/DTD/svg11.dtd">
<!-- Generated by graphviz version 2.43.0 (0)
 -->
<!-- Title: webhooks.views.TelegramWebhook Pages: 1 -->
<svg width="224pt" height="153pt"
 viewBox="0.00 0.00 223.50 153.00" xmlns="http://www.w3.org/2000/svg" xmlns:xlink="http://www.w3.org/1999/xlink">
<g id="graph0" class="graph" transform="scale(1 1) rotate(0) translate(4 149)">
<title>webhooks.views.TelegramWebhook</title>
<!-- Node1 -->
<g id="Node000001" class="node">
<title>Node1</title>
<g id="a_Node000001"><a xlink:title=" ">
<polygon fill="#999999" stroke="transparent" points="185,-49 0,-49 0,0 185,0 185,-49"/>
<text text-anchor="start" x="5.5" y="-36.5" font-family="Helvetica,sans-Serif" font-size="10.00">webhooks.views.TelegramWebhook</text>
<text text-anchor="start" x="91" y="-21.5" font-family="Helvetica,sans-Serif" font-size="10.00"> </text>
<text text-anchor="start" x="38" y="-6.5" font-family="Helvetica,sans-Serif" font-size="10.00">+</text>
<text text-anchor="start" x="84.5" y="-6.5" font-family="Helvetica,sans-Serif" font-size="10.00">post()</text>
<polygon fill="#666666" stroke="#666666" points="0.5,-31.5 0.5,-31.5 185.5,-31.5 185.5,-31.5 0.5,-31.5"/>
<polygon fill="#666666" stroke="#666666" points="0.5,-16.5 0.5,-16.5 185.5,-16.5 185.5,-16.5 0.5,-16.5"/>
<polygon fill="none" stroke="#666666" points="0,0 0,-49 185,-49 185,0 0,0"/>
</a>
</g>
</g>
<!-- Node2 -->
<g id="Node000002" class="node">
<title>Node2</title>
<g id="a_Node000002"><a xlink:title=" ">
<polygon fill="white" stroke="transparent" points="87.5,-145 37.5,-145 37.5,-96 87.5,-96 87.5,-145"/>
<text text-anchor="start" x="42.5" y="-132.5" font-family="Helvetica,sans-Serif" font-size="10.00">APIView</text>
<text text-anchor="start" x="60.5" y="-117.5" font-family="Helvetica,sans-Serif" font-size="10.00"> </text>
<text text-anchor="start" x="60.5" y="-102.5" font-family="Helvetica,sans-Serif" font-size="10.00"> </text>
<polygon fill="#666666" stroke="#666666" points="37.5,-127.5 37.5,-127.5 87.5,-127.5 87.5,-127.5 37.5,-127.5"/>
<polygon fill="#666666" stroke="#666666" points="37.5,-112.5 37.5,-112.5 87.5,-112.5 87.5,-112.5 37.5,-112.5"/>
<polygon fill="none" stroke="#666666" points="37.5,-96 37.5,-145 87.5,-145 87.5,-96 37.5,-96"/>
</a>
</g>
</g>
<!-- Node2&#45;&gt;Node1 -->
<g id="edge1_Node000001_Node000002" class="edge">
<title>Node2&#45;&gt;Node1</title>
<g id="a_edge1_Node000001_Node000002"><a xlink:title=" ">
<path fill="none" stroke="#63b8ff" d="M73.2,-85.96C77.08,-73.81 81.38,-60.34 84.93,-49.21"/>
<polygon fill="none" stroke="#63b8ff" points="69.78,-85.19 70.07,-95.78 76.45,-87.32 69.78,-85.19"/>
</a>
</g>
</g>
<!-- Node3 -->
<g id="Node000003" class="node">
<title>Node3</title>
<g id="a_Node000003"><a xlink:title=" ">
<polygon fill="white" stroke="transparent" points="141,-145 106,-145 106,-96 141,-96 141,-145"/>
<text text-anchor="start" x="111.5" y="-132.5" font-family="Helvetica,sans-Serif" font-size="10.00">tuple</text>
<text text-anchor="start" x="122" y="-117.5" font-family="Helvetica,sans-Serif" font-size="10.00"> </text>
<text text-anchor="start" x="122" y="-102.5" font-family="Helvetica,sans-Serif" font-size="10.00"> </text>
<polygon fill="#666666" stroke="#666666" points="106.5,-127.5 106.5,-127.5 141.5,-127.5 141.5,-127.5 106.5,-127.5"/>
<polygon fill="#666666" stroke="#666666" points="106.5,-112.5 106.5,-112.5 141.5,-112.5 141.5,-112.5 106.5,-112.5"/>
<polygon fill="none" stroke="#666666" points="106,-96 106,-145 141,-145 141,-96 106,-96"/>
</a>
</g>
</g>
<!-- Node3&#45;&gt;Node1 -->
<g id="edge2_Node000001_Node000003" class="edge">
<title>Node3&#45;&gt;Node1</title>
<g id="a_edge2_Node000001_Node000003"><a xlink:title=" ">
<path fill="none" stroke="#63b8ff" d="M115.68,-95.78C112.19,-85.2 108.01,-72.52 104.16,-60.86"/>
<polygon fill="none" stroke="#63b8ff" points="104.08,-60.61 98.4,-56.16 100.32,-49.21 106,-53.66 104.08,-60.61"/>
</a>
</g>
<text text-anchor="middle" x="162" y="-70" font-family="Helvetica,sans-Serif" font-size="10.00" fill="grey"> +permission_classes</text>
</g>
</g>
</svg>
