<?xml version="1.0" encoding="UTF-8" standalone="no"?>
<!DOCTYPE svg PUBLIC "-//W3C//DTD SVG 1.1//EN"
 "http://www.w3.org/Graphics/SVG/1.1/DTD/svg11.dtd">
<!-- Generated by graphviz version 2.43.0 (0)
 -->
<!-- Title: Graphical Class Hierarchy Pages: 1 -->
<svg width="398pt" height="64pt"
 viewBox="0.00 0.00 398.00 64.00" xmlns="http://www.w3.org/2000/svg" xmlns:xlink="http://www.w3.org/1999/xlink">
<g id="graph0" class="graph" transform="scale(1 1) rotate(0) translate(4 60)">
<title>Graphical Class Hierarchy</title>
<!-- Node0 -->
<g id="Node000000" class="node">
<title>Node0</title>
<g id="a_Node000000"><a xlink:title=" ">
<polygon fill="#e0e0e0" stroke="#999999" points="142,-37 0,-37 0,-18 142,-18 142,-37"/>
<text text-anchor="middle" x="71" y="-25" font-family="Helvetica,sans-Serif" font-size="10.00">generics.RetrieveAPIView</text>
</a>
</g>
</g>
<!-- Node1 -->
<g id="Node000001" class="node">
<title>Node1</title>
<g id="a_Node000001"><a xlink:href="classexchange_1_1views_1_1CommentRetrieveView.html" target="_top" xlink:title=" ">
<polygon fill="white" stroke="#666666" points="390,-56 178,-56 178,-37 390,-37 390,-56"/>
<text text-anchor="middle" x="284" y="-44" font-family="Helvetica,sans-Serif" font-size="10.00">exchange.views.CommentRetrieveView</text>
</a>
</g>
</g>
<!-- Node0&#45;&gt;Node1 -->
<g id="edge34_Node000000_Node000001" class="edge">
<title>Node0&#45;&gt;Node1</title>
<g id="a_edge34_Node000000_Node000001"><a xlink:title=" ">
<path fill="none" stroke="#63b8ff" d="M152.28,-34.73C160.59,-35.48 169.13,-36.25 177.66,-37.01"/>
<polygon fill="#63b8ff" stroke="#63b8ff" points="152.53,-31.24 142.26,-33.83 151.91,-38.21 152.53,-31.24"/>
</a>
</g>
</g>
<!-- Node2 -->
<g id="Node000002" class="node">
<title>Node2</title>
<g id="a_Node000002"><a xlink:href="classexchange_1_1views_1_1QuestionRetrieveView.html" target="_top" xlink:title=" ">
<polygon fill="white" stroke="#666666" points="387.5,-19 180.5,-19 180.5,0 387.5,0 387.5,-19"/>
<text text-anchor="middle" x="284" y="-7" font-family="Helvetica,sans-Serif" font-size="10.00">exchange.views.QuestionRetrieveView</text>
</a>
</g>
</g>
<!-- Node0&#45;&gt;Node2 -->
<g id="edge35_Node000000_Node000002" class="edge">
<title>Node0&#45;&gt;Node2</title>
<g id="a_edge35_Node000000_Node000002"><a xlink:title=" ">
<path fill="none" stroke="#63b8ff" d="M152.44,-20.64C161.56,-19.86 170.95,-19.06 180.32,-18.26"/>
<polygon fill="#63b8ff" stroke="#63b8ff" points="151.93,-17.17 142.26,-21.51 152.52,-24.14 151.93,-17.17"/>
</a>
</g>
</g>
</g>
</svg>
