<?xml version="1.0" encoding="UTF-8" standalone="no"?>
<!DOCTYPE svg PUBLIC "-//W3C//DTD SVG 1.1//EN"
 "http://www.w3.org/Graphics/SVG/1.1/DTD/svg11.dtd">
<!-- Generated by graphviz version 2.43.0 (0)
 -->
<!-- Title: Graphical Class Hierarchy Pages: 1 -->
<svg width="286pt" height="395pt"
 viewBox="0.00 0.00 286.00 394.50" xmlns="http://www.w3.org/2000/svg" xmlns:xlink="http://www.w3.org/1999/xlink">
<g id="graph0" class="graph" transform="scale(1 1) rotate(0) translate(4 390.5)">
<title>Graphical Class Hierarchy</title>
<!-- Node0 -->
<g id="Node000000" class="node">
<title>Node0</title>
<g id="a_Node000000"><a xlink:title=" ">
<polygon fill="#e0e0e0" stroke="#999999" points="66,-185 0,-185 0,-166 66,-166 66,-185"/>
<text text-anchor="middle" x="33" y="-173" font-family="Helvetica,sans-Serif" font-size="10.00">AppConfig</text>
</a>
</g>
</g>
<!-- Node1 -->
<g id="Node000001" class="node">
<title>Node1</title>
<g id="a_Node000001"><a xlink:href="classassignment_1_1apps_1_1AssignmentConfig.html" target="_top" xlink:title=" ">
<polygon fill="white" stroke="#666666" points="270.5,-386.5 109.5,-386.5 109.5,-356.5 270.5,-356.5 270.5,-386.5"/>
<text text-anchor="start" x="117.5" y="-374.5" font-family="Helvetica,sans-Serif" font-size="10.00">assignment.apps.Assignment</text>
<text text-anchor="middle" x="190" y="-363.5" font-family="Helvetica,sans-Serif" font-size="10.00">Config</text>
</a>
</g>
</g>
<!-- Node0&#45;&gt;Node1 -->
<g id="edge6_Node000000_Node000001" class="edge">
<title>Node0&#45;&gt;Node1</title>
<g id="a_edge6_Node000000_Node000001"><a xlink:title=" ">
<path fill="none" stroke="#63b8ff" d="M36.15,-195.55C41.07,-231.42 56.51,-306.65 102,-347.5 105.85,-350.95 110.15,-353.92 114.72,-356.46"/>
<polygon fill="#63b8ff" stroke="#63b8ff" points="39.59,-194.88 34.89,-185.38 32.64,-195.73 39.59,-194.88"/>
</a>
</g>
</g>
<!-- Node2 -->
<g id="Node000002" class="node">
<title>Node2</title>
<g id="a_Node000002"><a xlink:href="classattendance_1_1apps_1_1AttendanceConfig.html" target="_top" xlink:title=" ">
<polygon fill="white" stroke="#666666" points="268,-338.5 112,-338.5 112,-308.5 268,-308.5 268,-338.5"/>
<text text-anchor="start" x="120" y="-326.5" font-family="Helvetica,sans-Serif" font-size="10.00">attendance.apps.Attendance</text>
<text text-anchor="middle" x="190" y="-315.5" font-family="Helvetica,sans-Serif" font-size="10.00">Config</text>
</a>
</g>
</g>
<!-- Node0&#45;&gt;Node2 -->
<g id="edge7_Node000000_Node000002" class="edge">
<title>Node0&#45;&gt;Node2</title>
<g id="a_edge7_Node000000_Node000002"><a xlink:title=" ">
<path fill="none" stroke="#63b8ff" d="M39.37,-194.91C47.97,-222.36 67.49,-272.2 102,-299.5 106.3,-302.9 111.05,-305.82 116.05,-308.33"/>
<polygon fill="#63b8ff" stroke="#63b8ff" points="42.71,-193.86 36.51,-185.27 36,-195.85 42.71,-193.86"/>
</a>
</g>
</g>
<!-- Node3 -->
<g id="Node000003" class="node">
<title>Node3</title>
<g id="a_Node000003"><a xlink:href="classchat_1_1apps_1_1ChatConfig.html" target="_top" xlink:title=" ">
<polygon fill="white" stroke="#666666" points="250,-290 130,-290 130,-271 250,-271 250,-290"/>
<text text-anchor="middle" x="190" y="-278" font-family="Helvetica,sans-Serif" font-size="10.00">chat.apps.ChatConfig</text>
</a>
</g>
</g>
<!-- Node0&#45;&gt;Node3 -->
<g id="edge8_Node000000_Node000003" class="edge">
<title>Node0&#45;&gt;Node3</title>
<g id="a_edge8_Node000000_Node000003"><a xlink:title=" ">
<path fill="none" stroke="#63b8ff" d="M43.55,-194.03C54.79,-213.9 75.35,-244.85 102,-261.5 110.39,-266.74 120.02,-270.55 129.75,-273.32"/>
<polygon fill="#63b8ff" stroke="#63b8ff" points="46.51,-192.15 38.67,-185.03 40.36,-195.48 46.51,-192.15"/>
</a>
</g>
</g>
<!-- Node4 -->
<g id="Node000004" class="node">
<title>Node4</title>
<g id="a_Node000004"><a xlink:href="classclassroom_1_1apps_1_1ClassroomConfig.html" target="_top" xlink:title=" ">
<polygon fill="white" stroke="#666666" points="264,-252.5 116,-252.5 116,-222.5 264,-222.5 264,-252.5"/>
<text text-anchor="start" x="124" y="-240.5" font-family="Helvetica,sans-Serif" font-size="10.00">classroom.apps.Classroom</text>
<text text-anchor="middle" x="190" y="-229.5" font-family="Helvetica,sans-Serif" font-size="10.00">Config</text>
</a>
</g>
</g>
<!-- Node0&#45;&gt;Node4 -->
<g id="edge9_Node000000_Node000004" class="edge">
<title>Node0&#45;&gt;Node4</title>
<g id="a_edge9_Node000000_Node000004"><a xlink:title=" ">
<path fill="none" stroke="#63b8ff" d="M57.24,-190.33C70.07,-198.03 86.5,-207.14 102,-213.5 109.97,-216.77 118.54,-219.74 127.07,-222.4"/>
<polygon fill="#63b8ff" stroke="#63b8ff" points="58.96,-187.27 48.61,-185.03 55.3,-193.24 58.96,-187.27"/>
</a>
</g>
</g>
<!-- Node5 -->
<g id="Node000005" class="node">
<title>Node5</title>
<g id="a_Node000005"><a xlink:href="classexam_1_1apps_1_1ExamConfig.html" target="_top" xlink:title=" ">
<polygon fill="white" stroke="#666666" points="256,-204 124,-204 124,-185 256,-185 256,-204"/>
<text text-anchor="middle" x="190" y="-192" font-family="Helvetica,sans-Serif" font-size="10.00">exam.apps.ExamConfig</text>
</a>
</g>
</g>
<!-- Node0&#45;&gt;Node5 -->
<g id="edge10_Node000000_Node000005" class="edge">
<title>Node0&#45;&gt;Node5</title>
<g id="a_edge10_Node000000_Node000005"><a xlink:title=" ">
<path fill="none" stroke="#63b8ff" d="M76.4,-180.7C91.09,-182.5 107.91,-184.56 124,-186.53"/>
<polygon fill="#63b8ff" stroke="#63b8ff" points="76.47,-177.18 66.12,-179.44 75.62,-184.13 76.47,-177.18"/>
</a>
</g>
</g>
<!-- Node6 -->
<g id="Node000006" class="node">
<title>Node6</title>
<g id="a_Node000006"><a xlink:href="classexchange_1_1apps_1_1ExchangeConfig.html" target="_top" xlink:title=" ">
<polygon fill="white" stroke="#666666" points="275.5,-167 104.5,-167 104.5,-148 275.5,-148 275.5,-167"/>
<text text-anchor="middle" x="190" y="-155" font-family="Helvetica,sans-Serif" font-size="10.00">exchange.apps.ExchangeConfig</text>
</a>
</g>
</g>
<!-- Node0&#45;&gt;Node6 -->
<g id="edge11_Node000000_Node000006" class="edge">
<title>Node0&#45;&gt;Node6</title>
<g id="a_edge11_Node000000_Node000006"><a xlink:title=" ">
<path fill="none" stroke="#63b8ff" d="M76.17,-170.6C85.8,-169.48 96.36,-168.26 107.03,-167.02"/>
<polygon fill="#63b8ff" stroke="#63b8ff" points="75.65,-167.14 66.12,-171.77 76.45,-174.09 75.65,-167.14"/>
</a>
</g>
</g>
<!-- Node7 -->
<g id="Node000007" class="node">
<title>Node7</title>
<g id="a_Node000007"><a xlink:href="classgrade_1_1apps_1_1GradeConfig.html" target="_top" xlink:title=" ">
<polygon fill="white" stroke="#666666" points="257,-130 123,-130 123,-111 257,-111 257,-130"/>
<text text-anchor="middle" x="190" y="-118" font-family="Helvetica,sans-Serif" font-size="10.00">grade.apps.GradeConfig</text>
</a>
</g>
</g>
<!-- Node0&#45;&gt;Node7 -->
<g id="edge12_Node000000_Node000007" class="edge">
<title>Node0&#45;&gt;Node7</title>
<g id="a_edge12_Node000000_Node000007"><a xlink:title=" ">
<path fill="none" stroke="#63b8ff" d="M58.08,-160.68C70.77,-153.42 86.81,-145.06 102,-139.5 112.31,-135.73 123.59,-132.58 134.51,-130.01"/>
<polygon fill="#63b8ff" stroke="#63b8ff" points="55.96,-157.87 49.11,-165.96 59.5,-163.91 55.96,-157.87"/>
</a>
</g>
</g>
<!-- Node8 -->
<g id="Node000008" class="node">
<title>Node8</title>
<g id="a_Node000008"><a xlink:href="classpayment_1_1apps_1_1PaymentConfig.html" target="_top" xlink:title=" ">
<polygon fill="white" stroke="#666666" points="271.5,-93 108.5,-93 108.5,-74 271.5,-74 271.5,-93"/>
<text text-anchor="middle" x="190" y="-81" font-family="Helvetica,sans-Serif" font-size="10.00">payment.apps.PaymentConfig</text>
</a>
</g>
</g>
<!-- Node0&#45;&gt;Node8 -->
<g id="edge13_Node000000_Node000008" class="edge">
<title>Node0&#45;&gt;Node8</title>
<g id="a_edge13_Node000000_Node000008"><a xlink:title=" ">
<path fill="none" stroke="#63b8ff" d="M45.86,-157.48C57.95,-140.61 78.26,-116.03 102,-102.5 108.85,-98.6 116.42,-95.49 124.16,-93.03"/>
<polygon fill="#63b8ff" stroke="#63b8ff" points="42.82,-155.73 40.02,-165.94 48.58,-159.7 42.82,-155.73"/>
</a>
</g>
</g>
<!-- Node9 -->
<g id="Node000009" class="node">
<title>Node9</title>
<g id="a_Node000009"><a xlink:href="classuser_1_1apps_1_1UserConfig.html" target="_top" xlink:title=" ">
<polygon fill="white" stroke="#666666" points="249.5,-56 130.5,-56 130.5,-37 249.5,-37 249.5,-56"/>
<text text-anchor="middle" x="190" y="-44" font-family="Helvetica,sans-Serif" font-size="10.00">user.apps.UserConfig</text>
</a>
</g>
</g>
<!-- Node0&#45;&gt;Node9 -->
<g id="edge14_Node000000_Node000009" class="edge">
<title>Node0&#45;&gt;Node9</title>
<g id="a_edge14_Node000000_Node000009"><a xlink:title=" ">
<path fill="none" stroke="#63b8ff" d="M40.48,-156.25C49.93,-131.27 69.93,-88.2 102,-65.5 110.33,-59.6 120.14,-55.49 130.13,-52.62"/>
<polygon fill="#63b8ff" stroke="#63b8ff" points="37.16,-155.14 37.08,-165.74 43.75,-157.51 37.16,-155.14"/>
</a>
</g>
</g>
<!-- Node10 -->
<g id="Node000010" class="node">
<title>Node10</title>
<g id="a_Node000010"><a xlink:href="classwebhooks_1_1apps_1_1WebhooksConfig.html" target="_top" xlink:title=" ">
<polygon fill="white" stroke="#666666" points="278,-19 102,-19 102,0 278,0 278,-19"/>
<text text-anchor="middle" x="190" y="-7" font-family="Helvetica,sans-Serif" font-size="10.00">webhooks.apps.WebhooksConfig</text>
</a>
</g>
</g>
<!-- Node0&#45;&gt;Node10 -->
<g id="edge15_Node000000_Node000010" class="edge">
<title>Node0&#45;&gt;Node10</title>
<g id="a_edge15_Node000000_Node000010"><a xlink:title=" ">
<path fill="none" stroke="#63b8ff" d="M37.32,-155.91C43.78,-124.04 61.2,-61.25 102,-28.5 106.7,-24.73 111.99,-21.66 117.58,-19.18"/>
<polygon fill="#63b8ff" stroke="#63b8ff" points="33.87,-155.32 35.46,-165.79 40.75,-156.61 33.87,-155.32"/>
</a>
</g>
</g>
</g>
</svg>
