<?xml version="1.0" encoding="UTF-8" standalone="no"?>
<!DOCTYPE svg PUBLIC "-//W3C//DTD SVG 1.1//EN"
 "http://www.w3.org/Graphics/SVG/1.1/DTD/svg11.dtd">
<!-- Generated by graphviz version 2.43.0 (0)
 -->
<!-- Title: Graphical Class Hierarchy Pages: 1 -->
<svg width="374pt" height="187pt"
 viewBox="0.00 0.00 374.00 187.00" xmlns="http://www.w3.org/2000/svg" xmlns:xlink="http://www.w3.org/1999/xlink">
<g id="graph0" class="graph" transform="scale(1 1) rotate(0) translate(4 183)">
<title>Graphical Class Hierarchy</title>
<!-- Node0 -->
<g id="Node000000" class="node">
<title>Node0</title>
<g id="a_Node000000"><a xlink:title=" ">
<polygon fill="#e0e0e0" stroke="#999999" points="118,-93 0,-93 0,-74 118,-74 118,-93"/>
<text text-anchor="middle" x="59" y="-81" font-family="Helvetica,sans-Serif" font-size="10.00">generics.ListAPIView</text>
</a>
</g>
</g>
<!-- Node1 -->
<g id="Node000001" class="node">
<title>Node1</title>
<g id="a_Node000001"><a xlink:href="classattendance_1_1views_1_1ShowAttendanceView.html" target="_top" xlink:title=" ">
<polygon fill="white" stroke="#666666" points="366,-179 154,-179 154,-160 366,-160 366,-179"/>
<text text-anchor="middle" x="260" y="-167" font-family="Helvetica,sans-Serif" font-size="10.00">attendance.views.ShowAttendanceView</text>
</a>
</g>
</g>
<!-- Node0&#45;&gt;Node1 -->
<g id="edge29_Node000000_Node000001" class="edge">
<title>Node0&#45;&gt;Node1</title>
<g id="a_edge29_Node000000_Node000001"><a xlink:title=" ">
<path fill="none" stroke="#63b8ff" d="M77.91,-99.99C95.81,-115.52 124.8,-138.19 154,-150.5 163.22,-154.39 173.22,-157.48 183.26,-159.94"/>
<polygon fill="#63b8ff" stroke="#63b8ff" points="79.86,-97.04 70.06,-93.02 75.21,-102.28 79.86,-97.04"/>
</a>
</g>
</g>
<!-- Node2 -->
<g id="Node000002" class="node">
<title>Node2</title>
<g id="a_Node000002"><a xlink:href="classclassroom_1_1views_1_1ClassroomListView.html" target="_top" xlink:title=" ">
<polygon fill="white" stroke="#666666" points="336.5,-141.5 183.5,-141.5 183.5,-111.5 336.5,-111.5 336.5,-141.5"/>
<text text-anchor="start" x="191.5" y="-129.5" font-family="Helvetica,sans-Serif" font-size="10.00">classroom.views.Classroom</text>
<text text-anchor="middle" x="260" y="-118.5" font-family="Helvetica,sans-Serif" font-size="10.00">ListView</text>
</a>
</g>
</g>
<!-- Node0&#45;&gt;Node2 -->
<g id="edge30_Node000000_Node000002" class="edge">
<title>Node0&#45;&gt;Node2</title>
<g id="a_edge30_Node000000_Node000002"><a xlink:title=" ">
<path fill="none" stroke="#63b8ff" d="M114.18,-95.21C137.42,-100.23 164.85,-106.16 189.55,-111.49"/>
<polygon fill="#63b8ff" stroke="#63b8ff" points="114.68,-91.73 104.16,-93.04 113.2,-98.58 114.68,-91.73"/>
</a>
</g>
</g>
<!-- Node3 -->
<g id="Node000003" class="node">
<title>Node3</title>
<g id="a_Node000003"><a xlink:href="classexchange_1_1views_1_1CommentListView.html" target="_top" xlink:title=" ">
<polygon fill="white" stroke="#666666" points="354,-93 166,-93 166,-74 354,-74 354,-93"/>
<text text-anchor="middle" x="260" y="-81" font-family="Helvetica,sans-Serif" font-size="10.00">exchange.views.CommentListView</text>
</a>
</g>
</g>
<!-- Node0&#45;&gt;Node3 -->
<g id="edge31_Node000000_Node000003" class="edge">
<title>Node0&#45;&gt;Node3</title>
<g id="a_edge31_Node000000_Node000003"><a xlink:title=" ">
<path fill="none" stroke="#63b8ff" d="M128.44,-83.5C140.44,-83.5 153.1,-83.5 165.64,-83.5"/>
<polygon fill="#63b8ff" stroke="#63b8ff" points="128.09,-80 118.09,-83.5 128.09,-87 128.09,-80"/>
</a>
</g>
</g>
<!-- Node4 -->
<g id="Node000004" class="node">
<title>Node4</title>
<g id="a_Node000004"><a xlink:href="classexchange_1_1views_1_1QuestionListView.html" target="_top" xlink:title=" ">
<polygon fill="white" stroke="#666666" points="351.5,-56 168.5,-56 168.5,-37 351.5,-37 351.5,-56"/>
<text text-anchor="middle" x="260" y="-44" font-family="Helvetica,sans-Serif" font-size="10.00">exchange.views.QuestionListView</text>
</a>
</g>
</g>
<!-- Node0&#45;&gt;Node4 -->
<g id="edge32_Node000000_Node000004" class="edge">
<title>Node0&#45;&gt;Node4</title>
<g id="a_edge32_Node000000_Node000004"><a xlink:title=" ">
<path fill="none" stroke="#63b8ff" d="M119.23,-72.06C130.76,-69.86 142.76,-67.59 154,-65.5 170.85,-62.36 189.23,-59.01 205.83,-56.01"/>
<polygon fill="#63b8ff" stroke="#63b8ff" points="118.42,-68.65 109.26,-73.97 119.73,-75.53 118.42,-68.65"/>
</a>
</g>
</g>
<!-- Node5 -->
<g id="Node000005" class="node">
<title>Node5</title>
<g id="a_Node000005"><a xlink:href="classgrade_1_1views_1_1MarkListView.html" target="_top" xlink:title=" ">
<polygon fill="white" stroke="#666666" points="332.5,-19 187.5,-19 187.5,0 332.5,0 332.5,-19"/>
<text text-anchor="middle" x="260" y="-7" font-family="Helvetica,sans-Serif" font-size="10.00">grade.views.MarkListView</text>
</a>
</g>
</g>
<!-- Node0&#45;&gt;Node5 -->
<g id="edge33_Node000000_Node000005" class="edge">
<title>Node0&#45;&gt;Node5</title>
<g id="a_edge33_Node000000_Node000005"><a xlink:title=" ">
<path fill="none" stroke="#63b8ff" d="M81.18,-68.18C99.55,-55.62 127.33,-38.36 154,-28.5 164.6,-24.58 176.11,-21.45 187.49,-18.96"/>
<polygon fill="#63b8ff" stroke="#63b8ff" points="79.15,-65.32 72.96,-73.91 83.16,-71.06 79.15,-65.32"/>
</a>
</g>
</g>
</g>
</svg>
