<?xml version="1.0" encoding="UTF-8" standalone="no"?>
<!DOCTYPE svg PUBLIC "-//W3C//DTD SVG 1.1//EN"
 "http://www.w3.org/Graphics/SVG/1.1/DTD/svg11.dtd">
<!-- Generated by graphviz version 2.43.0 (0)
 -->
<!-- Title: Graphical Class Hierarchy Pages: 1 -->
<svg width="386pt" height="138pt"
 viewBox="0.00 0.00 386.00 138.00" xmlns="http://www.w3.org/2000/svg" xmlns:xlink="http://www.w3.org/1999/xlink">
<g id="graph0" class="graph" transform="scale(1 1) rotate(0) translate(4 134)">
<title>Graphical Class Hierarchy</title>
<!-- Node0 -->
<g id="Node000000" class="node">
<title>Node0</title>
<g id="a_Node000000"><a xlink:title=" ">
<polygon fill="#e0e0e0" stroke="#999999" points="139,-74 0,-74 0,-55 139,-55 139,-74"/>
<text text-anchor="middle" x="69.5" y="-62" font-family="Helvetica,sans-Serif" font-size="10.00">generics.DestroyAPIView</text>
</a>
</g>
</g>
<!-- Node1 -->
<g id="Node000001" class="node">
<title>Node1</title>
<g id="a_Node000001"><a xlink:href="classexchange_1_1views_1_1CommentDeleteView.html" target="_top" xlink:title=" ">
<polygon fill="white" stroke="#666666" points="378,-130 175,-130 175,-111 378,-111 378,-130"/>
<text text-anchor="middle" x="276.5" y="-118" font-family="Helvetica,sans-Serif" font-size="10.00">exchange.views.CommentDeleteView</text>
</a>
</g>
</g>
<!-- Node0&#45;&gt;Node1 -->
<g id="edge25_Node000000_Node000001" class="edge">
<title>Node0&#45;&gt;Node1</title>
<g id="a_edge25_Node000000_Node000001"><a xlink:title=" ">
<path fill="none" stroke="#63b8ff" d="M102.82,-77.88C123.24,-85.93 150.33,-95.86 175,-102.5 187.07,-105.75 200.11,-108.57 212.68,-110.96"/>
<polygon fill="#63b8ff" stroke="#63b8ff" points="103.96,-74.57 93.38,-74.11 101.36,-81.07 103.96,-74.57"/>
</a>
</g>
</g>
<!-- Node2 -->
<g id="Node000002" class="node">
<title>Node2</title>
<g id="a_Node000002"><a xlink:href="classexchange_1_1views_1_1QuestionDeleteView.html" target="_top" xlink:title=" ">
<polygon fill="white" stroke="#666666" points="375.5,-93 177.5,-93 177.5,-74 375.5,-74 375.5,-93"/>
<text text-anchor="middle" x="276.5" y="-81" font-family="Helvetica,sans-Serif" font-size="10.00">exchange.views.QuestionDeleteView</text>
</a>
</g>
</g>
<!-- Node0&#45;&gt;Node2 -->
<g id="edge26_Node000000_Node000002" class="edge">
<title>Node0&#45;&gt;Node2</title>
<g id="a_edge26_Node000000_Node000002"><a xlink:title=" ">
<path fill="none" stroke="#63b8ff" d="M149.02,-71.78C158.33,-72.64 167.91,-73.53 177.45,-74.41"/>
<polygon fill="#63b8ff" stroke="#63b8ff" points="149.33,-68.29 139.05,-70.85 148.68,-75.26 149.33,-68.29"/>
</a>
</g>
</g>
<!-- Node3 -->
<g id="Node000003" class="node">
<title>Node3</title>
<g id="a_Node000003"><a xlink:href="classexchange_1_1views_1_1UpvoteDeleteView.html" target="_top" xlink:title=" ">
<polygon fill="white" stroke="#666666" points="371.5,-56 181.5,-56 181.5,-37 371.5,-37 371.5,-56"/>
<text text-anchor="middle" x="276.5" y="-44" font-family="Helvetica,sans-Serif" font-size="10.00">exchange.views.UpvoteDeleteView</text>
</a>
</g>
</g>
<!-- Node0&#45;&gt;Node3 -->
<g id="edge27_Node000000_Node000003" class="edge">
<title>Node0&#45;&gt;Node3</title>
<g id="a_edge27_Node000000_Node000003"><a xlink:title=" ">
<path fill="none" stroke="#63b8ff" d="M149.08,-57.6C159.69,-56.67 170.65,-55.71 181.48,-54.76"/>
<polygon fill="#63b8ff" stroke="#63b8ff" points="148.7,-54.12 139.05,-58.48 149.31,-61.09 148.7,-54.12"/>
</a>
</g>
</g>
<!-- Node4 -->
<g id="Node000004" class="node">
<title>Node4</title>
<g id="a_Node000004"><a xlink:href="classgrade_1_1views_1_1MarkDeleteView.html" target="_top" xlink:title=" ">
<polygon fill="white" stroke="#666666" points="356.5,-19 196.5,-19 196.5,0 356.5,0 356.5,-19"/>
<text text-anchor="middle" x="276.5" y="-7" font-family="Helvetica,sans-Serif" font-size="10.00">grade.views.MarkDeleteView</text>
</a>
</g>
</g>
<!-- Node0&#45;&gt;Node4 -->
<g id="edge28_Node000000_Node000004" class="edge">
<title>Node0&#45;&gt;Node4</title>
<g id="a_edge28_Node000000_Node000004"><a xlink:title=" ">
<path fill="none" stroke="#63b8ff" d="M104.52,-51.38C124.76,-43.93 151.09,-34.84 175,-28.5 188.56,-24.9 203.32,-21.72 217.25,-19.03"/>
<polygon fill="#63b8ff" stroke="#63b8ff" points="103.25,-48.12 95.1,-54.89 105.7,-54.68 103.25,-48.12"/>
</a>
</g>
</g>
</g>
</svg>
