<?xml version="1.0" encoding="UTF-8" standalone="no"?>
<!DOCTYPE svg PUBLIC "-//W3C//DTD SVG 1.1//EN"
 "http://www.w3.org/Graphics/SVG/1.1/DTD/svg11.dtd">
<!-- Generated by graphviz version 2.43.0 (0)
 -->
<!-- Title: Graphical Class Hierarchy Pages: 1 -->
<svg width="255pt" height="76pt"
 viewBox="0.00 0.00 255.00 75.50" xmlns="http://www.w3.org/2000/svg" xmlns:xlink="http://www.w3.org/1999/xlink">
<g id="graph0" class="graph" transform="scale(1 1) rotate(0) translate(4 71.5)">
<title>Graphical Class Hierarchy</title>
<!-- Node0 -->
<g id="Node000000" class="node">
<title>Node0</title>
<g id="a_Node000000"><a xlink:title=" ">
<polygon fill="#e0e0e0" stroke="#999999" points="41,-40 0,-40 0,-21 41,-21 41,-40"/>
<text text-anchor="middle" x="20.5" y="-28" font-family="Helvetica,sans-Serif" font-size="10.00">View</text>
</a>
</g>
</g>
<!-- Node1 -->
<g id="Node000001" class="node">
<title>Node1</title>
<g id="a_Node000001"><a xlink:href="classuser_1_1views_1_1StripeAuthorizeCallbackView.html" target="_top" xlink:title=" ">
<polygon fill="white" stroke="#666666" points="235,-67.5 89,-67.5 89,-37.5 235,-37.5 235,-67.5"/>
<text text-anchor="start" x="97" y="-55.5" font-family="Helvetica,sans-Serif" font-size="10.00">user.views.StripeAuthorize</text>
<text text-anchor="middle" x="162" y="-44.5" font-family="Helvetica,sans-Serif" font-size="10.00">CallbackView</text>
</a>
</g>
</g>
<!-- Node0&#45;&gt;Node1 -->
<g id="edge140_Node000000_Node000001" class="edge">
<title>Node0&#45;&gt;Node1</title>
<g id="a_edge140_Node000000_Node000001"><a xlink:title=" ">
<path fill="none" stroke="#63b8ff" d="M51.17,-35.18C62.31,-36.94 75.51,-39.02 88.82,-41.12"/>
<polygon fill="#63b8ff" stroke="#63b8ff" points="51.61,-31.71 41.19,-33.61 50.52,-38.62 51.61,-31.71"/>
</a>
</g>
</g>
<!-- Node2 -->
<g id="Node000002" class="node">
<title>Node2</title>
<g id="a_Node000002"><a xlink:href="classuser_1_1views_1_1StripeAuthorizeView.html" target="_top" xlink:title=" ">
<polygon fill="white" stroke="#666666" points="247,-19 77,-19 77,0 247,0 247,-19"/>
<text text-anchor="middle" x="162" y="-7" font-family="Helvetica,sans-Serif" font-size="10.00">user.views.StripeAuthorizeView</text>
</a>
</g>
</g>
<!-- Node0&#45;&gt;Node2 -->
<g id="edge141_Node000000_Node000002" class="edge">
<title>Node0&#45;&gt;Node2</title>
<g id="a_edge141_Node000000_Node000002"><a xlink:title=" ">
<path fill="none" stroke="#63b8ff" d="M51.39,-26C65.01,-23.95 81.68,-21.44 97.86,-19"/>
<polygon fill="#63b8ff" stroke="#63b8ff" points="50.56,-22.59 41.19,-27.54 51.6,-29.51 50.56,-22.59"/>
</a>
</g>
</g>
</g>
</svg>
