<?xml version="1.0" encoding="UTF-8" standalone="no"?>
<!DOCTYPE svg PUBLIC "-//W3C//DTD SVG 1.1//EN"
 "http://www.w3.org/Graphics/SVG/1.1/DTD/svg11.dtd">
<!-- Generated by graphviz version 2.43.0 (0)
 -->
<!-- Title: Graphical Class Hierarchy Pages: 1 -->
<svg width="291pt" height="113pt"
 viewBox="0.00 0.00 291.00 112.50" xmlns="http://www.w3.org/2000/svg" xmlns:xlink="http://www.w3.org/1999/xlink">
<g id="graph0" class="graph" transform="scale(1 1) rotate(0) translate(4 108.5)">
<title>Graphical Class Hierarchy</title>
<!-- Node0 -->
<g id="Node000000" class="node">
<title>Node0</title>
<g id="a_Node000000"><a xlink:title=" ">
<polygon fill="#e0e0e0" stroke="#999999" points="56,-56 0,-56 0,-37 56,-37 56,-56"/>
<text text-anchor="middle" x="28" y="-44" font-family="Helvetica,sans-Serif" font-size="10.00">APIView</text>
</a>
</g>
</g>
<!-- Node1 -->
<g id="Node000001" class="node">
<title>Node1</title>
<g id="a_Node000001"><a xlink:href="classpayment_1_1views_1_1CreateCheckoutSession.html" target="_top" xlink:title=" ">
<polygon fill="white" stroke="#666666" points="273.5,-104.5 101.5,-104.5 101.5,-74.5 273.5,-74.5 273.5,-104.5"/>
<text text-anchor="start" x="109.5" y="-92.5" font-family="Helvetica,sans-Serif" font-size="10.00">payment.views.CreateCheckout</text>
<text text-anchor="middle" x="187.5" y="-81.5" font-family="Helvetica,sans-Serif" font-size="10.00">Session</text>
</a>
</g>
</g>
<!-- Node0&#45;&gt;Node1 -->
<g id="edge3_Node000000_Node000001" class="edge">
<title>Node0&#45;&gt;Node1</title>
<g id="a_edge3_Node000000_Node000001"><a xlink:title=" ">
<path fill="none" stroke="#63b8ff" d="M65.93,-57.94C74.47,-60.5 83.53,-63.15 92,-65.5 102.85,-68.51 114.43,-71.58 125.65,-74.47"/>
<polygon fill="#63b8ff" stroke="#63b8ff" points="66.8,-54.54 56.21,-54.99 64.77,-61.24 66.8,-54.54"/>
</a>
</g>
</g>
<!-- Node2 -->
<g id="Node000002" class="node">
<title>Node2</title>
<g id="a_Node000002"><a xlink:href="classpayment_1_1views_1_1WebHook.html" target="_top" xlink:title=" ">
<polygon fill="white" stroke="#666666" points="258,-56 117,-56 117,-37 258,-37 258,-56"/>
<text text-anchor="middle" x="187.5" y="-44" font-family="Helvetica,sans-Serif" font-size="10.00">payment.views.WebHook</text>
</a>
</g>
</g>
<!-- Node0&#45;&gt;Node2 -->
<g id="edge4_Node000000_Node000002" class="edge">
<title>Node0&#45;&gt;Node2</title>
<g id="a_edge4_Node000000_Node000002"><a xlink:title=" ">
<path fill="none" stroke="#63b8ff" d="M66.51,-46.5C81.6,-46.5 99.49,-46.5 116.79,-46.5"/>
<polygon fill="#63b8ff" stroke="#63b8ff" points="66.08,-43 56.08,-46.5 66.08,-50 66.08,-43"/>
</a>
</g>
</g>
<!-- Node3 -->
<g id="Node000003" class="node">
<title>Node3</title>
<g id="a_Node000003"><a xlink:href="classwebhooks_1_1views_1_1TelegramWebhook.html" target="_top" xlink:title=" ">
<polygon fill="white" stroke="#666666" points="283,-19 92,-19 92,0 283,0 283,-19"/>
<text text-anchor="middle" x="187.5" y="-7" font-family="Helvetica,sans-Serif" font-size="10.00">webhooks.views.TelegramWebhook</text>
</a>
</g>
</g>
<!-- Node0&#45;&gt;Node3 -->
<g id="edge5_Node000000_Node000003" class="edge">
<title>Node0&#45;&gt;Node3</title>
<g id="a_edge5_Node000000_Node000003"><a xlink:title=" ">
<path fill="none" stroke="#63b8ff" d="M65.88,-35.43C74.42,-33.01 83.5,-30.57 92,-28.5 105.98,-25.1 121.24,-21.84 135.33,-19.01"/>
<polygon fill="#63b8ff" stroke="#63b8ff" points="64.8,-32.1 56.16,-38.23 66.74,-38.82 64.8,-32.1"/>
</a>
</g>
</g>
</g>
</svg>
