<?xml version="1.0" encoding="UTF-8" standalone="no"?>
<!DOCTYPE svg PUBLIC "-//W3C//DTD SVG 1.1//EN"
 "http://www.w3.org/Graphics/SVG/1.1/DTD/svg11.dtd">
<!-- Generated by graphviz version 2.43.0 (0)
 -->
<!-- Title: Graphical Class Hierarchy Pages: 1 -->
<svg width="328pt" height="679pt"
 viewBox="0.00 0.00 328.00 679.00" xmlns="http://www.w3.org/2000/svg" xmlns:xlink="http://www.w3.org/1999/xlink">
<g id="graph0" class="graph" transform="scale(1 1) rotate(0) translate(4 675)">
<title>Graphical Class Hierarchy</title>
<!-- Node0 -->
<g id="Node000000" class="node">
<title>Node0</title>
<g id="a_Node000000"><a xlink:title=" ">
<polygon fill="#e0e0e0" stroke="#999999" points="86,-333 0,-333 0,-314 86,-314 86,-333"/>
<text text-anchor="middle" x="43" y="-321" font-family="Helvetica,sans-Serif" font-size="10.00">models.Model</text>
</a>
</g>
</g>
<!-- Node1 -->
<g id="Node000001" class="node">
<title>Node1</title>
<g id="a_Node000001"><a xlink:href="classassignment_1_1models_1_1Assignment.html" target="_top" xlink:title=" ">
<polygon fill="white" stroke="#666666" points="307.5,-671 134.5,-671 134.5,-652 307.5,-652 307.5,-671"/>
<text text-anchor="middle" x="221" y="-659" font-family="Helvetica,sans-Serif" font-size="10.00">assignment.models.Assignment</text>
</a>
</g>
</g>
<!-- Node0&#45;&gt;Node1 -->
<g id="edge75_Node000000_Node000001" class="edge">
<title>Node0&#45;&gt;Node1</title>
<g id="a_edge75_Node000000_Node000001"><a xlink:title=" ">
<path fill="none" stroke="#63b8ff" d="M46.05,-343.39C52.97,-406.65 77.57,-601.55 122,-643.5 125.65,-646.94 129.73,-649.84 134.09,-652.26"/>
<polygon fill="#63b8ff" stroke="#63b8ff" points="49.5,-342.75 44.96,-333.17 42.54,-343.49 49.5,-342.75"/>
</a>
</g>
</g>
<!-- Node2 -->
<g id="Node000002" class="node">
<title>Node2</title>
<g id="a_Node000002"><a xlink:href="classassignment_1_1models_1_1AssignmentMark.html" target="_top" xlink:title=" ">
<polygon fill="white" stroke="#666666" points="320,-634 122,-634 122,-615 320,-615 320,-634"/>
<text text-anchor="middle" x="221" y="-622" font-family="Helvetica,sans-Serif" font-size="10.00">assignment.models.AssignmentMark</text>
</a>
</g>
</g>
<!-- Node0&#45;&gt;Node2 -->
<g id="edge76_Node000000_Node000002" class="edge">
<title>Node0&#45;&gt;Node2</title>
<g id="a_edge76_Node000000_Node000002"><a xlink:title=" ">
<path fill="none" stroke="#63b8ff" d="M46.72,-343.34C55.09,-401.58 82.37,-570.19 122,-606.5 125.57,-609.77 129.53,-612.54 133.76,-614.89"/>
<polygon fill="#63b8ff" stroke="#63b8ff" points="50.15,-342.66 45.29,-333.24 43.22,-343.63 50.15,-342.66"/>
</a>
</g>
</g>
<!-- Node3 -->
<g id="Node000003" class="node">
<title>Node3</title>
<g id="a_Node000003"><a xlink:href="classattendance_1_1models_1_1HodAttendance.html" target="_top" xlink:title=" ">
<polygon fill="white" stroke="#666666" points="315,-597 127,-597 127,-578 315,-578 315,-597"/>
<text text-anchor="middle" x="221" y="-585" font-family="Helvetica,sans-Serif" font-size="10.00">attendance.models.HodAttendance</text>
</a>
</g>
</g>
<!-- Node0&#45;&gt;Node3 -->
<g id="edge77_Node000000_Node000003" class="edge">
<title>Node0&#45;&gt;Node3</title>
<g id="a_edge77_Node000000_Node000003"><a xlink:title=" ">
<path fill="none" stroke="#63b8ff" d="M43.88,-343.18C44.73,-390.17 53.86,-509.41 122,-569.5 125.76,-572.82 129.93,-575.62 134.36,-577.97"/>
<polygon fill="#63b8ff" stroke="#63b8ff" points="47.38,-343.08 43.81,-333.11 40.38,-343.13 47.38,-343.08"/>
</a>
</g>
</g>
<!-- Node4 -->
<g id="Node000004" class="node">
<title>Node4</title>
<g id="a_Node000004"><a xlink:href="classattendance_1_1models_1_1MainAttendance.html" target="_top" xlink:title=" ">
<polygon fill="white" stroke="#666666" points="317.5,-560 124.5,-560 124.5,-541 317.5,-541 317.5,-560"/>
<text text-anchor="middle" x="221" y="-548" font-family="Helvetica,sans-Serif" font-size="10.00">attendance.models.MainAttendance</text>
</a>
</g>
</g>
<!-- Node0&#45;&gt;Node4 -->
<g id="edge78_Node000000_Node000004" class="edge">
<title>Node0&#45;&gt;Node4</title>
<g id="a_edge78_Node000000_Node000004"><a xlink:title=" ">
<path fill="none" stroke="#63b8ff" d="M45.22,-343.19C48.94,-384.87 63.72,-482.24 122,-531.5 126.5,-535.3 131.53,-538.43 136.88,-541"/>
<polygon fill="#63b8ff" stroke="#63b8ff" points="48.71,-342.91 44.46,-333.21 41.73,-343.45 48.71,-342.91"/>
</a>
</g>
</g>
<!-- Node5 -->
<g id="Node000005" class="node">
<title>Node5</title>
<g id="a_Node000005"><a xlink:href="classattendance_1_1models_1_1StudentAttendance.html" target="_top" xlink:title=" ">
<polygon fill="white" stroke="#666666" points="296.5,-522.5 145.5,-522.5 145.5,-492.5 296.5,-492.5 296.5,-522.5"/>
<text text-anchor="start" x="153.5" y="-510.5" font-family="Helvetica,sans-Serif" font-size="10.00">attendance.models.Student</text>
<text text-anchor="middle" x="221" y="-499.5" font-family="Helvetica,sans-Serif" font-size="10.00">Attendance</text>
</a>
</g>
</g>
<!-- Node0&#45;&gt;Node5 -->
<g id="edge79_Node000000_Node000005" class="edge">
<title>Node0&#45;&gt;Node5</title>
<g id="a_edge79_Node000000_Node000005"><a xlink:title=" ">
<path fill="none" stroke="#63b8ff" d="M47.93,-343.28C55.76,-377.34 76.62,-446.9 122,-483.5 128.95,-489.11 137.03,-493.43 145.5,-496.77"/>
<polygon fill="#63b8ff" stroke="#63b8ff" points="51.28,-342.23 45.76,-333.2 44.44,-343.71 51.28,-342.23"/>
</a>
</g>
</g>
<!-- Node6 -->
<g id="Node000006" class="node">
<title>Node6</title>
<g id="a_Node000006"><a xlink:href="classattendance_1_1models_1_1TeacherAttendance.html" target="_top" xlink:title=" ">
<polygon fill="white" stroke="#666666" points="296.5,-474.5 145.5,-474.5 145.5,-444.5 296.5,-444.5 296.5,-474.5"/>
<text text-anchor="start" x="153.5" y="-462.5" font-family="Helvetica,sans-Serif" font-size="10.00">attendance.models.Teacher</text>
<text text-anchor="middle" x="221" y="-451.5" font-family="Helvetica,sans-Serif" font-size="10.00">Attendance</text>
</a>
</g>
</g>
<!-- Node0&#45;&gt;Node6 -->
<g id="edge80_Node000000_Node000006" class="edge">
<title>Node0&#45;&gt;Node6</title>
<g id="a_edge80_Node000000_Node000006"><a xlink:title=" ">
<path fill="none" stroke="#63b8ff" d="M51.89,-342.28C63.46,-367.49 87.48,-411.82 122,-435.5 129.08,-440.36 137.04,-444.23 145.28,-447.33"/>
<polygon fill="#63b8ff" stroke="#63b8ff" points="55.05,-340.79 47.82,-333.06 48.65,-343.62 55.05,-340.79"/>
</a>
</g>
</g>
<!-- Node7 -->
<g id="Node000007" class="node">
<title>Node7</title>
<g id="a_Node000007"><a xlink:href="classchat_1_1models_1_1Message.html" target="_top" xlink:title=" ">
<polygon fill="white" stroke="#666666" points="282.5,-426 159.5,-426 159.5,-407 282.5,-407 282.5,-426"/>
<text text-anchor="middle" x="221" y="-414" font-family="Helvetica,sans-Serif" font-size="10.00">chat.models.Message</text>
</a>
</g>
</g>
<!-- Node0&#45;&gt;Node7 -->
<g id="edge81_Node000000_Node000007" class="edge">
<title>Node0&#45;&gt;Node7</title>
<g id="a_edge81_Node000000_Node000007"><a xlink:title=" ">
<path fill="none" stroke="#63b8ff" d="M57.37,-341.41C71.44,-358.89 95.24,-384.78 122,-398.5 133.47,-404.38 146.56,-408.36 159.36,-411.05"/>
<polygon fill="#63b8ff" stroke="#63b8ff" points="59.84,-338.89 50.93,-333.15 54.32,-343.19 59.84,-338.89"/>
</a>
</g>
</g>
<!-- Node8 -->
<g id="Node000008" class="node">
<title>Node8</title>
<g id="a_Node000008"><a xlink:href="classchat_1_1models_1_1Room.html" target="_top" xlink:title=" ">
<polygon fill="white" stroke="#666666" points="275,-389 167,-389 167,-370 275,-370 275,-389"/>
<text text-anchor="middle" x="221" y="-377" font-family="Helvetica,sans-Serif" font-size="10.00">chat.models.Room</text>
</a>
</g>
</g>
<!-- Node0&#45;&gt;Node8 -->
<g id="edge82_Node000000_Node000008" class="edge">
<title>Node0&#45;&gt;Node8</title>
<g id="a_edge82_Node000000_Node000008"><a xlink:title=" ">
<path fill="none" stroke="#63b8ff" d="M69.27,-337.99C84.19,-345.99 103.69,-355.48 122,-361.5 136.3,-366.2 152.2,-369.78 166.96,-372.47"/>
<polygon fill="#63b8ff" stroke="#63b8ff" points="70.64,-334.75 60.19,-333.01 67.27,-340.89 70.64,-334.75"/>
</a>
</g>
</g>
<!-- Node9 -->
<g id="Node000009" class="node">
<title>Node9</title>
<g id="a_Node000009"><a xlink:href="classclassroom_1_1models_1_1Classroom.html" target="_top" xlink:title=" ">
<polygon fill="white" stroke="#666666" points="301.5,-352 140.5,-352 140.5,-333 301.5,-333 301.5,-352"/>
<text text-anchor="middle" x="221" y="-340" font-family="Helvetica,sans-Serif" font-size="10.00">classroom.models.Classroom</text>
</a>
</g>
</g>
<!-- Node0&#45;&gt;Node9 -->
<g id="edge83_Node000000_Node000009" class="edge">
<title>Node0&#45;&gt;Node9</title>
<g id="a_edge83_Node000000_Node000009"><a xlink:title=" ">
<path fill="none" stroke="#63b8ff" d="M96.4,-329.16C110.2,-330.65 125.39,-332.29 140.27,-333.89"/>
<polygon fill="#63b8ff" stroke="#63b8ff" points="96.47,-325.64 86.16,-328.05 95.72,-332.6 96.47,-325.64"/>
</a>
</g>
</g>
<!-- Node10 -->
<g id="Node000010" class="node">
<title>Node10</title>
<g id="a_Node000010"><a xlink:href="classexam_1_1models_1_1Exam.html" target="_top" xlink:title=" ">
<polygon fill="white" stroke="#666666" points="278,-315 164,-315 164,-296 278,-296 278,-315"/>
<text text-anchor="middle" x="221" y="-303" font-family="Helvetica,sans-Serif" font-size="10.00">exam.models.Exam</text>
</a>
</g>
</g>
<!-- Node0&#45;&gt;Node10 -->
<g id="edge84_Node000000_Node000010" class="edge">
<title>Node0&#45;&gt;Node10</title>
<g id="a_edge84_Node000000_Node000010"><a xlink:title=" ">
<path fill="none" stroke="#63b8ff" d="M96.31,-318.15C117.59,-315.97 142.22,-313.45 163.87,-311.24"/>
<polygon fill="#63b8ff" stroke="#63b8ff" points="95.75,-314.69 86.16,-319.19 96.46,-321.65 95.75,-314.69"/>
</a>
</g>
</g>
<!-- Node11 -->
<g id="Node000011" class="node">
<title>Node11</title>
<g id="a_Node000011"><a xlink:href="classexchange_1_1models_1_1Comment.html" target="_top" xlink:title=" ">
<polygon fill="white" stroke="#666666" points="298,-278 144,-278 144,-259 298,-259 298,-278"/>
<text text-anchor="middle" x="221" y="-266" font-family="Helvetica,sans-Serif" font-size="10.00">exchange.models.Comment</text>
</a>
</g>
</g>
<!-- Node0&#45;&gt;Node11 -->
<g id="edge85_Node000000_Node000011" class="edge">
<title>Node0&#45;&gt;Node11</title>
<g id="a_edge85_Node000000_Node000011"><a xlink:title=" ">
<path fill="none" stroke="#63b8ff" d="M70.54,-309.31C85.34,-301.9 104.3,-293.21 122,-287.5 133.71,-283.72 146.46,-280.58 158.78,-278.01"/>
<polygon fill="#63b8ff" stroke="#63b8ff" points="68.78,-306.28 61.48,-313.95 71.97,-312.51 68.78,-306.28"/>
</a>
</g>
</g>
<!-- Node12 -->
<g id="Node000012" class="node">
<title>Node12</title>
<g id="a_Node000012"><a xlink:href="classexchange_1_1models_1_1Question.html" target="_top" xlink:title=" ">
<polygon fill="white" stroke="#666666" points="295.5,-241 146.5,-241 146.5,-222 295.5,-222 295.5,-241"/>
<text text-anchor="middle" x="221" y="-229" font-family="Helvetica,sans-Serif" font-size="10.00">exchange.models.Question</text>
</a>
</g>
</g>
<!-- Node0&#45;&gt;Node12 -->
<g id="edge86_Node000000_Node000012" class="edge">
<title>Node0&#45;&gt;Node12</title>
<g id="a_edge86_Node000000_Node000012"><a xlink:title=" ">
<path fill="none" stroke="#63b8ff" d="M57.73,-305.85C71.93,-288.9 95.69,-263.93 122,-250.5 129.64,-246.6 137.99,-243.5 146.49,-241.03"/>
<polygon fill="#63b8ff" stroke="#63b8ff" points="54.8,-303.91 51.21,-313.89 60.23,-308.33 54.8,-303.91"/>
</a>
</g>
</g>
<!-- Node13 -->
<g id="Node000013" class="node">
<title>Node13</title>
<g id="a_Node000013"><a xlink:href="classexchange_1_1models_1_1Upvote.html" target="_top" xlink:title=" ">
<polygon fill="white" stroke="#666666" points="291.5,-204 150.5,-204 150.5,-185 291.5,-185 291.5,-204"/>
<text text-anchor="middle" x="221" y="-192" font-family="Helvetica,sans-Serif" font-size="10.00">exchange.models.Upvote</text>
</a>
</g>
</g>
<!-- Node0&#45;&gt;Node13 -->
<g id="edge87_Node000000_Node000013" class="edge">
<title>Node0&#45;&gt;Node13</title>
<g id="a_edge87_Node000000_Node000013"><a xlink:title=" ">
<path fill="none" stroke="#63b8ff" d="M51.82,-304.81C63.31,-279.78 87.24,-235.91 122,-213.5 130.59,-207.96 140.43,-203.96 150.48,-201.09"/>
<polygon fill="#63b8ff" stroke="#63b8ff" points="48.61,-303.42 47.78,-313.98 55.01,-306.24 48.61,-303.42"/>
</a>
</g>
</g>
<!-- Node14 -->
<g id="Node000014" class="node">
<title>Node14</title>
<g id="a_Node000014"><a xlink:href="classgrade_1_1models_1_1Mark.html" target="_top" xlink:title=" ">
<polygon fill="white" stroke="#666666" points="276.5,-167 165.5,-167 165.5,-148 276.5,-148 276.5,-167"/>
<text text-anchor="middle" x="221" y="-155" font-family="Helvetica,sans-Serif" font-size="10.00">grade.models.Mark</text>
</a>
</g>
</g>
<!-- Node0&#45;&gt;Node14 -->
<g id="edge88_Node000000_Node000014" class="edge">
<title>Node0&#45;&gt;Node14</title>
<g id="a_edge88_Node000000_Node000014"><a xlink:title=" ">
<path fill="none" stroke="#63b8ff" d="M48.61,-303.74C57.19,-271.63 78.79,-208.48 122,-176.5 134.47,-167.27 150.19,-162.17 165.38,-159.45"/>
<polygon fill="#63b8ff" stroke="#63b8ff" points="45.15,-303.15 46.1,-313.7 51.94,-304.86 45.15,-303.15"/>
</a>
</g>
</g>
<!-- Node15 -->
<g id="Node000015" class="node">
<title>Node15</title>
<g id="a_Node000015"><a xlink:href="classuser_1_1models_1_1HOD.html" target="_top" xlink:title=" ">
<polygon fill="white" stroke="#666666" points="271.5,-130 170.5,-130 170.5,-111 271.5,-111 271.5,-130"/>
<text text-anchor="middle" x="221" y="-118" font-family="Helvetica,sans-Serif" font-size="10.00">user.models.HOD</text>
</a>
</g>
</g>
<!-- Node0&#45;&gt;Node15 -->
<g id="edge89_Node000000_Node000015" class="edge">
<title>Node0&#45;&gt;Node15</title>
<g id="a_edge89_Node000000_Node000015"><a xlink:title=" ">
<path fill="none" stroke="#63b8ff" d="M46.39,-303.23C52.05,-264.85 69.95,-181.65 122,-139.5 135.54,-128.54 153.55,-123.26 170.43,-120.88"/>
<polygon fill="#63b8ff" stroke="#63b8ff" points="42.86,-303.23 45,-313.61 49.8,-304.16 42.86,-303.23"/>
</a>
</g>
</g>
<!-- Node16 -->
<g id="Node000016" class="node">
<title>Node16</title>
<g id="a_Node000016"><a xlink:href="classuser_1_1models_1_1Student.html" target="_top" xlink:title=" ">
<polygon fill="white" stroke="#666666" points="279,-93 163,-93 163,-74 279,-74 279,-93"/>
<text text-anchor="middle" x="221" y="-81" font-family="Helvetica,sans-Serif" font-size="10.00">user.models.Student</text>
</a>
</g>
</g>
<!-- Node0&#45;&gt;Node16 -->
<g id="edge90_Node000000_Node000016" class="edge">
<title>Node0&#45;&gt;Node16</title>
<g id="a_edge90_Node000000_Node000016"><a xlink:title=" ">
<path fill="none" stroke="#63b8ff" d="M44.75,-303.5C47.53,-259.79 60.61,-155.42 122,-102.5 133.35,-92.71 148.22,-87.37 162.94,-84.58"/>
<polygon fill="#63b8ff" stroke="#63b8ff" points="41.24,-303.52 44.22,-313.69 48.23,-303.88 41.24,-303.52"/>
</a>
</g>
</g>
<!-- Node17 -->
<g id="Node000017" class="node">
<title>Node17</title>
<g id="a_Node000017"><a xlink:href="classuser_1_1models_1_1Subject.html" target="_top" xlink:title=" ">
<polygon fill="white" stroke="#666666" points="278.5,-56 163.5,-56 163.5,-37 278.5,-37 278.5,-56"/>
<text text-anchor="middle" x="221" y="-44" font-family="Helvetica,sans-Serif" font-size="10.00">user.models.Subject</text>
</a>
</g>
</g>
<!-- Node0&#45;&gt;Node17 -->
<g id="edge91_Node000000_Node000017" class="edge">
<title>Node0&#45;&gt;Node17</title>
<g id="a_edge91_Node000000_Node000017"><a xlink:title=" ">
<path fill="none" stroke="#63b8ff" d="M43.58,-303.9C43.67,-255.49 51.1,-129.51 122,-65.5 133.32,-55.28 148.44,-49.84 163.4,-47.1"/>
<polygon fill="#63b8ff" stroke="#63b8ff" points="40.08,-304.01 43.67,-313.98 47.08,-303.95 40.08,-304.01"/>
</a>
</g>
</g>
<!-- Node18 -->
<g id="Node000018" class="node">
<title>Node18</title>
<g id="a_Node000018"><a xlink:href="classuser_1_1models_1_1Teacher.html" target="_top" xlink:title=" ">
<polygon fill="white" stroke="#666666" points="279,-19 163,-19 163,0 279,0 279,-19"/>
<text text-anchor="middle" x="221" y="-7" font-family="Helvetica,sans-Serif" font-size="10.00">user.models.Teacher</text>
</a>
</g>
</g>
<!-- Node0&#45;&gt;Node18 -->
<g id="edge92_Node000000_Node000018" class="edge">
<title>Node0&#45;&gt;Node18</title>
<g id="a_edge92_Node000000_Node000018"><a xlink:title=" ">
<path fill="none" stroke="#63b8ff" d="M46.45,-304.02C54.33,-244.52 80.92,-66.91 122,-28.5 133.08,-18.14 148.03,-12.65 162.92,-9.9"/>
<polygon fill="#63b8ff" stroke="#63b8ff" points="42.97,-303.61 45.16,-313.98 49.92,-304.51 42.97,-303.61"/>
</a>
</g>
</g>
</g>
</svg>
