<?xml version="1.0" encoding="UTF-8" standalone="no"?>
<!DOCTYPE svg PUBLIC "-//W3C//DTD SVG 1.1//EN"
 "http://www.w3.org/Graphics/SVG/1.1/DTD/svg11.dtd">
<!-- Generated by graphviz version 2.43.0 (0)
 -->
<!-- Title: Graphical Class Hierarchy Pages: 1 -->
<svg width="283pt" height="150pt"
 viewBox="0.00 0.00 283.00 149.50" xmlns="http://www.w3.org/2000/svg" xmlns:xlink="http://www.w3.org/1999/xlink">
<g id="graph0" class="graph" transform="scale(1 1) rotate(0) translate(4 145.5)">
<title>Graphical Class Hierarchy</title>
<!-- Node0 -->
<g id="Node000000" class="node">
<title>Node0</title>
<g id="a_Node000000"><a xlink:title=" ">
<polygon fill="#e0e0e0" stroke="#999999" points="60,-74 0,-74 0,-55 60,-55 60,-74"/>
<text text-anchor="middle" x="30" y="-62" font-family="Helvetica,sans-Serif" font-size="10.00">TestCase</text>
</a>
</g>
</g>
<!-- Node1 -->
<g id="Node000001" class="node">
<title>Node1</title>
<g id="a_Node000001"><a xlink:href="classattendance_1_1tests_1_1test__attendance_1_1TestMainAttendance.html" target="_top" xlink:title=" ">
<polygon fill="white" stroke="#666666" points="275,-141.5 96,-141.5 96,-111.5 275,-111.5 275,-141.5"/>
<text text-anchor="start" x="104" y="-129.5" font-family="Helvetica,sans-Serif" font-size="10.00">attendance.tests.test</text>
<text text-anchor="middle" x="185.5" y="-118.5" font-family="Helvetica,sans-Serif" font-size="10.00">_attendance.TestMainAttendance</text>
</a>
</g>
</g>
<!-- Node0&#45;&gt;Node1 -->
<g id="edge136_Node000000_Node000001" class="edge">
<title>Node0&#45;&gt;Node1</title>
<g id="a_edge136_Node000000_Node000001"><a xlink:title=" ">
<path fill="none" stroke="#63b8ff" d="M53.48,-79.63C65.66,-87.31 81.21,-96.3 96,-102.5 103.93,-105.82 112.45,-108.81 120.96,-111.46"/>
<polygon fill="#63b8ff" stroke="#63b8ff" points="55.19,-76.57 44.89,-74.08 51.39,-82.45 55.19,-76.57"/>
</a>
</g>
</g>
<!-- Node2 -->
<g id="Node000002" class="node">
<title>Node2</title>
<g id="a_Node000002"><a xlink:href="classgrade_1_1tests_1_1GradeSystemTest.html" target="_top" xlink:title=" ">
<polygon fill="white" stroke="#666666" points="265.5,-93 105.5,-93 105.5,-74 265.5,-74 265.5,-93"/>
<text text-anchor="middle" x="185.5" y="-81" font-family="Helvetica,sans-Serif" font-size="10.00">grade.tests.GradeSystemTest</text>
</a>
</g>
</g>
<!-- Node0&#45;&gt;Node2 -->
<g id="edge137_Node000000_Node000002" class="edge">
<title>Node0&#45;&gt;Node2</title>
<g id="a_edge137_Node000000_Node000002"><a xlink:title=" ">
<path fill="none" stroke="#63b8ff" d="M70.27,-69.36C81.7,-70.78 94.59,-72.37 107.49,-73.97"/>
<polygon fill="#63b8ff" stroke="#63b8ff" points="70.59,-65.87 60.23,-68.12 69.73,-72.82 70.59,-65.87"/>
</a>
</g>
</g>
<!-- Node3 -->
<g id="Node000003" class="node">
<title>Node3</title>
<g id="a_Node000003"><a xlink:href="classuser_1_1tests_1_1AdminSiteTest.html" target="_top" xlink:title=" ">
<polygon fill="white" stroke="#666666" points="254,-56 117,-56 117,-37 254,-37 254,-56"/>
<text text-anchor="middle" x="185.5" y="-44" font-family="Helvetica,sans-Serif" font-size="10.00">user.tests.AdminSiteTest</text>
</a>
</g>
</g>
<!-- Node0&#45;&gt;Node3 -->
<g id="edge138_Node000000_Node000003" class="edge">
<title>Node0&#45;&gt;Node3</title>
<g id="a_edge138_Node000000_Node000003"><a xlink:title=" ">
<path fill="none" stroke="#63b8ff" d="M70.56,-59.86C84.7,-58.2 101.05,-56.29 116.87,-54.43"/>
<polygon fill="#63b8ff" stroke="#63b8ff" points="69.76,-56.43 60.23,-61.07 70.57,-63.38 69.76,-56.43"/>
</a>
</g>
</g>
<!-- Node4 -->
<g id="Node000004" class="node">
<title>Node4</title>
<g id="a_Node000004"><a xlink:href="classuser_1_1tests_1_1ModelTest.html" target="_top" xlink:title=" ">
<polygon fill="white" stroke="#666666" points="243.5,-19 127.5,-19 127.5,0 243.5,0 243.5,-19"/>
<text text-anchor="middle" x="185.5" y="-7" font-family="Helvetica,sans-Serif" font-size="10.00">user.tests.ModelTest</text>
</a>
</g>
</g>
<!-- Node0&#45;&gt;Node4 -->
<g id="edge139_Node000000_Node000004" class="edge">
<title>Node0&#45;&gt;Node4</title>
<g id="a_edge139_Node000000_Node000004"><a xlink:title=" ">
<path fill="none" stroke="#63b8ff" d="M53.93,-49.62C66.03,-42.34 81.37,-33.98 96,-28.5 106.15,-24.69 117.26,-21.56 128.07,-19.01"/>
<polygon fill="#63b8ff" stroke="#63b8ff" points="52.04,-46.67 45.38,-54.91 55.72,-52.63 52.04,-46.67"/>
</a>
</g>
</g>
</g>
</svg>
