<?xml version="1.0" encoding="UTF-8" standalone="no"?>
<!DOCTYPE svg PUBLIC "-//W3C//DTD SVG 1.1//EN"
 "http://www.w3.org/Graphics/SVG/1.1/DTD/svg11.dtd">
<!-- Generated by graphviz version 2.43.0 (0)
 -->
<!-- Title: Graphical Class Hierarchy Pages: 1 -->
<svg width="335pt" height="457pt"
 viewBox="0.00 0.00 335.00 456.50" xmlns="http://www.w3.org/2000/svg" xmlns:xlink="http://www.w3.org/1999/xlink">
<g id="graph0" class="graph" transform="scale(1 1) rotate(0) translate(4 452.5)">
<title>Graphical Class Hierarchy</title>
<!-- Node0 -->
<g id="Node000000" class="node">
<title>Node0</title>
<g id="a_Node000000"><a xlink:title=" ">
<polygon fill="#e0e0e0" stroke="#999999" points="88,-222 0,-222 0,-203 88,-203 88,-222"/>
<text text-anchor="middle" x="44" y="-210" font-family="Helvetica,sans-Serif" font-size="10.00">views.APIView</text>
</a>
</g>
</g>
<!-- Node1 -->
<g id="Node000001" class="node">
<title>Node1</title>
<g id="a_Node000001"><a xlink:href="classassignment_1_1views_1_1AssignmentCreate.html" target="_top" xlink:title=" ">
<polygon fill="white" stroke="#666666" points="308.5,-448.5 142.5,-448.5 142.5,-418.5 308.5,-418.5 308.5,-448.5"/>
<text text-anchor="start" x="150.5" y="-436.5" font-family="Helvetica,sans-Serif" font-size="10.00">assignment.views.Assignment</text>
<text text-anchor="middle" x="225.5" y="-425.5" font-family="Helvetica,sans-Serif" font-size="10.00">Create</text>
</a>
</g>
</g>
<!-- Node0&#45;&gt;Node1 -->
<g id="edge142_Node000000_Node000001" class="edge">
<title>Node0&#45;&gt;Node1</title>
<g id="a_edge142_Node000000_Node000001"><a xlink:title=" ">
<path fill="none" stroke="#63b8ff" d="M46.97,-232.05C52.04,-271.81 69.29,-362.29 124,-409.5 129.43,-414.19 135.62,-418 142.2,-421.09"/>
<polygon fill="#63b8ff" stroke="#63b8ff" points="50.44,-231.59 45.81,-222.06 43.48,-232.39 50.44,-231.59"/>
</a>
</g>
</g>
<!-- Node2 -->
<g id="Node000002" class="node">
<title>Node2</title>
<g id="a_Node000002"><a xlink:href="classassignment_1_1views_1_1AssignmentMarkCreate.html" target="_top" xlink:title=" ">
<polygon fill="white" stroke="#666666" points="308.5,-400.5 142.5,-400.5 142.5,-370.5 308.5,-370.5 308.5,-400.5"/>
<text text-anchor="start" x="150.5" y="-388.5" font-family="Helvetica,sans-Serif" font-size="10.00">assignment.views.Assignment</text>
<text text-anchor="middle" x="225.5" y="-377.5" font-family="Helvetica,sans-Serif" font-size="10.00">MarkCreate</text>
</a>
</g>
</g>
<!-- Node0&#45;&gt;Node2 -->
<g id="edge143_Node000000_Node000002" class="edge">
<title>Node0&#45;&gt;Node2</title>
<g id="a_edge143_Node000000_Node000002"><a xlink:title=" ">
<path fill="none" stroke="#63b8ff" d="M49.82,-232.32C58.73,-264.57 80.92,-328.15 124,-361.5 129.53,-365.78 135.71,-369.32 142.21,-372.23"/>
<polygon fill="#63b8ff" stroke="#63b8ff" points="53.12,-231.11 47.21,-222.32 46.35,-232.88 53.12,-231.11"/>
</a>
</g>
</g>
<!-- Node3 -->
<g id="Node000003" class="node">
<title>Node3</title>
<g id="a_Node000003"><a xlink:href="classexam_1_1views_1_1ExamCreateView.html" target="_top" xlink:title=" ">
<polygon fill="white" stroke="#666666" points="307,-352 144,-352 144,-333 307,-333 307,-352"/>
<text text-anchor="middle" x="225.5" y="-340" font-family="Helvetica,sans-Serif" font-size="10.00">exam.views.ExamCreateView</text>
</a>
</g>
</g>
<!-- Node0&#45;&gt;Node3 -->
<g id="edge144_Node000000_Node000003" class="edge">
<title>Node0&#45;&gt;Node3</title>
<g id="a_edge144_Node000000_Node000003"><a xlink:title=" ">
<path fill="none" stroke="#63b8ff" d="M52.84,-231.6C64.4,-257.17 88.54,-301.93 124,-324.5 130.13,-328.4 136.88,-331.52 143.88,-333.99"/>
<polygon fill="#63b8ff" stroke="#63b8ff" points="55.97,-230.02 48.79,-222.23 49.55,-232.8 55.97,-230.02"/>
</a>
</g>
</g>
<!-- Node4 -->
<g id="Node000004" class="node">
<title>Node4</title>
<g id="a_Node000004"><a xlink:href="classexchange_1_1views_1_1CommentCreateView.html" target="_top" xlink:title=" ">
<polygon fill="white" stroke="#666666" points="327,-315 124,-315 124,-296 327,-296 327,-315"/>
<text text-anchor="middle" x="225.5" y="-303" font-family="Helvetica,sans-Serif" font-size="10.00">exchange.views.CommentCreateView</text>
</a>
</g>
</g>
<!-- Node0&#45;&gt;Node4 -->
<g id="edge145_Node000000_Node000004" class="edge">
<title>Node0&#45;&gt;Node4</title>
<g id="a_edge145_Node000000_Node000004"><a xlink:title=" ">
<path fill="none" stroke="#63b8ff" d="M58.58,-230.44C72.86,-247.93 96.98,-273.83 124,-287.5 130.8,-290.94 138.15,-293.73 145.68,-296"/>
<polygon fill="#63b8ff" stroke="#63b8ff" points="60.99,-227.84 52.05,-222.17 55.5,-232.18 60.99,-227.84"/>
</a>
</g>
</g>
<!-- Node5 -->
<g id="Node000005" class="node">
<title>Node5</title>
<g id="a_Node000005"><a xlink:href="classexchange_1_1views_1_1QuestionCreateView.html" target="_top" xlink:title=" ">
<polygon fill="white" stroke="#666666" points="324.5,-278 126.5,-278 126.5,-259 324.5,-259 324.5,-278"/>
<text text-anchor="middle" x="225.5" y="-266" font-family="Helvetica,sans-Serif" font-size="10.00">exchange.views.QuestionCreateView</text>
</a>
</g>
</g>
<!-- Node0&#45;&gt;Node5 -->
<g id="edge146_Node000000_Node000005" class="edge">
<title>Node0&#45;&gt;Node5</title>
<g id="a_edge146_Node000000_Node000005"><a xlink:title=" ">
<path fill="none" stroke="#63b8ff" d="M70.61,-227.01C85.72,-235.01 105.47,-244.51 124,-250.5 134.46,-253.88 145.74,-256.68 156.84,-258.98"/>
<polygon fill="#63b8ff" stroke="#63b8ff" points="71.86,-223.71 61.4,-222.02 68.53,-229.86 71.86,-223.71"/>
</a>
</g>
</g>
<!-- Node6 -->
<g id="Node000006" class="node">
<title>Node6</title>
<g id="a_Node000006"><a xlink:href="classexchange_1_1views_1_1UpvoteCreateView.html" target="_top" xlink:title=" ">
<polygon fill="white" stroke="#666666" points="320.5,-241 130.5,-241 130.5,-222 320.5,-222 320.5,-241"/>
<text text-anchor="middle" x="225.5" y="-229" font-family="Helvetica,sans-Serif" font-size="10.00">exchange.views.UpvoteCreateView</text>
</a>
</g>
</g>
<!-- Node0&#45;&gt;Node6 -->
<g id="edge147_Node000000_Node000006" class="edge">
<title>Node0&#45;&gt;Node6</title>
<g id="a_edge147_Node000000_Node000006"><a xlink:title=" ">
<path fill="none" stroke="#63b8ff" d="M98.62,-218.18C110,-219.38 122.31,-220.68 134.62,-221.99"/>
<polygon fill="#63b8ff" stroke="#63b8ff" points="98.76,-214.67 88.45,-217.1 98.03,-221.63 98.76,-214.67"/>
</a>
</g>
</g>
<!-- Node7 -->
<g id="Node000007" class="node">
<title>Node7</title>
<g id="a_Node000007"><a xlink:href="classgrade_1_1views_1_1MarkCreateView.html" target="_top" xlink:title=" ">
<polygon fill="white" stroke="#666666" points="305.5,-204 145.5,-204 145.5,-185 305.5,-185 305.5,-204"/>
<text text-anchor="middle" x="225.5" y="-192" font-family="Helvetica,sans-Serif" font-size="10.00">grade.views.MarkCreateView</text>
</a>
</g>
</g>
<!-- Node0&#45;&gt;Node7 -->
<g id="edge148_Node000000_Node000007" class="edge">
<title>Node0&#45;&gt;Node7</title>
<g id="a_edge148_Node000000_Node000007"><a xlink:title=" ">
<path fill="none" stroke="#63b8ff" d="M98.81,-207.1C113.44,-205.64 129.6,-204.02 145.32,-202.44"/>
<polygon fill="#63b8ff" stroke="#63b8ff" points="98.05,-203.66 88.45,-208.14 98.75,-210.63 98.05,-203.66"/>
</a>
</g>
</g>
<!-- Node8 -->
<g id="Node000008" class="node">
<title>Node8</title>
<g id="a_Node000008"><a xlink:href="classuser_1_1views_1_1HODRegister.html" target="_top" xlink:title=" ">
<polygon fill="white" stroke="#666666" points="292.5,-167 158.5,-167 158.5,-148 292.5,-148 292.5,-167"/>
<text text-anchor="middle" x="225.5" y="-155" font-family="Helvetica,sans-Serif" font-size="10.00">user.views.HODRegister</text>
</a>
</g>
</g>
<!-- Node0&#45;&gt;Node8 -->
<g id="edge149_Node000000_Node000008" class="edge">
<title>Node0&#45;&gt;Node8</title>
<g id="a_edge149_Node000000_Node000008"><a xlink:title=" ">
<path fill="none" stroke="#63b8ff" d="M71.89,-198.29C86.88,-190.87 106.09,-182.18 124,-176.5 135.93,-172.71 148.91,-169.57 161.46,-167.01"/>
<polygon fill="#63b8ff" stroke="#63b8ff" points="70.05,-195.3 62.71,-202.93 73.21,-201.54 70.05,-195.3"/>
</a>
</g>
</g>
<!-- Node9 -->
<g id="Node000009" class="node">
<title>Node9</title>
<g id="a_Node000009"><a xlink:href="classuser_1_1views_1_1RegisterView.html" target="_top" xlink:title=" ">
<polygon fill="white" stroke="#666666" points="293.5,-130 157.5,-130 157.5,-111 293.5,-111 293.5,-130"/>
<text text-anchor="middle" x="225.5" y="-118" font-family="Helvetica,sans-Serif" font-size="10.00">user.views.RegisterView</text>
</a>
</g>
</g>
<!-- Node0&#45;&gt;Node9 -->
<g id="edge150_Node000000_Node000009" class="edge">
<title>Node0&#45;&gt;Node9</title>
<g id="a_edge150_Node000000_Node000009"><a xlink:title=" ">
<path fill="none" stroke="#63b8ff" d="M58.94,-194.83C73.35,-177.85 97.44,-152.87 124,-139.5 134.31,-134.31 145.86,-130.53 157.36,-127.78"/>
<polygon fill="#63b8ff" stroke="#63b8ff" points="55.98,-192.93 52.33,-202.87 61.38,-197.37 55.98,-192.93"/>
</a>
</g>
</g>
<!-- Node10 -->
<g id="Node000010" class="node">
<title>Node10</title>
<g id="a_Node000010"><a xlink:href="classuser_1_1views_1_1StudentRegister.html" target="_top" xlink:title=" ">
<polygon fill="white" stroke="#666666" points="300,-93 151,-93 151,-74 300,-74 300,-93"/>
<text text-anchor="middle" x="225.5" y="-81" font-family="Helvetica,sans-Serif" font-size="10.00">user.views.StudentRegister</text>
</a>
</g>
</g>
<!-- Node0&#45;&gt;Node10 -->
<g id="edge151_Node000000_Node000010" class="edge">
<title>Node0&#45;&gt;Node10</title>
<g id="a_edge151_Node000000_Node000010"><a xlink:title=" ">
<path fill="none" stroke="#63b8ff" d="M52.97,-193.78C64.67,-168.72 88.97,-124.82 124,-102.5 132.16,-97.3 141.4,-93.45 150.89,-90.62"/>
<polygon fill="#63b8ff" stroke="#63b8ff" points="49.75,-192.41 48.85,-202.97 56.14,-195.27 49.75,-192.41"/>
</a>
</g>
</g>
<!-- Node11 -->
<g id="Node000011" class="node">
<title>Node11</title>
<g id="a_Node000011"><a xlink:href="classuser_1_1views_1_1TeacherRegister.html" target="_top" xlink:title=" ">
<polygon fill="white" stroke="#666666" points="300,-56 151,-56 151,-37 300,-37 300,-56"/>
<text text-anchor="middle" x="225.5" y="-44" font-family="Helvetica,sans-Serif" font-size="10.00">user.views.TeacherRegister</text>
</a>
</g>
</g>
<!-- Node0&#45;&gt;Node11 -->
<g id="edge152_Node000000_Node000011" class="edge">
<title>Node0&#45;&gt;Node11</title>
<g id="a_edge152_Node000000_Node000011"><a xlink:title=" ">
<path fill="none" stroke="#63b8ff" d="M49.73,-192.71C58.51,-160.56 80.51,-97.36 124,-65.5 131.95,-59.68 141.18,-55.48 150.75,-52.49"/>
<polygon fill="#63b8ff" stroke="#63b8ff" points="46.27,-192.13 47.16,-202.69 53.04,-193.88 46.27,-192.13"/>
</a>
</g>
</g>
<!-- Node12 -->
<g id="Node000012" class="node">
<title>Node12</title>
<g id="a_Node000012"><a xlink:href="classuser_1_1views_1_1UserView.html" target="_top" xlink:title=" ">
<polygon fill="white" stroke="#666666" points="284.5,-19 166.5,-19 166.5,0 284.5,0 284.5,-19"/>
<text text-anchor="middle" x="225.5" y="-7" font-family="Helvetica,sans-Serif" font-size="10.00">user.views.UserView</text>
</a>
</g>
</g>
<!-- Node0&#45;&gt;Node12 -->
<g id="edge153_Node000000_Node000012" class="edge">
<title>Node0&#45;&gt;Node12</title>
<g id="a_edge153_Node000000_Node000012"><a xlink:title=" ">
<path fill="none" stroke="#63b8ff" d="M47.49,-192.2C53.33,-153.77 71.65,-70.49 124,-28.5 135.98,-18.89 151.34,-13.6 166.43,-10.82"/>
<polygon fill="#63b8ff" stroke="#63b8ff" points="43.95,-192.21 46.05,-202.59 50.89,-193.17 43.95,-192.21"/>
</a>
</g>
</g>
</g>
</svg>
