<?xml version="1.0" encoding="UTF-8" standalone="no"?>
<!DOCTYPE svg PUBLIC "-//W3C//DTD SVG 1.1//EN"
 "http://www.w3.org/Graphics/SVG/1.1/DTD/svg11.dtd">
<!-- Generated by graphviz version 2.43.0 (0)
 -->
<!-- Title: Graphical Class Hierarchy Pages: 1 -->
<svg width="338pt" height="220pt"
 viewBox="0.00 0.00 338.00 220.00" xmlns="http://www.w3.org/2000/svg" xmlns:xlink="http://www.w3.org/1999/xlink">
<g id="graph0" class="graph" transform="scale(1 1) rotate(0) translate(4 216)">
<title>Graphical Class Hierarchy</title>
<!-- Node0 -->
<g id="Node000000" class="node">
<title>Node0</title>
<g id="a_Node000000"><a xlink:title=" ">
<polygon fill="#e0e0e0" stroke="#999999" points="133,-110.5 0,-110.5 0,-91.5 133,-91.5 133,-110.5"/>
<text text-anchor="middle" x="66.5" y="-98.5" font-family="Helvetica,sans-Serif" font-size="10.00">generics.CreateAPIView</text>
</a>
</g>
</g>
<!-- Node1 -->
<g id="Node000001" class="node">
<title>Node1</title>
<g id="a_Node000001"><a xlink:href="classattendance_1_1views_1_1AttendanceCreateView.html" target="_top" xlink:title=" ">
<polygon fill="white" stroke="#666666" points="330,-212 169,-212 169,-182 330,-182 330,-212"/>
<text text-anchor="start" x="177" y="-200" font-family="Helvetica,sans-Serif" font-size="10.00">attendance.views.Attendance</text>
<text text-anchor="middle" x="249.5" y="-189" font-family="Helvetica,sans-Serif" font-size="10.00">CreateView</text>
</a>
</g>
</g>
<!-- Node0&#45;&gt;Node1 -->
<g id="edge20_Node000000_Node000001" class="edge">
<title>Node0&#45;&gt;Node1</title>
<g id="a_edge20_Node000000_Node000001"><a xlink:title=" ">
<path fill="none" stroke="#63b8ff" d="M86.41,-117.29C105.95,-133.39 137.9,-157.78 169,-173 175.86,-176.36 183.29,-179.36 190.76,-182"/>
<polygon fill="#63b8ff" stroke="#63b8ff" points="88.51,-114.48 78.6,-110.74 84.01,-119.84 88.51,-114.48"/>
</a>
</g>
</g>
<!-- Node2 -->
<g id="Node000002" class="node">
<title>Node2</title>
<g id="a_Node000002"><a xlink:href="classattendance_1_1views_1_1StudentAttendanceCreateView.html" target="_top" xlink:title=" ">
<polygon fill="white" stroke="#666666" points="321,-164 178,-164 178,-134 321,-134 321,-164"/>
<text text-anchor="start" x="186" y="-152" font-family="Helvetica,sans-Serif" font-size="10.00">attendance.views.Student</text>
<text text-anchor="middle" x="249.5" y="-141" font-family="Helvetica,sans-Serif" font-size="10.00">AttendanceCreateView</text>
</a>
</g>
</g>
<!-- Node0&#45;&gt;Node2 -->
<g id="edge21_Node000000_Node000002" class="edge">
<title>Node0&#45;&gt;Node2</title>
<g id="a_edge21_Node000000_Node000002"><a xlink:title=" ">
<path fill="none" stroke="#63b8ff" d="M113.52,-113.2C137.3,-119.51 166.53,-127.26 191.7,-133.94"/>
<polygon fill="#63b8ff" stroke="#63b8ff" points="114.26,-109.78 103.69,-110.6 112.46,-116.54 114.26,-109.78"/>
</a>
</g>
</g>
<!-- Node3 -->
<g id="Node000003" class="node">
<title>Node3</title>
<g id="a_Node000003"><a xlink:href="classattendance_1_1views_1_1TeacherAttendanceCreateView.html" target="_top" xlink:title=" ">
<polygon fill="white" stroke="#666666" points="321,-116 178,-116 178,-86 321,-86 321,-116"/>
<text text-anchor="start" x="186" y="-104" font-family="Helvetica,sans-Serif" font-size="10.00">attendance.views.Teacher</text>
<text text-anchor="middle" x="249.5" y="-93" font-family="Helvetica,sans-Serif" font-size="10.00">AttendanceCreateView</text>
</a>
</g>
</g>
<!-- Node0&#45;&gt;Node3 -->
<g id="edge22_Node000000_Node000003" class="edge">
<title>Node0&#45;&gt;Node3</title>
<g id="a_edge22_Node000000_Node000003"><a xlink:title=" ">
<path fill="none" stroke="#63b8ff" d="M143.13,-101C154.66,-101 166.52,-101 177.93,-101"/>
<polygon fill="#63b8ff" stroke="#63b8ff" points="143.1,-97.5 133.1,-101 143.1,-104.5 143.1,-97.5"/>
</a>
</g>
</g>
<!-- Node4 -->
<g id="Node000004" class="node">
<title>Node4</title>
<g id="a_Node000004"><a xlink:href="classchat_1_1views_1_1CreateRoomView.html" target="_top" xlink:title=" ">
<polygon fill="white" stroke="#666666" points="328,-67.5 171,-67.5 171,-48.5 328,-48.5 328,-67.5"/>
<text text-anchor="middle" x="249.5" y="-55.5" font-family="Helvetica,sans-Serif" font-size="10.00">chat.views.CreateRoomView</text>
</a>
</g>
</g>
<!-- Node0&#45;&gt;Node4 -->
<g id="edge23_Node000000_Node000004" class="edge">
<title>Node0&#45;&gt;Node4</title>
<g id="a_edge23_Node000000_Node000004"><a xlink:title=" ">
<path fill="none" stroke="#63b8ff" d="M117.5,-89.12C146.15,-82.31 181.64,-73.88 208.44,-67.52"/>
<polygon fill="#63b8ff" stroke="#63b8ff" points="116.59,-85.74 107.67,-91.46 118.21,-92.55 116.59,-85.74"/>
</a>
</g>
</g>
<!-- Node5 -->
<g id="Node000005" class="node">
<title>Node5</title>
<g id="a_Node000005"><a xlink:href="classclassroom_1_1views_1_1ClassroomCreateView.html" target="_top" xlink:title=" ">
<polygon fill="white" stroke="#666666" points="326,-30 173,-30 173,0 326,0 326,-30"/>
<text text-anchor="start" x="181" y="-18" font-family="Helvetica,sans-Serif" font-size="10.00">classroom.views.Classroom</text>
<text text-anchor="middle" x="249.5" y="-7" font-family="Helvetica,sans-Serif" font-size="10.00">CreateView</text>
</a>
</g>
</g>
<!-- Node0&#45;&gt;Node5 -->
<g id="edge24_Node000000_Node000005" class="edge">
<title>Node0&#45;&gt;Node5</title>
<g id="a_edge24_Node000000_Node000005"><a xlink:title=" ">
<path fill="none" stroke="#63b8ff" d="M89.45,-85.72C109.47,-72.3 140.22,-52.95 169,-40 177.05,-36.38 185.77,-33.06 194.4,-30.11"/>
<polygon fill="#63b8ff" stroke="#63b8ff" points="87.36,-82.91 81.05,-91.42 91.29,-88.7 87.36,-82.91"/>
</a>
</g>
</g>
</g>
</svg>
