<?xml version="1.0" encoding="UTF-8" standalone="no"?>
<!DOCTYPE svg PUBLIC "-//W3C//DTD SVG 1.1//EN"
 "http://www.w3.org/Graphics/SVG/1.1/DTD/svg11.dtd">
<!-- Generated by graphviz version 2.43.0 (0)
 -->
<!-- Title: Graphical Class Hierarchy Pages: 1 -->
<svg width="369pt" height="1957pt"
 viewBox="0.00 0.00 369.00 1957.00" xmlns="http://www.w3.org/2000/svg" xmlns:xlink="http://www.w3.org/1999/xlink">
<g id="graph0" class="graph" transform="scale(1 1) rotate(0) translate(4 1953)">
<title>Graphical Class Hierarchy</title>
<!-- Node0 -->
<g id="Node000000" class="node">
<title>Node0</title>
<g id="a_Node000000"><a xlink:title=" ">
<polygon fill="#e0e0e0" stroke="#999999" points="119,-987.5 0,-987.5 0,-968.5 119,-968.5 119,-987.5"/>
<text text-anchor="middle" x="59.5" y="-975.5" font-family="Helvetica,sans-Serif" font-size="10.00">migrations.Migration</text>
</a>
</g>
</g>
<!-- Node1 -->
<g id="Node000001" class="node">
<title>Node1</title>
<g id="a_Node000001"><a xlink:href="classassignment_1_1migrations_1_10001__initial_1_1Migration.html" target="_top" xlink:title=" ">
<polygon fill="white" stroke="#666666" points="336,-1949 180,-1949 180,-1919 336,-1919 336,-1949"/>
<text text-anchor="start" x="188" y="-1937" font-family="Helvetica,sans-Serif" font-size="10.00">assignment.migrations.0001</text>
<text text-anchor="middle" x="258" y="-1926" font-family="Helvetica,sans-Serif" font-size="10.00">_initial.Migration</text>
</a>
</g>
</g>
<!-- Node0&#45;&gt;Node1 -->
<g id="edge38_Node000000_Node000001" class="edge">
<title>Node0&#45;&gt;Node1</title>
<g id="a_edge38_Node000000_Node000001"><a xlink:title=" ">
<path fill="none" stroke="#63b8ff" d="M61.15,-997.93C65.55,-1126.78 92.58,-1838.88 155,-1910 161.72,-1917.66 170.38,-1923.11 179.81,-1926.96"/>
<polygon fill="#63b8ff" stroke="#63b8ff" points="64.64,-997.48 60.81,-987.61 57.64,-997.72 64.64,-997.48"/>
</a>
</g>
</g>
<!-- Node2 -->
<g id="Node000002" class="node">
<title>Node2</title>
<g id="a_Node000002"><a xlink:href="classattendance_1_1migrations_1_10001__initial_1_1Migration.html" target="_top" xlink:title=" ">
<polygon fill="white" stroke="#666666" points="335,-1901 181,-1901 181,-1871 335,-1871 335,-1901"/>
<text text-anchor="start" x="189" y="-1889" font-family="Helvetica,sans-Serif" font-size="10.00">attendance.migrations.0001</text>
<text text-anchor="middle" x="258" y="-1878" font-family="Helvetica,sans-Serif" font-size="10.00">_initial.Migration</text>
</a>
</g>
</g>
<!-- Node0&#45;&gt;Node2 -->
<g id="edge39_Node000000_Node000002" class="edge">
<title>Node0&#45;&gt;Node2</title>
<g id="a_edge39_Node000000_Node000002"><a xlink:title=" ">
<path fill="none" stroke="#63b8ff" d="M61.26,-997.68C66.22,-1121.95 95.7,-1794.81 155,-1862 161.98,-1869.91 171.04,-1875.47 180.86,-1879.33"/>
<polygon fill="#63b8ff" stroke="#63b8ff" points="64.76,-997.53 60.86,-987.68 57.76,-997.81 64.76,-997.53"/>
</a>
</g>
</g>
<!-- Node3 -->
<g id="Node000003" class="node">
<title>Node3</title>
<g id="a_Node000003"><a xlink:href="classattendance_1_1migrations_1_10002__alter__mainattendance__attendance__type_1_1Migration.html" target="_top" xlink:title=" ">
<polygon fill="white" stroke="#666666" points="352.5,-1852.5 163.5,-1852.5 163.5,-1811.5 352.5,-1811.5 352.5,-1852.5"/>
<text text-anchor="start" x="171.5" y="-1840.5" font-family="Helvetica,sans-Serif" font-size="10.00">attendance.migrations.0002</text>
<text text-anchor="start" x="171.5" y="-1829.5" font-family="Helvetica,sans-Serif" font-size="10.00">_alter_mainattendance_attendance</text>
<text text-anchor="middle" x="258" y="-1818.5" font-family="Helvetica,sans-Serif" font-size="10.00">_type.Migration</text>
</a>
</g>
</g>
<!-- Node0&#45;&gt;Node3 -->
<g id="edge40_Node000000_Node000003" class="edge">
<title>Node0&#45;&gt;Node3</title>
<g id="a_edge40_Node000000_Node000003"><a xlink:title=" ">
<path fill="none" stroke="#63b8ff" d="M61.46,-997.79C67.45,-1117.27 101.05,-1739.45 155,-1803 157.62,-1806.09 160.55,-1808.86 163.7,-1811.34"/>
<polygon fill="#63b8ff" stroke="#63b8ff" points="64.95,-997.38 60.96,-987.56 57.96,-997.72 64.95,-997.38"/>
</a>
</g>
</g>
<!-- Node4 -->
<g id="Node000004" class="node">
<title>Node4</title>
<g id="a_Node000004"><a xlink:href="classattendance_1_1migrations_1_10003__alter__mainattendance__date__of__producing__and__more_1_1Migration.html" target="_top" xlink:title=" ">
<polygon fill="white" stroke="#666666" points="352,-1793.5 164,-1793.5 164,-1752.5 352,-1752.5 352,-1793.5"/>
<text text-anchor="start" x="172" y="-1781.5" font-family="Helvetica,sans-Serif" font-size="10.00">attendance.migrations.0003</text>
<text text-anchor="start" x="172" y="-1770.5" font-family="Helvetica,sans-Serif" font-size="10.00">_alter_mainattendance_date</text>
<text text-anchor="middle" x="258" y="-1759.5" font-family="Helvetica,sans-Serif" font-size="10.00">_of_producing_and_more.Migration</text>
</a>
</g>
</g>
<!-- Node0&#45;&gt;Node4 -->
<g id="edge41_Node000000_Node000004" class="edge">
<title>Node0&#45;&gt;Node4</title>
<g id="a_edge41_Node000000_Node000004"><a xlink:title=" ">
<path fill="none" stroke="#63b8ff" d="M60.1,-997.66C58.33,-1105.79 55.13,-1627.4 155,-1744 157.63,-1747.08 160.57,-1749.84 163.73,-1752.32"/>
<polygon fill="#63b8ff" stroke="#63b8ff" points="63.61,-997.59 60.29,-987.53 56.61,-997.46 63.61,-997.59"/>
</a>
</g>
</g>
<!-- Node5 -->
<g id="Node000005" class="node">
<title>Node5</title>
<g id="a_Node000005"><a xlink:href="classattendance_1_1migrations_1_10004__alter__studentattendance__date__of__marking_1_1Migration.html" target="_top" xlink:title=" ">
<polygon fill="white" stroke="#666666" points="335,-1734.5 181,-1734.5 181,-1693.5 335,-1693.5 335,-1734.5"/>
<text text-anchor="start" x="189" y="-1722.5" font-family="Helvetica,sans-Serif" font-size="10.00">attendance.migrations.0004</text>
<text text-anchor="start" x="189" y="-1711.5" font-family="Helvetica,sans-Serif" font-size="10.00">_alter_studentattendance</text>
<text text-anchor="middle" x="258" y="-1700.5" font-family="Helvetica,sans-Serif" font-size="10.00">_date_of_marking.Migration</text>
</a>
</g>
</g>
<!-- Node0&#45;&gt;Node5 -->
<g id="edge42_Node000000_Node000005" class="edge">
<title>Node0&#45;&gt;Node5</title>
<g id="a_edge42_Node000000_Node000005"><a xlink:title=" ">
<path fill="none" stroke="#63b8ff" d="M60.33,-998.07C59.84,-1102 62.74,-1578.38 155,-1685 161.99,-1693.07 171.04,-1698.98 180.87,-1703.28"/>
<polygon fill="#63b8ff" stroke="#63b8ff" points="63.83,-997.78 60.39,-987.75 56.83,-997.73 63.83,-997.78"/>
</a>
</g>
</g>
<!-- Node6 -->
<g id="Node000006" class="node">
<title>Node6</title>
<g id="a_Node000006"><a xlink:href="classattendance_1_1migrations_1_10005__alter__hodattendance__date__of__marking__and__more_1_1Migration.html" target="_top" xlink:title=" ">
<polygon fill="white" stroke="#666666" points="348.5,-1675.5 167.5,-1675.5 167.5,-1634.5 348.5,-1634.5 348.5,-1675.5"/>
<text text-anchor="start" x="175.5" y="-1663.5" font-family="Helvetica,sans-Serif" font-size="10.00">attendance.migrations.0005</text>
<text text-anchor="start" x="175.5" y="-1652.5" font-family="Helvetica,sans-Serif" font-size="10.00">_alter_hodattendance_date</text>
<text text-anchor="middle" x="258" y="-1641.5" font-family="Helvetica,sans-Serif" font-size="10.00">_of_marking_and_more.Migration</text>
</a>
</g>
</g>
<!-- Node0&#45;&gt;Node6 -->
<g id="edge43_Node000000_Node000006" class="edge">
<title>Node0&#45;&gt;Node6</title>
<g id="a_edge43_Node000000_Node000006"><a xlink:title=" ">
<path fill="none" stroke="#63b8ff" d="M60.62,-997.89C61.6,-1096.03 70.71,-1527.9 155,-1625 158.63,-1629.18 162.81,-1632.8 167.36,-1635.92"/>
<polygon fill="#63b8ff" stroke="#63b8ff" points="64.12,-997.81 60.54,-987.84 57.12,-997.87 64.12,-997.81"/>
</a>
</g>
</g>
<!-- Node7 -->
<g id="Node000007" class="node">
<title>Node7</title>
<g id="a_Node000007"><a xlink:href="classattendance_1_1migrations_1_10006__alter__hodattendance__table__alter__mainattendance__table__and__more_1_1Migration.html" target="_top" xlink:title=" ">
<polygon fill="white" stroke="#666666" points="337.5,-1616 178.5,-1616 178.5,-1564 337.5,-1564 337.5,-1616"/>
<text text-anchor="start" x="186.5" y="-1604" font-family="Helvetica,sans-Serif" font-size="10.00">attendance.migrations.0006</text>
<text text-anchor="start" x="186.5" y="-1593" font-family="Helvetica,sans-Serif" font-size="10.00">_alter_hodattendance_table</text>
<text text-anchor="start" x="186.5" y="-1582" font-family="Helvetica,sans-Serif" font-size="10.00">_alter_mainattendance_table</text>
<text text-anchor="middle" x="258" y="-1571" font-family="Helvetica,sans-Serif" font-size="10.00">_and_more.Migration</text>
</a>
</g>
</g>
<!-- Node0&#45;&gt;Node7 -->
<g id="edge44_Node000000_Node000007" class="edge">
<title>Node0&#45;&gt;Node7</title>
<g id="a_edge44_Node000000_Node000007"><a xlink:title=" ">
<path fill="none" stroke="#63b8ff" d="M61.09,-997.64C64.17,-1088.55 81.36,-1467.8 155,-1555 161.4,-1562.58 169.53,-1568.52 178.38,-1573.18"/>
<polygon fill="#63b8ff" stroke="#63b8ff" points="64.58,-997.48 60.76,-987.6 57.59,-997.71 64.58,-997.48"/>
</a>
</g>
</g>
<!-- Node8 -->
<g id="Node000008" class="node">
<title>Node8</title>
<g id="a_Node000008"><a xlink:href="classattendance_1_1migrations_1_10007__alter__hodattendance__table__alter__mainattendance__table__and__more_1_1Migration.html" target="_top" xlink:title=" ">
<polygon fill="white" stroke="#666666" points="337.5,-1546 178.5,-1546 178.5,-1494 337.5,-1494 337.5,-1546"/>
<text text-anchor="start" x="186.5" y="-1534" font-family="Helvetica,sans-Serif" font-size="10.00">attendance.migrations.0007</text>
<text text-anchor="start" x="186.5" y="-1523" font-family="Helvetica,sans-Serif" font-size="10.00">_alter_hodattendance_table</text>
<text text-anchor="start" x="186.5" y="-1512" font-family="Helvetica,sans-Serif" font-size="10.00">_alter_mainattendance_table</text>
<text text-anchor="middle" x="258" y="-1501" font-family="Helvetica,sans-Serif" font-size="10.00">_and_more.Migration</text>
</a>
</g>
</g>
<!-- Node0&#45;&gt;Node8 -->
<g id="edge45_Node000000_Node000008" class="edge">
<title>Node0&#45;&gt;Node8</title>
<g id="a_edge45_Node000000_Node000008"><a xlink:title=" ">
<path fill="none" stroke="#63b8ff" d="M61.58,-997.86C66.57,-1082.18 89.89,-1409.6 155,-1485 161.42,-1492.44 169.5,-1498.3 178.29,-1502.92"/>
<polygon fill="#63b8ff" stroke="#63b8ff" points="65.06,-997.41 61,-987.63 58.08,-997.81 65.06,-997.41"/>
</a>
</g>
</g>
<!-- Node9 -->
<g id="Node000009" class="node">
<title>Node9</title>
<g id="a_Node000009"><a xlink:href="classattendance_1_1migrations_1_10008__mainattendance__classroom_1_1Migration.html" target="_top" xlink:title=" ">
<polygon fill="white" stroke="#666666" points="361,-1476 155,-1476 155,-1446 361,-1446 361,-1476"/>
<text text-anchor="start" x="163" y="-1464" font-family="Helvetica,sans-Serif" font-size="10.00">attendance.migrations.0008</text>
<text text-anchor="middle" x="258" y="-1453" font-family="Helvetica,sans-Serif" font-size="10.00">_mainattendance_classroom.Migration</text>
</a>
</g>
</g>
<!-- Node0&#45;&gt;Node9 -->
<g id="edge46_Node000000_Node000009" class="edge">
<title>Node0&#45;&gt;Node9</title>
<g id="a_edge46_Node000000_Node000009"><a xlink:title=" ">
<path fill="none" stroke="#63b8ff" d="M61.79,-997.64C67.41,-1076.97 92.29,-1372.51 155,-1437 158.3,-1440.39 161.98,-1443.34 165.93,-1445.9"/>
<polygon fill="#63b8ff" stroke="#63b8ff" points="65.28,-997.3 61.1,-987.56 58.29,-997.78 65.28,-997.3"/>
</a>
</g>
</g>
<!-- Node10 -->
<g id="Node000010" class="node">
<title>Node10</title>
<g id="a_Node000010"><a xlink:href="classattendance_1_1migrations_1_10009__alter__studentattendance__student__and__more_1_1Migration.html" target="_top" xlink:title=" ">
<polygon fill="white" stroke="#666666" points="339,-1427.5 177,-1427.5 177,-1386.5 339,-1386.5 339,-1427.5"/>
<text text-anchor="start" x="185" y="-1415.5" font-family="Helvetica,sans-Serif" font-size="10.00">attendance.migrations.0009</text>
<text text-anchor="start" x="185" y="-1404.5" font-family="Helvetica,sans-Serif" font-size="10.00">_alter_studentattendance</text>
<text text-anchor="middle" x="258" y="-1393.5" font-family="Helvetica,sans-Serif" font-size="10.00">_student_and_more.Migration</text>
</a>
</g>
</g>
<!-- Node0&#45;&gt;Node10 -->
<g id="edge47_Node000000_Node000010" class="edge">
<title>Node0&#45;&gt;Node10</title>
<g id="a_edge47_Node000000_Node000010"><a xlink:title=" ">
<path fill="none" stroke="#63b8ff" d="M62.56,-997.72C70.53,-1070.21 101.54,-1320.6 155,-1377 161.22,-1383.56 168.8,-1388.71 176.98,-1392.75"/>
<polygon fill="#63b8ff" stroke="#63b8ff" points="66.03,-997.24 61.48,-987.67 59.07,-997.99 66.03,-997.24"/>
</a>
</g>
</g>
<!-- Node11 -->
<g id="Node000011" class="node">
<title>Node11</title>
<g id="a_Node000011"><a xlink:href="classchat_1_1migrations_1_10001__initial_1_1Migration.html" target="_top" xlink:title=" ">
<polygon fill="white" stroke="#666666" points="318,-1368 198,-1368 198,-1338 318,-1338 318,-1368"/>
<text text-anchor="start" x="206" y="-1356" font-family="Helvetica,sans-Serif" font-size="10.00">chat.migrations.0001</text>
<text text-anchor="middle" x="258" y="-1345" font-family="Helvetica,sans-Serif" font-size="10.00">_initial.Migration</text>
</a>
</g>
</g>
<!-- Node0&#45;&gt;Node11 -->
<g id="edge48_Node000000_Node000011" class="edge">
<title>Node0&#45;&gt;Node11</title>
<g id="a_edge48_Node000000_Node000011"><a xlink:title=" ">
<path fill="none" stroke="#63b8ff" d="M63.11,-997.55C72.42,-1064.29 106.04,-1281.58 155,-1329 166.56,-1340.2 182.32,-1346.53 197.99,-1350.01"/>
<polygon fill="#63b8ff" stroke="#63b8ff" points="66.57,-996.98 61.74,-987.54 59.63,-997.93 66.57,-996.98"/>
</a>
</g>
</g>
<!-- Node12 -->
<g id="Node000012" class="node">
<title>Node12</title>
<g id="a_Node000012"><a xlink:href="classchat_1_1migrations_1_10002__alter__room__name_1_1Migration.html" target="_top" xlink:title=" ">
<polygon fill="white" stroke="#666666" points="337,-1320 179,-1320 179,-1290 337,-1290 337,-1320"/>
<text text-anchor="start" x="187" y="-1308" font-family="Helvetica,sans-Serif" font-size="10.00">chat.migrations.0002</text>
<text text-anchor="middle" x="258" y="-1297" font-family="Helvetica,sans-Serif" font-size="10.00">_alter_room_name.Migration</text>
</a>
</g>
</g>
<!-- Node0&#45;&gt;Node12 -->
<g id="edge49_Node000000_Node000012" class="edge">
<title>Node0&#45;&gt;Node12</title>
<g id="a_edge49_Node000000_Node000012"><a xlink:title=" ">
<path fill="none" stroke="#63b8ff" d="M60.38,-997.91C61.18,-1052.04 71.22,-1202.98 155,-1281 161.86,-1287.38 170.08,-1292.17 178.85,-1295.75"/>
<polygon fill="#63b8ff" stroke="#63b8ff" points="63.88,-997.61 60.32,-987.63 56.88,-997.65 63.88,-997.61"/>
</a>
</g>
</g>
<!-- Node13 -->
<g id="Node000013" class="node">
<title>Node13</title>
<g id="a_Node000013"><a xlink:href="classchat_1_1migrations_1_10003__room__created__by__alter__room__online_1_1Migration.html" target="_top" xlink:title=" ">
<polygon fill="white" stroke="#666666" points="325,-1271.5 191,-1271.5 191,-1230.5 325,-1230.5 325,-1271.5"/>
<text text-anchor="start" x="199" y="-1259.5" font-family="Helvetica,sans-Serif" font-size="10.00">chat.migrations.0003</text>
<text text-anchor="start" x="199" y="-1248.5" font-family="Helvetica,sans-Serif" font-size="10.00">_room_created_by_alter</text>
<text text-anchor="middle" x="258" y="-1237.5" font-family="Helvetica,sans-Serif" font-size="10.00">_room_online.Migration</text>
</a>
</g>
</g>
<!-- Node0&#45;&gt;Node13 -->
<g id="edge50_Node000000_Node000013" class="edge">
<title>Node0&#45;&gt;Node13</title>
<g id="a_edge50_Node000000_Node000013"><a xlink:title=" ">
<path fill="none" stroke="#63b8ff" d="M62.36,-997.69C67.78,-1043.73 87.7,-1159.18 155,-1221 165.06,-1230.24 177.83,-1236.65 190.89,-1241.08"/>
<polygon fill="#63b8ff" stroke="#63b8ff" points="65.82,-997.13 61.28,-987.56 58.86,-997.87 65.82,-997.13"/>
</a>
</g>
</g>
<!-- Node14 -->
<g id="Node000014" class="node">
<title>Node14</title>
<g id="a_Node000014"><a xlink:href="classchat_1_1migrations_1_10004__room__type_1_1Migration.html" target="_top" xlink:title=" ">
<polygon fill="white" stroke="#666666" points="320,-1212 196,-1212 196,-1182 320,-1182 320,-1212"/>
<text text-anchor="start" x="204" y="-1200" font-family="Helvetica,sans-Serif" font-size="10.00">chat.migrations.0004</text>
<text text-anchor="middle" x="258" y="-1189" font-family="Helvetica,sans-Serif" font-size="10.00">_room_type.Migration</text>
</a>
</g>
</g>
<!-- Node0&#45;&gt;Node14 -->
<g id="edge51_Node000000_Node000014" class="edge">
<title>Node0&#45;&gt;Node14</title>
<g id="a_edge51_Node000000_Node000014"><a xlink:title=" ">
<path fill="none" stroke="#63b8ff" d="M64.14,-997.46C72.6,-1036.99 97.42,-1126.88 155,-1173 166.64,-1182.33 181.29,-1188.14 195.83,-1191.73"/>
<polygon fill="#63b8ff" stroke="#63b8ff" points="67.55,-996.62 62.14,-987.51 60.68,-998.01 67.55,-996.62"/>
</a>
</g>
</g>
<!-- Node15 -->
<g id="Node000015" class="node">
<title>Node15</title>
<g id="a_Node000015"><a xlink:href="classclassroom_1_1migrations_1_10001__initial_1_1Migration.html" target="_top" xlink:title=" ">
<polygon fill="white" stroke="#666666" points="332.5,-1164 183.5,-1164 183.5,-1134 332.5,-1134 332.5,-1164"/>
<text text-anchor="start" x="191.5" y="-1152" font-family="Helvetica,sans-Serif" font-size="10.00">classroom.migrations.0001</text>
<text text-anchor="middle" x="258" y="-1141" font-family="Helvetica,sans-Serif" font-size="10.00">_initial.Migration</text>
</a>
</g>
</g>
<!-- Node0&#45;&gt;Node15 -->
<g id="edge52_Node000000_Node000015" class="edge">
<title>Node0&#45;&gt;Node15</title>
<g id="a_edge52_Node000000_Node000015"><a xlink:title=" ">
<path fill="none" stroke="#63b8ff" d="M67.32,-997.21C79.64,-1029 108.7,-1092.28 155,-1125 163.47,-1130.99 173.22,-1135.49 183.27,-1138.89"/>
<polygon fill="#63b8ff" stroke="#63b8ff" points="70.56,-995.87 63.79,-987.72 64,-998.32 70.56,-995.87"/>
</a>
</g>
</g>
<!-- Node16 -->
<g id="Node000016" class="node">
<title>Node16</title>
<g id="a_Node000016"><a xlink:href="classclassroom_1_1migrations_1_10002__alter__classroom__name_1_1Migration.html" target="_top" xlink:title=" ">
<polygon fill="white" stroke="#666666" points="349,-1116 167,-1116 167,-1086 349,-1086 349,-1116"/>
<text text-anchor="start" x="175" y="-1104" font-family="Helvetica,sans-Serif" font-size="10.00">classroom.migrations.0002</text>
<text text-anchor="middle" x="258" y="-1093" font-family="Helvetica,sans-Serif" font-size="10.00">_alter_classroom_name.Migration</text>
</a>
</g>
</g>
<!-- Node0&#45;&gt;Node16 -->
<g id="edge53_Node000000_Node000016" class="edge">
<title>Node0&#45;&gt;Node16</title>
<g id="a_edge53_Node000000_Node000016"><a xlink:title=" ">
<path fill="none" stroke="#63b8ff" d="M72.57,-995.98C88.66,-1018.48 119.29,-1056.56 155,-1077 161.08,-1080.48 167.64,-1083.45 174.39,-1086"/>
<polygon fill="#63b8ff" stroke="#63b8ff" points="75.36,-993.85 66.77,-987.65 69.61,-997.85 75.36,-993.85"/>
</a>
</g>
</g>
<!-- Node17 -->
<g id="Node000017" class="node">
<title>Node17</title>
<g id="a_Node000017"><a xlink:href="classexam_1_1migrations_1_10001__initial_1_1Migration.html" target="_top" xlink:title=" ">
<polygon fill="white" stroke="#666666" points="321.5,-1068 194.5,-1068 194.5,-1038 321.5,-1038 321.5,-1068"/>
<text text-anchor="start" x="202.5" y="-1056" font-family="Helvetica,sans-Serif" font-size="10.00">exam.migrations.0001</text>
<text text-anchor="middle" x="258" y="-1045" font-family="Helvetica,sans-Serif" font-size="10.00">_initial.Migration</text>
</a>
</g>
</g>
<!-- Node0&#45;&gt;Node17 -->
<g id="edge54_Node000000_Node000017" class="edge">
<title>Node0&#45;&gt;Node17</title>
<g id="a_edge54_Node000000_Node000017"><a xlink:title=" ">
<path fill="none" stroke="#63b8ff" d="M83.97,-992.94C102.61,-1004.23 129.65,-1019.37 155,-1029 167.5,-1033.75 181.23,-1037.75 194.45,-1041.04"/>
<polygon fill="#63b8ff" stroke="#63b8ff" points="85.65,-989.86 75.3,-987.59 81.98,-995.82 85.65,-989.86"/>
</a>
</g>
</g>
<!-- Node18 -->
<g id="Node000018" class="node">
<title>Node18</title>
<g id="a_Node000018"><a xlink:href="classexchange_1_1migrations_1_10001__initial_1_1Migration.html" target="_top" xlink:title=" ">
<polygon fill="white" stroke="#666666" points="331,-1020 185,-1020 185,-990 331,-990 331,-1020"/>
<text text-anchor="start" x="193" y="-1008" font-family="Helvetica,sans-Serif" font-size="10.00">exchange.migrations.0001</text>
<text text-anchor="middle" x="258" y="-997" font-family="Helvetica,sans-Serif" font-size="10.00">_initial.Migration</text>
</a>
</g>
</g>
<!-- Node0&#45;&gt;Node18 -->
<g id="edge55_Node000000_Node000018" class="edge">
<title>Node0&#45;&gt;Node18</title>
<g id="a_edge55_Node000000_Node000018"><a xlink:title=" ">
<path fill="none" stroke="#63b8ff" d="M129.27,-987.45C147.21,-989.91 166.59,-992.58 184.7,-995.07"/>
<polygon fill="#63b8ff" stroke="#63b8ff" points="129.57,-983.96 119.19,-986.06 128.62,-990.89 129.57,-983.96"/>
</a>
</g>
</g>
<!-- Node19 -->
<g id="Node000019" class="node">
<title>Node19</title>
<g id="a_Node000019"><a xlink:href="classexchange_1_1migrations_1_10002__rename__questoin__id__comment__question__and__more_1_1Migration.html" target="_top" xlink:title=" ">
<polygon fill="white" stroke="#666666" points="344.5,-971.5 171.5,-971.5 171.5,-930.5 344.5,-930.5 344.5,-971.5"/>
<text text-anchor="start" x="179.5" y="-959.5" font-family="Helvetica,sans-Serif" font-size="10.00">exchange.migrations.0002</text>
<text text-anchor="start" x="179.5" y="-948.5" font-family="Helvetica,sans-Serif" font-size="10.00">_rename_questoin_id_comment</text>
<text text-anchor="middle" x="258" y="-937.5" font-family="Helvetica,sans-Serif" font-size="10.00">_question_and_more.Migration</text>
</a>
</g>
</g>
<!-- Node0&#45;&gt;Node19 -->
<g id="edge56_Node000000_Node000019" class="edge">
<title>Node0&#45;&gt;Node19</title>
<g id="a_edge56_Node000000_Node000019"><a xlink:title=" ">
<path fill="none" stroke="#63b8ff" d="M129.38,-968.54C142.94,-966.67 157.33,-964.7 171.36,-962.77"/>
<polygon fill="#63b8ff" stroke="#63b8ff" points="128.62,-965.11 119.19,-969.94 129.57,-972.04 128.62,-965.11"/>
</a>
</g>
</g>
<!-- Node20 -->
<g id="Node000020" class="node">
<title>Node20</title>
<g id="a_Node000020"><a xlink:href="classexchange_1_1migrations_1_10003__alter__question__tag_1_1Migration.html" target="_top" xlink:title=" ">
<polygon fill="white" stroke="#666666" points="339,-912 177,-912 177,-882 339,-882 339,-912"/>
<text text-anchor="start" x="185" y="-900" font-family="Helvetica,sans-Serif" font-size="10.00">exchange.migrations.0003</text>
<text text-anchor="middle" x="258" y="-889" font-family="Helvetica,sans-Serif" font-size="10.00">_alter_question_tag.Migration</text>
</a>
</g>
</g>
<!-- Node0&#45;&gt;Node20 -->
<g id="edge57_Node000000_Node000020" class="edge">
<title>Node0&#45;&gt;Node20</title>
<g id="a_edge57_Node000000_Node000020"><a xlink:title=" ">
<path fill="none" stroke="#63b8ff" d="M82.24,-962.59C100.8,-950.07 128.6,-932.78 155,-922 164.28,-918.21 174.29,-914.89 184.27,-912.02"/>
<polygon fill="#63b8ff" stroke="#63b8ff" points="80.18,-959.76 73.92,-968.3 84.15,-965.53 80.18,-959.76"/>
</a>
</g>
</g>
<!-- Node21 -->
<g id="Node000021" class="node">
<title>Node21</title>
<g id="a_Node000021"><a xlink:href="classgrade_1_1migrations_1_10001__initial_1_1Migration.html" target="_top" xlink:title=" ">
<polygon fill="white" stroke="#666666" points="321.5,-864 194.5,-864 194.5,-834 321.5,-834 321.5,-864"/>
<text text-anchor="start" x="202.5" y="-852" font-family="Helvetica,sans-Serif" font-size="10.00">grade.migrations.0001</text>
<text text-anchor="middle" x="258" y="-841" font-family="Helvetica,sans-Serif" font-size="10.00">_initial.Migration</text>
</a>
</g>
</g>
<!-- Node0&#45;&gt;Node21 -->
<g id="edge58_Node000000_Node000021" class="edge">
<title>Node0&#45;&gt;Node21</title>
<g id="a_edge58_Node000000_Node000021"><a xlink:title=" ">
<path fill="none" stroke="#63b8ff" d="M71.62,-959.96C87.23,-936.22 117.93,-894.95 155,-873 166.9,-865.96 180.72,-860.98 194.28,-857.46"/>
<polygon fill="#63b8ff" stroke="#63b8ff" points="68.66,-958.09 66.22,-968.4 74.56,-961.86 68.66,-958.09"/>
</a>
</g>
</g>
<!-- Node22 -->
<g id="Node000022" class="node">
<title>Node22</title>
<g id="a_Node000022"><a xlink:href="classgrade_1_1migrations_1_10002__alter__mark__student__alter__mark__teacher_1_1Migration.html" target="_top" xlink:title=" ">
<polygon fill="white" stroke="#666666" points="330.5,-815.5 185.5,-815.5 185.5,-774.5 330.5,-774.5 330.5,-815.5"/>
<text text-anchor="start" x="193.5" y="-803.5" font-family="Helvetica,sans-Serif" font-size="10.00">grade.migrations.0002</text>
<text text-anchor="start" x="193.5" y="-792.5" font-family="Helvetica,sans-Serif" font-size="10.00">_alter_mark_student_alter</text>
<text text-anchor="middle" x="258" y="-781.5" font-family="Helvetica,sans-Serif" font-size="10.00">_mark_teacher.Migration</text>
</a>
</g>
</g>
<!-- Node0&#45;&gt;Node22 -->
<g id="edge59_Node000000_Node000022" class="edge">
<title>Node0&#45;&gt;Node22</title>
<g id="a_edge59_Node000000_Node000022"><a xlink:title=" ">
<path fill="none" stroke="#63b8ff" d="M67.13,-958.77C79.32,-926.27 108.39,-860.56 155,-825 164.02,-818.11 174.6,-812.81 185.46,-808.71"/>
<polygon fill="#63b8ff" stroke="#63b8ff" points="63.75,-957.83 63.64,-968.42 70.33,-960.21 63.75,-957.83"/>
</a>
</g>
</g>
<!-- Node23 -->
<g id="Node000023" class="node">
<title>Node23</title>
<g id="a_Node000023"><a xlink:href="classgrade_1_1migrations_1_10003__alter__mark__student__alter__mark__teacher_1_1Migration.html" target="_top" xlink:title=" ">
<polygon fill="white" stroke="#666666" points="330.5,-756.5 185.5,-756.5 185.5,-715.5 330.5,-715.5 330.5,-756.5"/>
<text text-anchor="start" x="193.5" y="-744.5" font-family="Helvetica,sans-Serif" font-size="10.00">grade.migrations.0003</text>
<text text-anchor="start" x="193.5" y="-733.5" font-family="Helvetica,sans-Serif" font-size="10.00">_alter_mark_student_alter</text>
<text text-anchor="middle" x="258" y="-722.5" font-family="Helvetica,sans-Serif" font-size="10.00">_mark_teacher.Migration</text>
</a>
</g>
</g>
<!-- Node0&#45;&gt;Node23 -->
<g id="edge60_Node000000_Node000023" class="edge">
<title>Node0&#45;&gt;Node23</title>
<g id="a_edge60_Node000000_Node000023"><a xlink:title=" ">
<path fill="none" stroke="#63b8ff" d="M63.62,-958.29C71.29,-916.49 94.99,-818.5 155,-766 163.75,-758.34 174.37,-752.64 185.41,-748.39"/>
<polygon fill="#63b8ff" stroke="#63b8ff" points="60.15,-957.84 61.9,-968.29 67.05,-959.03 60.15,-957.84"/>
</a>
</g>
</g>
<!-- Node24 -->
<g id="Node000024" class="node">
<title>Node24</title>
<g id="a_Node000024"><a xlink:href="classgrade_1_1migrations_1_10004__alter__mark__student_1_1Migration.html" target="_top" xlink:title=" ">
<polygon fill="white" stroke="#666666" points="341.5,-697 174.5,-697 174.5,-667 341.5,-667 341.5,-697"/>
<text text-anchor="start" x="182.5" y="-685" font-family="Helvetica,sans-Serif" font-size="10.00">grade.migrations.0004</text>
<text text-anchor="middle" x="258" y="-674" font-family="Helvetica,sans-Serif" font-size="10.00">_alter_mark_student.Migration</text>
</a>
</g>
</g>
<!-- Node0&#45;&gt;Node24 -->
<g id="edge61_Node000000_Node000024" class="edge">
<title>Node0&#45;&gt;Node24</title>
<g id="a_edge61_Node000000_Node000024"><a xlink:title=" ">
<path fill="none" stroke="#63b8ff" d="M61.26,-958.22C64.28,-908.19 79.41,-775.72 155,-707 160.73,-701.79 167.37,-697.62 174.46,-694.29"/>
<polygon fill="#63b8ff" stroke="#63b8ff" points="57.75,-958.18 60.75,-968.34 64.75,-958.53 57.75,-958.18"/>
</a>
</g>
</g>
<!-- Node25 -->
<g id="Node000025" class="node">
<title>Node25</title>
<g id="a_Node000025"><a xlink:href="classuser_1_1migrations_1_10001__initial_1_1Migration.html" target="_top" xlink:title=" ">
<polygon fill="white" stroke="#666666" points="317.5,-649 198.5,-649 198.5,-619 317.5,-619 317.5,-649"/>
<text text-anchor="start" x="206.5" y="-637" font-family="Helvetica,sans-Serif" font-size="10.00">user.migrations.0001</text>
<text text-anchor="middle" x="258" y="-626" font-family="Helvetica,sans-Serif" font-size="10.00">_initial.Migration</text>
</a>
</g>
</g>
<!-- Node0&#45;&gt;Node25 -->
<g id="edge62_Node000000_Node000025" class="edge">
<title>Node0&#45;&gt;Node25</title>
<g id="a_edge62_Node000000_Node000025"><a xlink:title=" ">
<path fill="none" stroke="#63b8ff" d="M59.99,-958.11C59.7,-902.02 66.97,-741.23 155,-658 166.77,-646.88 182.68,-640.59 198.43,-637.11"/>
<polygon fill="#63b8ff" stroke="#63b8ff" points="56.5,-958.48 60.14,-968.43 63.49,-958.38 56.5,-958.48"/>
</a>
</g>
</g>
<!-- Node26 -->
<g id="Node000026" class="node">
<title>Node26</title>
<g id="a_Node000026"><a xlink:href="classuser_1_1migrations_1_10002__alter__account__user__type__hod__student__teacher_1_1Migration.html" target="_top" xlink:title=" ">
<polygon fill="white" stroke="#666666" points="344.5,-600.5 171.5,-600.5 171.5,-559.5 344.5,-559.5 344.5,-600.5"/>
<text text-anchor="start" x="179.5" y="-588.5" font-family="Helvetica,sans-Serif" font-size="10.00">user.migrations.0002</text>
<text text-anchor="start" x="179.5" y="-577.5" font-family="Helvetica,sans-Serif" font-size="10.00">_alter_account_user_type</text>
<text text-anchor="middle" x="258" y="-566.5" font-family="Helvetica,sans-Serif" font-size="10.00">_hod_student_teacher.Migration</text>
</a>
</g>
</g>
<!-- Node0&#45;&gt;Node26 -->
<g id="edge63_Node000000_Node000026" class="edge">
<title>Node0&#45;&gt;Node26</title>
<g id="a_edge63_Node000000_Node000026"><a xlink:title=" ">
<path fill="none" stroke="#63b8ff" d="M63.02,-958.07C72.11,-889 105.4,-661.35 155,-610 159.74,-605.09 165.25,-600.97 171.19,-597.52"/>
<polygon fill="#63b8ff" stroke="#63b8ff" points="59.49,-958.03 61.68,-968.4 66.43,-958.93 59.49,-958.03"/>
</a>
</g>
</g>
<!-- Node27 -->
<g id="Node000027" class="node">
<title>Node27</title>
<g id="a_Node000027"><a xlink:href="classuser_1_1migrations_1_10003__alter__account__is__staff_1_1Migration.html" target="_top" xlink:title=" ">
<polygon fill="white" stroke="#666666" points="347,-541 169,-541 169,-511 347,-511 347,-541"/>
<text text-anchor="start" x="177" y="-529" font-family="Helvetica,sans-Serif" font-size="10.00">user.migrations.0003</text>
<text text-anchor="middle" x="258" y="-518" font-family="Helvetica,sans-Serif" font-size="10.00">_alter_account_is_staff.Migration</text>
</a>
</g>
</g>
<!-- Node0&#45;&gt;Node27 -->
<g id="edge64_Node000000_Node000027" class="edge">
<title>Node0&#45;&gt;Node27</title>
<g id="a_edge64_Node000000_Node000027"><a xlink:title=" ">
<path fill="none" stroke="#63b8ff" d="M62.14,-958.3C68.86,-882.45 96.69,-610.64 155,-551 159.08,-546.83 163.73,-543.31 168.75,-540.34"/>
<polygon fill="#63b8ff" stroke="#63b8ff" points="58.65,-958.11 61.27,-968.37 65.62,-958.71 58.65,-958.11"/>
</a>
</g>
</g>
<!-- Node28 -->
<g id="Node000028" class="node">
<title>Node28</title>
<g id="a_Node000028"><a xlink:href="classuser_1_1migrations_1_10004__subject__alter__hod__options__alter__teacher__options__and__more_1_1Migration.html" target="_top" xlink:title=" ">
<polygon fill="white" stroke="#666666" points="333.5,-493 182.5,-493 182.5,-441 333.5,-441 333.5,-493"/>
<text text-anchor="start" x="190.5" y="-481" font-family="Helvetica,sans-Serif" font-size="10.00">user.migrations.0004</text>
<text text-anchor="start" x="190.5" y="-470" font-family="Helvetica,sans-Serif" font-size="10.00">_subject_alter_hod_options</text>
<text text-anchor="start" x="190.5" y="-459" font-family="Helvetica,sans-Serif" font-size="10.00">_alter_teacher_options_and</text>
<text text-anchor="middle" x="258" y="-448" font-family="Helvetica,sans-Serif" font-size="10.00">_more.Migration</text>
</a>
</g>
</g>
<!-- Node0&#45;&gt;Node28 -->
<g id="edge65_Node000000_Node000028" class="edge">
<title>Node0&#45;&gt;Node28</title>
<g id="a_edge65_Node000000_Node000028"><a xlink:title=" ">
<path fill="none" stroke="#63b8ff" d="M61.87,-957.81C67.79,-876.25 93.71,-572.15 155,-502 162.45,-493.47 172.08,-487.02 182.44,-482.14"/>
<polygon fill="#63b8ff" stroke="#63b8ff" points="58.35,-957.95 61.14,-968.17 65.34,-958.45 58.35,-957.95"/>
</a>
</g>
</g>
<!-- Node29 -->
<g id="Node000029" class="node">
<title>Node29</title>
<g id="a_Node000029"><a xlink:href="classuser_1_1migrations_1_10005__rename__subject__subject__name_1_1Migration.html" target="_top" xlink:title=" ">
<polygon fill="white" stroke="#666666" points="328,-422.5 188,-422.5 188,-381.5 328,-381.5 328,-422.5"/>
<text text-anchor="start" x="196" y="-410.5" font-family="Helvetica,sans-Serif" font-size="10.00">user.migrations.0005</text>
<text text-anchor="start" x="196" y="-399.5" font-family="Helvetica,sans-Serif" font-size="10.00">_rename_subject_subject</text>
<text text-anchor="middle" x="258" y="-388.5" font-family="Helvetica,sans-Serif" font-size="10.00">_name.Migration</text>
</a>
</g>
</g>
<!-- Node0&#45;&gt;Node29 -->
<g id="edge66_Node000000_Node000029" class="edge">
<title>Node0&#45;&gt;Node29</title>
<g id="a_edge66_Node000000_Node000029"><a xlink:title=" ">
<path fill="none" stroke="#63b8ff" d="M61.2,-958.24C64.73,-869.96 83.32,-512.41 155,-432 163.72,-422.22 175.45,-415.55 187.85,-411.03"/>
<polygon fill="#63b8ff" stroke="#63b8ff" points="57.7,-958.33 60.81,-968.46 64.69,-958.6 57.7,-958.33"/>
</a>
</g>
</g>
<!-- Node30 -->
<g id="Node000030" class="node">
<title>Node30</title>
<g id="a_Node000030"><a xlink:href="classuser_1_1migrations_1_10006__student__classroom__teacher__classroom_1_1Migration.html" target="_top" xlink:title=" ">
<polygon fill="white" stroke="#666666" points="336,-363.5 180,-363.5 180,-322.5 336,-322.5 336,-363.5"/>
<text text-anchor="start" x="188" y="-351.5" font-family="Helvetica,sans-Serif" font-size="10.00">user.migrations.0006</text>
<text text-anchor="start" x="188" y="-340.5" font-family="Helvetica,sans-Serif" font-size="10.00">_student_classroom_teacher</text>
<text text-anchor="middle" x="258" y="-329.5" font-family="Helvetica,sans-Serif" font-size="10.00">_classroom.Migration</text>
</a>
</g>
</g>
<!-- Node0&#45;&gt;Node30 -->
<g id="edge67_Node000000_Node000030" class="edge">
<title>Node0&#45;&gt;Node30</title>
<g id="a_edge67_Node000000_Node000030"><a xlink:title=" ">
<path fill="none" stroke="#63b8ff" d="M60.84,-958.23C62.84,-864.23 75.95,-463.16 155,-373 161.81,-365.23 170.53,-359.42 179.99,-355.09"/>
<polygon fill="#63b8ff" stroke="#63b8ff" points="57.34,-958.28 60.64,-968.35 64.33,-958.42 57.34,-958.28"/>
</a>
</g>
</g>
<!-- Node31 -->
<g id="Node000031" class="node">
<title>Node31</title>
<g id="a_Node000031"><a xlink:href="classuser_1_1migrations_1_10007__alter__student__classroom_1_1Migration.html" target="_top" xlink:title=" ">
<polygon fill="white" stroke="#666666" points="353.5,-304 162.5,-304 162.5,-274 353.5,-274 353.5,-304"/>
<text text-anchor="start" x="170.5" y="-292" font-family="Helvetica,sans-Serif" font-size="10.00">user.migrations.0007</text>
<text text-anchor="middle" x="258" y="-281" font-family="Helvetica,sans-Serif" font-size="10.00">_alter_student_classroom.Migration</text>
</a>
</g>
</g>
<!-- Node0&#45;&gt;Node31 -->
<g id="edge68_Node000000_Node000031" class="edge">
<title>Node0&#45;&gt;Node31</title>
<g id="a_edge68_Node000000_Node000031"><a xlink:title=" ">
<path fill="none" stroke="#63b8ff" d="M60.45,-958.15C60.6,-858.32 66.28,-411.96 155,-314 158.43,-310.22 162.32,-306.96 166.55,-304.16"/>
<polygon fill="#63b8ff" stroke="#63b8ff" points="56.95,-958.34 60.45,-968.34 63.95,-958.34 56.95,-958.34"/>
</a>
</g>
</g>
<!-- Node32 -->
<g id="Node000032" class="node">
<title>Node32</title>
<g id="a_Node000032"><a xlink:href="classuser_1_1migrations_1_10008__alter__student__classroom_1_1Migration.html" target="_top" xlink:title=" ">
<polygon fill="white" stroke="#666666" points="353.5,-256 162.5,-256 162.5,-226 353.5,-226 353.5,-256"/>
<text text-anchor="start" x="170.5" y="-244" font-family="Helvetica,sans-Serif" font-size="10.00">user.migrations.0008</text>
<text text-anchor="middle" x="258" y="-233" font-family="Helvetica,sans-Serif" font-size="10.00">_alter_student_classroom.Migration</text>
</a>
</g>
</g>
<!-- Node0&#45;&gt;Node32 -->
<g id="edge69_Node000000_Node000032" class="edge">
<title>Node0&#45;&gt;Node32</title>
<g id="a_edge69_Node000000_Node000032"><a xlink:title=" ">
<path fill="none" stroke="#63b8ff" d="M60.21,-958C59.14,-853.45 59.48,-370.51 155,-265 158.05,-261.63 161.48,-258.69 165.18,-256.12"/>
<polygon fill="#63b8ff" stroke="#63b8ff" points="56.72,-958.17 60.34,-968.12 63.72,-958.08 56.72,-958.17"/>
</a>
</g>
</g>
<!-- Node33 -->
<g id="Node000033" class="node">
<title>Node33</title>
<g id="a_Node000033"><a xlink:href="classuser_1_1migrations_1_10009__alter__account__user__type__parent__student__parent_1_1Migration.html" target="_top" xlink:title=" ">
<polygon fill="white" stroke="#666666" points="349,-207.5 167,-207.5 167,-166.5 349,-166.5 349,-207.5"/>
<text text-anchor="start" x="175" y="-195.5" font-family="Helvetica,sans-Serif" font-size="10.00">user.migrations.0009</text>
<text text-anchor="start" x="175" y="-184.5" font-family="Helvetica,sans-Serif" font-size="10.00">_alter_account_user_type</text>
<text text-anchor="middle" x="258" y="-173.5" font-family="Helvetica,sans-Serif" font-size="10.00">_parent_student_parent.Migration</text>
</a>
</g>
</g>
<!-- Node0&#45;&gt;Node33 -->
<g id="edge70_Node000000_Node000033" class="edge">
<title>Node0&#45;&gt;Node33</title>
<g id="a_edge70_Node000000_Node000033"><a xlink:title=" ">
<path fill="none" stroke="#63b8ff" d="M60.14,-958.14C58.56,-850.04 56.35,-333.14 155,-217 158.47,-212.92 162.45,-209.38 166.8,-206.31"/>
<polygon fill="#63b8ff" stroke="#63b8ff" points="56.64,-958.35 60.3,-968.29 63.64,-958.23 56.64,-958.35"/>
</a>
</g>
</g>
<!-- Node34 -->
<g id="Node000034" class="node">
<title>Node34</title>
<g id="a_Node000034"><a xlink:href="classuser_1_1migrations_1_10010__remove__parent__phone__number_1_1Migration.html" target="_top" xlink:title=" ">
<polygon fill="white" stroke="#666666" points="323.5,-148.5 192.5,-148.5 192.5,-107.5 323.5,-107.5 323.5,-148.5"/>
<text text-anchor="start" x="200.5" y="-136.5" font-family="Helvetica,sans-Serif" font-size="10.00">user.migrations.0010</text>
<text text-anchor="start" x="200.5" y="-125.5" font-family="Helvetica,sans-Serif" font-size="10.00">_remove_parent_phone</text>
<text text-anchor="middle" x="258" y="-114.5" font-family="Helvetica,sans-Serif" font-size="10.00">_number.Migration</text>
</a>
</g>
</g>
<!-- Node0&#45;&gt;Node34 -->
<g id="edge71_Node000000_Node000034" class="edge">
<title>Node0&#45;&gt;Node34</title>
<g id="a_edge71_Node000000_Node000034"><a xlink:title=" ">
<path fill="none" stroke="#63b8ff" d="M61.48,-958.34C67.56,-839.62 101.63,-221.39 155,-158 164.57,-146.63 178.21,-139.45 192.41,-134.94"/>
<polygon fill="#63b8ff" stroke="#63b8ff" points="57.98,-958.33 60.97,-968.5 64.97,-958.69 57.98,-958.33"/>
</a>
</g>
</g>
<!-- Node35 -->
<g id="Node000035" class="node">
<title>Node35</title>
<g id="a_Node000035"><a xlink:href="classuser_1_1migrations_1_10011__alter__student__parent__delete__parent_1_1Migration.html" target="_top" xlink:title=" ">
<polygon fill="white" stroke="#666666" points="327.5,-89.5 188.5,-89.5 188.5,-48.5 327.5,-48.5 327.5,-89.5"/>
<text text-anchor="start" x="196.5" y="-77.5" font-family="Helvetica,sans-Serif" font-size="10.00">user.migrations.0011</text>
<text text-anchor="start" x="196.5" y="-66.5" font-family="Helvetica,sans-Serif" font-size="10.00">_alter_student_parent</text>
<text text-anchor="middle" x="258" y="-55.5" font-family="Helvetica,sans-Serif" font-size="10.00">_delete_parent.Migration</text>
</a>
</g>
</g>
<!-- Node0&#45;&gt;Node35 -->
<g id="edge72_Node000000_Node000035" class="edge">
<title>Node0&#45;&gt;Node35</title>
<g id="a_edge72_Node000000_Node000035"><a xlink:title=" ">
<path fill="none" stroke="#63b8ff" d="M61.33,-958.1C66.68,-833.81 97.93,-167.32 155,-99 163.64,-88.66 175.64,-81.78 188.39,-77.22"/>
<polygon fill="#63b8ff" stroke="#63b8ff" points="57.82,-958.26 60.89,-968.4 64.81,-958.55 57.82,-958.26"/>
</a>
</g>
</g>
<!-- Node36 -->
<g id="Node000036" class="node">
<title>Node36</title>
<g id="a_Node000036"><a xlink:href="classuser_1_1migrations_1_10012__student__assignment_1_1Migration.html" target="_top" xlink:title=" ">
<polygon fill="white" stroke="#666666" points="343,-30 173,-30 173,0 343,0 343,-30"/>
<text text-anchor="start" x="181" y="-18" font-family="Helvetica,sans-Serif" font-size="10.00">user.migrations.0012</text>
<text text-anchor="middle" x="258" y="-7" font-family="Helvetica,sans-Serif" font-size="10.00">_student_assignment.Migration</text>
</a>
</g>
</g>
<!-- Node0&#45;&gt;Node36 -->
<g id="edge73_Node000000_Node000036" class="edge">
<title>Node0&#45;&gt;Node36</title>
<g id="a_edge73_Node000000_Node000036"><a xlink:title=" ">
<path fill="none" stroke="#63b8ff" d="M61.14,-958.34C65.49,-829.76 92.47,-111.95 155,-40 160.02,-34.22 166.14,-29.66 172.87,-26.08"/>
<polygon fill="#63b8ff" stroke="#63b8ff" points="57.64,-958.22 60.81,-968.33 64.64,-958.46 57.64,-958.22"/>
</a>
</g>
</g>
</g>
</svg>
