<?xml version="1.0" encoding="UTF-8" standalone="no"?>
<!DOCTYPE svg PUBLIC "-//W3C//DTD SVG 1.1//EN"
 "http://www.w3.org/Graphics/SVG/1.1/DTD/svg11.dtd">
<!-- Generated by graphviz version 2.43.0 (0)
 -->
<!-- Title: Graphical Class Hierarchy Pages: 1 -->
<svg width="401pt" height="943pt"
 viewBox="0.00 0.00 401.00 942.50" xmlns="http://www.w3.org/2000/svg" xmlns:xlink="http://www.w3.org/1999/xlink">
<g id="graph0" class="graph" transform="scale(1 1) rotate(0) translate(4 938.5)">
<title>Graphical Class Hierarchy</title>
<!-- Node0 -->
<g id="Node000000" class="node">
<title>Node0</title>
<g id="a_Node000000"><a xlink:title=" ">
<polygon fill="#e0e0e0" stroke="#999999" points="157,-449 0,-449 0,-430 157,-430 157,-449"/>
<text text-anchor="middle" x="78.5" y="-437" font-family="Helvetica,sans-Serif" font-size="10.00">permissions.BasePermission</text>
</a>
</g>
</g>
<!-- Node1 -->
<g id="Node000001" class="node">
<title>Node1</title>
<g id="a_Node000001"><a xlink:href="classattendance_1_1permission_1_1CanAddAttendance.html" target="_top" xlink:title=" ">
<polygon fill="white" stroke="#666666" points="368,-934.5 218,-934.5 218,-904.5 368,-904.5 368,-934.5"/>
<text text-anchor="start" x="226" y="-922.5" font-family="Helvetica,sans-Serif" font-size="10.00">attendance.permission.Can</text>
<text text-anchor="middle" x="293" y="-911.5" font-family="Helvetica,sans-Serif" font-size="10.00">AddAttendance</text>
</a>
</g>
</g>
<!-- Node0&#45;&gt;Node1 -->
<g id="edge93_Node000000_Node000001" class="edge">
<title>Node0&#45;&gt;Node1</title>
<g id="a_edge93_Node000000_Node000001"><a xlink:title=" ">
<path fill="none" stroke="#63b8ff" d="M81.68,-459.04C90.89,-537.95 129.02,-831.91 193,-895.5 199.9,-902.36 208.4,-907.38 217.5,-911.03"/>
<polygon fill="#63b8ff" stroke="#63b8ff" points="85.15,-458.55 80.54,-449.01 78.2,-459.35 85.15,-458.55"/>
</a>
</g>
</g>
<!-- Node2 -->
<g id="Node000002" class="node">
<title>Node2</title>
<g id="a_Node000002"><a xlink:href="classattendance_1_1permission_1_1CanMarkAttendance.html" target="_top" xlink:title=" ">
<polygon fill="white" stroke="#666666" points="368,-886.5 218,-886.5 218,-856.5 368,-856.5 368,-886.5"/>
<text text-anchor="start" x="226" y="-874.5" font-family="Helvetica,sans-Serif" font-size="10.00">attendance.permission.Can</text>
<text text-anchor="middle" x="293" y="-863.5" font-family="Helvetica,sans-Serif" font-size="10.00">MarkAttendance</text>
</a>
</g>
</g>
<!-- Node0&#45;&gt;Node2 -->
<g id="edge94_Node000000_Node000002" class="edge">
<title>Node0&#45;&gt;Node2</title>
<g id="a_edge94_Node000000_Node000002"><a xlink:title=" ">
<path fill="none" stroke="#63b8ff" d="M82.33,-459.3C93.29,-533.22 135.18,-791.59 193,-847.5 199.99,-854.26 208.55,-859.23 217.68,-862.85"/>
<polygon fill="#63b8ff" stroke="#63b8ff" points="85.75,-458.47 80.84,-449.08 78.82,-459.49 85.75,-458.47"/>
</a>
</g>
</g>
<!-- Node3 -->
<g id="Node000003" class="node">
<title>Node3</title>
<g id="a_Node000003"><a xlink:href="classattendance_1_1permission_1_1IsStudent.html" target="_top" xlink:title=" ">
<polygon fill="white" stroke="#666666" points="363,-838.5 223,-838.5 223,-808.5 363,-808.5 363,-838.5"/>
<text text-anchor="start" x="231" y="-826.5" font-family="Helvetica,sans-Serif" font-size="10.00">attendance.permission.Is</text>
<text text-anchor="middle" x="293" y="-815.5" font-family="Helvetica,sans-Serif" font-size="10.00">Student</text>
</a>
</g>
</g>
<!-- Node0&#45;&gt;Node3 -->
<g id="edge95_Node000000_Node000003" class="edge">
<title>Node0&#45;&gt;Node3</title>
<g id="a_edge95_Node000000_Node000003"><a xlink:title=" ">
<path fill="none" stroke="#63b8ff" d="M79.41,-459.07C80.24,-519.45 91.35,-704.5 193,-799.5 201.4,-807.35 211.91,-812.76 222.93,-816.46"/>
<polygon fill="#63b8ff" stroke="#63b8ff" points="82.91,-458.99 79.35,-449.01 75.91,-459.03 82.91,-458.99"/>
</a>
</g>
</g>
<!-- Node4 -->
<g id="Node000004" class="node">
<title>Node4</title>
<g id="a_Node000004"><a xlink:href="classattendance_1_1permission_1_1IsTeacher.html" target="_top" xlink:title=" ">
<polygon fill="white" stroke="#666666" points="363,-790.5 223,-790.5 223,-760.5 363,-760.5 363,-790.5"/>
<text text-anchor="start" x="231" y="-778.5" font-family="Helvetica,sans-Serif" font-size="10.00">attendance.permission.Is</text>
<text text-anchor="middle" x="293" y="-767.5" font-family="Helvetica,sans-Serif" font-size="10.00">Teacher</text>
</a>
</g>
</g>
<!-- Node0&#45;&gt;Node4 -->
<g id="edge96_Node000000_Node000004" class="edge">
<title>Node0&#45;&gt;Node4</title>
<g id="a_edge96_Node000000_Node000004"><a xlink:title=" ">
<path fill="none" stroke="#63b8ff" d="M80.51,-459.34C84.45,-514.57 103.37,-671.31 193,-751.5 201.5,-759.11 212,-764.4 222.96,-768.07"/>
<polygon fill="#63b8ff" stroke="#63b8ff" points="83.99,-458.92 79.88,-449.16 77.01,-459.35 83.99,-458.92"/>
</a>
</g>
</g>
<!-- Node5 -->
<g id="Node000005" class="node">
<title>Node5</title>
<g id="a_Node000005"><a xlink:href="classchat_1_1permission_1_1CanCreateRoom.html" target="_top" xlink:title=" ">
<polygon fill="white" stroke="#666666" points="381.5,-742 204.5,-742 204.5,-723 381.5,-723 381.5,-742"/>
<text text-anchor="middle" x="293" y="-730" font-family="Helvetica,sans-Serif" font-size="10.00">chat.permission.CanCreateRoom</text>
</a>
</g>
</g>
<!-- Node0&#45;&gt;Node5 -->
<g id="edge97_Node000000_Node000005" class="edge">
<title>Node0&#45;&gt;Node5</title>
<g id="a_edge97_Node000000_Node000005"><a xlink:title=" ">
<path fill="none" stroke="#63b8ff" d="M81.33,-459.28C87.2,-510.41 110.27,-647.65 193,-714.5 197.08,-717.79 201.56,-720.56 206.29,-722.88"/>
<polygon fill="#63b8ff" stroke="#63b8ff" points="84.8,-458.8 80.28,-449.22 77.84,-459.53 84.8,-458.8"/>
</a>
</g>
</g>
<!-- Node6 -->
<g id="Node000006" class="node">
<title>Node6</title>
<g id="a_Node000006"><a xlink:href="classclassroom_1_1permission_1_1IsManagement.html" target="_top" xlink:title=" ">
<polygon fill="white" stroke="#666666" points="393,-705 193,-705 193,-686 393,-686 393,-705"/>
<text text-anchor="middle" x="293" y="-693" font-family="Helvetica,sans-Serif" font-size="10.00">classroom.permission.IsManagement</text>
</a>
</g>
</g>
<!-- Node0&#45;&gt;Node6 -->
<g id="edge98_Node000000_Node000006" class="edge">
<title>Node0&#45;&gt;Node6</title>
<g id="a_edge98_Node000000_Node000006"><a xlink:title=" ">
<path fill="none" stroke="#63b8ff" d="M82.67,-459.09C91.25,-505.25 119.43,-621.24 193,-677.5 197.3,-680.79 202.01,-683.55 206.97,-685.85"/>
<polygon fill="#63b8ff" stroke="#63b8ff" points="86.11,-458.41 80.94,-449.16 79.21,-459.62 86.11,-458.41"/>
</a>
</g>
</g>
<!-- Node7 -->
<g id="Node000007" class="node">
<title>Node7</title>
<g id="a_Node000007"><a xlink:href="classclassroom_1_1permission_1_1IsTeacher.html" target="_top" xlink:title=" ">
<polygon fill="white" stroke="#666666" points="379.5,-668 206.5,-668 206.5,-649 379.5,-649 379.5,-668"/>
<text text-anchor="middle" x="293" y="-656" font-family="Helvetica,sans-Serif" font-size="10.00">classroom.permission.IsTeacher</text>
</a>
</g>
</g>
<!-- Node0&#45;&gt;Node7 -->
<g id="edge99_Node000000_Node000007" class="edge">
<title>Node0&#45;&gt;Node7</title>
<g id="a_edge99_Node000000_Node000007"><a xlink:title=" ">
<path fill="none" stroke="#63b8ff" d="M84.63,-459.2C96.35,-499.99 129.1,-593.68 193,-639.5 198.26,-643.27 204.07,-646.35 210.16,-648.86"/>
<polygon fill="#63b8ff" stroke="#63b8ff" points="87.96,-458.11 81.93,-449.4 81.21,-459.97 87.96,-458.11"/>
</a>
</g>
</g>
<!-- Node8 -->
<g id="Node000008" class="node">
<title>Node8</title>
<g id="a_Node000008"><a xlink:href="classexchange_1_1permission_1_1CanAccessComment.html" target="_top" xlink:title=" ">
<polygon fill="white" stroke="#666666" points="381,-630.5 205,-630.5 205,-600.5 381,-600.5 381,-630.5"/>
<text text-anchor="start" x="213" y="-618.5" font-family="Helvetica,sans-Serif" font-size="10.00">exchange.permission.CanAccess</text>
<text text-anchor="middle" x="293" y="-607.5" font-family="Helvetica,sans-Serif" font-size="10.00">Comment</text>
</a>
</g>
</g>
<!-- Node0&#45;&gt;Node8 -->
<g id="edge100_Node000000_Node000008" class="edge">
<title>Node0&#45;&gt;Node8</title>
<g id="a_edge100_Node000000_Node000008"><a xlink:title=" ">
<path fill="none" stroke="#63b8ff" d="M88.18,-458.45C104.11,-490.99 141.17,-557.27 193,-591.5 198.17,-594.91 203.77,-597.84 209.59,-600.35"/>
<polygon fill="#63b8ff" stroke="#63b8ff" points="91.22,-456.68 83.76,-449.15 84.9,-459.69 91.22,-456.68"/>
</a>
</g>
</g>
<!-- Node9 -->
<g id="Node000009" class="node">
<title>Node9</title>
<g id="a_Node000009"><a xlink:href="classexchange_1_1permission_1_1CanAddComment.html" target="_top" xlink:title=" ">
<polygon fill="white" stroke="#666666" points="373.5,-582.5 212.5,-582.5 212.5,-552.5 373.5,-552.5 373.5,-582.5"/>
<text text-anchor="start" x="220.5" y="-570.5" font-family="Helvetica,sans-Serif" font-size="10.00">exchange.permission.CanAdd</text>
<text text-anchor="middle" x="293" y="-559.5" font-family="Helvetica,sans-Serif" font-size="10.00">Comment</text>
</a>
</g>
</g>
<!-- Node0&#45;&gt;Node9 -->
<g id="edge101_Node000000_Node000009" class="edge">
<title>Node0&#45;&gt;Node9</title>
<g id="a_edge101_Node000000_Node000009"><a xlink:title=" ">
<path fill="none" stroke="#63b8ff" d="M93.55,-457C113.26,-480.35 151.41,-521.33 193,-543.5 199.48,-546.95 206.45,-549.92 213.6,-552.46"/>
<polygon fill="#63b8ff" stroke="#63b8ff" points="96.22,-454.74 87.15,-449.26 90.82,-459.2 96.22,-454.74"/>
</a>
</g>
</g>
<!-- Node10 -->
<g id="Node000010" class="node">
<title>Node10</title>
<g id="a_Node000010"><a xlink:href="classexchange_1_1permission_1_1CanRemoveUpvote.html" target="_top" xlink:title=" ">
<polygon fill="white" stroke="#666666" points="384.5,-534.5 201.5,-534.5 201.5,-504.5 384.5,-504.5 384.5,-534.5"/>
<text text-anchor="start" x="209.5" y="-522.5" font-family="Helvetica,sans-Serif" font-size="10.00">exchange.permission.CanRemove</text>
<text text-anchor="middle" x="293" y="-511.5" font-family="Helvetica,sans-Serif" font-size="10.00">Upvote</text>
</a>
</g>
</g>
<!-- Node0&#45;&gt;Node10 -->
<g id="edge102_Node000000_Node000010" class="edge">
<title>Node0&#45;&gt;Node10</title>
<g id="a_edge102_Node000000_Node000010"><a xlink:title=" ">
<path fill="none" stroke="#63b8ff" d="M104.82,-454.02C127.37,-466.44 161.55,-484.09 193,-495.5 202.14,-498.82 211.93,-501.82 221.66,-504.48"/>
<polygon fill="#63b8ff" stroke="#63b8ff" points="106.35,-450.86 95.91,-449.04 102.94,-456.97 106.35,-450.86"/>
</a>
</g>
</g>
<!-- Node11 -->
<g id="Node000011" class="node">
<title>Node11</title>
<g id="a_Node000011"><a xlink:href="classexchange_1_1permission_1_1CanUpvote.html" target="_top" xlink:title=" ">
<polygon fill="white" stroke="#666666" points="382,-486 204,-486 204,-467 382,-467 382,-486"/>
<text text-anchor="middle" x="293" y="-474" font-family="Helvetica,sans-Serif" font-size="10.00">exchange.permission.CanUpvote</text>
</a>
</g>
</g>
<!-- Node0&#45;&gt;Node11 -->
<g id="edge103_Node000000_Node000011" class="edge">
<title>Node0&#45;&gt;Node11</title>
<g id="a_edge103_Node000000_Node000011"><a xlink:title=" ">
<path fill="none" stroke="#63b8ff" d="M144.08,-450.75C173.8,-455.92 208.67,-461.99 237.09,-466.94"/>
<polygon fill="#63b8ff" stroke="#63b8ff" points="144.68,-447.3 134.22,-449.03 143.48,-454.19 144.68,-447.3"/>
</a>
</g>
</g>
<!-- Node12 -->
<g id="Node000012" class="node">
<title>Node12</title>
<g id="a_Node000012"><a xlink:href="classexchange_1_1permission_1_1IsStudent.html" target="_top" xlink:title=" ">
<polygon fill="white" stroke="#666666" points="378,-449 208,-449 208,-430 378,-430 378,-449"/>
<text text-anchor="middle" x="293" y="-437" font-family="Helvetica,sans-Serif" font-size="10.00">exchange.permission.IsStudent</text>
</a>
</g>
</g>
<!-- Node0&#45;&gt;Node12 -->
<g id="edge104_Node000000_Node000012" class="edge">
<title>Node0&#45;&gt;Node12</title>
<g id="a_edge104_Node000000_Node000012"><a xlink:title=" ">
<path fill="none" stroke="#63b8ff" d="M167.27,-439.5C180.67,-439.5 194.47,-439.5 207.78,-439.5"/>
<polygon fill="#63b8ff" stroke="#63b8ff" points="167.12,-436 157.12,-439.5 167.12,-443 167.12,-436"/>
</a>
</g>
</g>
<!-- Node13 -->
<g id="Node000013" class="node">
<title>Node13</title>
<g id="a_Node000013"><a xlink:href="classexchange_1_1permission_1_1IsTeacher.html" target="_top" xlink:title=" ">
<polygon fill="white" stroke="#666666" points="378,-412 208,-412 208,-393 378,-393 378,-412"/>
<text text-anchor="middle" x="293" y="-400" font-family="Helvetica,sans-Serif" font-size="10.00">exchange.permission.IsTeacher</text>
</a>
</g>
</g>
<!-- Node0&#45;&gt;Node13 -->
<g id="edge105_Node000000_Node000013" class="edge">
<title>Node0&#45;&gt;Node13</title>
<g id="a_edge105_Node000000_Node000013"><a xlink:title=" ">
<path fill="none" stroke="#63b8ff" d="M144.08,-428.25C173.8,-423.08 208.67,-417.01 237.09,-412.06"/>
<polygon fill="#63b8ff" stroke="#63b8ff" points="143.48,-424.81 134.22,-429.97 144.68,-431.7 143.48,-424.81"/>
</a>
</g>
</g>
<!-- Node14 -->
<g id="Node000014" class="node">
<title>Node14</title>
<g id="a_Node000014"><a xlink:href="classgrade_1_1permission_1_1CanAccessComment.html" target="_top" xlink:title=" ">
<polygon fill="white" stroke="#666666" points="371.5,-374.5 214.5,-374.5 214.5,-344.5 371.5,-344.5 371.5,-374.5"/>
<text text-anchor="start" x="222.5" y="-362.5" font-family="Helvetica,sans-Serif" font-size="10.00">grade.permission.CanAccess</text>
<text text-anchor="middle" x="293" y="-351.5" font-family="Helvetica,sans-Serif" font-size="10.00">Comment</text>
</a>
</g>
</g>
<!-- Node0&#45;&gt;Node14 -->
<g id="edge106_Node000000_Node000014" class="edge">
<title>Node0&#45;&gt;Node14</title>
<g id="a_edge106_Node000000_Node000014"><a xlink:title=" ">
<path fill="none" stroke="#63b8ff" d="M105.27,-425.13C127.86,-413 161.86,-395.84 193,-384.5 203.08,-380.83 213.92,-377.5 224.61,-374.55"/>
<polygon fill="#63b8ff" stroke="#63b8ff" points="103.45,-422.14 96.33,-429.99 106.79,-428.29 103.45,-422.14"/>
</a>
</g>
</g>
<!-- Node15 -->
<g id="Node000015" class="node">
<title>Node15</title>
<g id="a_Node000015"><a xlink:href="classgrade_1_1permission_1_1CanRemoveUpvote.html" target="_top" xlink:title=" ">
<polygon fill="white" stroke="#666666" points="375,-326.5 211,-326.5 211,-296.5 375,-296.5 375,-326.5"/>
<text text-anchor="start" x="219" y="-314.5" font-family="Helvetica,sans-Serif" font-size="10.00">grade.permission.CanRemove</text>
<text text-anchor="middle" x="293" y="-303.5" font-family="Helvetica,sans-Serif" font-size="10.00">Upvote</text>
</a>
</g>
</g>
<!-- Node0&#45;&gt;Node15 -->
<g id="edge107_Node000000_Node000015" class="edge">
<title>Node0&#45;&gt;Node15</title>
<g id="a_edge107_Node000000_Node000015"><a xlink:title=" ">
<path fill="none" stroke="#63b8ff" d="M93.55,-422C113.26,-398.65 151.41,-357.67 193,-335.5 199.48,-332.05 206.45,-329.08 213.6,-326.54"/>
<polygon fill="#63b8ff" stroke="#63b8ff" points="90.82,-419.8 87.15,-429.74 96.22,-424.26 90.82,-419.8"/>
</a>
</g>
</g>
<!-- Node16 -->
<g id="Node000016" class="node">
<title>Node16</title>
<g id="a_Node000016"><a xlink:href="classgrade_1_1permission_1_1CanUpvote.html" target="_top" xlink:title=" ">
<polygon fill="white" stroke="#666666" points="372,-278 214,-278 214,-259 372,-259 372,-278"/>
<text text-anchor="middle" x="293" y="-266" font-family="Helvetica,sans-Serif" font-size="10.00">grade.permission.CanUpvote</text>
</a>
</g>
</g>
<!-- Node0&#45;&gt;Node16 -->
<g id="edge108_Node000000_Node000016" class="edge">
<title>Node0&#45;&gt;Node16</title>
<g id="a_edge108_Node000000_Node000016"><a xlink:title=" ">
<path fill="none" stroke="#63b8ff" d="M88.02,-420.29C103.68,-387.35 140.36,-320.47 193,-287.5 199.45,-283.46 206.57,-280.24 213.94,-277.69"/>
<polygon fill="#63b8ff" stroke="#63b8ff" points="84.68,-419.16 83.67,-429.71 91.04,-422.09 84.68,-419.16"/>
</a>
</g>
</g>
<!-- Node17 -->
<g id="Node000017" class="node">
<title>Node17</title>
<g id="a_Node000017"><a xlink:href="classgrade_1_1permission_1_1IsStudent.html" target="_top" xlink:title=" ">
<polygon fill="white" stroke="#666666" points="368,-241 218,-241 218,-222 368,-222 368,-241"/>
<text text-anchor="middle" x="293" y="-229" font-family="Helvetica,sans-Serif" font-size="10.00">grade.permission.IsStudent</text>
</a>
</g>
</g>
<!-- Node0&#45;&gt;Node17 -->
<g id="edge109_Node000000_Node000017" class="edge">
<title>Node0&#45;&gt;Node17</title>
<g id="a_edge109_Node000000_Node000017"><a xlink:title=" ">
<path fill="none" stroke="#63b8ff" d="M85.22,-420.07C97.78,-381.08 131.63,-293.38 193,-250.5 200.46,-245.29 208.97,-241.41 217.81,-238.54"/>
<polygon fill="#63b8ff" stroke="#63b8ff" points="81.86,-419.11 82.24,-429.7 88.54,-421.18 81.86,-419.11"/>
</a>
</g>
</g>
<!-- Node18 -->
<g id="Node000018" class="node">
<title>Node18</title>
<g id="a_Node000018"><a xlink:href="classgrade_1_1permission_1_1IsTeacher.html" target="_top" xlink:title=" ">
<polygon fill="white" stroke="#666666" points="368,-204 218,-204 218,-185 368,-185 368,-204"/>
<text text-anchor="middle" x="293" y="-192" font-family="Helvetica,sans-Serif" font-size="10.00">grade.permission.IsTeacher</text>
</a>
</g>
</g>
<!-- Node0&#45;&gt;Node18 -->
<g id="edge110_Node000000_Node000018" class="edge">
<title>Node0&#45;&gt;Node18</title>
<g id="a_edge110_Node000000_Node000018"><a xlink:title=" ">
<path fill="none" stroke="#63b8ff" d="M83.22,-420.04C92.79,-375.66 122.62,-266.72 193,-213.5 200.4,-207.91 208.98,-203.81 217.93,-200.84"/>
<polygon fill="#63b8ff" stroke="#63b8ff" points="79.79,-419.36 81.21,-429.86 86.65,-420.76 79.79,-419.36"/>
</a>
</g>
</g>
<!-- Node19 -->
<g id="Node000019" class="node">
<title>Node19</title>
<g id="a_Node000019"><a xlink:href="classuser_1_1permission_1_1IsHOD.html" target="_top" xlink:title=" ">
<polygon fill="white" stroke="#666666" points="357,-167 229,-167 229,-148 357,-148 357,-167"/>
<text text-anchor="middle" x="293" y="-155" font-family="Helvetica,sans-Serif" font-size="10.00">user.permission.IsHOD</text>
</a>
</g>
</g>
<!-- Node0&#45;&gt;Node19 -->
<g id="edge111_Node000000_Node000019" class="edge">
<title>Node0&#45;&gt;Node19</title>
<g id="a_edge111_Node000000_Node000019"><a xlink:title=" ">
<path fill="none" stroke="#63b8ff" d="M81.75,-419.97C88.54,-370.62 113.49,-240.33 193,-176.5 203.24,-168.28 215.97,-163.25 228.86,-160.24"/>
<polygon fill="#63b8ff" stroke="#63b8ff" points="78.27,-419.59 80.48,-429.95 85.21,-420.48 78.27,-419.59"/>
</a>
</g>
</g>
<!-- Node20 -->
<g id="Node000020" class="node">
<title>Node20</title>
<g id="a_Node000020"><a xlink:href="classuser_1_1permission_1_1IsManagement.html" target="_top" xlink:title=" ">
<polygon fill="white" stroke="#666666" points="378,-130 208,-130 208,-111 378,-111 378,-130"/>
<text text-anchor="middle" x="293" y="-118" font-family="Helvetica,sans-Serif" font-size="10.00">user.permission.IsManagement</text>
</a>
</g>
</g>
<!-- Node0&#45;&gt;Node20 -->
<g id="edge112_Node000000_Node000020" class="edge">
<title>Node0&#45;&gt;Node20</title>
<g id="a_edge112_Node000000_Node000020"><a xlink:title=" ">
<path fill="none" stroke="#63b8ff" d="M80.61,-419.83C84.8,-365.79 104.28,-214.13 193,-139.5 197.42,-135.78 202.34,-132.71 207.57,-130.17"/>
<polygon fill="#63b8ff" stroke="#63b8ff" points="77.12,-419.6 79.93,-429.82 84.11,-420.08 77.12,-419.6"/>
</a>
</g>
</g>
<!-- Node21 -->
<g id="Node000021" class="node">
<title>Node21</title>
<g id="a_Node000021"><a xlink:href="classuser_1_1permission_1_1IsParent.html" target="_top" xlink:title=" ">
<polygon fill="white" stroke="#666666" points="361,-93 225,-93 225,-74 361,-74 361,-93"/>
<text text-anchor="middle" x="293" y="-81" font-family="Helvetica,sans-Serif" font-size="10.00">user.permission.IsParent</text>
</a>
</g>
</g>
<!-- Node0&#45;&gt;Node21 -->
<g id="edge113_Node000000_Node000021" class="edge">
<title>Node0&#45;&gt;Node21</title>
<g id="a_edge113_Node000000_Node000021"><a xlink:title=" ">
<path fill="none" stroke="#63b8ff" d="M79.69,-419.81C81.41,-361.45 94.91,-188.15 193,-102.5 201.96,-94.67 213.15,-89.66 224.75,-86.53"/>
<polygon fill="#63b8ff" stroke="#63b8ff" points="76.19,-419.82 79.49,-429.89 83.19,-419.96 76.19,-419.82"/>
</a>
</g>
</g>
<!-- Node22 -->
<g id="Node000022" class="node">
<title>Node22</title>
<g id="a_Node000022"><a xlink:href="classuser_1_1permission_1_1IsStudent.html" target="_top" xlink:title=" ">
<polygon fill="white" stroke="#666666" points="364.5,-56 221.5,-56 221.5,-37 364.5,-37 364.5,-56"/>
<text text-anchor="middle" x="293" y="-44" font-family="Helvetica,sans-Serif" font-size="10.00">user.permission.IsStudent</text>
</a>
</g>
</g>
<!-- Node0&#45;&gt;Node22 -->
<g id="edge114_Node000000_Node000022" class="edge">
<title>Node0&#45;&gt;Node22</title>
<g id="a_edge114_Node000000_Node000022"><a xlink:title=" ">
<path fill="none" stroke="#63b8ff" d="M78.94,-419.77C78.32,-357.31 85.46,-162.3 193,-65.5 201,-58.3 210.87,-53.46 221.25,-50.27"/>
<polygon fill="#63b8ff" stroke="#63b8ff" points="75.44,-419.91 79.12,-429.84 82.44,-419.78 75.44,-419.91"/>
</a>
</g>
</g>
<!-- Node23 -->
<g id="Node000023" class="node">
<title>Node23</title>
<g id="a_Node000023"><a xlink:href="classuser_1_1permission_1_1IsTeacher.html" target="_top" xlink:title=" ">
<polygon fill="white" stroke="#666666" points="364.5,-19 221.5,-19 221.5,0 364.5,0 364.5,-19"/>
<text text-anchor="middle" x="293" y="-7" font-family="Helvetica,sans-Serif" font-size="10.00">user.permission.IsTeacher</text>
</a>
</g>
</g>
<!-- Node0&#45;&gt;Node23 -->
<g id="edge115_Node000000_Node000023" class="edge">
<title>Node0&#45;&gt;Node23</title>
<g id="a_edge115_Node000000_Node000023"><a xlink:title=" ">
<path fill="none" stroke="#63b8ff" d="M82.22,-419.46C92.8,-344.68 133.5,-83.43 193,-28.5 200.97,-21.14 210.89,-16.23 221.34,-13.02"/>
<polygon fill="#63b8ff" stroke="#63b8ff" points="78.7,-419.41 80.79,-429.8 85.63,-420.38 78.7,-419.41"/>
</a>
</g>
</g>
</g>
</svg>
