<?xml version="1.0" encoding="UTF-8" standalone="no"?>
<!DOCTYPE svg PUBLIC "-//W3C//DTD SVG 1.1//EN"
 "http://www.w3.org/Graphics/SVG/1.1/DTD/svg11.dtd">
<!-- Generated by graphviz version 2.43.0 (0)
 -->
<!-- Title: Graphical Class Hierarchy Pages: 1 -->
<svg width="378pt" height="889pt"
 viewBox="0.00 0.00 378.00 888.50" xmlns="http://www.w3.org/2000/svg" xmlns:xlink="http://www.w3.org/1999/xlink">
<g id="graph0" class="graph" transform="scale(1 1) rotate(0) translate(4 884.5)">
<title>Graphical Class Hierarchy</title>
<!-- Node0 -->
<g id="Node000000" class="node">
<title>Node0</title>
<g id="a_Node000000"><a xlink:title=" ">
<polygon fill="#e0e0e0" stroke="#999999" points="146,-439 0,-439 0,-420 146,-420 146,-439"/>
<text text-anchor="middle" x="73" y="-427" font-family="Helvetica,sans-Serif" font-size="10.00">serializers.ModelSerializer</text>
</a>
</g>
</g>
<!-- Node1 -->
<g id="Node000001" class="node">
<title>Node1</title>
<g id="a_Node000001"><a xlink:href="classassignment_1_1serializers_1_1AssignmentMarkSerializer.html" target="_top" xlink:title=" ">
<polygon fill="white" stroke="#666666" points="370,-880.5 182,-880.5 182,-850.5 370,-850.5 370,-880.5"/>
<text text-anchor="start" x="190" y="-868.5" font-family="Helvetica,sans-Serif" font-size="10.00">assignment.serializers.Assignment</text>
<text text-anchor="middle" x="276" y="-857.5" font-family="Helvetica,sans-Serif" font-size="10.00">MarkSerializer</text>
</a>
</g>
</g>
<!-- Node0&#45;&gt;Node1 -->
<g id="edge116_Node000000_Node000001" class="edge">
<title>Node0&#45;&gt;Node1</title>
<g id="a_edge116_Node000000_Node000001"><a xlink:title=" ">
<path fill="none" stroke="#63b8ff" d="M76.55,-449.46C86.45,-523.96 124.69,-784.41 182,-841.5 185.43,-844.91 189.27,-847.86 193.39,-850.4"/>
<polygon fill="#63b8ff" stroke="#63b8ff" points="79.97,-448.62 75.2,-439.16 73.03,-449.53 79.97,-448.62"/>
</a>
</g>
</g>
<!-- Node2 -->
<g id="Node000002" class="node">
<title>Node2</title>
<g id="a_Node000002"><a xlink:href="classassignment_1_1serializers_1_1AssignmentSerializer.html" target="_top" xlink:title=" ">
<polygon fill="white" stroke="#666666" points="370,-832.5 182,-832.5 182,-802.5 370,-802.5 370,-832.5"/>
<text text-anchor="start" x="190" y="-820.5" font-family="Helvetica,sans-Serif" font-size="10.00">assignment.serializers.Assignment</text>
<text text-anchor="middle" x="276" y="-809.5" font-family="Helvetica,sans-Serif" font-size="10.00">Serializer</text>
</a>
</g>
</g>
<!-- Node0&#45;&gt;Node2 -->
<g id="edge117_Node000000_Node000002" class="edge">
<title>Node0&#45;&gt;Node2</title>
<g id="a_edge117_Node000000_Node000002"><a xlink:title=" ">
<path fill="none" stroke="#63b8ff" d="M73.56,-449.19C73.34,-509.96 81.28,-696.33 182,-793.5 185.48,-796.86 189.37,-799.76 193.52,-802.27"/>
<polygon fill="#63b8ff" stroke="#63b8ff" points="77.06,-449.1 73.68,-439.06 70.06,-449.02 77.06,-449.1"/>
</a>
</g>
</g>
<!-- Node3 -->
<g id="Node000003" class="node">
<title>Node3</title>
<g id="a_Node000003"><a xlink:href="classattendance_1_1serializer_1_1AttendanceSerializer.html" target="_top" xlink:title=" ">
<polygon fill="white" stroke="#666666" points="364.5,-784.5 187.5,-784.5 187.5,-754.5 364.5,-754.5 364.5,-784.5"/>
<text text-anchor="start" x="195.5" y="-772.5" font-family="Helvetica,sans-Serif" font-size="10.00">attendance.serializer.Attendance</text>
<text text-anchor="middle" x="276" y="-761.5" font-family="Helvetica,sans-Serif" font-size="10.00">Serializer</text>
</a>
</g>
</g>
<!-- Node0&#45;&gt;Node3 -->
<g id="edge118_Node000000_Node000003" class="edge">
<title>Node0&#45;&gt;Node3</title>
<g id="a_edge118_Node000000_Node000003"><a xlink:title=" ">
<path fill="none" stroke="#63b8ff" d="M74.61,-449.49C77.42,-505.17 93.24,-663.3 182,-745.5 185.67,-748.9 189.76,-751.83 194.11,-754.36"/>
<polygon fill="#63b8ff" stroke="#63b8ff" points="78.09,-449.08 74.18,-439.23 71.1,-449.37 78.09,-449.08"/>
</a>
</g>
</g>
<!-- Node4 -->
<g id="Node000004" class="node">
<title>Node4</title>
<g id="a_Node000004"><a xlink:href="classattendance_1_1serializer_1_1StudentAttendanceSerializer.html" target="_top" xlink:title=" ">
<polygon fill="white" stroke="#666666" points="355.5,-736.5 196.5,-736.5 196.5,-706.5 355.5,-706.5 355.5,-736.5"/>
<text text-anchor="start" x="204.5" y="-724.5" font-family="Helvetica,sans-Serif" font-size="10.00">attendance.serializer.Student</text>
<text text-anchor="middle" x="276" y="-713.5" font-family="Helvetica,sans-Serif" font-size="10.00">AttendanceSerializer</text>
</a>
</g>
</g>
<!-- Node0&#45;&gt;Node4 -->
<g id="edge119_Node000000_Node000004" class="edge">
<title>Node0&#45;&gt;Node4</title>
<g id="a_edge119_Node000000_Node000004"><a xlink:title=" ">
<path fill="none" stroke="#63b8ff" d="M75.94,-449.08C81.94,-498.59 104.69,-629.67 182,-697.5 186.26,-701.24 191.03,-704.41 196.1,-707.09"/>
<polygon fill="#63b8ff" stroke="#63b8ff" points="79.41,-448.61 74.83,-439.06 72.46,-449.38 79.41,-448.61"/>
</a>
</g>
</g>
<!-- Node5 -->
<g id="Node000005" class="node">
<title>Node5</title>
<g id="a_Node000005"><a xlink:href="classattendance_1_1serializer_1_1TeacherAttendanceSerializer.html" target="_top" xlink:title=" ">
<polygon fill="white" stroke="#666666" points="355.5,-688.5 196.5,-688.5 196.5,-658.5 355.5,-658.5 355.5,-688.5"/>
<text text-anchor="start" x="204.5" y="-676.5" font-family="Helvetica,sans-Serif" font-size="10.00">attendance.serializer.Teacher</text>
<text text-anchor="middle" x="276" y="-665.5" font-family="Helvetica,sans-Serif" font-size="10.00">AttendanceSerializer</text>
</a>
</g>
</g>
<!-- Node0&#45;&gt;Node5 -->
<g id="edge120_Node000000_Node000005" class="edge">
<title>Node0&#45;&gt;Node5</title>
<g id="a_edge120_Node000000_Node000005"><a xlink:title=" ">
<path fill="none" stroke="#63b8ff" d="M77.82,-449.01C87.32,-492.1 116.14,-595.86 182,-649.5 186.4,-653.08 191.26,-656.13 196.4,-658.73"/>
<polygon fill="#63b8ff" stroke="#63b8ff" points="81.25,-448.27 75.77,-439.2 74.4,-449.71 81.25,-448.27"/>
</a>
</g>
</g>
<!-- Node6 -->
<g id="Node000006" class="node">
<title>Node6</title>
<g id="a_Node000006"><a xlink:href="classchat_1_1serializers_1_1RoomSerializer.html" target="_top" xlink:title=" ">
<polygon fill="white" stroke="#666666" points="360,-640 192,-640 192,-621 360,-621 360,-640"/>
<text text-anchor="middle" x="276" y="-628" font-family="Helvetica,sans-Serif" font-size="10.00">chat.serializers.RoomSerializer</text>
</a>
</g>
</g>
<!-- Node0&#45;&gt;Node6 -->
<g id="edge121_Node000000_Node000006" class="edge">
<title>Node0&#45;&gt;Node6</title>
<g id="a_edge121_Node000000_Node000006"><a xlink:title=" ">
<path fill="none" stroke="#63b8ff" d="M79.74,-449.16C91.89,-487.08 123.96,-570.21 182,-611.5 187.37,-615.32 193.33,-618.41 199.57,-620.91"/>
<polygon fill="#63b8ff" stroke="#63b8ff" points="83.01,-447.87 76.72,-439.34 76.31,-449.93 83.01,-447.87"/>
</a>
</g>
</g>
<!-- Node7 -->
<g id="Node000007" class="node">
<title>Node7</title>
<g id="a_Node000007"><a xlink:href="classclassroom_1_1serializers_1_1ClassroomSerializer.html" target="_top" xlink:title=" ">
<polygon fill="white" stroke="#666666" points="363.5,-602.5 188.5,-602.5 188.5,-572.5 363.5,-572.5 363.5,-602.5"/>
<text text-anchor="start" x="196.5" y="-590.5" font-family="Helvetica,sans-Serif" font-size="10.00">classroom.serializers.Classroom</text>
<text text-anchor="middle" x="276" y="-579.5" font-family="Helvetica,sans-Serif" font-size="10.00">Serializer</text>
</a>
</g>
</g>
<!-- Node0&#45;&gt;Node7 -->
<g id="edge122_Node000000_Node000007" class="edge">
<title>Node0&#45;&gt;Node7</title>
<g id="a_edge122_Node000000_Node000007"><a xlink:title=" ">
<path fill="none" stroke="#63b8ff" d="M83.78,-448.14C100.11,-477.36 135.72,-533.67 182,-563.5 187.33,-566.93 193.12,-569.87 199.13,-572.4"/>
<polygon fill="#63b8ff" stroke="#63b8ff" points="86.68,-446.14 78.83,-439.02 80.53,-449.48 86.68,-446.14"/>
</a>
</g>
</g>
<!-- Node8 -->
<g id="Node000008" class="node">
<title>Node8</title>
<g id="a_Node000008"><a xlink:href="classexam_1_1serializers_1_1ExamSerializer.html" target="_top" xlink:title=" ">
<polygon fill="white" stroke="#666666" points="363,-554 189,-554 189,-535 363,-535 363,-554"/>
<text text-anchor="middle" x="276" y="-542" font-family="Helvetica,sans-Serif" font-size="10.00">exam.serializers.ExamSerializer</text>
</a>
</g>
</g>
<!-- Node0&#45;&gt;Node8 -->
<g id="edge123_Node000000_Node000008" class="edge">
<title>Node0&#45;&gt;Node8</title>
<g id="a_edge123_Node000000_Node000008"><a xlink:title=" ">
<path fill="none" stroke="#63b8ff" d="M88.45,-447.09C107.5,-469.05 143.18,-506.07 182,-525.5 189.81,-529.41 198.37,-532.51 207.04,-534.98"/>
<polygon fill="#63b8ff" stroke="#63b8ff" points="90.91,-444.58 81.77,-439.22 85.57,-449.11 90.91,-444.58"/>
</a>
</g>
</g>
<!-- Node9 -->
<g id="Node000009" class="node">
<title>Node9</title>
<g id="a_Node000009"><a xlink:href="classexchange_1_1serializers_1_1CommentSerializer.html" target="_top" xlink:title=" ">
<polygon fill="white" stroke="#666666" points="360,-516.5 192,-516.5 192,-486.5 360,-486.5 360,-516.5"/>
<text text-anchor="start" x="200" y="-504.5" font-family="Helvetica,sans-Serif" font-size="10.00">exchange.serializers.Comment</text>
<text text-anchor="middle" x="276" y="-493.5" font-family="Helvetica,sans-Serif" font-size="10.00">Serializer</text>
</a>
</g>
</g>
<!-- Node0&#45;&gt;Node9 -->
<g id="edge124_Node000000_Node000009" class="edge">
<title>Node0&#45;&gt;Node9</title>
<g id="a_edge124_Node000000_Node000009"><a xlink:title=" ">
<path fill="none" stroke="#63b8ff" d="M102.32,-443.64C123.8,-453.98 154.28,-467.84 182,-477.5 191.29,-480.74 201.24,-483.76 211.05,-486.49"/>
<polygon fill="#63b8ff" stroke="#63b8ff" points="103.64,-440.39 93.12,-439.16 100.58,-446.68 103.64,-440.39"/>
</a>
</g>
</g>
<!-- Node10 -->
<g id="Node000010" class="node">
<title>Node10</title>
<g id="a_Node000010"><a xlink:href="classexchange_1_1serializers_1_1QuestionSerializer.html" target="_top" xlink:title=" ">
<polygon fill="white" stroke="#666666" points="358,-468.5 194,-468.5 194,-438.5 358,-438.5 358,-468.5"/>
<text text-anchor="start" x="202" y="-456.5" font-family="Helvetica,sans-Serif" font-size="10.00">exchange.serializers.Question</text>
<text text-anchor="middle" x="276" y="-445.5" font-family="Helvetica,sans-Serif" font-size="10.00">Serializer</text>
</a>
</g>
</g>
<!-- Node0&#45;&gt;Node10 -->
<g id="edge125_Node000000_Node000010" class="edge">
<title>Node0&#45;&gt;Node10</title>
<g id="a_edge125_Node000000_Node000010"><a xlink:title=" ">
<path fill="none" stroke="#63b8ff" d="M156.52,-439.35C168.84,-440.82 181.52,-442.34 193.81,-443.81"/>
<polygon fill="#63b8ff" stroke="#63b8ff" points="156.63,-435.84 146.28,-438.13 155.8,-442.79 156.63,-435.84"/>
</a>
</g>
</g>
<!-- Node11 -->
<g id="Node000011" class="node">
<title>Node11</title>
<g id="a_Node000011"><a xlink:href="classexchange_1_1serializers_1_1UpvoteSerializer.html" target="_top" xlink:title=" ">
<polygon fill="white" stroke="#666666" points="353.5,-420.5 198.5,-420.5 198.5,-390.5 353.5,-390.5 353.5,-420.5"/>
<text text-anchor="start" x="206.5" y="-408.5" font-family="Helvetica,sans-Serif" font-size="10.00">exchange.serializers.Upvote</text>
<text text-anchor="middle" x="276" y="-397.5" font-family="Helvetica,sans-Serif" font-size="10.00">Serializer</text>
</a>
</g>
</g>
<!-- Node0&#45;&gt;Node11 -->
<g id="edge126_Node000000_Node000011" class="edge">
<title>Node0&#45;&gt;Node11</title>
<g id="a_edge126_Node000000_Node000011"><a xlink:title=" ">
<path fill="none" stroke="#63b8ff" d="M156.29,-419.67C170.17,-418.02 184.54,-416.3 198.27,-414.66"/>
<polygon fill="#63b8ff" stroke="#63b8ff" points="155.8,-416.21 146.28,-420.87 156.63,-423.16 155.8,-416.21"/>
</a>
</g>
</g>
<!-- Node12 -->
<g id="Node000012" class="node">
<title>Node12</title>
<g id="a_Node000012"><a xlink:href="classgrade_1_1serializer_1_1MarkSerializer.html" target="_top" xlink:title=" ">
<polygon fill="white" stroke="#666666" points="358.5,-372 193.5,-372 193.5,-353 358.5,-353 358.5,-372"/>
<text text-anchor="middle" x="276" y="-360" font-family="Helvetica,sans-Serif" font-size="10.00">grade.serializer.MarkSerializer</text>
</a>
</g>
</g>
<!-- Node0&#45;&gt;Node12 -->
<g id="edge127_Node000000_Node000012" class="edge">
<title>Node0&#45;&gt;Node12</title>
<g id="a_edge127_Node000000_Node000012"><a xlink:title=" ">
<path fill="none" stroke="#63b8ff" d="M101.4,-415.33C122.86,-404.73 153.7,-390.56 182,-381.5 193.61,-377.78 206.28,-374.62 218.43,-372.02"/>
<polygon fill="#63b8ff" stroke="#63b8ff" points="99.62,-412.31 92.25,-419.92 102.76,-418.57 99.62,-412.31"/>
</a>
</g>
</g>
<!-- Node13 -->
<g id="Node000013" class="node">
<title>Node13</title>
<g id="a_Node000013"><a xlink:href="classuser_1_1serializers_1_1ClassroomSerializer.html" target="_top" xlink:title=" ">
<polygon fill="white" stroke="#666666" points="348.5,-334.5 203.5,-334.5 203.5,-304.5 348.5,-304.5 348.5,-334.5"/>
<text text-anchor="start" x="211.5" y="-322.5" font-family="Helvetica,sans-Serif" font-size="10.00">user.serializers.Classroom</text>
<text text-anchor="middle" x="276" y="-311.5" font-family="Helvetica,sans-Serif" font-size="10.00">Serializer</text>
</a>
</g>
</g>
<!-- Node0&#45;&gt;Node13 -->
<g id="edge128_Node000000_Node000013" class="edge">
<title>Node0&#45;&gt;Node13</title>
<g id="a_edge128_Node000000_Node000013"><a xlink:title=" ">
<path fill="none" stroke="#63b8ff" d="M90.85,-412.6C110.91,-393.41 146.19,-362.45 182,-344.5 189.62,-340.68 197.9,-337.39 206.27,-334.57"/>
<polygon fill="#63b8ff" stroke="#63b8ff" points="88.19,-410.31 83.47,-419.79 93.08,-415.32 88.19,-410.31"/>
</a>
</g>
</g>
<!-- Node14 -->
<g id="Node000014" class="node">
<title>Node14</title>
<g id="a_Node000014"><a xlink:href="classuser_1_1serializers_1_1HODSerializer.html" target="_top" xlink:title=" ">
<polygon fill="white" stroke="#666666" points="356.5,-286 195.5,-286 195.5,-267 356.5,-267 356.5,-286"/>
<text text-anchor="middle" x="276" y="-274" font-family="Helvetica,sans-Serif" font-size="10.00">user.serializers.HODSerializer</text>
</a>
</g>
</g>
<!-- Node0&#45;&gt;Node14 -->
<g id="edge129_Node000000_Node000014" class="edge">
<title>Node0&#45;&gt;Node14</title>
<g id="a_edge129_Node000000_Node000014"><a xlink:title=" ">
<path fill="none" stroke="#63b8ff" d="M83.4,-410.97C99.38,-381.47 134.77,-324.26 182,-295.5 188.33,-291.64 195.31,-288.55 202.52,-286.08"/>
<polygon fill="#63b8ff" stroke="#63b8ff" points="80.3,-409.35 78.73,-419.83 86.49,-412.61 80.3,-409.35"/>
</a>
</g>
</g>
<!-- Node15 -->
<g id="Node000015" class="node">
<title>Node15</title>
<g id="a_Node000015"><a xlink:href="classuser_1_1serializers_1_1MarkSerializer.html" target="_top" xlink:title=" ">
<polygon fill="white" stroke="#666666" points="358,-249 194,-249 194,-230 358,-230 358,-249"/>
<text text-anchor="middle" x="276" y="-237" font-family="Helvetica,sans-Serif" font-size="10.00">user.serializers.MarkSerializer</text>
</a>
</g>
</g>
<!-- Node0&#45;&gt;Node15 -->
<g id="edge130_Node000000_Node000015" class="edge">
<title>Node0&#45;&gt;Node15</title>
<g id="a_edge130_Node000000_Node000015"><a xlink:title=" ">
<path fill="none" stroke="#63b8ff" d="M80.45,-410.04C93.47,-373.95 126.49,-296.84 182,-258.5 187.56,-254.66 193.72,-251.56 200.16,-249.07"/>
<polygon fill="#63b8ff" stroke="#63b8ff" points="77.02,-409.24 77.05,-419.83 83.63,-411.53 77.02,-409.24"/>
</a>
</g>
</g>
<!-- Node16 -->
<g id="Node000016" class="node">
<title>Node16</title>
<g id="a_Node000016"><a xlink:href="classuser_1_1serializers_1_1StudentAttendanceSerializer.html" target="_top" xlink:title=" ">
<polygon fill="white" stroke="#666666" points="341.5,-211.5 210.5,-211.5 210.5,-181.5 341.5,-181.5 341.5,-211.5"/>
<text text-anchor="start" x="218.5" y="-199.5" font-family="Helvetica,sans-Serif" font-size="10.00">user.serializers.Student</text>
<text text-anchor="middle" x="276" y="-188.5" font-family="Helvetica,sans-Serif" font-size="10.00">AttendanceSerializer</text>
</a>
</g>
</g>
<!-- Node0&#45;&gt;Node16 -->
<g id="edge131_Node000000_Node000016" class="edge">
<title>Node0&#45;&gt;Node16</title>
<g id="a_edge131_Node000000_Node000016"><a xlink:title=" ">
<path fill="none" stroke="#63b8ff" d="M78.47,-409.99C88.99,-368.67 119.26,-271.95 182,-221.5 190.21,-214.9 200.01,-210.03 210.12,-206.45"/>
<polygon fill="#63b8ff" stroke="#63b8ff" points="75.03,-409.34 76.07,-419.89 81.83,-411 75.03,-409.34"/>
</a>
</g>
</g>
<!-- Node17 -->
<g id="Node000017" class="node">
<title>Node17</title>
<g id="a_Node000017"><a xlink:href="classuser_1_1serializers_1_1StudentSerializer.html" target="_top" xlink:title=" ">
<polygon fill="white" stroke="#666666" points="341.5,-163.5 210.5,-163.5 210.5,-133.5 341.5,-133.5 341.5,-163.5"/>
<text text-anchor="start" x="218.5" y="-151.5" font-family="Helvetica,sans-Serif" font-size="10.00">user.serializers.Student</text>
<text text-anchor="middle" x="276" y="-140.5" font-family="Helvetica,sans-Serif" font-size="10.00">Serializer</text>
</a>
</g>
</g>
<!-- Node0&#45;&gt;Node17 -->
<g id="edge132_Node000000_Node000017" class="edge">
<title>Node0&#45;&gt;Node17</title>
<g id="a_edge132_Node000000_Node000017"><a xlink:title=" ">
<path fill="none" stroke="#63b8ff" d="M76.34,-409.76C83.15,-361.52 107.42,-236.96 182,-172.5 190.07,-165.52 199.92,-160.53 210.16,-156.97"/>
<polygon fill="#63b8ff" stroke="#63b8ff" points="72.86,-409.44 75.03,-419.81 79.8,-410.35 72.86,-409.44"/>
</a>
</g>
</g>
<!-- Node18 -->
<g id="Node000018" class="node">
<title>Node18</title>
<g id="a_Node000018"><a xlink:href="classuser_1_1serializers_1_1StudentViewSerializer.html" target="_top" xlink:title=" ">
<polygon fill="white" stroke="#666666" points="341.5,-115.5 210.5,-115.5 210.5,-85.5 341.5,-85.5 341.5,-115.5"/>
<text text-anchor="start" x="218.5" y="-103.5" font-family="Helvetica,sans-Serif" font-size="10.00">user.serializers.Student</text>
<text text-anchor="middle" x="276" y="-92.5" font-family="Helvetica,sans-Serif" font-size="10.00">ViewSerializer</text>
</a>
</g>
</g>
<!-- Node0&#45;&gt;Node18 -->
<g id="edge133_Node000000_Node000018" class="edge">
<title>Node0&#45;&gt;Node18</title>
<g id="a_edge133_Node000000_Node000018"><a xlink:title=" ">
<path fill="none" stroke="#63b8ff" d="M74.87,-409.83C78.36,-355.72 95.76,-203.49 182,-124.5 189.99,-117.18 199.92,-112.03 210.29,-108.42"/>
<polygon fill="#63b8ff" stroke="#63b8ff" points="71.37,-409.64 74.32,-419.82 78.36,-410.03 71.37,-409.64"/>
</a>
</g>
</g>
<!-- Node19 -->
<g id="Node000019" class="node">
<title>Node19</title>
<g id="a_Node000019"><a xlink:href="classuser_1_1serializers_1_1TeacherSerializer.html" target="_top" xlink:title=" ">
<polygon fill="white" stroke="#666666" points="341.5,-67.5 210.5,-67.5 210.5,-37.5 341.5,-37.5 341.5,-67.5"/>
<text text-anchor="start" x="218.5" y="-55.5" font-family="Helvetica,sans-Serif" font-size="10.00">user.serializers.Teacher</text>
<text text-anchor="middle" x="276" y="-44.5" font-family="Helvetica,sans-Serif" font-size="10.00">Serializer</text>
</a>
</g>
</g>
<!-- Node0&#45;&gt;Node19 -->
<g id="edge134_Node000000_Node000019" class="edge">
<title>Node0&#45;&gt;Node19</title>
<g id="a_edge134_Node000000_Node000019"><a xlink:title=" ">
<path fill="none" stroke="#63b8ff" d="M73.78,-409.62C74.24,-349.86 84.09,-170.16 182,-76.5 189.95,-68.89 199.99,-63.61 210.5,-59.97"/>
<polygon fill="#63b8ff" stroke="#63b8ff" points="70.28,-409.92 73.79,-419.92 77.28,-409.91 70.28,-409.92"/>
</a>
</g>
</g>
<!-- Node20 -->
<g id="Node000020" class="node">
<title>Node20</title>
<g id="a_Node000020"><a xlink:href="classuser_1_1serializers_1_1UserSerializer.html" target="_top" xlink:title=" ">
<polygon fill="white" stroke="#666666" points="356.5,-19 195.5,-19 195.5,0 356.5,0 356.5,-19"/>
<text text-anchor="middle" x="276" y="-7" font-family="Helvetica,sans-Serif" font-size="10.00">user.serializers.UserSerializer</text>
</a>
</g>
</g>
<!-- Node0&#45;&gt;Node20 -->
<g id="edge135_Node000000_Node000020" class="edge">
<title>Node0&#45;&gt;Node20</title>
<g id="a_edge135_Node000000_Node000020"><a xlink:title=" ">
<path fill="none" stroke="#63b8ff" d="M76.6,-409.5C86.57,-336.01 124.66,-82.41 182,-28.5 185.96,-24.77 190.45,-21.69 195.26,-19.15"/>
<polygon fill="#63b8ff" stroke="#63b8ff" points="73.1,-409.31 75.25,-419.69 80.04,-410.24 73.1,-409.31"/>
</a>
</g>
</g>
</g>
</svg>
