<?xml version="1.0" encoding="UTF-8" standalone="no"?>
<!DOCTYPE svg PUBLIC "-//W3C//DTD SVG 1.1//EN"
 "http://www.w3.org/Graphics/SVG/1.1/DTD/svg11.dtd">
<!-- Generated by graphviz version 2.43.0 (0)
 -->
<!-- Title: classroom.apps.ClassroomConfig Pages: 1 -->
<svg width="197pt" height="175pt"
 viewBox="0.00 0.00 197.00 175.00" xmlns="http://www.w3.org/2000/svg" xmlns:xlink="http://www.w3.org/1999/xlink">
<g id="graph0" class="graph" transform="scale(1 1) rotate(0) translate(4 171)">
<title>classroom.apps.ClassroomConfig</title>
<!-- Node1 -->
<g id="Node000001" class="node">
<title>Node1</title>
<g id="a_Node000001"><a xlink:title=" ">
<polygon fill="#999999" stroke="transparent" points="142,-60 0,-60 0,0 142,0 142,-60"/>
<text text-anchor="start" x="5" y="-48" font-family="Helvetica,sans-Serif" font-size="10.00">classroom.apps.Classroom</text>
<text text-anchor="start" x="55.5" y="-37" font-family="Helvetica,sans-Serif" font-size="10.00">Config</text>
<text text-anchor="start" x="69" y="-22" font-family="Helvetica,sans-Serif" font-size="10.00"> </text>
<text text-anchor="start" x="69" y="-7" font-family="Helvetica,sans-Serif" font-size="10.00"> </text>
<polygon fill="#666666" stroke="#666666" points="0,-32 0,-32 142,-32 142,-32 0,-32"/>
<polygon fill="#666666" stroke="#666666" points="0,-17 0,-17 142,-17 142,-17 0,-17"/>
<polygon fill="none" stroke="#666666" points="0,0 0,-60 142,-60 142,0 0,0"/>
</a>
</g>
</g>
<!-- Node2 -->
<g id="Node000002" class="node">
<title>Node2</title>
<g id="a_Node000002"><a xlink:title=" ">
<polygon fill="white" stroke="transparent" points="71,-167 11,-167 11,-118 71,-118 71,-167"/>
<text text-anchor="start" x="16" y="-154.5" font-family="Helvetica,sans-Serif" font-size="10.00">AppConfig</text>
<text text-anchor="start" x="39" y="-139.5" font-family="Helvetica,sans-Serif" font-size="10.00"> </text>
<text text-anchor="start" x="39" y="-124.5" font-family="Helvetica,sans-Serif" font-size="10.00"> </text>
<polygon fill="#666666" stroke="#666666" points="11,-149.5 11,-149.5 71,-149.5 71,-149.5 11,-149.5"/>
<polygon fill="#666666" stroke="#666666" points="11,-134.5 11,-134.5 71,-134.5 71,-134.5 11,-134.5"/>
<polygon fill="none" stroke="#666666" points="11,-118 11,-167 71,-167 71,-118 11,-118"/>
</a>
</g>
</g>
<!-- Node2&#45;&gt;Node1 -->
<g id="edge5_Node000001_Node000002" class="edge">
<title>Node2&#45;&gt;Node1</title>
<g id="a_edge5_Node000001_Node000002"><a xlink:title=" ">
<path fill="none" stroke="#63b8ff" d="M50.16,-107.75C54.29,-92.56 59.11,-74.79 63.08,-60.17"/>
<polygon fill="none" stroke="#63b8ff" points="46.68,-107.23 47.44,-117.79 53.43,-109.06 46.68,-107.23"/>
</a>
</g>
</g>
<!-- Node3 -->
<g id="Node000003" class="node">
<title>Node3</title>
<g id="a_Node000003"><a xlink:title=" ">
<polygon fill="white" stroke="transparent" points="112.5,-167 89.5,-167 89.5,-118 112.5,-118 112.5,-167"/>
<text text-anchor="start" x="95" y="-154.5" font-family="Helvetica,sans-Serif" font-size="10.00">str</text>
<text text-anchor="start" x="99.5" y="-139.5" font-family="Helvetica,sans-Serif" font-size="10.00"> </text>
<text text-anchor="start" x="99.5" y="-124.5" font-family="Helvetica,sans-Serif" font-size="10.00"> </text>
<polygon fill="#666666" stroke="#666666" points="90,-149.5 90,-149.5 113,-149.5 113,-149.5 90,-149.5"/>
<polygon fill="#666666" stroke="#666666" points="90,-134.5 90,-134.5 113,-134.5 113,-134.5 90,-134.5"/>
<polygon fill="none" stroke="#666666" points="89.5,-118 89.5,-167 112.5,-167 112.5,-118 89.5,-118"/>
</a>
</g>
</g>
<!-- Node3&#45;&gt;Node1 -->
<g id="edge6_Node000001_Node000003" class="edge">
<title>Node3&#45;&gt;Node1</title>
<g id="a_edge6_Node000001_Node000003"><a xlink:title=" ">
<path fill="none" stroke="#63b8ff" d="M94.56,-117.79C90.95,-104.48 86.34,-87.5 82.16,-72.09"/>
<polygon fill="none" stroke="#63b8ff" points="82.06,-71.75 76.63,-67.01 78.92,-60.17 84.35,-64.92 82.06,-71.75"/>
</a>
</g>
<text text-anchor="middle" x="139" y="-92" font-family="Helvetica,sans-Serif" font-size="10.00" fill="grey"> +default_auto_field</text>
<text text-anchor="middle" x="139" y="-81" font-family="Helvetica,sans-Serif" font-size="10.00" fill="grey">+name</text>
</g>
</g>
</svg>
