<?xml version="1.0" encoding="UTF-8" standalone="no"?>
<!DOCTYPE svg PUBLIC "-//W3C//DTD SVG 1.1//EN"
 "http://www.w3.org/Graphics/SVG/1.1/DTD/svg11.dtd">
<!-- Generated by graphviz version 2.43.0 (0)
 -->
<!-- Title: chat.consumers.ChatConsumer Pages: 1 -->
<svg width="171pt" height="262pt"
 viewBox="0.00 0.00 171.00 262.00" xmlns="http://www.w3.org/2000/svg" xmlns:xlink="http://www.w3.org/1999/xlink">
<g id="graph0" class="graph" transform="scale(1 1) rotate(0) translate(4 258)">
<title>chat.consumers.ChatConsumer</title>
<!-- Node1 -->
<g id="Node000001" class="node">
<title>Node1</title>
<g id="a_Node000001"><a xlink:title=" ">
<polygon fill="#999999" stroke="transparent" points="163,-169 0,-169 0,0 163,0 163,-169"/>
<text text-anchor="start" x="5.5" y="-156.5" font-family="Helvetica,sans-Serif" font-size="10.00">chat.consumers.ChatConsumer</text>
<text text-anchor="start" x="17" y="-141.5" font-family="Helvetica,sans-Serif" font-size="10.00">+</text>
<text text-anchor="start" x="42.5" y="-141.5" font-family="Helvetica,sans-Serif" font-size="10.00">room_name</text>
<text text-anchor="start" x="17" y="-126.5" font-family="Helvetica,sans-Serif" font-size="10.00">+</text>
<text text-anchor="start" x="42.5" y="-126.5" font-family="Helvetica,sans-Serif" font-size="10.00">room_group_name</text>
<text text-anchor="start" x="17" y="-111.5" font-family="Helvetica,sans-Serif" font-size="10.00">+</text>
<text text-anchor="start" x="42.5" y="-111.5" font-family="Helvetica,sans-Serif" font-size="10.00">room</text>
<text text-anchor="start" x="17" y="-96.5" font-family="Helvetica,sans-Serif" font-size="10.00">+</text>
<text text-anchor="start" x="42.5" y="-96.5" font-family="Helvetica,sans-Serif" font-size="10.00">user</text>
<text text-anchor="start" x="17" y="-81.5" font-family="Helvetica,sans-Serif" font-size="10.00">+</text>
<text text-anchor="start" x="42.5" y="-81.5" font-family="Helvetica,sans-Serif" font-size="10.00">channel_name</text>
<text text-anchor="start" x="17" y="-66.5" font-family="Helvetica,sans-Serif" font-size="10.00">+</text>
<text text-anchor="start" x="42.5" y="-66.5" font-family="Helvetica,sans-Serif" font-size="10.00">__init__()</text>
<text text-anchor="start" x="17" y="-51.5" font-family="Helvetica,sans-Serif" font-size="10.00">+</text>
<text text-anchor="start" x="42.5" y="-51.5" font-family="Helvetica,sans-Serif" font-size="10.00">connect()</text>
<text text-anchor="start" x="17" y="-36.5" font-family="Helvetica,sans-Serif" font-size="10.00">+</text>
<text text-anchor="start" x="42.5" y="-36.5" font-family="Helvetica,sans-Serif" font-size="10.00">disconnect()</text>
<text text-anchor="start" x="17" y="-21.5" font-family="Helvetica,sans-Serif" font-size="10.00">+</text>
<text text-anchor="start" x="42.5" y="-21.5" font-family="Helvetica,sans-Serif" font-size="10.00">receive()</text>
<text text-anchor="start" x="17" y="-6.5" font-family="Helvetica,sans-Serif" font-size="10.00">+</text>
<text text-anchor="start" x="42.5" y="-6.5" font-family="Helvetica,sans-Serif" font-size="10.00">chat_message()</text>
<polygon fill="#666666" stroke="#666666" points="0.5,-151.5 0.5,-151.5 163.5,-151.5 163.5,-151.5 0.5,-151.5"/>
<polygon fill="#666666" stroke="#666666" points="0.5,-76.5 0.5,-76.5 40.5,-76.5 40.5,-76.5 0.5,-76.5"/>
<polygon fill="#666666" stroke="#666666" points="40.5,-76.5 40.5,-76.5 163.5,-76.5 163.5,-76.5 40.5,-76.5"/>
<polygon fill="none" stroke="#666666" points="0,0 0,-169 163,-169 163,0 0,0"/>
</a>
</g>
</g>
<!-- Node2 -->
<g id="Node000002" class="node">
<title>Node2</title>
<g id="a_Node000002"><a xlink:title=" ">
<polygon fill="white" stroke="transparent" points="138,-254 25,-254 25,-205 138,-205 138,-254"/>
<text text-anchor="start" x="30.5" y="-241.5" font-family="Helvetica,sans-Serif" font-size="10.00">WebsocketConsumer</text>
<text text-anchor="start" x="80" y="-226.5" font-family="Helvetica,sans-Serif" font-size="10.00"> </text>
<text text-anchor="start" x="80" y="-211.5" font-family="Helvetica,sans-Serif" font-size="10.00"> </text>
<polygon fill="#666666" stroke="#666666" points="25.5,-236.5 25.5,-236.5 138.5,-236.5 138.5,-236.5 25.5,-236.5"/>
<polygon fill="#666666" stroke="#666666" points="25.5,-221.5 25.5,-221.5 138.5,-221.5 138.5,-221.5 25.5,-221.5"/>
<polygon fill="none" stroke="#666666" points="25,-205 25,-254 138,-254 138,-205 25,-205"/>
</a>
</g>
</g>
<!-- Node2&#45;&gt;Node1 -->
<g id="edge3_Node000001_Node000002" class="edge">
<title>Node2&#45;&gt;Node1</title>
<g id="a_edge3_Node000001_Node000002"><a xlink:title=" ">
<path fill="none" stroke="#63b8ff" d="M81.5,-194.72C81.5,-186.84 81.5,-178.1 81.5,-169.1"/>
<polygon fill="none" stroke="#63b8ff" points="78,-194.89 81.5,-204.89 85,-194.89 78,-194.89"/>
</a>
</g>
</g>
</g>
</svg>
