<?xml version="1.0" encoding="UTF-8" standalone="no"?>
<!DOCTYPE svg PUBLIC "-//W3C//DTD SVG 1.1//EN"
 "http://www.w3.org/Graphics/SVG/1.1/DTD/svg11.dtd">
<!-- Generated by graphviz version 2.43.0 (0)
 -->
<!-- Title: grade.migrations.0002_alter_mark_student_alter_mark_teacher.Migration Pages: 1 -->
<svg width="147pt" height="179pt"
 viewBox="0.00 0.00 147.00 179.00" xmlns="http://www.w3.org/2000/svg" xmlns:xlink="http://www.w3.org/1999/xlink">
<g id="graph0" class="graph" transform="scale(1 1) rotate(0) translate(4 175)">
<title>grade.migrations.0002_alter_mark_student_alter_mark_teacher.Migration</title>
<!-- Node1 -->
<g id="Node000001" class="node">
<title>Node1</title>
<g id="a_Node000001"><a xlink:title=" ">
<polygon fill="#999999" stroke="transparent" points="139,-86 0,-86 0,0 139,0 139,-86"/>
<text text-anchor="start" x="5.5" y="-74" font-family="Helvetica,sans-Serif" font-size="10.00">grade.migrations.0002</text>
<text text-anchor="start" x="5.5" y="-63" font-family="Helvetica,sans-Serif" font-size="10.00">_alter_mark_student_alter</text>
<text text-anchor="start" x="9" y="-52" font-family="Helvetica,sans-Serif" font-size="10.00">_mark_teacher.Migration</text>
<text text-anchor="start" x="17" y="-37" font-family="Helvetica,sans-Serif" font-size="10.00">+</text>
<text text-anchor="start" x="42.5" y="-37" font-family="Helvetica,sans-Serif" font-size="10.00">dependencies</text>
<text text-anchor="start" x="17" y="-22" font-family="Helvetica,sans-Serif" font-size="10.00">+</text>
<text text-anchor="start" x="42.5" y="-22" font-family="Helvetica,sans-Serif" font-size="10.00">operations</text>
<text text-anchor="start" x="68" y="-7" font-family="Helvetica,sans-Serif" font-size="10.00"> </text>
<polygon fill="#666666" stroke="#666666" points="0.5,-47 0.5,-47 139.5,-47 139.5,-47 0.5,-47"/>
<polygon fill="#666666" stroke="#666666" points="0.5,-17 0.5,-17 40.5,-17 40.5,-17 0.5,-17"/>
<polygon fill="#666666" stroke="#666666" points="40.5,-17 40.5,-17 139.5,-17 139.5,-17 40.5,-17"/>
<polygon fill="none" stroke="#666666" points="0,0 0,-86 139,-86 139,0 0,0"/>
</a>
</g>
</g>
<!-- Node2 -->
<g id="Node000002" class="node">
<title>Node2</title>
<g id="a_Node000002"><a xlink:title=" ">
<polygon fill="white" stroke="transparent" points="126,-171 13,-171 13,-122 126,-122 126,-171"/>
<text text-anchor="start" x="18.5" y="-158.5" font-family="Helvetica,sans-Serif" font-size="10.00">migrations.Migration</text>
<text text-anchor="start" x="68" y="-143.5" font-family="Helvetica,sans-Serif" font-size="10.00"> </text>
<text text-anchor="start" x="68" y="-128.5" font-family="Helvetica,sans-Serif" font-size="10.00"> </text>
<polygon fill="#666666" stroke="#666666" points="13.5,-153.5 13.5,-153.5 126.5,-153.5 126.5,-153.5 13.5,-153.5"/>
<polygon fill="#666666" stroke="#666666" points="13.5,-138.5 13.5,-138.5 126.5,-138.5 126.5,-138.5 13.5,-138.5"/>
<polygon fill="none" stroke="#666666" points="13,-122 13,-171 126,-171 126,-122 13,-122"/>
</a>
</g>
</g>
<!-- Node2&#45;&gt;Node1 -->
<g id="edge3_Node000001_Node000002" class="edge">
<title>Node2&#45;&gt;Node1</title>
<g id="a_edge3_Node000001_Node000002"><a xlink:title=" ">
<path fill="none" stroke="#63b8ff" d="M69.5,-111.94C69.5,-103.68 69.5,-94.73 69.5,-86.13"/>
<polygon fill="none" stroke="#63b8ff" points="66,-111.96 69.5,-121.96 73,-111.96 66,-111.96"/>
</a>
</g>
</g>
</g>
</svg>
