<?xml version="1.0" encoding="UTF-8" standalone="no"?>
<!DOCTYPE svg PUBLIC "-//W3C//DTD SVG 1.1//EN"
 "http://www.w3.org/Graphics/SVG/1.1/DTD/svg11.dtd">
<!-- Generated by graphviz version 2.43.0 (0)
 -->
<!-- Title: classroom.views.ClassroomCreateView Pages: 1 -->
<svg width="155pt" height="153pt"
 viewBox="0.00 0.00 155.00 153.00" xmlns="http://www.w3.org/2000/svg" xmlns:xlink="http://www.w3.org/1999/xlink">
<g id="graph0" class="graph" transform="scale(1 1) rotate(0) translate(4 149)">
<title>classroom.views.ClassroomCreateView</title>
<!-- Node1 -->
<g id="Node000001" class="node">
<title>Node1</title>
<g id="a_Node000001"><a xlink:title=" ">
<polygon fill="#999999" stroke="transparent" points="147,-60 0,-60 0,0 147,0 147,-60"/>
<text text-anchor="start" x="5.5" y="-48" font-family="Helvetica,sans-Serif" font-size="10.00">classroom.views.Classroom</text>
<text text-anchor="start" x="45.5" y="-37" font-family="Helvetica,sans-Serif" font-size="10.00">CreateView</text>
<text text-anchor="start" x="12" y="-22" font-family="Helvetica,sans-Serif" font-size="10.00">+</text>
<text text-anchor="start" x="32.5" y="-22" font-family="Helvetica,sans-Serif" font-size="10.00">permission_classes</text>
<text text-anchor="start" x="12" y="-7" font-family="Helvetica,sans-Serif" font-size="10.00">+</text>
<text text-anchor="start" x="32.5" y="-7" font-family="Helvetica,sans-Serif" font-size="10.00">post()</text>
<polygon fill="#666666" stroke="#666666" points="0.5,-32 0.5,-32 147.5,-32 147.5,-32 0.5,-32"/>
<polygon fill="#666666" stroke="#666666" points="0.5,-17 0.5,-17 30.5,-17 30.5,-17 0.5,-17"/>
<polygon fill="#666666" stroke="#666666" points="30.5,-17 30.5,-17 147.5,-17 147.5,-17 30.5,-17"/>
<polygon fill="none" stroke="#666666" points="0,0 0,-60 147,-60 147,0 0,0"/>
</a>
</g>
</g>
<!-- Node2 -->
<g id="Node000002" class="node">
<title>Node2</title>
<g id="a_Node000002"><a xlink:title=" ">
<polygon fill="white" stroke="transparent" points="137,-145 10,-145 10,-96 137,-96 137,-145"/>
<text text-anchor="start" x="15.5" y="-132.5" font-family="Helvetica,sans-Serif" font-size="10.00">generics.CreateAPIView</text>
<text text-anchor="start" x="72" y="-117.5" font-family="Helvetica,sans-Serif" font-size="10.00"> </text>
<text text-anchor="start" x="72" y="-102.5" font-family="Helvetica,sans-Serif" font-size="10.00"> </text>
<polygon fill="#666666" stroke="#666666" points="10.5,-127.5 10.5,-127.5 137.5,-127.5 137.5,-127.5 10.5,-127.5"/>
<polygon fill="#666666" stroke="#666666" points="10.5,-112.5 10.5,-112.5 137.5,-112.5 137.5,-112.5 10.5,-112.5"/>
<polygon fill="none" stroke="#666666" points="10,-96 10,-145 137,-145 137,-96 10,-96"/>
</a>
</g>
</g>
<!-- Node2&#45;&gt;Node1 -->
<g id="edge3_Node000001_Node000002" class="edge">
<title>Node2&#45;&gt;Node1</title>
<g id="a_edge3_Node000001_Node000002"><a xlink:title=" ">
<path fill="none" stroke="#63b8ff" d="M73.5,-85.55C73.5,-77.18 73.5,-68.28 73.5,-60.16"/>
<polygon fill="none" stroke="#63b8ff" points="70,-85.78 73.5,-95.78 77,-85.78 70,-85.78"/>
</a>
</g>
</g>
</g>
</svg>
