<?xml version="1.0" encoding="UTF-8" standalone="no"?>
<!DOCTYPE svg PUBLIC "-//W3C//DTD SVG 1.1//EN"
 "http://www.w3.org/Graphics/SVG/1.1/DTD/svg11.dtd">
<!-- Generated by graphviz version 2.43.0 (0)
 -->
<!-- Title: attendance.views.StudentAttendanceCreateView Pages: 1 -->
<svg width="255pt" height="164pt"
 viewBox="0.00 0.00 254.50 164.00" xmlns="http://www.w3.org/2000/svg" xmlns:xlink="http://www.w3.org/1999/xlink">
<g id="graph0" class="graph" transform="scale(1 1) rotate(0) translate(4 160)">
<title>attendance.views.StudentAttendanceCreateView</title>
<!-- Node1 -->
<g id="Node000001" class="node">
<title>Node1</title>
<g id="a_Node000001"><a xlink:title=" ">
<polygon fill="#999999" stroke="transparent" points="181,-60 44,-60 44,0 181,0 181,-60"/>
<text text-anchor="start" x="49.5" y="-48" font-family="Helvetica,sans-Serif" font-size="10.00">attendance.views.Student</text>
<text text-anchor="start" x="57" y="-37" font-family="Helvetica,sans-Serif" font-size="10.00">AttendanceCreateView</text>
<text text-anchor="start" x="111" y="-22" font-family="Helvetica,sans-Serif" font-size="10.00"> </text>
<text text-anchor="start" x="70" y="-7" font-family="Helvetica,sans-Serif" font-size="10.00">+</text>
<text text-anchor="start" x="104.5" y="-7" font-family="Helvetica,sans-Serif" font-size="10.00">post()</text>
<polygon fill="#666666" stroke="#666666" points="44.5,-32 44.5,-32 181.5,-32 181.5,-32 44.5,-32"/>
<polygon fill="#666666" stroke="#666666" points="44.5,-17 44.5,-17 181.5,-17 181.5,-17 44.5,-17"/>
<polygon fill="none" stroke="#666666" points="44,0 44,-60 181,-60 181,0 44,0"/>
</a>
</g>
</g>
<!-- Node2 -->
<g id="Node000002" class="node">
<title>Node2</title>
<g id="a_Node000002"><a xlink:title=" ">
<polygon fill="white" stroke="transparent" points="127,-156 0,-156 0,-107 127,-107 127,-156"/>
<text text-anchor="start" x="5.5" y="-143.5" font-family="Helvetica,sans-Serif" font-size="10.00">generics.CreateAPIView</text>
<text text-anchor="start" x="62" y="-128.5" font-family="Helvetica,sans-Serif" font-size="10.00"> </text>
<text text-anchor="start" x="62" y="-113.5" font-family="Helvetica,sans-Serif" font-size="10.00"> </text>
<polygon fill="#666666" stroke="#666666" points="0.5,-138.5 0.5,-138.5 127.5,-138.5 127.5,-138.5 0.5,-138.5"/>
<polygon fill="#666666" stroke="#666666" points="0.5,-123.5 0.5,-123.5 127.5,-123.5 127.5,-123.5 0.5,-123.5"/>
<polygon fill="none" stroke="#666666" points="0,-107 0,-156 127,-156 127,-107 0,-107"/>
</a>
</g>
</g>
<!-- Node2&#45;&gt;Node1 -->
<g id="edge5_Node000001_Node000002" class="edge">
<title>Node2&#45;&gt;Node1</title>
<g id="a_edge5_Node000001_Node000002"><a xlink:title=" ">
<path fill="none" stroke="#63b8ff" d="M79.71,-97.59C85.67,-85.48 92.38,-71.86 98.17,-60.1"/>
<polygon fill="none" stroke="#63b8ff" points="76.39,-96.4 75.11,-106.92 82.67,-99.5 76.39,-96.4"/>
</a>
</g>
</g>
<!-- Node3 -->
<g id="Node000003" class="node">
<title>Node3</title>
<g id="a_Node000003"><a xlink:title=" ">
<polygon fill="white" stroke="transparent" points="180,-156 145,-156 145,-107 180,-107 180,-156"/>
<text text-anchor="start" x="150.5" y="-143.5" font-family="Helvetica,sans-Serif" font-size="10.00">tuple</text>
<text text-anchor="start" x="161" y="-128.5" font-family="Helvetica,sans-Serif" font-size="10.00"> </text>
<text text-anchor="start" x="161" y="-113.5" font-family="Helvetica,sans-Serif" font-size="10.00"> </text>
<polygon fill="#666666" stroke="#666666" points="145.5,-138.5 145.5,-138.5 180.5,-138.5 180.5,-138.5 145.5,-138.5"/>
<polygon fill="#666666" stroke="#666666" points="145.5,-123.5 145.5,-123.5 180.5,-123.5 180.5,-123.5 145.5,-123.5"/>
<polygon fill="none" stroke="#666666" points="145,-107 145,-156 180,-156 180,-107 145,-107"/>
</a>
</g>
</g>
<!-- Node3&#45;&gt;Node1 -->
<g id="edge6_Node000001_Node000003" class="edge">
<title>Node3&#45;&gt;Node1</title>
<g id="a_edge6_Node000001_Node000003"><a xlink:title=" ">
<path fill="none" stroke="#63b8ff" d="M150.65,-106.92C145.26,-96.18 138.72,-83.18 132.59,-70.98"/>
<polygon fill="none" stroke="#63b8ff" points="132.51,-70.82 126.24,-67.26 127.12,-60.1 133.39,-63.67 132.51,-70.82"/>
</a>
</g>
<text text-anchor="middle" x="193" y="-81" font-family="Helvetica,sans-Serif" font-size="10.00" fill="grey"> +permission_classes</text>
</g>
</g>
</svg>
