<?xml version="1.0" encoding="UTF-8" standalone="no"?>
<!DOCTYPE svg PUBLIC "-//W3C//DTD SVG 1.1//EN"
 "http://www.w3.org/Graphics/SVG/1.1/DTD/svg11.dtd">
<!-- Generated by graphviz version 2.43.0 (0)
 -->
<!-- Title: exchange.views.UpvoteCreateView Pages: 1 -->
<svg width="227pt" height="153pt"
 viewBox="0.00 0.00 227.00 153.00" xmlns="http://www.w3.org/2000/svg" xmlns:xlink="http://www.w3.org/1999/xlink">
<g id="graph0" class="graph" transform="scale(1 1) rotate(0) translate(4 149)">
<title>exchange.views.UpvoteCreateView</title>
<!-- Node1 -->
<g id="Node000001" class="node">
<title>Node1</title>
<g id="a_Node000001"><a xlink:title=" ">
<polygon fill="#999999" stroke="transparent" points="184,-49 0,-49 0,0 184,0 184,-49"/>
<text text-anchor="start" x="5" y="-36.5" font-family="Helvetica,sans-Serif" font-size="10.00">exchange.views.UpvoteCreateView</text>
<text text-anchor="start" x="90" y="-21.5" font-family="Helvetica,sans-Serif" font-size="10.00"> </text>
<text text-anchor="start" x="37.5" y="-6.5" font-family="Helvetica,sans-Serif" font-size="10.00">+</text>
<text text-anchor="start" x="84" y="-6.5" font-family="Helvetica,sans-Serif" font-size="10.00">post()</text>
<polygon fill="#666666" stroke="#666666" points="0,-31.5 0,-31.5 184,-31.5 184,-31.5 0,-31.5"/>
<polygon fill="#666666" stroke="#666666" points="0,-16.5 0,-16.5 184,-16.5 184,-16.5 0,-16.5"/>
<polygon fill="none" stroke="#666666" points="0,0 0,-49 184,-49 184,0 0,0"/>
</a>
</g>
</g>
<!-- Node2 -->
<g id="Node000002" class="node">
<title>Node2</title>
<g id="a_Node000002"><a xlink:title=" ">
<polygon fill="white" stroke="transparent" points="95,-145 13,-145 13,-96 95,-96 95,-145"/>
<text text-anchor="start" x="18" y="-132.5" font-family="Helvetica,sans-Serif" font-size="10.00">views.APIView</text>
<text text-anchor="start" x="52" y="-117.5" font-family="Helvetica,sans-Serif" font-size="10.00"> </text>
<text text-anchor="start" x="52" y="-102.5" font-family="Helvetica,sans-Serif" font-size="10.00"> </text>
<polygon fill="#666666" stroke="#666666" points="13,-127.5 13,-127.5 95,-127.5 95,-127.5 13,-127.5"/>
<polygon fill="#666666" stroke="#666666" points="13,-112.5 13,-112.5 95,-112.5 95,-112.5 13,-112.5"/>
<polygon fill="none" stroke="#666666" points="13,-96 13,-145 95,-145 95,-96 13,-96"/>
</a>
</g>
</g>
<!-- Node2&#45;&gt;Node1 -->
<g id="edge5_Node000001_Node000002" class="edge">
<title>Node2&#45;&gt;Node1</title>
<g id="a_edge5_Node000001_Node000002"><a xlink:title=" ">
<path fill="none" stroke="#63b8ff" d="M67.41,-86.32C72.36,-74.08 77.87,-60.46 82.41,-49.21"/>
<polygon fill="none" stroke="#63b8ff" points="64.09,-85.2 63.59,-95.78 70.58,-87.82 64.09,-85.2"/>
</a>
</g>
</g>
<!-- Node3 -->
<g id="Node000003" class="node">
<title>Node3</title>
<g id="a_Node000003"><a xlink:title=" ">
<polygon fill="white" stroke="transparent" points="148.5,-145 113.5,-145 113.5,-96 148.5,-96 148.5,-145"/>
<text text-anchor="start" x="119" y="-132.5" font-family="Helvetica,sans-Serif" font-size="10.00">tuple</text>
<text text-anchor="start" x="129.5" y="-117.5" font-family="Helvetica,sans-Serif" font-size="10.00"> </text>
<text text-anchor="start" x="129.5" y="-102.5" font-family="Helvetica,sans-Serif" font-size="10.00"> </text>
<polygon fill="#666666" stroke="#666666" points="114,-127.5 114,-127.5 149,-127.5 149,-127.5 114,-127.5"/>
<polygon fill="#666666" stroke="#666666" points="114,-112.5 114,-112.5 149,-112.5 149,-112.5 114,-112.5"/>
<polygon fill="none" stroke="#666666" points="113.5,-96 113.5,-145 148.5,-145 148.5,-96 113.5,-96"/>
</a>
</g>
</g>
<!-- Node3&#45;&gt;Node1 -->
<g id="edge6_Node000001_Node000003" class="edge">
<title>Node3&#45;&gt;Node1</title>
<g id="a_edge6_Node000001_Node000003"><a xlink:title=" ">
<path fill="none" stroke="#63b8ff" d="M121.16,-95.78C116.72,-85.09 111.4,-72.26 106.52,-60.5"/>
<polygon fill="none" stroke="#63b8ff" points="106.44,-60.3 100.44,-56.29 101.84,-49.21 107.83,-53.22 106.44,-60.3"/>
</a>
</g>
<text text-anchor="middle" x="165.5" y="-70" font-family="Helvetica,sans-Serif" font-size="10.00" fill="grey"> +permission_classes</text>
</g>
</g>
</svg>
