<?xml version="1.0" encoding="UTF-8" standalone="no"?>
<!DOCTYPE svg PUBLIC "-//W3C//DTD SVG 1.1//EN"
 "http://www.w3.org/Graphics/SVG/1.1/DTD/svg11.dtd">
<!-- Generated by graphviz version 2.43.0 (0)
 -->
<!-- Title: chat.serializers.RoomSerializer.Meta Pages: 1 -->
<svg width="197pt" height="153pt"
 viewBox="0.00 0.00 197.00 153.00" xmlns="http://www.w3.org/2000/svg" xmlns:xlink="http://www.w3.org/1999/xlink">
<g id="graph0" class="graph" transform="scale(1 1) rotate(0) translate(4 149)">
<title>chat.serializers.RoomSerializer.Meta</title>
<!-- Node1 -->
<g id="Node000001" class="node">
<title>Node1</title>
<g id="a_Node000001"><a xlink:title=" ">
<polygon fill="#999999" stroke="transparent" points="189,-49 0,-49 0,0 189,0 189,-49"/>
<text text-anchor="start" x="5.5" y="-36.5" font-family="Helvetica,sans-Serif" font-size="10.00">chat.serializers.RoomSerializer.Meta</text>
<text text-anchor="start" x="38.5" y="-21.5" font-family="Helvetica,sans-Serif" font-size="10.00">+</text>
<text text-anchor="start" x="85.5" y="-21.5" font-family="Helvetica,sans-Serif" font-size="10.00">model</text>
<text text-anchor="start" x="93" y="-6.5" font-family="Helvetica,sans-Serif" font-size="10.00"> </text>
<polygon fill="#666666" stroke="#666666" points="0.5,-31.5 0.5,-31.5 189.5,-31.5 189.5,-31.5 0.5,-31.5"/>
<polygon fill="#666666" stroke="#666666" points="0.5,-16.5 0.5,-16.5 83.5,-16.5 83.5,-16.5 0.5,-16.5"/>
<polygon fill="#666666" stroke="#666666" points="83.5,-16.5 83.5,-16.5 189.5,-16.5 189.5,-16.5 83.5,-16.5"/>
<polygon fill="none" stroke="#666666" points="0,0 0,-49 189,-49 189,0 0,0"/>
</a>
</g>
</g>
<!-- Node2 -->
<g id="Node000002" class="node">
<title>Node2</title>
<g id="a_Node000002"><a xlink:title=" ">
<polygon fill="white" stroke="transparent" points="107.5,-145 81.5,-145 81.5,-96 107.5,-96 107.5,-145"/>
<text text-anchor="start" x="86.5" y="-132.5" font-family="Helvetica,sans-Serif" font-size="10.00">list</text>
<text text-anchor="start" x="92.5" y="-117.5" font-family="Helvetica,sans-Serif" font-size="10.00"> </text>
<text text-anchor="start" x="92.5" y="-102.5" font-family="Helvetica,sans-Serif" font-size="10.00"> </text>
<polygon fill="#666666" stroke="#666666" points="81.5,-127.5 81.5,-127.5 107.5,-127.5 107.5,-127.5 81.5,-127.5"/>
<polygon fill="#666666" stroke="#666666" points="81.5,-112.5 81.5,-112.5 107.5,-112.5 107.5,-112.5 81.5,-112.5"/>
<polygon fill="none" stroke="#666666" points="81.5,-96 81.5,-145 107.5,-145 107.5,-96 81.5,-96"/>
</a>
</g>
</g>
<!-- Node2&#45;&gt;Node1 -->
<g id="edge3_Node000001_Node000002" class="edge">
<title>Node2&#45;&gt;Node1</title>
<g id="a_edge3_Node000001_Node000002"><a xlink:title=" ">
<path fill="none" stroke="#63b8ff" d="M94.5,-95.78C94.5,-85.32 94.5,-72.79 94.5,-61.23"/>
<polygon fill="none" stroke="#63b8ff" points="94.5,-61.21 90.5,-55.21 94.5,-49.21 98.5,-55.21 94.5,-61.21"/>
</a>
</g>
<text text-anchor="middle" x="113.5" y="-70" font-family="Helvetica,sans-Serif" font-size="10.00" fill="grey"> +fields</text>
</g>
</g>
</svg>
