<?xml version="1.0" encoding="UTF-8" standalone="no"?>
<!DOCTYPE svg PUBLIC "-//W3C//DTD SVG 1.1//EN"
 "http://www.w3.org/Graphics/SVG/1.1/DTD/svg11.dtd">
<!-- Generated by graphviz version 2.43.0 (0)
 -->
<!-- Title: attendance.views.ShowAttendanceView Pages: 1 -->
<svg width="243pt" height="153pt"
 viewBox="0.00 0.00 242.50 153.00" xmlns="http://www.w3.org/2000/svg" xmlns:xlink="http://www.w3.org/1999/xlink">
<g id="graph0" class="graph" transform="scale(1 1) rotate(0) translate(4 149)">
<title>attendance.views.ShowAttendanceView</title>
<!-- Node1 -->
<g id="Node000001" class="node">
<title>Node1</title>
<g id="a_Node000001"><a xlink:title=" ">
<polygon fill="#999999" stroke="transparent" points="206.5,-49 0.5,-49 0.5,0 206.5,0 206.5,-49"/>
<text text-anchor="start" x="5.5" y="-36.5" font-family="Helvetica,sans-Serif" font-size="10.00">attendance.views.ShowAttendanceView</text>
<text text-anchor="start" x="31.5" y="-21.5" font-family="Helvetica,sans-Serif" font-size="10.00">+</text>
<text text-anchor="start" x="71.5" y="-21.5" font-family="Helvetica,sans-Serif" font-size="10.00">serializer_class</text>
<text text-anchor="start" x="31.5" y="-6.5" font-family="Helvetica,sans-Serif" font-size="10.00">+</text>
<text text-anchor="start" x="71.5" y="-6.5" font-family="Helvetica,sans-Serif" font-size="10.00">get_queryset()</text>
<polygon fill="#666666" stroke="#666666" points="0.5,-31.5 0.5,-31.5 206.5,-31.5 206.5,-31.5 0.5,-31.5"/>
<polygon fill="#666666" stroke="#666666" points="0.5,-16.5 0.5,-16.5 69.5,-16.5 69.5,-16.5 0.5,-16.5"/>
<polygon fill="#666666" stroke="#666666" points="69.5,-16.5 69.5,-16.5 206.5,-16.5 206.5,-16.5 69.5,-16.5"/>
<polygon fill="none" stroke="#666666" points="0.5,0 0.5,-49 206.5,-49 206.5,0 0.5,0"/>
</a>
</g>
</g>
<!-- Node2 -->
<g id="Node000002" class="node">
<title>Node2</title>
<g id="a_Node000002"><a xlink:title=" ">
<polygon fill="white" stroke="transparent" points="115,-145 0,-145 0,-96 115,-96 115,-145"/>
<text text-anchor="start" x="5.5" y="-132.5" font-family="Helvetica,sans-Serif" font-size="10.00">generics::ListAPIView</text>
<text text-anchor="start" x="56" y="-117.5" font-family="Helvetica,sans-Serif" font-size="10.00"> </text>
<text text-anchor="start" x="56" y="-102.5" font-family="Helvetica,sans-Serif" font-size="10.00"> </text>
<polygon fill="#666666" stroke="#666666" points="0.5,-127.5 0.5,-127.5 115.5,-127.5 115.5,-127.5 0.5,-127.5"/>
<polygon fill="#666666" stroke="#666666" points="0.5,-112.5 0.5,-112.5 115.5,-112.5 115.5,-112.5 0.5,-112.5"/>
<polygon fill="none" stroke="#666666" points="0,-96 0,-145 115,-145 115,-96 0,-96"/>
</a>
</g>
</g>
<!-- Node2&#45;&gt;Node1 -->
<g id="edge5_Node000001_Node000002" class="edge">
<title>Node2&#45;&gt;Node1</title>
<g id="a_edge5_Node000001_Node000002"><a xlink:title=" ">
<path fill="none" stroke="#63b8ff" d="M73.56,-86.69C79.6,-74.35 86.34,-60.57 91.9,-49.21"/>
<polygon fill="none" stroke="#63b8ff" points="70.36,-85.26 69.11,-95.78 76.65,-88.34 70.36,-85.26"/>
</a>
</g>
</g>
<!-- Node3 -->
<g id="Node000003" class="node">
<title>Node3</title>
<g id="a_Node000003"><a xlink:title=" ">
<polygon fill="white" stroke="transparent" points="168,-145 133,-145 133,-96 168,-96 168,-145"/>
<text text-anchor="start" x="138.5" y="-132.5" font-family="Helvetica,sans-Serif" font-size="10.00">tuple</text>
<text text-anchor="start" x="149" y="-117.5" font-family="Helvetica,sans-Serif" font-size="10.00"> </text>
<text text-anchor="start" x="149" y="-102.5" font-family="Helvetica,sans-Serif" font-size="10.00"> </text>
<polygon fill="#666666" stroke="#666666" points="133.5,-127.5 133.5,-127.5 168.5,-127.5 168.5,-127.5 133.5,-127.5"/>
<polygon fill="#666666" stroke="#666666" points="133.5,-112.5 133.5,-112.5 168.5,-112.5 168.5,-112.5 133.5,-112.5"/>
<polygon fill="none" stroke="#666666" points="133,-96 133,-145 168,-145 168,-96 133,-96"/>
</a>
</g>
</g>
<!-- Node3&#45;&gt;Node1 -->
<g id="edge6_Node000001_Node000003" class="edge">
<title>Node3&#45;&gt;Node1</title>
<g id="a_edge6_Node000001_Node000003"><a xlink:title=" ">
<path fill="none" stroke="#63b8ff" d="M138.64,-95.78C133.24,-84.98 126.74,-71.99 120.81,-60.13"/>
<polygon fill="none" stroke="#63b8ff" points="120.72,-59.95 114.46,-56.37 115.36,-49.21 121.62,-52.79 120.72,-59.95"/>
</a>
</g>
<text text-anchor="middle" x="181" y="-70" font-family="Helvetica,sans-Serif" font-size="10.00" fill="grey"> +permission_classes</text>
</g>
</g>
</svg>
