<?xml version="1.0" encoding="UTF-8" standalone="no"?>
<!DOCTYPE svg PUBLIC "-//W3C//DTD SVG 1.1//EN"
 "http://www.w3.org/Graphics/SVG/1.1/DTD/svg11.dtd">
<!-- Generated by graphviz version 2.43.0 (0)
 -->
<!-- Title: user.views.RegisterView Pages: 1 -->
<svg width="138pt" height="142pt"
 viewBox="0.00 0.00 138.00 142.00" xmlns="http://www.w3.org/2000/svg" xmlns:xlink="http://www.w3.org/1999/xlink">
<g id="graph0" class="graph" transform="scale(1 1) rotate(0) translate(4 138)">
<title>user.views.RegisterView</title>
<!-- Node1 -->
<g id="Node000001" class="node">
<title>Node1</title>
<g id="a_Node000001"><a xlink:title=" ">
<polygon fill="#999999" stroke="transparent" points="130,-49 0,-49 0,0 130,0 130,-49"/>
<text text-anchor="start" x="5" y="-36.5" font-family="Helvetica,sans-Serif" font-size="10.00">user.views.RegisterView</text>
<text text-anchor="start" x="7" y="-21.5" font-family="Helvetica,sans-Serif" font-size="10.00">+</text>
<text text-anchor="start" x="23" y="-21.5" font-family="Helvetica,sans-Serif" font-size="10.00">permission_classes</text>
<text text-anchor="start" x="7" y="-6.5" font-family="Helvetica,sans-Serif" font-size="10.00">+</text>
<text text-anchor="start" x="23" y="-6.5" font-family="Helvetica,sans-Serif" font-size="10.00">post()</text>
<polygon fill="#666666" stroke="#666666" points="0,-31.5 0,-31.5 130,-31.5 130,-31.5 0,-31.5"/>
<polygon fill="#666666" stroke="#666666" points="0,-16.5 0,-16.5 21,-16.5 21,-16.5 0,-16.5"/>
<polygon fill="#666666" stroke="#666666" points="21,-16.5 21,-16.5 130,-16.5 130,-16.5 21,-16.5"/>
<polygon fill="none" stroke="#666666" points="0,0 0,-49 130,-49 130,0 0,0"/>
</a>
</g>
</g>
<!-- Node2 -->
<g id="Node000002" class="node">
<title>Node2</title>
<g id="a_Node000002"><a xlink:title=" ">
<polygon fill="white" stroke="transparent" points="106,-134 24,-134 24,-85 106,-85 106,-134"/>
<text text-anchor="start" x="29" y="-121.5" font-family="Helvetica,sans-Serif" font-size="10.00">views.APIView</text>
<text text-anchor="start" x="63" y="-106.5" font-family="Helvetica,sans-Serif" font-size="10.00"> </text>
<text text-anchor="start" x="63" y="-91.5" font-family="Helvetica,sans-Serif" font-size="10.00"> </text>
<polygon fill="#666666" stroke="#666666" points="24,-116.5 24,-116.5 106,-116.5 106,-116.5 24,-116.5"/>
<polygon fill="#666666" stroke="#666666" points="24,-101.5 24,-101.5 106,-101.5 106,-101.5 24,-101.5"/>
<polygon fill="none" stroke="#666666" points="24,-85 24,-134 106,-134 106,-85 24,-85"/>
</a>
</g>
</g>
<!-- Node2&#45;&gt;Node1 -->
<g id="edge3_Node000001_Node000002" class="edge">
<title>Node2&#45;&gt;Node1</title>
<g id="a_edge3_Node000001_Node000002"><a xlink:title=" ">
<path fill="none" stroke="#63b8ff" d="M65,-74.77C65,-66.17 65,-57.1 65,-49.12"/>
<polygon fill="none" stroke="#63b8ff" points="61.5,-74.94 65,-84.94 68.5,-74.94 61.5,-74.94"/>
</a>
</g>
</g>
</g>
</svg>
