<?xml version="1.0" encoding="UTF-8" standalone="no"?>
<!DOCTYPE svg PUBLIC "-//W3C//DTD SVG 1.1//EN"
 "http://www.w3.org/Graphics/SVG/1.1/DTD/svg11.dtd">
<!-- Generated by graphviz version 2.43.0 (0)
 -->
<!-- Title: attendance.models.TeacherAttendance Pages: 1 -->
<svg width="153pt" height="183pt"
 viewBox="0.00 0.00 153.00 183.00" xmlns="http://www.w3.org/2000/svg" xmlns:xlink="http://www.w3.org/1999/xlink">
<g id="graph0" class="graph" transform="scale(1 1) rotate(0) translate(4 179)">
<title>attendance.models.TeacherAttendance</title>
<!-- Node1 -->
<g id="Node000001" class="node">
<title>Node1</title>
<g id="a_Node000001"><a xlink:title=" ">
<polygon fill="#999999" stroke="transparent" points="145,-90 0,-90 0,0 145,0 145,-90"/>
<text text-anchor="start" x="5.5" y="-78" font-family="Helvetica,sans-Serif" font-size="10.00">attendance.models.Teacher</text>
<text text-anchor="start" x="45" y="-67" font-family="Helvetica,sans-Serif" font-size="10.00">Attendance</text>
<text text-anchor="start" x="14.5" y="-52" font-family="Helvetica,sans-Serif" font-size="10.00">+</text>
<text text-anchor="start" x="37.5" y="-52" font-family="Helvetica,sans-Serif" font-size="10.00">attendance</text>
<text text-anchor="start" x="14.5" y="-37" font-family="Helvetica,sans-Serif" font-size="10.00">+</text>
<text text-anchor="start" x="37.5" y="-37" font-family="Helvetica,sans-Serif" font-size="10.00">teacher</text>
<text text-anchor="start" x="14.5" y="-22" font-family="Helvetica,sans-Serif" font-size="10.00">+</text>
<text text-anchor="start" x="37.5" y="-22" font-family="Helvetica,sans-Serif" font-size="10.00">date_of_marking</text>
<text text-anchor="start" x="71" y="-7" font-family="Helvetica,sans-Serif" font-size="10.00"> </text>
<polygon fill="#666666" stroke="#666666" points="0.5,-62 0.5,-62 145.5,-62 145.5,-62 0.5,-62"/>
<polygon fill="#666666" stroke="#666666" points="0.5,-17 0.5,-17 35.5,-17 35.5,-17 0.5,-17"/>
<polygon fill="#666666" stroke="#666666" points="35.5,-17 35.5,-17 145.5,-17 145.5,-17 35.5,-17"/>
<polygon fill="none" stroke="#666666" points="0,0 0,-90 145,-90 145,0 0,0"/>
</a>
</g>
</g>
<!-- Node2 -->
<g id="Node000002" class="node">
<title>Node2</title>
<g id="a_Node000002"><a xlink:title=" ">
<polygon fill="white" stroke="transparent" points="112.5,-175 32.5,-175 32.5,-126 112.5,-126 112.5,-175"/>
<text text-anchor="start" x="37.5" y="-162.5" font-family="Helvetica,sans-Serif" font-size="10.00">models.Model</text>
<text text-anchor="start" x="70.5" y="-147.5" font-family="Helvetica,sans-Serif" font-size="10.00"> </text>
<text text-anchor="start" x="70.5" y="-132.5" font-family="Helvetica,sans-Serif" font-size="10.00"> </text>
<polygon fill="#666666" stroke="#666666" points="32.5,-157.5 32.5,-157.5 112.5,-157.5 112.5,-157.5 32.5,-157.5"/>
<polygon fill="#666666" stroke="#666666" points="32.5,-142.5 32.5,-142.5 112.5,-142.5 112.5,-142.5 32.5,-142.5"/>
<polygon fill="none" stroke="#666666" points="32.5,-126 32.5,-175 112.5,-175 112.5,-126 32.5,-126"/>
</a>
</g>
</g>
<!-- Node2&#45;&gt;Node1 -->
<g id="edge3_Node000001_Node000002" class="edge">
<title>Node2&#45;&gt;Node1</title>
<g id="a_edge3_Node000001_Node000002"><a xlink:title=" ">
<path fill="none" stroke="#63b8ff" d="M72.5,-115.62C72.5,-107.56 72.5,-98.84 72.5,-90.39"/>
<polygon fill="none" stroke="#63b8ff" points="69,-115.75 72.5,-125.76 76,-115.76 69,-115.75"/>
</a>
</g>
</g>
</g>
</svg>
