<?xml version="1.0" encoding="UTF-8" standalone="no"?>
<!DOCTYPE svg PUBLIC "-//W3C//DTD SVG 1.1//EN"
 "http://www.w3.org/Graphics/SVG/1.1/DTD/svg11.dtd">
<!-- Generated by graphviz version 2.43.0 (0)
 -->
<!-- Title: user.models.Account Pages: 1 -->
<svg width="222pt" height="322pt"
 viewBox="0.00 0.00 221.50 322.00" xmlns="http://www.w3.org/2000/svg" xmlns:xlink="http://www.w3.org/1999/xlink">
<g id="graph0" class="graph" transform="scale(1 1) rotate(0) translate(4 318)">
<title>user.models.Account</title>
<!-- Node1 -->
<g id="Node000001" class="node">
<title>Node1</title>
<g id="a_Node000001"><a xlink:title=" ">
<polygon fill="#999999" stroke="transparent" points="172,-229 42,-229 42,0 172,0 172,-229"/>
<text text-anchor="start" x="56" y="-216.5" font-family="Helvetica,sans-Serif" font-size="10.00">user.models.Account</text>
<text text-anchor="start" x="46" y="-201.5" font-family="Helvetica,sans-Serif" font-size="10.00">+</text>
<text text-anchor="start" x="59" y="-201.5" font-family="Helvetica,sans-Serif" font-size="10.00">USER_TYPE_CHOOSES</text>
<text text-anchor="start" x="46" y="-186.5" font-family="Helvetica,sans-Serif" font-size="10.00">+</text>
<text text-anchor="start" x="59" y="-186.5" font-family="Helvetica,sans-Serif" font-size="10.00">username</text>
<text text-anchor="start" x="46" y="-171.5" font-family="Helvetica,sans-Serif" font-size="10.00">+</text>
<text text-anchor="start" x="59" y="-171.5" font-family="Helvetica,sans-Serif" font-size="10.00">email</text>
<text text-anchor="start" x="46" y="-156.5" font-family="Helvetica,sans-Serif" font-size="10.00">+</text>
<text text-anchor="start" x="59" y="-156.5" font-family="Helvetica,sans-Serif" font-size="10.00">name</text>
<text text-anchor="start" x="46" y="-141.5" font-family="Helvetica,sans-Serif" font-size="10.00">+</text>
<text text-anchor="start" x="59" y="-141.5" font-family="Helvetica,sans-Serif" font-size="10.00">phone_number</text>
<text text-anchor="start" x="46" y="-126.5" font-family="Helvetica,sans-Serif" font-size="10.00">+</text>
<text text-anchor="start" x="59" y="-126.5" font-family="Helvetica,sans-Serif" font-size="10.00">is_active</text>
<text text-anchor="start" x="46" y="-111.5" font-family="Helvetica,sans-Serif" font-size="10.00">+</text>
<text text-anchor="start" x="59" y="-111.5" font-family="Helvetica,sans-Serif" font-size="10.00">is_staff</text>
<text text-anchor="start" x="46" y="-96.5" font-family="Helvetica,sans-Serif" font-size="10.00">+</text>
<text text-anchor="start" x="59" y="-96.5" font-family="Helvetica,sans-Serif" font-size="10.00">is_superuser</text>
<text text-anchor="start" x="46" y="-81.5" font-family="Helvetica,sans-Serif" font-size="10.00">+</text>
<text text-anchor="start" x="59" y="-81.5" font-family="Helvetica,sans-Serif" font-size="10.00">last_login</text>
<text text-anchor="start" x="46" y="-66.5" font-family="Helvetica,sans-Serif" font-size="10.00">+</text>
<text text-anchor="start" x="59" y="-66.5" font-family="Helvetica,sans-Serif" font-size="10.00">user_type</text>
<text text-anchor="start" x="46" y="-51.5" font-family="Helvetica,sans-Serif" font-size="10.00">+</text>
<text text-anchor="start" x="59" y="-51.5" font-family="Helvetica,sans-Serif" font-size="10.00">USERNAME_FIELD</text>
<text text-anchor="start" x="46" y="-36.5" font-family="Helvetica,sans-Serif" font-size="10.00">+</text>
<text text-anchor="start" x="59" y="-36.5" font-family="Helvetica,sans-Serif" font-size="10.00">REQUIRED_FIELDS</text>
<text text-anchor="start" x="46" y="-21.5" font-family="Helvetica,sans-Serif" font-size="10.00">+</text>
<text text-anchor="start" x="59" y="-21.5" font-family="Helvetica,sans-Serif" font-size="10.00">objects</text>
<text text-anchor="start" x="105" y="-6.5" font-family="Helvetica,sans-Serif" font-size="10.00"> </text>
<polygon fill="#666666" stroke="#666666" points="42,-211.5 42,-211.5 172,-211.5 172,-211.5 42,-211.5"/>
<polygon fill="#666666" stroke="#666666" points="42,-16.5 42,-16.5 57,-16.5 57,-16.5 42,-16.5"/>
<polygon fill="#666666" stroke="#666666" points="57,-16.5 57,-16.5 172,-16.5 172,-16.5 57,-16.5"/>
<polygon fill="none" stroke="#666666" points="42,0 42,-229 172,-229 172,0 42,0"/>
</a>
</g>
</g>
<!-- Node2 -->
<g id="Node000002" class="node">
<title>Node2</title>
<g id="a_Node000002"><a xlink:title=" ">
<polygon fill="white" stroke="transparent" points="98,-314 0,-314 0,-265 98,-265 98,-314"/>
<text text-anchor="start" x="5" y="-301.5" font-family="Helvetica,sans-Serif" font-size="10.00">AbstractBaseUser</text>
<text text-anchor="start" x="47" y="-286.5" font-family="Helvetica,sans-Serif" font-size="10.00"> </text>
<text text-anchor="start" x="47" y="-271.5" font-family="Helvetica,sans-Serif" font-size="10.00"> </text>
<polygon fill="#666666" stroke="#666666" points="0,-296.5 0,-296.5 98,-296.5 98,-296.5 0,-296.5"/>
<polygon fill="#666666" stroke="#666666" points="0,-281.5 0,-281.5 98,-281.5 98,-281.5 0,-281.5"/>
<polygon fill="none" stroke="#666666" points="0,-265 0,-314 98,-314 98,-265 0,-265"/>
</a>
</g>
</g>
<!-- Node2&#45;&gt;Node1 -->
<g id="edge5_Node000001_Node000002" class="edge">
<title>Node2&#45;&gt;Node1</title>
<g id="a_edge5_Node000001_Node000002"><a xlink:title=" ">
<path fill="none" stroke="#63b8ff" d="M60.13,-255.3C62.79,-247.35 65.79,-238.42 68.94,-229.01"/>
<polygon fill="none" stroke="#63b8ff" points="56.8,-254.21 56.94,-264.81 63.44,-256.44 56.8,-254.21"/>
</a>
</g>
</g>
<!-- Node3 -->
<g id="Node000003" class="node">
<title>Node3</title>
<g id="a_Node000003"><a xlink:title=" ">
<polygon fill="white" stroke="transparent" points="213.5,-314 116.5,-314 116.5,-265 213.5,-265 213.5,-314"/>
<text text-anchor="start" x="122" y="-301.5" font-family="Helvetica,sans-Serif" font-size="10.00">PermissionsMixin</text>
<text text-anchor="start" x="163.5" y="-286.5" font-family="Helvetica,sans-Serif" font-size="10.00"> </text>
<text text-anchor="start" x="163.5" y="-271.5" font-family="Helvetica,sans-Serif" font-size="10.00"> </text>
<polygon fill="#666666" stroke="#666666" points="117,-296.5 117,-296.5 214,-296.5 214,-296.5 117,-296.5"/>
<polygon fill="#666666" stroke="#666666" points="117,-281.5 117,-281.5 214,-281.5 214,-281.5 117,-281.5"/>
<polygon fill="none" stroke="#666666" points="116.5,-265 116.5,-314 213.5,-314 213.5,-265 116.5,-265"/>
</a>
</g>
</g>
<!-- Node3&#45;&gt;Node1 -->
<g id="edge6_Node000001_Node000003" class="edge">
<title>Node3&#45;&gt;Node1</title>
<g id="a_edge6_Node000001_Node000003"><a xlink:title=" ">
<path fill="none" stroke="#63b8ff" d="M153.87,-255.3C151.21,-247.35 148.21,-238.42 145.06,-229.01"/>
<polygon fill="none" stroke="#63b8ff" points="150.56,-256.44 157.06,-264.81 157.2,-254.21 150.56,-256.44"/>
</a>
</g>
</g>
</g>
</svg>
