<?xml version="1.0" encoding="UTF-8" standalone="no"?>
<!DOCTYPE svg PUBLIC "-//W3C//DTD SVG 1.1//EN"
 "http://www.w3.org/Graphics/SVG/1.1/DTD/svg11.dtd">
<!-- Generated by graphviz version 2.43.0 (0)
 -->
<!-- Title: exchange.serializers.QuestionSerializer Pages: 1 -->
<svg width="166pt" height="153pt"
 viewBox="0.00 0.00 166.00 153.00" xmlns="http://www.w3.org/2000/svg" xmlns:xlink="http://www.w3.org/1999/xlink">
<g id="graph0" class="graph" transform="scale(1 1) rotate(0) translate(4 149)">
<title>exchange.serializers.QuestionSerializer</title>
<!-- Node1 -->
<g id="Node000001" class="node">
<title>Node1</title>
<g id="a_Node000001"><a xlink:title=" ">
<polygon fill="#999999" stroke="transparent" points="158,-60 0,-60 0,0 158,0 158,-60"/>
<text text-anchor="start" x="5" y="-48" font-family="Helvetica,sans-Serif" font-size="10.00">exchange.serializers.Question</text>
<text text-anchor="start" x="56" y="-37" font-family="Helvetica,sans-Serif" font-size="10.00">Serializer</text>
<text text-anchor="start" x="77" y="-22" font-family="Helvetica,sans-Serif" font-size="10.00"> </text>
<text text-anchor="start" x="77" y="-7" font-family="Helvetica,sans-Serif" font-size="10.00"> </text>
<polygon fill="#666666" stroke="#666666" points="0,-32 0,-32 158,-32 158,-32 0,-32"/>
<polygon fill="#666666" stroke="#666666" points="0,-17 0,-17 158,-17 158,-17 0,-17"/>
<polygon fill="none" stroke="#666666" points="0,0 0,-60 158,-60 158,0 0,0"/>
</a>
</g>
</g>
<!-- Node2 -->
<g id="Node000002" class="node">
<title>Node2</title>
<g id="a_Node000002"><a xlink:title=" ">
<polygon fill="white" stroke="transparent" points="149,-145 9,-145 9,-96 149,-96 149,-145"/>
<text text-anchor="start" x="14" y="-132.5" font-family="Helvetica,sans-Serif" font-size="10.00">serializers.ModelSerializer</text>
<text text-anchor="start" x="77" y="-117.5" font-family="Helvetica,sans-Serif" font-size="10.00"> </text>
<text text-anchor="start" x="77" y="-102.5" font-family="Helvetica,sans-Serif" font-size="10.00"> </text>
<polygon fill="#666666" stroke="#666666" points="9,-127.5 9,-127.5 149,-127.5 149,-127.5 9,-127.5"/>
<polygon fill="#666666" stroke="#666666" points="9,-112.5 9,-112.5 149,-112.5 149,-112.5 9,-112.5"/>
<polygon fill="none" stroke="#666666" points="9,-96 9,-145 149,-145 149,-96 9,-96"/>
</a>
</g>
</g>
<!-- Node2&#45;&gt;Node1 -->
<g id="edge3_Node000001_Node000002" class="edge">
<title>Node2&#45;&gt;Node1</title>
<g id="a_edge3_Node000001_Node000002"><a xlink:title=" ">
<path fill="none" stroke="#63b8ff" d="M79,-85.55C79,-77.18 79,-68.28 79,-60.16"/>
<polygon fill="none" stroke="#63b8ff" points="75.5,-85.78 79,-95.78 82.5,-85.78 75.5,-85.78"/>
</a>
</g>
</g>
</g>
</svg>
