<?xml version="1.0" encoding="UTF-8" standalone="no"?>
<!DOCTYPE svg PUBLIC "-//W3C//DTD SVG 1.1//EN"
 "http://www.w3.org/Graphics/SVG/1.1/DTD/svg11.dtd">
<!-- Generated by graphviz version 2.43.0 (0)
 -->
<!-- Title: exchange.serializers.UpvoteSerializer Pages: 1 -->
<svg width="157pt" height="153pt"
 viewBox="0.00 0.00 157.00 153.00" xmlns="http://www.w3.org/2000/svg" xmlns:xlink="http://www.w3.org/1999/xlink">
<g id="graph0" class="graph" transform="scale(1 1) rotate(0) translate(4 149)">
<title>exchange.serializers.UpvoteSerializer</title>
<!-- Node1 -->
<g id="Node000001" class="node">
<title>Node1</title>
<g id="a_Node000001"><a xlink:title=" ">
<polygon fill="#999999" stroke="transparent" points="149,-60 0,-60 0,0 149,0 149,-60"/>
<text text-anchor="start" x="5.5" y="-48" font-family="Helvetica,sans-Serif" font-size="10.00">exchange.serializers.Upvote</text>
<text text-anchor="start" x="52" y="-37" font-family="Helvetica,sans-Serif" font-size="10.00">Serializer</text>
<text text-anchor="start" x="73" y="-22" font-family="Helvetica,sans-Serif" font-size="10.00"> </text>
<text text-anchor="start" x="24.5" y="-7" font-family="Helvetica,sans-Serif" font-size="10.00">+</text>
<text text-anchor="start" x="57.5" y="-7" font-family="Helvetica,sans-Serif" font-size="10.00">validate()</text>
<polygon fill="#666666" stroke="#666666" points="0.5,-32 0.5,-32 149.5,-32 149.5,-32 0.5,-32"/>
<polygon fill="#666666" stroke="#666666" points="0.5,-17 0.5,-17 149.5,-17 149.5,-17 0.5,-17"/>
<polygon fill="none" stroke="#666666" points="0,0 0,-60 149,-60 149,0 0,0"/>
</a>
</g>
</g>
<!-- Node2 -->
<g id="Node000002" class="node">
<title>Node2</title>
<g id="a_Node000002"><a xlink:title=" ">
<polygon fill="white" stroke="transparent" points="144.5,-145 4.5,-145 4.5,-96 144.5,-96 144.5,-145"/>
<text text-anchor="start" x="9.5" y="-132.5" font-family="Helvetica,sans-Serif" font-size="10.00">serializers.ModelSerializer</text>
<text text-anchor="start" x="72.5" y="-117.5" font-family="Helvetica,sans-Serif" font-size="10.00"> </text>
<text text-anchor="start" x="72.5" y="-102.5" font-family="Helvetica,sans-Serif" font-size="10.00"> </text>
<polygon fill="#666666" stroke="#666666" points="4.5,-127.5 4.5,-127.5 144.5,-127.5 144.5,-127.5 4.5,-127.5"/>
<polygon fill="#666666" stroke="#666666" points="4.5,-112.5 4.5,-112.5 144.5,-112.5 144.5,-112.5 4.5,-112.5"/>
<polygon fill="none" stroke="#666666" points="4.5,-96 4.5,-145 144.5,-145 144.5,-96 4.5,-96"/>
</a>
</g>
</g>
<!-- Node2&#45;&gt;Node1 -->
<g id="edge3_Node000001_Node000002" class="edge">
<title>Node2&#45;&gt;Node1</title>
<g id="a_edge3_Node000001_Node000002"><a xlink:title=" ">
<path fill="none" stroke="#63b8ff" d="M74.5,-85.55C74.5,-77.18 74.5,-68.28 74.5,-60.16"/>
<polygon fill="none" stroke="#63b8ff" points="71,-85.78 74.5,-95.78 78,-85.78 71,-85.78"/>
</a>
</g>
</g>
</g>
</svg>
