<?xml version="1.0" encoding="UTF-8" standalone="no"?>
<!DOCTYPE svg PUBLIC "-//W3C//DTD SVG 1.1//EN"
 "http://www.w3.org/Graphics/SVG/1.1/DTD/svg11.dtd">
<!-- Generated by graphviz version 2.43.0 (0)
 -->
<!-- Title: assignment.models.Assignment Pages: 1 -->
<svg width="273pt" height="168pt"
 viewBox="0.00 0.00 272.50 168.00" xmlns="http://www.w3.org/2000/svg" xmlns:xlink="http://www.w3.org/1999/xlink">
<g id="graph0" class="graph" transform="scale(1 1) rotate(0) translate(4 164)">
<title>assignment.models.Assignment</title>
<!-- Node1 -->
<g id="Node000001" class="node">
<title>Node1</title>
<g id="a_Node000001"><a xlink:title=" ">
<polygon fill="#999999" stroke="transparent" points="167,-64 0,-64 0,0 167,0 167,-64"/>
<text text-anchor="start" x="5.5" y="-52" font-family="Helvetica,sans-Serif" font-size="10.00">assignment.models.Assignment</text>
<text text-anchor="start" x="34" y="-37" font-family="Helvetica,sans-Serif" font-size="10.00">+</text>
<text text-anchor="start" x="76.5" y="-37" font-family="Helvetica,sans-Serif" font-size="10.00">name</text>
<text text-anchor="start" x="34" y="-22" font-family="Helvetica,sans-Serif" font-size="10.00">+</text>
<text text-anchor="start" x="76.5" y="-22" font-family="Helvetica,sans-Serif" font-size="10.00">type</text>
<text text-anchor="start" x="82" y="-7" font-family="Helvetica,sans-Serif" font-size="10.00"> </text>
<polygon fill="#666666" stroke="#666666" points="0.5,-47 0.5,-47 167.5,-47 167.5,-47 0.5,-47"/>
<polygon fill="#666666" stroke="#666666" points="0.5,-17 0.5,-17 74.5,-17 74.5,-17 0.5,-17"/>
<polygon fill="#666666" stroke="#666666" points="74.5,-17 74.5,-17 167.5,-17 167.5,-17 74.5,-17"/>
<polygon fill="none" stroke="#666666" points="0,0 0,-64 167,-64 167,0 0,0"/>
</a>
</g>
</g>
<!-- Node2 -->
<g id="Node000002" class="node">
<title>Node2</title>
<g id="a_Node000002"><a xlink:title=" ">
<polygon fill="white" stroke="transparent" points="87,-160 4,-160 4,-111 87,-111 87,-160"/>
<text text-anchor="start" x="9.5" y="-147.5" font-family="Helvetica,sans-Serif" font-size="10.00">models::Model</text>
<text text-anchor="start" x="44" y="-132.5" font-family="Helvetica,sans-Serif" font-size="10.00"> </text>
<text text-anchor="start" x="44" y="-117.5" font-family="Helvetica,sans-Serif" font-size="10.00"> </text>
<polygon fill="#666666" stroke="#666666" points="4.5,-142.5 4.5,-142.5 87.5,-142.5 87.5,-142.5 4.5,-142.5"/>
<polygon fill="#666666" stroke="#666666" points="4.5,-127.5 4.5,-127.5 87.5,-127.5 87.5,-127.5 4.5,-127.5"/>
<polygon fill="none" stroke="#666666" points="4,-111 4,-160 87,-160 87,-111 4,-111"/>
</a>
</g>
</g>
<!-- Node2&#45;&gt;Node1 -->
<g id="edge5_Node000001_Node000002" class="edge">
<title>Node2&#45;&gt;Node1</title>
<g id="a_edge5_Node000001_Node000002"><a xlink:title=" ">
<path fill="none" stroke="#63b8ff" d="M57.92,-101.32C62.4,-89.35 67.44,-75.9 71.85,-64.11"/>
<polygon fill="none" stroke="#63b8ff" points="54.54,-100.37 54.31,-110.96 61.1,-102.82 54.54,-100.37"/>
</a>
</g>
</g>
<!-- Node3 -->
<g id="Node000003" class="node">
<title>Node3</title>
<g id="a_Node000003"><a xlink:title=" ">
<polygon fill="white" stroke="transparent" points="140,-160 105,-160 105,-111 140,-111 140,-160"/>
<text text-anchor="start" x="110.5" y="-147.5" font-family="Helvetica,sans-Serif" font-size="10.00">tuple</text>
<text text-anchor="start" x="121" y="-132.5" font-family="Helvetica,sans-Serif" font-size="10.00"> </text>
<text text-anchor="start" x="121" y="-117.5" font-family="Helvetica,sans-Serif" font-size="10.00"> </text>
<polygon fill="#666666" stroke="#666666" points="105.5,-142.5 105.5,-142.5 140.5,-142.5 140.5,-142.5 105.5,-142.5"/>
<polygon fill="#666666" stroke="#666666" points="105.5,-127.5 105.5,-127.5 140.5,-127.5 140.5,-127.5 105.5,-127.5"/>
<polygon fill="none" stroke="#666666" points="105,-111 105,-160 140,-160 140,-111 105,-111"/>
</a>
</g>
</g>
<!-- Node3&#45;&gt;Node1 -->
<g id="edge6_Node000001_Node000003" class="edge">
<title>Node3&#45;&gt;Node1</title>
<g id="a_edge6_Node000001_Node000003"><a xlink:title=" ">
<path fill="none" stroke="#63b8ff" d="M113.45,-110.96C109.4,-100.4 104.48,-87.6 99.81,-75.46"/>
<polygon fill="none" stroke="#63b8ff" points="99.76,-75.31 93.87,-71.14 95.45,-64.11 101.34,-68.27 99.76,-75.31"/>
</a>
</g>
<text text-anchor="middle" x="185" y="-85" font-family="Helvetica,sans-Serif" font-size="10.00" fill="grey"> +ASSIGNMENT_TYPE_CHOOSES</text>
</g>
</g>
</svg>
