<?xml version="1.0" encoding="UTF-8" standalone="no"?>
<!DOCTYPE svg PUBLIC "-//W3C//DTD SVG 1.1//EN"
 "http://www.w3.org/Graphics/SVG/1.1/DTD/svg11.dtd">
<!-- Generated by graphviz version 2.43.0 (0)
 -->
<!-- Title: payment.views.CreateCheckoutSession Pages: 1 -->
<svg width="174pt" height="153pt"
 viewBox="0.00 0.00 174.00 153.00" xmlns="http://www.w3.org/2000/svg" xmlns:xlink="http://www.w3.org/1999/xlink">
<g id="graph0" class="graph" transform="scale(1 1) rotate(0) translate(4 149)">
<title>payment.views.CreateCheckoutSession</title>
<!-- Node1 -->
<g id="Node000001" class="node">
<title>Node1</title>
<g id="a_Node000001"><a xlink:title=" ">
<polygon fill="#999999" stroke="transparent" points="166,-60 0,-60 0,0 166,0 166,-60"/>
<text text-anchor="start" x="5" y="-48" font-family="Helvetica,sans-Serif" font-size="10.00">payment.views.CreateCheckout</text>
<text text-anchor="start" x="64" y="-37" font-family="Helvetica,sans-Serif" font-size="10.00">Session</text>
<text text-anchor="start" x="81" y="-22" font-family="Helvetica,sans-Serif" font-size="10.00"> </text>
<text text-anchor="start" x="33" y="-7" font-family="Helvetica,sans-Serif" font-size="10.00">+</text>
<text text-anchor="start" x="75" y="-7" font-family="Helvetica,sans-Serif" font-size="10.00">post()</text>
<polygon fill="#666666" stroke="#666666" points="0,-32 0,-32 166,-32 166,-32 0,-32"/>
<polygon fill="#666666" stroke="#666666" points="0,-17 0,-17 166,-17 166,-17 0,-17"/>
<polygon fill="none" stroke="#666666" points="0,0 0,-60 166,-60 166,0 0,0"/>
</a>
</g>
</g>
<!-- Node2 -->
<g id="Node000002" class="node">
<title>Node2</title>
<g id="a_Node000002"><a xlink:title=" ">
<polygon fill="white" stroke="transparent" points="108,-145 58,-145 58,-96 108,-96 108,-145"/>
<text text-anchor="start" x="63" y="-132.5" font-family="Helvetica,sans-Serif" font-size="10.00">APIView</text>
<text text-anchor="start" x="81" y="-117.5" font-family="Helvetica,sans-Serif" font-size="10.00"> </text>
<text text-anchor="start" x="81" y="-102.5" font-family="Helvetica,sans-Serif" font-size="10.00"> </text>
<polygon fill="#666666" stroke="#666666" points="58,-127.5 58,-127.5 108,-127.5 108,-127.5 58,-127.5"/>
<polygon fill="#666666" stroke="#666666" points="58,-112.5 58,-112.5 108,-112.5 108,-112.5 58,-112.5"/>
<polygon fill="none" stroke="#666666" points="58,-96 58,-145 108,-145 108,-96 58,-96"/>
</a>
</g>
</g>
<!-- Node2&#45;&gt;Node1 -->
<g id="edge3_Node000001_Node000002" class="edge">
<title>Node2&#45;&gt;Node1</title>
<g id="a_edge3_Node000001_Node000002"><a xlink:title=" ">
<path fill="none" stroke="#63b8ff" d="M83,-85.55C83,-77.18 83,-68.28 83,-60.16"/>
<polygon fill="none" stroke="#63b8ff" points="79.5,-85.78 83,-95.78 86.5,-85.78 79.5,-85.78"/>
</a>
</g>
</g>
</g>
</svg>
