<?xml version="1.0" encoding="UTF-8" standalone="no"?>
<!DOCTYPE svg PUBLIC "-//W3C//DTD SVG 1.1//EN"
 "http://www.w3.org/Graphics/SVG/1.1/DTD/svg11.dtd">
<!-- Generated by graphviz version 2.43.0 (0)
 -->
<!-- Title: exchange.views.QuestionUpdateView Pages: 1 -->
<svg width="260pt" height="168pt"
 viewBox="0.00 0.00 260.00 168.00" xmlns="http://www.w3.org/2000/svg" xmlns:xlink="http://www.w3.org/1999/xlink">
<g id="graph0" class="graph" transform="scale(1 1) rotate(0) translate(4 164)">
<title>exchange.views.QuestionUpdateView</title>
<!-- Node1 -->
<g id="Node000001" class="node">
<title>Node1</title>
<g id="a_Node000001"><a xlink:title=" ">
<polygon fill="#999999" stroke="transparent" points="212.5,-64 17.5,-64 17.5,0 212.5,0 212.5,-64"/>
<text text-anchor="start" x="23" y="-52" font-family="Helvetica,sans-Serif" font-size="10.00">exchange.views.QuestionUpdateView</text>
<text text-anchor="start" x="46.5" y="-37" font-family="Helvetica,sans-Serif" font-size="10.00">+</text>
<text text-anchor="start" x="84" y="-37" font-family="Helvetica,sans-Serif" font-size="10.00">queryset</text>
<text text-anchor="start" x="46.5" y="-22" font-family="Helvetica,sans-Serif" font-size="10.00">+</text>
<text text-anchor="start" x="84" y="-22" font-family="Helvetica,sans-Serif" font-size="10.00">serializer_class</text>
<text text-anchor="start" x="46.5" y="-7" font-family="Helvetica,sans-Serif" font-size="10.00">+</text>
<text text-anchor="start" x="84" y="-7" font-family="Helvetica,sans-Serif" font-size="10.00">update()</text>
<polygon fill="#666666" stroke="#666666" points="18,-47 18,-47 213,-47 213,-47 18,-47"/>
<polygon fill="#666666" stroke="#666666" points="18,-17 18,-17 82,-17 82,-17 18,-17"/>
<polygon fill="#666666" stroke="#666666" points="82,-17 82,-17 213,-17 213,-17 82,-17"/>
<polygon fill="none" stroke="#666666" points="17.5,0 17.5,-64 212.5,-64 212.5,0 17.5,0"/>
</a>
</g>
</g>
<!-- Node2 -->
<g id="Node000002" class="node">
<title>Node2</title>
<g id="a_Node000002"><a xlink:title=" ">
<polygon fill="white" stroke="transparent" points="130,-160 0,-160 0,-111 130,-111 130,-160"/>
<text text-anchor="start" x="5" y="-147.5" font-family="Helvetica,sans-Serif" font-size="10.00">generics.UpdateAPIView</text>
<text text-anchor="start" x="63" y="-132.5" font-family="Helvetica,sans-Serif" font-size="10.00"> </text>
<text text-anchor="start" x="63" y="-117.5" font-family="Helvetica,sans-Serif" font-size="10.00"> </text>
<polygon fill="#666666" stroke="#666666" points="0,-142.5 0,-142.5 130,-142.5 130,-142.5 0,-142.5"/>
<polygon fill="#666666" stroke="#666666" points="0,-127.5 0,-127.5 130,-127.5 130,-127.5 0,-127.5"/>
<polygon fill="none" stroke="#666666" points="0,-111 0,-160 130,-160 130,-111 0,-111"/>
</a>
</g>
</g>
<!-- Node2&#45;&gt;Node1 -->
<g id="edge5_Node000001_Node000002" class="edge">
<title>Node2&#45;&gt;Node1</title>
<g id="a_edge5_Node000001_Node000002"><a xlink:title=" ">
<path fill="none" stroke="#63b8ff" d="M81.17,-101.68C87.11,-89.62 93.81,-76.01 99.68,-64.11"/>
<polygon fill="none" stroke="#63b8ff" points="77.88,-100.44 76.6,-110.96 84.16,-103.53 77.88,-100.44"/>
</a>
</g>
</g>
<!-- Node3 -->
<g id="Node000003" class="node">
<title>Node3</title>
<g id="a_Node000003"><a xlink:title=" ">
<polygon fill="white" stroke="transparent" points="183.5,-160 148.5,-160 148.5,-111 183.5,-111 183.5,-160"/>
<text text-anchor="start" x="154" y="-147.5" font-family="Helvetica,sans-Serif" font-size="10.00">tuple</text>
<text text-anchor="start" x="164.5" y="-132.5" font-family="Helvetica,sans-Serif" font-size="10.00"> </text>
<text text-anchor="start" x="164.5" y="-117.5" font-family="Helvetica,sans-Serif" font-size="10.00"> </text>
<polygon fill="#666666" stroke="#666666" points="149,-142.5 149,-142.5 184,-142.5 184,-142.5 149,-142.5"/>
<polygon fill="#666666" stroke="#666666" points="149,-127.5 149,-127.5 184,-127.5 184,-127.5 149,-127.5"/>
<polygon fill="none" stroke="#666666" points="148.5,-111 148.5,-160 183.5,-160 183.5,-111 148.5,-111"/>
</a>
</g>
</g>
<!-- Node3&#45;&gt;Node1 -->
<g id="edge6_Node000001_Node000003" class="edge">
<title>Node3&#45;&gt;Node1</title>
<g id="a_edge6_Node000001_Node000003"><a xlink:title=" ">
<path fill="none" stroke="#63b8ff" d="M154.17,-110.96C148.81,-100.29 142.3,-87.34 136.14,-75.08"/>
<polygon fill="none" stroke="#63b8ff" points="136.02,-74.83 129.75,-71.27 130.63,-64.11 136.9,-67.67 136.02,-74.83"/>
</a>
</g>
<text text-anchor="middle" x="198.5" y="-85" font-family="Helvetica,sans-Serif" font-size="10.00" fill="grey"> +permission_classes</text>
</g>
</g>
</svg>
