<?xml version="1.0" encoding="UTF-8" standalone="no"?>
<!DOCTYPE svg PUBLIC "-//W3C//DTD SVG 1.1//EN"
 "http://www.w3.org/Graphics/SVG/1.1/DTD/svg11.dtd">
<!-- Generated by graphviz version 2.43.0 (0)
 -->
<!-- Title: user.migrations.0009_alter_account_user_type_parent_student_parent.Migration Pages: 1 -->
<svg width="184pt" height="179pt"
 viewBox="0.00 0.00 184.00 179.00" xmlns="http://www.w3.org/2000/svg" xmlns:xlink="http://www.w3.org/1999/xlink">
<g id="graph0" class="graph" transform="scale(1 1) rotate(0) translate(4 175)">
<title>user.migrations.0009_alter_account_user_type_parent_student_parent.Migration</title>
<!-- Node1 -->
<g id="Node000001" class="node">
<title>Node1</title>
<g id="a_Node000001"><a xlink:title=" ">
<polygon fill="#999999" stroke="transparent" points="176,-86 0,-86 0,0 176,0 176,-86"/>
<text text-anchor="start" x="5" y="-74" font-family="Helvetica,sans-Serif" font-size="10.00">user.migrations.0009</text>
<text text-anchor="start" x="5" y="-63" font-family="Helvetica,sans-Serif" font-size="10.00">_alter_account_user_type</text>
<text text-anchor="start" x="5" y="-52" font-family="Helvetica,sans-Serif" font-size="10.00">_parent_student_parent.Migration</text>
<text text-anchor="start" x="25.5" y="-37" font-family="Helvetica,sans-Serif" font-size="10.00">+</text>
<text text-anchor="start" x="60" y="-37" font-family="Helvetica,sans-Serif" font-size="10.00">dependencies</text>
<text text-anchor="start" x="25.5" y="-22" font-family="Helvetica,sans-Serif" font-size="10.00">+</text>
<text text-anchor="start" x="60" y="-22" font-family="Helvetica,sans-Serif" font-size="10.00">operations</text>
<text text-anchor="start" x="86" y="-7" font-family="Helvetica,sans-Serif" font-size="10.00"> </text>
<polygon fill="#666666" stroke="#666666" points="0,-47 0,-47 176,-47 176,-47 0,-47"/>
<polygon fill="#666666" stroke="#666666" points="0,-17 0,-17 58,-17 58,-17 0,-17"/>
<polygon fill="#666666" stroke="#666666" points="58,-17 58,-17 176,-17 176,-17 58,-17"/>
<polygon fill="none" stroke="#666666" points="0,0 0,-86 176,-86 176,0 0,0"/>
</a>
</g>
</g>
<!-- Node2 -->
<g id="Node000002" class="node">
<title>Node2</title>
<g id="a_Node000002"><a xlink:title=" ">
<polygon fill="white" stroke="transparent" points="144.5,-171 31.5,-171 31.5,-122 144.5,-122 144.5,-171"/>
<text text-anchor="start" x="37" y="-158.5" font-family="Helvetica,sans-Serif" font-size="10.00">migrations.Migration</text>
<text text-anchor="start" x="86.5" y="-143.5" font-family="Helvetica,sans-Serif" font-size="10.00"> </text>
<text text-anchor="start" x="86.5" y="-128.5" font-family="Helvetica,sans-Serif" font-size="10.00"> </text>
<polygon fill="#666666" stroke="#666666" points="32,-153.5 32,-153.5 145,-153.5 145,-153.5 32,-153.5"/>
<polygon fill="#666666" stroke="#666666" points="32,-138.5 32,-138.5 145,-138.5 145,-138.5 32,-138.5"/>
<polygon fill="none" stroke="#666666" points="31.5,-122 31.5,-171 144.5,-171 144.5,-122 31.5,-122"/>
</a>
</g>
</g>
<!-- Node2&#45;&gt;Node1 -->
<g id="edge3_Node000001_Node000002" class="edge">
<title>Node2&#45;&gt;Node1</title>
<g id="a_edge3_Node000001_Node000002"><a xlink:title=" ">
<path fill="none" stroke="#63b8ff" d="M88,-111.94C88,-103.68 88,-94.73 88,-86.13"/>
<polygon fill="none" stroke="#63b8ff" points="84.5,-111.96 88,-121.96 91.5,-111.96 84.5,-111.96"/>
</a>
</g>
</g>
</g>
</svg>
