<?xml version="1.0" encoding="UTF-8" standalone="no"?>
<!DOCTYPE svg PUBLIC "-//W3C//DTD SVG 1.1//EN"
 "http://www.w3.org/Graphics/SVG/1.1/DTD/svg11.dtd">
<!-- Generated by graphviz version 2.43.0 (0)
 -->
<!-- Title: exchange.views.QuestionCreateView Pages: 1 -->
<svg width="200pt" height="142pt"
 viewBox="0.00 0.00 200.00 142.00" xmlns="http://www.w3.org/2000/svg" xmlns:xlink="http://www.w3.org/1999/xlink">
<g id="graph0" class="graph" transform="scale(1 1) rotate(0) translate(4 138)">
<title>exchange.views.QuestionCreateView</title>
<!-- Node1 -->
<g id="Node000001" class="node">
<title>Node1</title>
<g id="a_Node000001"><a xlink:title=" ">
<polygon fill="#999999" stroke="transparent" points="192,-49 0,-49 0,0 192,0 192,-49"/>
<text text-anchor="start" x="5" y="-36.5" font-family="Helvetica,sans-Serif" font-size="10.00">exchange.views.QuestionCreateView</text>
<text text-anchor="start" x="22.5" y="-21.5" font-family="Helvetica,sans-Serif" font-size="10.00">+</text>
<text text-anchor="start" x="54" y="-21.5" font-family="Helvetica,sans-Serif" font-size="10.00">permission_classes</text>
<text text-anchor="start" x="22.5" y="-6.5" font-family="Helvetica,sans-Serif" font-size="10.00">+</text>
<text text-anchor="start" x="54" y="-6.5" font-family="Helvetica,sans-Serif" font-size="10.00">post()</text>
<polygon fill="#666666" stroke="#666666" points="0,-31.5 0,-31.5 192,-31.5 192,-31.5 0,-31.5"/>
<polygon fill="#666666" stroke="#666666" points="0,-16.5 0,-16.5 52,-16.5 52,-16.5 0,-16.5"/>
<polygon fill="#666666" stroke="#666666" points="52,-16.5 52,-16.5 192,-16.5 192,-16.5 52,-16.5"/>
<polygon fill="none" stroke="#666666" points="0,0 0,-49 192,-49 192,0 0,0"/>
</a>
</g>
</g>
<!-- Node2 -->
<g id="Node000002" class="node">
<title>Node2</title>
<g id="a_Node000002"><a xlink:title=" ">
<polygon fill="white" stroke="transparent" points="137,-134 55,-134 55,-85 137,-85 137,-134"/>
<text text-anchor="start" x="60" y="-121.5" font-family="Helvetica,sans-Serif" font-size="10.00">views.APIView</text>
<text text-anchor="start" x="94" y="-106.5" font-family="Helvetica,sans-Serif" font-size="10.00"> </text>
<text text-anchor="start" x="94" y="-91.5" font-family="Helvetica,sans-Serif" font-size="10.00"> </text>
<polygon fill="#666666" stroke="#666666" points="55,-116.5 55,-116.5 137,-116.5 137,-116.5 55,-116.5"/>
<polygon fill="#666666" stroke="#666666" points="55,-101.5 55,-101.5 137,-101.5 137,-101.5 55,-101.5"/>
<polygon fill="none" stroke="#666666" points="55,-85 55,-134 137,-134 137,-85 55,-85"/>
</a>
</g>
</g>
<!-- Node2&#45;&gt;Node1 -->
<g id="edge3_Node000001_Node000002" class="edge">
<title>Node2&#45;&gt;Node1</title>
<g id="a_edge3_Node000001_Node000002"><a xlink:title=" ">
<path fill="none" stroke="#63b8ff" d="M96,-74.77C96,-66.17 96,-57.1 96,-49.12"/>
<polygon fill="none" stroke="#63b8ff" points="92.5,-74.94 96,-84.94 99.5,-74.94 92.5,-74.94"/>
</a>
</g>
</g>
</g>
</svg>
