<?xml version="1.0" encoding="UTF-8" standalone="no"?>
<!DOCTYPE svg PUBLIC "-//W3C//DTD SVG 1.1//EN"
 "http://www.w3.org/Graphics/SVG/1.1/DTD/svg11.dtd">
<!-- Generated by graphviz version 2.43.0 (0)
 -->
<!-- Title: user.models.Account Pages: 1 -->
<svg width="573pt" height="288pt"
 viewBox="0.00 0.00 573.00 288.00" xmlns="http://www.w3.org/2000/svg" xmlns:xlink="http://www.w3.org/1999/xlink">
<g id="graph0" class="graph" transform="scale(1 1) rotate(0) translate(4 284)">
<title>user.models.Account</title>
<!-- Node1 -->
<g id="Node000001" class="node">
<title>Node1</title>
<g id="a_Node000001"><a xlink:title=" ">
<polygon fill="#999999" stroke="transparent" points="279,-184 167,-184 167,0 279,0 279,-184"/>
<text text-anchor="start" x="172" y="-172" font-family="Helvetica,sans-Serif" font-size="10.00">user.models.Account</text>
<text text-anchor="start" x="175.5" y="-157" font-family="Helvetica,sans-Serif" font-size="10.00">+</text>
<text text-anchor="start" x="193" y="-157" font-family="Helvetica,sans-Serif" font-size="10.00">username</text>
<text text-anchor="start" x="175.5" y="-142" font-family="Helvetica,sans-Serif" font-size="10.00">+</text>
<text text-anchor="start" x="193" y="-142" font-family="Helvetica,sans-Serif" font-size="10.00">email</text>
<text text-anchor="start" x="175.5" y="-127" font-family="Helvetica,sans-Serif" font-size="10.00">+</text>
<text text-anchor="start" x="193" y="-127" font-family="Helvetica,sans-Serif" font-size="10.00">name</text>
<text text-anchor="start" x="175.5" y="-112" font-family="Helvetica,sans-Serif" font-size="10.00">+</text>
<text text-anchor="start" x="193" y="-112" font-family="Helvetica,sans-Serif" font-size="10.00">phone_number</text>
<text text-anchor="start" x="175.5" y="-97" font-family="Helvetica,sans-Serif" font-size="10.00">+</text>
<text text-anchor="start" x="193" y="-97" font-family="Helvetica,sans-Serif" font-size="10.00">is_active</text>
<text text-anchor="start" x="175.5" y="-82" font-family="Helvetica,sans-Serif" font-size="10.00">+</text>
<text text-anchor="start" x="193" y="-82" font-family="Helvetica,sans-Serif" font-size="10.00">is_staff</text>
<text text-anchor="start" x="175.5" y="-67" font-family="Helvetica,sans-Serif" font-size="10.00">+</text>
<text text-anchor="start" x="193" y="-67" font-family="Helvetica,sans-Serif" font-size="10.00">is_superuser</text>
<text text-anchor="start" x="175.5" y="-52" font-family="Helvetica,sans-Serif" font-size="10.00">+</text>
<text text-anchor="start" x="193" y="-52" font-family="Helvetica,sans-Serif" font-size="10.00">last_login</text>
<text text-anchor="start" x="175.5" y="-37" font-family="Helvetica,sans-Serif" font-size="10.00">+</text>
<text text-anchor="start" x="193" y="-37" font-family="Helvetica,sans-Serif" font-size="10.00">user_type</text>
<text text-anchor="start" x="175.5" y="-22" font-family="Helvetica,sans-Serif" font-size="10.00">+</text>
<text text-anchor="start" x="193" y="-22" font-family="Helvetica,sans-Serif" font-size="10.00">objects</text>
<text text-anchor="start" x="221" y="-7" font-family="Helvetica,sans-Serif" font-size="10.00"> </text>
<polygon fill="#666666" stroke="#666666" points="167,-167 167,-167 279,-167 279,-167 167,-167"/>
<polygon fill="#666666" stroke="#666666" points="167,-17 167,-17 191,-17 191,-17 167,-17"/>
<polygon fill="#666666" stroke="#666666" points="191,-17 191,-17 279,-17 279,-17 191,-17"/>
<polygon fill="none" stroke="#666666" points="167,0 167,-184 279,-184 279,0 167,0"/>
</a>
</g>
</g>
<!-- Node2 -->
<g id="Node000002" class="node">
<title>Node2</title>
<g id="a_Node000002"><a xlink:title=" ">
<polygon fill="white" stroke="transparent" points="98,-280 0,-280 0,-231 98,-231 98,-280"/>
<text text-anchor="start" x="5" y="-267.5" font-family="Helvetica,sans-Serif" font-size="10.00">AbstractBaseUser</text>
<text text-anchor="start" x="47" y="-252.5" font-family="Helvetica,sans-Serif" font-size="10.00"> </text>
<text text-anchor="start" x="47" y="-237.5" font-family="Helvetica,sans-Serif" font-size="10.00"> </text>
<polygon fill="#666666" stroke="#666666" points="0,-262.5 0,-262.5 98,-262.5 98,-262.5 0,-262.5"/>
<polygon fill="#666666" stroke="#666666" points="0,-247.5 0,-247.5 98,-247.5 98,-247.5 0,-247.5"/>
<polygon fill="none" stroke="#666666" points="0,-231 0,-280 98,-280 98,-231 0,-231"/>
</a>
</g>
</g>
<!-- Node2&#45;&gt;Node1 -->
<g id="edge11_Node000001_Node000002" class="edge">
<title>Node2&#45;&gt;Node1</title>
<g id="a_edge11_Node000001_Node000002"><a xlink:title=" ">
<path fill="none" stroke="#63b8ff" d="M82.12,-223.76C106.06,-201.54 138.99,-170.98 166.99,-144.99"/>
<polygon fill="none" stroke="#63b8ff" points="79.62,-221.3 74.67,-230.67 84.38,-226.43 79.62,-221.3"/>
</a>
</g>
</g>
<!-- Node3 -->
<g id="Node000003" class="node">
<title>Node3</title>
<g id="a_Node000003"><a xlink:title=" ">
<polygon fill="white" stroke="transparent" points="213.5,-280 116.5,-280 116.5,-231 213.5,-231 213.5,-280"/>
<text text-anchor="start" x="122" y="-267.5" font-family="Helvetica,sans-Serif" font-size="10.00">PermissionsMixin</text>
<text text-anchor="start" x="163.5" y="-252.5" font-family="Helvetica,sans-Serif" font-size="10.00"> </text>
<text text-anchor="start" x="163.5" y="-237.5" font-family="Helvetica,sans-Serif" font-size="10.00"> </text>
<polygon fill="#666666" stroke="#666666" points="117,-262.5 117,-262.5 214,-262.5 214,-262.5 117,-262.5"/>
<polygon fill="#666666" stroke="#666666" points="117,-247.5 117,-247.5 214,-247.5 214,-247.5 117,-247.5"/>
<polygon fill="none" stroke="#666666" points="116.5,-231 116.5,-280 213.5,-280 213.5,-231 116.5,-231"/>
</a>
</g>
</g>
<!-- Node3&#45;&gt;Node1 -->
<g id="edge12_Node000001_Node000003" class="edge">
<title>Node3&#45;&gt;Node1</title>
<g id="a_edge12_Node000001_Node000003"><a xlink:title=" ">
<path fill="none" stroke="#63b8ff" d="M176.98,-221.13C180.93,-210.15 185.52,-197.36 190.25,-184.19"/>
<polygon fill="none" stroke="#63b8ff" points="173.64,-220.08 173.56,-230.67 180.23,-222.44 173.64,-220.08"/>
</a>
</g>
</g>
<!-- Node4 -->
<g id="Node000004" class="node">
<title>Node4</title>
<g id="a_Node000004"><a xlink:title=" ">
<polygon fill="white" stroke="transparent" points="266.5,-280 231.5,-280 231.5,-231 266.5,-231 266.5,-280"/>
<text text-anchor="start" x="237" y="-267.5" font-family="Helvetica,sans-Serif" font-size="10.00">tuple</text>
<text text-anchor="start" x="247.5" y="-252.5" font-family="Helvetica,sans-Serif" font-size="10.00"> </text>
<text text-anchor="start" x="247.5" y="-237.5" font-family="Helvetica,sans-Serif" font-size="10.00"> </text>
<polygon fill="#666666" stroke="#666666" points="232,-262.5 232,-262.5 267,-262.5 267,-262.5 232,-262.5"/>
<polygon fill="#666666" stroke="#666666" points="232,-247.5 232,-247.5 267,-247.5 267,-247.5 232,-247.5"/>
<polygon fill="none" stroke="#666666" points="231.5,-231 231.5,-280 266.5,-280 266.5,-231 231.5,-231"/>
</a>
</g>
</g>
<!-- Node4&#45;&gt;Node1 -->
<g id="edge13_Node000001_Node000004" class="edge">
<title>Node4&#45;&gt;Node1</title>
<g id="a_edge13_Node000001_Node000004"><a xlink:title=" ">
<path fill="none" stroke="#63b8ff" d="M231.88,-230.93C228.65,-225.31 225.74,-219.15 224,-213 222.45,-207.52 221.23,-201.85 220.27,-196.08"/>
<polygon fill="none" stroke="#63b8ff" points="220.26,-196.04 215.49,-190.63 218.66,-184.15 223.42,-189.56 220.26,-196.04"/>
</a>
</g>
<text text-anchor="middle" x="284" y="-205" font-family="Helvetica,sans-Serif" font-size="10.00" fill="grey"> +USER_TYPE_CHOOSES</text>
</g>
<!-- Node5 -->
<g id="Node000005" class="node">
<title>Node5</title>
<g id="a_Node000005"><a xlink:title=" ">
<polygon fill="white" stroke="transparent" points="377.5,-280 354.5,-280 354.5,-231 377.5,-231 377.5,-280"/>
<text text-anchor="start" x="360" y="-267.5" font-family="Helvetica,sans-Serif" font-size="10.00">str</text>
<text text-anchor="start" x="364.5" y="-252.5" font-family="Helvetica,sans-Serif" font-size="10.00"> </text>
<text text-anchor="start" x="364.5" y="-237.5" font-family="Helvetica,sans-Serif" font-size="10.00"> </text>
<polygon fill="#666666" stroke="#666666" points="355,-262.5 355,-262.5 378,-262.5 378,-262.5 355,-262.5"/>
<polygon fill="#666666" stroke="#666666" points="355,-247.5 355,-247.5 378,-247.5 378,-247.5 355,-247.5"/>
<polygon fill="none" stroke="#666666" points="354.5,-231 354.5,-280 377.5,-280 377.5,-231 354.5,-231"/>
</a>
</g>
</g>
<!-- Node5&#45;&gt;Node1 -->
<g id="edge14_Node000001_Node000005" class="edge">
<title>Node5&#45;&gt;Node1</title>
<g id="a_edge14_Node000001_Node000005"><a xlink:title=" ">
<path fill="none" stroke="#63b8ff" d="M358.64,-230.88C355.06,-221.41 350.18,-210.7 344,-202 328.6,-180.3 308.18,-159.83 288.5,-142.61"/>
<polygon fill="none" stroke="#63b8ff" points="288.35,-142.48 281.19,-141.62 279.23,-134.68 286.39,-135.54 288.35,-142.48"/>
</a>
</g>
<text text-anchor="middle" x="400" y="-205" font-family="Helvetica,sans-Serif" font-size="10.00" fill="grey"> +USERNAME_FIELD</text>
</g>
<!-- Node6 -->
<g id="Node000006" class="node">
<title>Node6</title>
<g id="a_Node000006"><a xlink:title=" ">
<polygon fill="white" stroke="transparent" points="502,-280 476,-280 476,-231 502,-231 502,-280"/>
<text text-anchor="start" x="481" y="-267.5" font-family="Helvetica,sans-Serif" font-size="10.00">list</text>
<text text-anchor="start" x="487" y="-252.5" font-family="Helvetica,sans-Serif" font-size="10.00"> </text>
<text text-anchor="start" x="487" y="-237.5" font-family="Helvetica,sans-Serif" font-size="10.00"> </text>
<polygon fill="#666666" stroke="#666666" points="476,-262.5 476,-262.5 502,-262.5 502,-262.5 476,-262.5"/>
<polygon fill="#666666" stroke="#666666" points="476,-247.5 476,-247.5 502,-247.5 502,-247.5 476,-247.5"/>
<polygon fill="none" stroke="#666666" points="476,-231 476,-280 502,-280 502,-231 476,-231"/>
</a>
</g>
</g>
<!-- Node6&#45;&gt;Node1 -->
<g id="edge15_Node000001_Node000006" class="edge">
<title>Node6&#45;&gt;Node1</title>
<g id="a_edge15_Node000001_Node000006"><a xlink:title=" ">
<path fill="none" stroke="#63b8ff" d="M477.05,-230.96C471.15,-221.06 463.29,-210.01 454,-202 406.13,-160.7 339.93,-131.6 290.67,-113.91"/>
<polygon fill="none" stroke="#63b8ff" points="290.49,-113.85 283.51,-115.64 279.17,-109.88 286.15,-108.09 290.49,-113.85"/>
</a>
</g>
<text text-anchor="middle" x="514" y="-205" font-family="Helvetica,sans-Serif" font-size="10.00" fill="grey"> +REQUIRED_FIELDS</text>
</g>
</g>
</svg>
