<?xml version="1.0" encoding="UTF-8" standalone="no"?>
<!DOCTYPE svg PUBLIC "-//W3C//DTD SVG 1.1//EN"
 "http://www.w3.org/Graphics/SVG/1.1/DTD/svg11.dtd">
<!-- Generated by graphviz version 2.43.0 (0)
 -->
<!-- Title: exchange.views.CommentDeleteView Pages: 1 -->
<svg width="205pt" height="172pt"
 viewBox="0.00 0.00 205.00 172.00" xmlns="http://www.w3.org/2000/svg" xmlns:xlink="http://www.w3.org/1999/xlink">
<g id="graph0" class="graph" transform="scale(1 1) rotate(0) translate(4 168)">
<title>exchange.views.CommentDeleteView</title>
<!-- Node1 -->
<g id="Node000001" class="node">
<title>Node1</title>
<g id="a_Node000001"><a xlink:title=" ">
<polygon fill="#999999" stroke="transparent" points="197,-79 0,-79 0,0 197,0 197,-79"/>
<text text-anchor="start" x="5.5" y="-66.5" font-family="Helvetica,sans-Serif" font-size="10.00">exchange.views.CommentDeleteView</text>
<text text-anchor="start" x="24.5" y="-51.5" font-family="Helvetica,sans-Serif" font-size="10.00">+</text>
<text text-anchor="start" x="57.5" y="-51.5" font-family="Helvetica,sans-Serif" font-size="10.00">queryset</text>
<text text-anchor="start" x="24.5" y="-36.5" font-family="Helvetica,sans-Serif" font-size="10.00">+</text>
<text text-anchor="start" x="57.5" y="-36.5" font-family="Helvetica,sans-Serif" font-size="10.00">permission_classes</text>
<text text-anchor="start" x="24.5" y="-21.5" font-family="Helvetica,sans-Serif" font-size="10.00">+</text>
<text text-anchor="start" x="57.5" y="-21.5" font-family="Helvetica,sans-Serif" font-size="10.00">serializer_class</text>
<text text-anchor="start" x="24.5" y="-6.5" font-family="Helvetica,sans-Serif" font-size="10.00">+</text>
<text text-anchor="start" x="57.5" y="-6.5" font-family="Helvetica,sans-Serif" font-size="10.00">delete()</text>
<polygon fill="#666666" stroke="#666666" points="0.5,-61.5 0.5,-61.5 197.5,-61.5 197.5,-61.5 0.5,-61.5"/>
<polygon fill="#666666" stroke="#666666" points="0.5,-16.5 0.5,-16.5 55.5,-16.5 55.5,-16.5 0.5,-16.5"/>
<polygon fill="#666666" stroke="#666666" points="55.5,-16.5 55.5,-16.5 197.5,-16.5 197.5,-16.5 55.5,-16.5"/>
<polygon fill="none" stroke="#666666" points="0,0 0,-79 197,-79 197,0 0,0"/>
</a>
</g>
</g>
<!-- Node2 -->
<g id="Node000002" class="node">
<title>Node2</title>
<g id="a_Node000002"><a xlink:title=" ">
<polygon fill="white" stroke="transparent" points="166.5,-164 30.5,-164 30.5,-115 166.5,-115 166.5,-164"/>
<text text-anchor="start" x="35.5" y="-151.5" font-family="Helvetica,sans-Serif" font-size="10.00">generics::DestroyAPIView</text>
<text text-anchor="start" x="96.5" y="-136.5" font-family="Helvetica,sans-Serif" font-size="10.00"> </text>
<text text-anchor="start" x="96.5" y="-121.5" font-family="Helvetica,sans-Serif" font-size="10.00"> </text>
<polygon fill="#666666" stroke="#666666" points="30.5,-146.5 30.5,-146.5 166.5,-146.5 166.5,-146.5 30.5,-146.5"/>
<polygon fill="#666666" stroke="#666666" points="30.5,-131.5 30.5,-131.5 166.5,-131.5 166.5,-131.5 30.5,-131.5"/>
<polygon fill="none" stroke="#666666" points="30.5,-115 30.5,-164 166.5,-164 166.5,-115 30.5,-115"/>
</a>
</g>
</g>
<!-- Node2&#45;&gt;Node1 -->
<g id="edge3_Node000001_Node000002" class="edge">
<title>Node2&#45;&gt;Node1</title>
<g id="a_edge3_Node000001_Node000002"><a xlink:title=" ">
<path fill="none" stroke="#63b8ff" d="M98.5,-104.52C98.5,-96.38 98.5,-87.63 98.5,-79.29"/>
<polygon fill="none" stroke="#63b8ff" points="95,-104.78 98.5,-114.78 102,-104.78 95,-104.78"/>
</a>
</g>
</g>
</g>
</svg>
