<?xml version="1.0" encoding="UTF-8" standalone="no"?>
<!DOCTYPE svg PUBLIC "-//W3C//DTD SVG 1.1//EN"
 "http://www.w3.org/Graphics/SVG/1.1/DTD/svg11.dtd">
<!-- Generated by graphviz version 2.43.0 (0)
 -->
<!-- Title: exchange.views.CommentUpdateView Pages: 1 -->
<svg width="208pt" height="172pt"
 viewBox="0.00 0.00 208.00 172.00" xmlns="http://www.w3.org/2000/svg" xmlns:xlink="http://www.w3.org/1999/xlink">
<g id="graph0" class="graph" transform="scale(1 1) rotate(0) translate(4 168)">
<title>exchange.views.CommentUpdateView</title>
<!-- Node1 -->
<g id="Node000001" class="node">
<title>Node1</title>
<g id="a_Node000001"><a xlink:title=" ">
<polygon fill="#999999" stroke="transparent" points="200,-79 0,-79 0,0 200,0 200,-79"/>
<text text-anchor="start" x="5" y="-66.5" font-family="Helvetica,sans-Serif" font-size="10.00">exchange.views.CommentUpdateView</text>
<text text-anchor="start" x="24.5" y="-51.5" font-family="Helvetica,sans-Serif" font-size="10.00">+</text>
<text text-anchor="start" x="58" y="-51.5" font-family="Helvetica,sans-Serif" font-size="10.00">queryset</text>
<text text-anchor="start" x="24.5" y="-36.5" font-family="Helvetica,sans-Serif" font-size="10.00">+</text>
<text text-anchor="start" x="58" y="-36.5" font-family="Helvetica,sans-Serif" font-size="10.00">permission_classes</text>
<text text-anchor="start" x="24.5" y="-21.5" font-family="Helvetica,sans-Serif" font-size="10.00">+</text>
<text text-anchor="start" x="58" y="-21.5" font-family="Helvetica,sans-Serif" font-size="10.00">serializer_class</text>
<text text-anchor="start" x="98" y="-6.5" font-family="Helvetica,sans-Serif" font-size="10.00"> </text>
<polygon fill="#666666" stroke="#666666" points="0,-61.5 0,-61.5 200,-61.5 200,-61.5 0,-61.5"/>
<polygon fill="#666666" stroke="#666666" points="0,-16.5 0,-16.5 56,-16.5 56,-16.5 0,-16.5"/>
<polygon fill="#666666" stroke="#666666" points="56,-16.5 56,-16.5 200,-16.5 200,-16.5 56,-16.5"/>
<polygon fill="none" stroke="#666666" points="0,0 0,-79 200,-79 200,0 0,0"/>
</a>
</g>
</g>
<!-- Node2 -->
<g id="Node000002" class="node">
<title>Node2</title>
<g id="a_Node000002"><a xlink:title=" ">
<polygon fill="white" stroke="transparent" points="166.5,-164 33.5,-164 33.5,-115 166.5,-115 166.5,-164"/>
<text text-anchor="start" x="39" y="-151.5" font-family="Helvetica,sans-Serif" font-size="10.00">generics::UpdateAPIView</text>
<text text-anchor="start" x="98.5" y="-136.5" font-family="Helvetica,sans-Serif" font-size="10.00"> </text>
<text text-anchor="start" x="98.5" y="-121.5" font-family="Helvetica,sans-Serif" font-size="10.00"> </text>
<polygon fill="#666666" stroke="#666666" points="34,-146.5 34,-146.5 167,-146.5 167,-146.5 34,-146.5"/>
<polygon fill="#666666" stroke="#666666" points="34,-131.5 34,-131.5 167,-131.5 167,-131.5 34,-131.5"/>
<polygon fill="none" stroke="#666666" points="33.5,-115 33.5,-164 166.5,-164 166.5,-115 33.5,-115"/>
</a>
</g>
</g>
<!-- Node2&#45;&gt;Node1 -->
<g id="edge3_Node000001_Node000002" class="edge">
<title>Node2&#45;&gt;Node1</title>
<g id="a_edge3_Node000001_Node000002"><a xlink:title=" ">
<path fill="none" stroke="#63b8ff" d="M100,-104.52C100,-96.38 100,-87.63 100,-79.29"/>
<polygon fill="none" stroke="#63b8ff" points="96.5,-104.78 100,-114.78 103.5,-104.78 96.5,-104.78"/>
</a>
</g>
</g>
</g>
</svg>
