<?xml version="1.0" encoding="UTF-8" standalone="no"?>
<!DOCTYPE svg PUBLIC "-//W3C//DTD SVG 1.1//EN"
 "http://www.w3.org/Graphics/SVG/1.1/DTD/svg11.dtd">
<!-- Generated by graphviz version 2.43.0 (0)
 -->
<!-- Title: assignment.models.AssignmentMark Pages: 1 -->
<svg width="200pt" height="157pt"
 viewBox="0.00 0.00 200.00 157.00" xmlns="http://www.w3.org/2000/svg" xmlns:xlink="http://www.w3.org/1999/xlink">
<g id="graph0" class="graph" transform="scale(1 1) rotate(0) translate(4 153)">
<title>assignment.models.AssignmentMark</title>
<!-- Node1 -->
<g id="Node000001" class="node">
<title>Node1</title>
<g id="a_Node000001"><a xlink:title=" ">
<polygon fill="#999999" stroke="transparent" points="192,-64 0,-64 0,0 192,0 192,-64"/>
<text text-anchor="start" x="5" y="-52" font-family="Helvetica,sans-Serif" font-size="10.00">assignment.models.AssignmentMark</text>
<text text-anchor="start" x="32" y="-37" font-family="Helvetica,sans-Serif" font-size="10.00">+</text>
<text text-anchor="start" x="73" y="-37" font-family="Helvetica,sans-Serif" font-size="10.00">assignment</text>
<text text-anchor="start" x="32" y="-22" font-family="Helvetica,sans-Serif" font-size="10.00">+</text>
<text text-anchor="start" x="73" y="-22" font-family="Helvetica,sans-Serif" font-size="10.00">mark</text>
<text text-anchor="start" x="94" y="-7" font-family="Helvetica,sans-Serif" font-size="10.00"> </text>
<polygon fill="#666666" stroke="#666666" points="0,-47 0,-47 192,-47 192,-47 0,-47"/>
<polygon fill="#666666" stroke="#666666" points="0,-17 0,-17 71,-17 71,-17 0,-17"/>
<polygon fill="#666666" stroke="#666666" points="71,-17 71,-17 192,-17 192,-17 71,-17"/>
<polygon fill="none" stroke="#666666" points="0,0 0,-64 192,-64 192,0 0,0"/>
</a>
</g>
</g>
<!-- Node2 -->
<g id="Node000002" class="node">
<title>Node2</title>
<g id="a_Node000002"><a xlink:title=" ">
<polygon fill="white" stroke="transparent" points="136,-149 56,-149 56,-100 136,-100 136,-149"/>
<text text-anchor="start" x="61" y="-136.5" font-family="Helvetica,sans-Serif" font-size="10.00">models.Model</text>
<text text-anchor="start" x="94" y="-121.5" font-family="Helvetica,sans-Serif" font-size="10.00"> </text>
<text text-anchor="start" x="94" y="-106.5" font-family="Helvetica,sans-Serif" font-size="10.00"> </text>
<polygon fill="#666666" stroke="#666666" points="56,-131.5 56,-131.5 136,-131.5 136,-131.5 56,-131.5"/>
<polygon fill="#666666" stroke="#666666" points="56,-116.5 56,-116.5 136,-116.5 136,-116.5 56,-116.5"/>
<polygon fill="none" stroke="#666666" points="56,-100 56,-149 136,-149 136,-100 56,-100"/>
</a>
</g>
</g>
<!-- Node2&#45;&gt;Node1 -->
<g id="edge3_Node000001_Node000002" class="edge">
<title>Node2&#45;&gt;Node1</title>
<g id="a_edge3_Node000001_Node000002"><a xlink:title=" ">
<path fill="none" stroke="#63b8ff" d="M96,-89.54C96,-81.2 96,-72.31 96,-64.11"/>
<polygon fill="none" stroke="#63b8ff" points="92.5,-89.72 96,-99.72 99.5,-89.72 92.5,-89.72"/>
</a>
</g>
</g>
</g>
</svg>
