<?xml version="1.0" encoding="UTF-8" standalone="no"?>
<!DOCTYPE svg PUBLIC "-//W3C//DTD SVG 1.1//EN"
 "http://www.w3.org/Graphics/SVG/1.1/DTD/svg11.dtd">
<!-- Generated by graphviz version 2.43.0 (0)
 -->
<!-- Title: user.views.UserView Pages: 1 -->
<svg width="216pt" height="168pt"
 viewBox="0.00 0.00 216.00 168.00" xmlns="http://www.w3.org/2000/svg" xmlns:xlink="http://www.w3.org/1999/xlink">
<g id="graph0" class="graph" transform="scale(1 1) rotate(0) translate(4 164)">
<title>user.views.UserView</title>
<!-- Node1 -->
<g id="Node000001" class="node">
<title>Node1</title>
<g id="a_Node000001"><a xlink:title=" ">
<polygon fill="#999999" stroke="transparent" points="135,-64 23,-64 23,0 135,0 135,-64"/>
<text text-anchor="start" x="28" y="-52" font-family="Helvetica,sans-Serif" font-size="10.00">user.views.UserView</text>
<text text-anchor="start" x="77" y="-37" font-family="Helvetica,sans-Serif" font-size="10.00"> </text>
<text text-anchor="start" x="31.5" y="-22" font-family="Helvetica,sans-Serif" font-size="10.00">+</text>
<text text-anchor="start" x="49" y="-22" font-family="Helvetica,sans-Serif" font-size="10.00">get()</text>
<text text-anchor="start" x="31.5" y="-7" font-family="Helvetica,sans-Serif" font-size="10.00">+</text>
<text text-anchor="start" x="49" y="-7" font-family="Helvetica,sans-Serif" font-size="10.00">generate_pdf()</text>
<polygon fill="#666666" stroke="#666666" points="23,-47 23,-47 135,-47 135,-47 23,-47"/>
<polygon fill="#666666" stroke="#666666" points="23,-32 23,-32 135,-32 135,-32 23,-32"/>
<polygon fill="none" stroke="#666666" points="23,0 23,-64 135,-64 135,0 23,0"/>
</a>
</g>
</g>
<!-- Node2 -->
<g id="Node000002" class="node">
<title>Node2</title>
<g id="a_Node000002"><a xlink:title=" ">
<polygon fill="white" stroke="transparent" points="82,-160 0,-160 0,-111 82,-111 82,-160"/>
<text text-anchor="start" x="5" y="-147.5" font-family="Helvetica,sans-Serif" font-size="10.00">views.APIView</text>
<text text-anchor="start" x="39" y="-132.5" font-family="Helvetica,sans-Serif" font-size="10.00"> </text>
<text text-anchor="start" x="39" y="-117.5" font-family="Helvetica,sans-Serif" font-size="10.00"> </text>
<polygon fill="#666666" stroke="#666666" points="0,-142.5 0,-142.5 82,-142.5 82,-142.5 0,-142.5"/>
<polygon fill="#666666" stroke="#666666" points="0,-127.5 0,-127.5 82,-127.5 82,-127.5 0,-127.5"/>
<polygon fill="none" stroke="#666666" points="0,-111 0,-160 82,-160 82,-111 0,-111"/>
</a>
</g>
</g>
<!-- Node2&#45;&gt;Node1 -->
<g id="edge5_Node000001_Node000002" class="edge">
<title>Node2&#45;&gt;Node1</title>
<g id="a_edge5_Node000001_Node000002"><a xlink:title=" ">
<path fill="none" stroke="#63b8ff" d="M53.42,-101.32C57.9,-89.35 62.94,-75.9 67.35,-64.11"/>
<polygon fill="none" stroke="#63b8ff" points="50.04,-100.37 49.81,-110.96 56.6,-102.82 50.04,-100.37"/>
</a>
</g>
</g>
<!-- Node3 -->
<g id="Node000003" class="node">
<title>Node3</title>
<g id="a_Node000003"><a xlink:title=" ">
<polygon fill="white" stroke="transparent" points="135.5,-160 100.5,-160 100.5,-111 135.5,-111 135.5,-160"/>
<text text-anchor="start" x="106" y="-147.5" font-family="Helvetica,sans-Serif" font-size="10.00">tuple</text>
<text text-anchor="start" x="116.5" y="-132.5" font-family="Helvetica,sans-Serif" font-size="10.00"> </text>
<text text-anchor="start" x="116.5" y="-117.5" font-family="Helvetica,sans-Serif" font-size="10.00"> </text>
<polygon fill="#666666" stroke="#666666" points="101,-142.5 101,-142.5 136,-142.5 136,-142.5 101,-142.5"/>
<polygon fill="#666666" stroke="#666666" points="101,-127.5 101,-127.5 136,-127.5 136,-127.5 101,-127.5"/>
<polygon fill="none" stroke="#666666" points="100.5,-111 100.5,-160 135.5,-160 135.5,-111 100.5,-111"/>
</a>
</g>
</g>
<!-- Node3&#45;&gt;Node1 -->
<g id="edge6_Node000001_Node000003" class="edge">
<title>Node3&#45;&gt;Node1</title>
<g id="a_edge6_Node000001_Node000003"><a xlink:title=" ">
<path fill="none" stroke="#63b8ff" d="M108.95,-110.96C104.9,-100.4 99.98,-87.6 95.31,-75.46"/>
<polygon fill="none" stroke="#63b8ff" points="95.26,-75.31 89.37,-71.14 90.95,-64.11 96.84,-68.27 95.26,-75.31"/>
</a>
</g>
<text text-anchor="middle" x="154.5" y="-85" font-family="Helvetica,sans-Serif" font-size="10.00" fill="grey"> +permission_classes</text>
</g>
</g>
</svg>
