<?xml version="1.0" encoding="UTF-8" standalone="no"?>
<!DOCTYPE svg PUBLIC "-//W3C//DTD SVG 1.1//EN"
 "http://www.w3.org/Graphics/SVG/1.1/DTD/svg11.dtd">
<!-- Generated by graphviz version 2.43.0 (0)
 -->
<!-- Title: grade.permission.CanUpvote Pages: 1 -->
<svg width="160pt" height="142pt"
 viewBox="0.00 0.00 160.00 142.00" xmlns="http://www.w3.org/2000/svg" xmlns:xlink="http://www.w3.org/1999/xlink">
<g id="graph0" class="graph" transform="scale(1 1) rotate(0) translate(4 138)">
<title>grade.permission.CanUpvote</title>
<!-- Node1 -->
<g id="Node000001" class="node">
<title>Node1</title>
<g id="a_Node000001"><a xlink:title=" ">
<polygon fill="#999999" stroke="transparent" points="152,-49 0,-49 0,0 152,0 152,-49"/>
<text text-anchor="start" x="5" y="-36.5" font-family="Helvetica,sans-Serif" font-size="10.00">grade.permission.CanUpvote</text>
<text text-anchor="start" x="74" y="-21.5" font-family="Helvetica,sans-Serif" font-size="10.00"> </text>
<text text-anchor="start" x="6.5" y="-6.5" font-family="Helvetica,sans-Serif" font-size="10.00">+</text>
<text text-anchor="start" x="22" y="-6.5" font-family="Helvetica,sans-Serif" font-size="10.00">has_object_permission()</text>
<polygon fill="#666666" stroke="#666666" points="0,-31.5 0,-31.5 152,-31.5 152,-31.5 0,-31.5"/>
<polygon fill="#666666" stroke="#666666" points="0,-16.5 0,-16.5 152,-16.5 152,-16.5 0,-16.5"/>
<polygon fill="none" stroke="#666666" points="0,0 0,-49 152,-49 152,0 0,0"/>
</a>
</g>
</g>
<!-- Node2 -->
<g id="Node000002" class="node">
<title>Node2</title>
<g id="a_Node000002"><a xlink:title=" ">
<polygon fill="white" stroke="transparent" points="151.5,-134 0.5,-134 0.5,-85 151.5,-85 151.5,-134"/>
<text text-anchor="start" x="6" y="-121.5" font-family="Helvetica,sans-Serif" font-size="10.00">permissions.BasePermission</text>
<text text-anchor="start" x="74.5" y="-106.5" font-family="Helvetica,sans-Serif" font-size="10.00"> </text>
<text text-anchor="start" x="74.5" y="-91.5" font-family="Helvetica,sans-Serif" font-size="10.00"> </text>
<polygon fill="#666666" stroke="#666666" points="1,-116.5 1,-116.5 152,-116.5 152,-116.5 1,-116.5"/>
<polygon fill="#666666" stroke="#666666" points="1,-101.5 1,-101.5 152,-101.5 152,-101.5 1,-101.5"/>
<polygon fill="none" stroke="#666666" points="0.5,-85 0.5,-134 151.5,-134 151.5,-85 0.5,-85"/>
</a>
</g>
</g>
<!-- Node2&#45;&gt;Node1 -->
<g id="edge3_Node000001_Node000002" class="edge">
<title>Node2&#45;&gt;Node1</title>
<g id="a_edge3_Node000001_Node000002"><a xlink:title=" ">
<path fill="none" stroke="#63b8ff" d="M76,-74.77C76,-66.17 76,-57.1 76,-49.12"/>
<polygon fill="none" stroke="#63b8ff" points="72.5,-74.94 76,-84.94 79.5,-74.94 72.5,-74.94"/>
</a>
</g>
</g>
</g>
</svg>
