<?xml version="1.0" encoding="UTF-8" standalone="no"?>
<!DOCTYPE svg PUBLIC "-//W3C//DTD SVG 1.1//EN"
 "http://www.w3.org/Graphics/SVG/1.1/DTD/svg11.dtd">
<!-- Generated by graphviz version 2.43.0 (0)
 -->
<!-- Title: user.migrations.0011_alter_student_parent_delete_parent.Migration Pages: 1 -->
<svg width="141pt" height="179pt"
 viewBox="0.00 0.00 141.00 179.00" xmlns="http://www.w3.org/2000/svg" xmlns:xlink="http://www.w3.org/1999/xlink">
<g id="graph0" class="graph" transform="scale(1 1) rotate(0) translate(4 175)">
<title>user.migrations.0011_alter_student_parent_delete_parent.Migration</title>
<!-- Node1 -->
<g id="Node000001" class="node">
<title>Node1</title>
<g id="a_Node000001"><a xlink:title=" ">
<polygon fill="#999999" stroke="transparent" points="133,-86 0,-86 0,0 133,0 133,-86"/>
<text text-anchor="start" x="5.5" y="-74" font-family="Helvetica,sans-Serif" font-size="10.00">user.migrations.0011</text>
<text text-anchor="start" x="5.5" y="-63" font-family="Helvetica,sans-Serif" font-size="10.00">_alter_student_parent</text>
<text text-anchor="start" x="5.5" y="-52" font-family="Helvetica,sans-Serif" font-size="10.00">_delete_parent.Migration</text>
<text text-anchor="start" x="15.5" y="-37" font-family="Helvetica,sans-Serif" font-size="10.00">+</text>
<text text-anchor="start" x="39.5" y="-37" font-family="Helvetica,sans-Serif" font-size="10.00">dependencies</text>
<text text-anchor="start" x="15.5" y="-22" font-family="Helvetica,sans-Serif" font-size="10.00">+</text>
<text text-anchor="start" x="39.5" y="-22" font-family="Helvetica,sans-Serif" font-size="10.00">operations</text>
<text text-anchor="start" x="65" y="-7" font-family="Helvetica,sans-Serif" font-size="10.00"> </text>
<polygon fill="#666666" stroke="#666666" points="0.5,-47 0.5,-47 133.5,-47 133.5,-47 0.5,-47"/>
<polygon fill="#666666" stroke="#666666" points="0.5,-17 0.5,-17 37.5,-17 37.5,-17 0.5,-17"/>
<polygon fill="#666666" stroke="#666666" points="37.5,-17 37.5,-17 133.5,-17 133.5,-17 37.5,-17"/>
<polygon fill="none" stroke="#666666" points="0,0 0,-86 133,-86 133,0 0,0"/>
</a>
</g>
</g>
<!-- Node2 -->
<g id="Node000002" class="node">
<title>Node2</title>
<g id="a_Node000002"><a xlink:title=" ">
<polygon fill="white" stroke="transparent" points="123,-171 10,-171 10,-122 123,-122 123,-171"/>
<text text-anchor="start" x="15.5" y="-158.5" font-family="Helvetica,sans-Serif" font-size="10.00">migrations.Migration</text>
<text text-anchor="start" x="65" y="-143.5" font-family="Helvetica,sans-Serif" font-size="10.00"> </text>
<text text-anchor="start" x="65" y="-128.5" font-family="Helvetica,sans-Serif" font-size="10.00"> </text>
<polygon fill="#666666" stroke="#666666" points="10.5,-153.5 10.5,-153.5 123.5,-153.5 123.5,-153.5 10.5,-153.5"/>
<polygon fill="#666666" stroke="#666666" points="10.5,-138.5 10.5,-138.5 123.5,-138.5 123.5,-138.5 10.5,-138.5"/>
<polygon fill="none" stroke="#666666" points="10,-122 10,-171 123,-171 123,-122 10,-122"/>
</a>
</g>
</g>
<!-- Node2&#45;&gt;Node1 -->
<g id="edge3_Node000001_Node000002" class="edge">
<title>Node2&#45;&gt;Node1</title>
<g id="a_edge3_Node000001_Node000002"><a xlink:title=" ">
<path fill="none" stroke="#63b8ff" d="M66.5,-111.94C66.5,-103.68 66.5,-94.73 66.5,-86.13"/>
<polygon fill="none" stroke="#63b8ff" points="63,-111.96 66.5,-121.96 70,-111.96 63,-111.96"/>
</a>
</g>
</g>
</g>
</svg>
