<?xml version="1.0" encoding="UTF-8" standalone="no"?>
<!DOCTYPE svg PUBLIC "-//W3C//DTD SVG 1.1//EN"
 "http://www.w3.org/Graphics/SVG/1.1/DTD/svg11.dtd">
<!-- Generated by graphviz version 2.43.0 (0)
 -->
<!-- Title: webhooks.views.TelegramWebhook Pages: 1 -->
<svg width="193pt" height="142pt"
 viewBox="0.00 0.00 193.00 142.00" xmlns="http://www.w3.org/2000/svg" xmlns:xlink="http://www.w3.org/1999/xlink">
<g id="graph0" class="graph" transform="scale(1 1) rotate(0) translate(4 138)">
<title>webhooks.views.TelegramWebhook</title>
<!-- Node1 -->
<g id="Node000001" class="node">
<title>Node1</title>
<g id="a_Node000001"><a xlink:title=" ">
<polygon fill="#999999" stroke="transparent" points="185,-49 0,-49 0,0 185,0 185,-49"/>
<text text-anchor="start" x="5.5" y="-36.5" font-family="Helvetica,sans-Serif" font-size="10.00">webhooks.views.TelegramWebhook</text>
<text text-anchor="start" x="21.5" y="-21.5" font-family="Helvetica,sans-Serif" font-size="10.00">+</text>
<text text-anchor="start" x="51.5" y="-21.5" font-family="Helvetica,sans-Serif" font-size="10.00">permission_classes</text>
<text text-anchor="start" x="21.5" y="-6.5" font-family="Helvetica,sans-Serif" font-size="10.00">+</text>
<text text-anchor="start" x="51.5" y="-6.5" font-family="Helvetica,sans-Serif" font-size="10.00">post()</text>
<polygon fill="#666666" stroke="#666666" points="0.5,-31.5 0.5,-31.5 185.5,-31.5 185.5,-31.5 0.5,-31.5"/>
<polygon fill="#666666" stroke="#666666" points="0.5,-16.5 0.5,-16.5 49.5,-16.5 49.5,-16.5 0.5,-16.5"/>
<polygon fill="#666666" stroke="#666666" points="49.5,-16.5 49.5,-16.5 185.5,-16.5 185.5,-16.5 49.5,-16.5"/>
<polygon fill="none" stroke="#666666" points="0,0 0,-49 185,-49 185,0 0,0"/>
</a>
</g>
</g>
<!-- Node2 -->
<g id="Node000002" class="node">
<title>Node2</title>
<g id="a_Node000002"><a xlink:title=" ">
<polygon fill="white" stroke="transparent" points="117.5,-134 67.5,-134 67.5,-85 117.5,-85 117.5,-134"/>
<text text-anchor="start" x="72.5" y="-121.5" font-family="Helvetica,sans-Serif" font-size="10.00">APIView</text>
<text text-anchor="start" x="90.5" y="-106.5" font-family="Helvetica,sans-Serif" font-size="10.00"> </text>
<text text-anchor="start" x="90.5" y="-91.5" font-family="Helvetica,sans-Serif" font-size="10.00"> </text>
<polygon fill="#666666" stroke="#666666" points="67.5,-116.5 67.5,-116.5 117.5,-116.5 117.5,-116.5 67.5,-116.5"/>
<polygon fill="#666666" stroke="#666666" points="67.5,-101.5 67.5,-101.5 117.5,-101.5 117.5,-101.5 67.5,-101.5"/>
<polygon fill="none" stroke="#666666" points="67.5,-85 67.5,-134 117.5,-134 117.5,-85 67.5,-85"/>
</a>
</g>
</g>
<!-- Node2&#45;&gt;Node1 -->
<g id="edge3_Node000001_Node000002" class="edge">
<title>Node2&#45;&gt;Node1</title>
<g id="a_edge3_Node000001_Node000002"><a xlink:title=" ">
<path fill="none" stroke="#63b8ff" d="M92.5,-74.77C92.5,-66.17 92.5,-57.1 92.5,-49.12"/>
<polygon fill="none" stroke="#63b8ff" points="89,-74.94 92.5,-84.94 96,-74.94 89,-74.94"/>
</a>
</g>
</g>
</g>
</svg>
