<?xml version="1.0" encoding="UTF-8" standalone="no"?>
<!DOCTYPE svg PUBLIC "-//W3C//DTD SVG 1.1//EN"
 "http://www.w3.org/Graphics/SVG/1.1/DTD/svg11.dtd">
<!-- Generated by graphviz version 2.43.0 (0)
 -->
<!-- Title: grade.views.MarkDeleteView Pages: 1 -->
<svg width="162pt" height="172pt"
 viewBox="0.00 0.00 162.00 172.00" xmlns="http://www.w3.org/2000/svg" xmlns:xlink="http://www.w3.org/1999/xlink">
<g id="graph0" class="graph" transform="scale(1 1) rotate(0) translate(4 168)">
<title>grade.views.MarkDeleteView</title>
<!-- Node1 -->
<g id="Node000001" class="node">
<title>Node1</title>
<g id="a_Node000001"><a xlink:title=" ">
<polygon fill="#999999" stroke="transparent" points="154,-79 0,-79 0,0 154,0 154,-79"/>
<text text-anchor="start" x="5" y="-66.5" font-family="Helvetica,sans-Serif" font-size="10.00">grade.views.MarkDeleteView</text>
<text text-anchor="start" x="13" y="-51.5" font-family="Helvetica,sans-Serif" font-size="10.00">+</text>
<text text-anchor="start" x="35" y="-51.5" font-family="Helvetica,sans-Serif" font-size="10.00">queryset</text>
<text text-anchor="start" x="13" y="-36.5" font-family="Helvetica,sans-Serif" font-size="10.00">+</text>
<text text-anchor="start" x="35" y="-36.5" font-family="Helvetica,sans-Serif" font-size="10.00">serializer_class</text>
<text text-anchor="start" x="13" y="-21.5" font-family="Helvetica,sans-Serif" font-size="10.00">+</text>
<text text-anchor="start" x="35" y="-21.5" font-family="Helvetica,sans-Serif" font-size="10.00">permission_classes</text>
<text text-anchor="start" x="75" y="-6.5" font-family="Helvetica,sans-Serif" font-size="10.00"> </text>
<polygon fill="#666666" stroke="#666666" points="0,-61.5 0,-61.5 154,-61.5 154,-61.5 0,-61.5"/>
<polygon fill="#666666" stroke="#666666" points="0,-16.5 0,-16.5 33,-16.5 33,-16.5 0,-16.5"/>
<polygon fill="#666666" stroke="#666666" points="33,-16.5 33,-16.5 154,-16.5 154,-16.5 33,-16.5"/>
<polygon fill="none" stroke="#666666" points="0,0 0,-79 154,-79 154,0 0,0"/>
</a>
</g>
</g>
<!-- Node2 -->
<g id="Node000002" class="node">
<title>Node2</title>
<g id="a_Node000002"><a xlink:title=" ">
<polygon fill="white" stroke="transparent" points="143.5,-164 10.5,-164 10.5,-115 143.5,-115 143.5,-164"/>
<text text-anchor="start" x="16" y="-151.5" font-family="Helvetica,sans-Serif" font-size="10.00">generics.DestroyAPIView</text>
<text text-anchor="start" x="75.5" y="-136.5" font-family="Helvetica,sans-Serif" font-size="10.00"> </text>
<text text-anchor="start" x="75.5" y="-121.5" font-family="Helvetica,sans-Serif" font-size="10.00"> </text>
<polygon fill="#666666" stroke="#666666" points="11,-146.5 11,-146.5 144,-146.5 144,-146.5 11,-146.5"/>
<polygon fill="#666666" stroke="#666666" points="11,-131.5 11,-131.5 144,-131.5 144,-131.5 11,-131.5"/>
<polygon fill="none" stroke="#666666" points="10.5,-115 10.5,-164 143.5,-164 143.5,-115 10.5,-115"/>
</a>
</g>
</g>
<!-- Node2&#45;&gt;Node1 -->
<g id="edge3_Node000001_Node000002" class="edge">
<title>Node2&#45;&gt;Node1</title>
<g id="a_edge3_Node000001_Node000002"><a xlink:title=" ">
<path fill="none" stroke="#63b8ff" d="M77,-104.52C77,-96.38 77,-87.63 77,-79.29"/>
<polygon fill="none" stroke="#63b8ff" points="73.5,-104.78 77,-114.78 80.5,-104.78 73.5,-104.78"/>
</a>
</g>
</g>
</g>
</svg>
