<?xml version="1.0" encoding="UTF-8" standalone="no"?>
<!DOCTYPE svg PUBLIC "-//W3C//DTD SVG 1.1//EN"
 "http://www.w3.org/Graphics/SVG/1.1/DTD/svg11.dtd">
<!-- Generated by graphviz version 2.43.0 (0)
 -->
<!-- Title: exchange.migrations.0002_rename_questoin_id_comment_question_and_more.Migration Pages: 1 -->
<svg width="175pt" height="179pt"
 viewBox="0.00 0.00 175.00 179.00" xmlns="http://www.w3.org/2000/svg" xmlns:xlink="http://www.w3.org/1999/xlink">
<g id="graph0" class="graph" transform="scale(1 1) rotate(0) translate(4 175)">
<title>exchange.migrations.0002_rename_questoin_id_comment_question_and_more.Migration</title>
<!-- Node1 -->
<g id="Node000001" class="node">
<title>Node1</title>
<g id="a_Node000001"><a xlink:title=" ">
<polygon fill="#999999" stroke="transparent" points="167,-86 0,-86 0,0 167,0 167,-86"/>
<text text-anchor="start" x="5.5" y="-74" font-family="Helvetica,sans-Serif" font-size="10.00">exchange.migrations.0002</text>
<text text-anchor="start" x="5.5" y="-63" font-family="Helvetica,sans-Serif" font-size="10.00">_rename_questoin_id_comment</text>
<text text-anchor="start" x="8.5" y="-52" font-family="Helvetica,sans-Serif" font-size="10.00">_question_and_more.Migration</text>
<text text-anchor="start" x="24" y="-37" font-family="Helvetica,sans-Serif" font-size="10.00">+</text>
<text text-anchor="start" x="56.5" y="-37" font-family="Helvetica,sans-Serif" font-size="10.00">dependencies</text>
<text text-anchor="start" x="24" y="-22" font-family="Helvetica,sans-Serif" font-size="10.00">+</text>
<text text-anchor="start" x="56.5" y="-22" font-family="Helvetica,sans-Serif" font-size="10.00">operations</text>
<text text-anchor="start" x="82" y="-7" font-family="Helvetica,sans-Serif" font-size="10.00"> </text>
<polygon fill="#666666" stroke="#666666" points="0.5,-47 0.5,-47 167.5,-47 167.5,-47 0.5,-47"/>
<polygon fill="#666666" stroke="#666666" points="0.5,-17 0.5,-17 54.5,-17 54.5,-17 0.5,-17"/>
<polygon fill="#666666" stroke="#666666" points="54.5,-17 54.5,-17 167.5,-17 167.5,-17 54.5,-17"/>
<polygon fill="none" stroke="#666666" points="0,0 0,-86 167,-86 167,0 0,0"/>
</a>
</g>
</g>
<!-- Node2 -->
<g id="Node000002" class="node">
<title>Node2</title>
<g id="a_Node000002"><a xlink:title=" ">
<polygon fill="white" stroke="transparent" points="140,-171 27,-171 27,-122 140,-122 140,-171"/>
<text text-anchor="start" x="32.5" y="-158.5" font-family="Helvetica,sans-Serif" font-size="10.00">migrations.Migration</text>
<text text-anchor="start" x="82" y="-143.5" font-family="Helvetica,sans-Serif" font-size="10.00"> </text>
<text text-anchor="start" x="82" y="-128.5" font-family="Helvetica,sans-Serif" font-size="10.00"> </text>
<polygon fill="#666666" stroke="#666666" points="27.5,-153.5 27.5,-153.5 140.5,-153.5 140.5,-153.5 27.5,-153.5"/>
<polygon fill="#666666" stroke="#666666" points="27.5,-138.5 27.5,-138.5 140.5,-138.5 140.5,-138.5 27.5,-138.5"/>
<polygon fill="none" stroke="#666666" points="27,-122 27,-171 140,-171 140,-122 27,-122"/>
</a>
</g>
</g>
<!-- Node2&#45;&gt;Node1 -->
<g id="edge3_Node000001_Node000002" class="edge">
<title>Node2&#45;&gt;Node1</title>
<g id="a_edge3_Node000001_Node000002"><a xlink:title=" ">
<path fill="none" stroke="#63b8ff" d="M83.5,-111.94C83.5,-103.68 83.5,-94.73 83.5,-86.13"/>
<polygon fill="none" stroke="#63b8ff" points="80,-111.96 83.5,-121.96 87,-111.96 80,-111.96"/>
</a>
</g>
</g>
</g>
</svg>
