<?xml version="1.0" encoding="UTF-8" standalone="no"?>
<!DOCTYPE svg PUBLIC "-//W3C//DTD SVG 1.1//EN"
 "http://www.w3.org/Graphics/SVG/1.1/DTD/svg11.dtd">
<!-- Generated by graphviz version 2.43.0 (0)
 -->
<!-- Title: exchange.views.UpvoteCreateView Pages: 1 -->
<svg width="192pt" height="142pt"
 viewBox="0.00 0.00 192.00 142.00" xmlns="http://www.w3.org/2000/svg" xmlns:xlink="http://www.w3.org/1999/xlink">
<g id="graph0" class="graph" transform="scale(1 1) rotate(0) translate(4 138)">
<title>exchange.views.UpvoteCreateView</title>
<!-- Node1 -->
<g id="Node000001" class="node">
<title>Node1</title>
<g id="a_Node000001"><a xlink:title=" ">
<polygon fill="#999999" stroke="transparent" points="184,-49 0,-49 0,0 184,0 184,-49"/>
<text text-anchor="start" x="5" y="-36.5" font-family="Helvetica,sans-Serif" font-size="10.00">exchange.views.UpvoteCreateView</text>
<text text-anchor="start" x="20.5" y="-21.5" font-family="Helvetica,sans-Serif" font-size="10.00">+</text>
<text text-anchor="start" x="50" y="-21.5" font-family="Helvetica,sans-Serif" font-size="10.00">permission_classes</text>
<text text-anchor="start" x="20.5" y="-6.5" font-family="Helvetica,sans-Serif" font-size="10.00">+</text>
<text text-anchor="start" x="50" y="-6.5" font-family="Helvetica,sans-Serif" font-size="10.00">post()</text>
<polygon fill="#666666" stroke="#666666" points="0,-31.5 0,-31.5 184,-31.5 184,-31.5 0,-31.5"/>
<polygon fill="#666666" stroke="#666666" points="0,-16.5 0,-16.5 48,-16.5 48,-16.5 0,-16.5"/>
<polygon fill="#666666" stroke="#666666" points="48,-16.5 48,-16.5 184,-16.5 184,-16.5 48,-16.5"/>
<polygon fill="none" stroke="#666666" points="0,0 0,-49 184,-49 184,0 0,0"/>
</a>
</g>
</g>
<!-- Node2 -->
<g id="Node000002" class="node">
<title>Node2</title>
<g id="a_Node000002"><a xlink:title=" ">
<polygon fill="white" stroke="transparent" points="133,-134 51,-134 51,-85 133,-85 133,-134"/>
<text text-anchor="start" x="56" y="-121.5" font-family="Helvetica,sans-Serif" font-size="10.00">views.APIView</text>
<text text-anchor="start" x="90" y="-106.5" font-family="Helvetica,sans-Serif" font-size="10.00"> </text>
<text text-anchor="start" x="90" y="-91.5" font-family="Helvetica,sans-Serif" font-size="10.00"> </text>
<polygon fill="#666666" stroke="#666666" points="51,-116.5 51,-116.5 133,-116.5 133,-116.5 51,-116.5"/>
<polygon fill="#666666" stroke="#666666" points="51,-101.5 51,-101.5 133,-101.5 133,-101.5 51,-101.5"/>
<polygon fill="none" stroke="#666666" points="51,-85 51,-134 133,-134 133,-85 51,-85"/>
</a>
</g>
</g>
<!-- Node2&#45;&gt;Node1 -->
<g id="edge3_Node000001_Node000002" class="edge">
<title>Node2&#45;&gt;Node1</title>
<g id="a_edge3_Node000001_Node000002"><a xlink:title=" ">
<path fill="none" stroke="#63b8ff" d="M92,-74.77C92,-66.17 92,-57.1 92,-49.12"/>
<polygon fill="none" stroke="#63b8ff" points="88.5,-74.94 92,-84.94 95.5,-74.94 88.5,-74.94"/>
</a>
</g>
</g>
</g>
</svg>
