<?xml version="1.0" encoding="UTF-8" standalone="no"?>
<!DOCTYPE svg PUBLIC "-//W3C//DTD SVG 1.1//EN"
 "http://www.w3.org/Graphics/SVG/1.1/DTD/svg11.dtd">
<!-- Generated by graphviz version 2.43.0 (0)
 -->
<!-- Title: user.models.Teacher Pages: 1 -->
<svg width="118pt" height="187pt"
 viewBox="0.00 0.00 118.00 187.00" xmlns="http://www.w3.org/2000/svg" xmlns:xlink="http://www.w3.org/1999/xlink">
<g id="graph0" class="graph" transform="scale(1 1) rotate(0) translate(4 183)">
<title>user.models.Teacher</title>
<!-- Node1 -->
<g id="Node000001" class="node">
<title>Node1</title>
<g id="a_Node000001"><a xlink:title=" ">
<polygon fill="#999999" stroke="transparent" points="110,-94 0,-94 0,0 110,0 110,-94"/>
<text text-anchor="start" x="5" y="-82" font-family="Helvetica,sans-Serif" font-size="10.00">user.models.Teacher</text>
<text text-anchor="start" x="11.5" y="-67" font-family="Helvetica,sans-Serif" font-size="10.00">+</text>
<text text-anchor="start" x="32" y="-67" font-family="Helvetica,sans-Serif" font-size="10.00">user</text>
<text text-anchor="start" x="11.5" y="-52" font-family="Helvetica,sans-Serif" font-size="10.00">+</text>
<text text-anchor="start" x="32" y="-52" font-family="Helvetica,sans-Serif" font-size="10.00">department</text>
<text text-anchor="start" x="11.5" y="-37" font-family="Helvetica,sans-Serif" font-size="10.00">+</text>
<text text-anchor="start" x="32" y="-37" font-family="Helvetica,sans-Serif" font-size="10.00">subject</text>
<text text-anchor="start" x="11.5" y="-22" font-family="Helvetica,sans-Serif" font-size="10.00">+</text>
<text text-anchor="start" x="32" y="-22" font-family="Helvetica,sans-Serif" font-size="10.00">classroom</text>
<text text-anchor="start" x="53" y="-7" font-family="Helvetica,sans-Serif" font-size="10.00"> </text>
<polygon fill="#666666" stroke="#666666" points="0,-77 0,-77 110,-77 110,-77 0,-77"/>
<polygon fill="#666666" stroke="#666666" points="0,-17 0,-17 30,-17 30,-17 0,-17"/>
<polygon fill="#666666" stroke="#666666" points="30,-17 30,-17 110,-17 110,-17 30,-17"/>
<polygon fill="none" stroke="#666666" points="0,0 0,-94 110,-94 110,0 0,0"/>
</a>
</g>
</g>
<!-- Node2 -->
<g id="Node000002" class="node">
<title>Node2</title>
<g id="a_Node000002"><a xlink:title=" ">
<polygon fill="white" stroke="transparent" points="95,-179 15,-179 15,-130 95,-130 95,-179"/>
<text text-anchor="start" x="20" y="-166.5" font-family="Helvetica,sans-Serif" font-size="10.00">models.Model</text>
<text text-anchor="start" x="53" y="-151.5" font-family="Helvetica,sans-Serif" font-size="10.00"> </text>
<text text-anchor="start" x="53" y="-136.5" font-family="Helvetica,sans-Serif" font-size="10.00"> </text>
<polygon fill="#666666" stroke="#666666" points="15,-161.5 15,-161.5 95,-161.5 95,-161.5 15,-161.5"/>
<polygon fill="#666666" stroke="#666666" points="15,-146.5 15,-146.5 95,-146.5 95,-146.5 15,-146.5"/>
<polygon fill="none" stroke="#666666" points="15,-130 15,-179 95,-179 95,-130 15,-130"/>
</a>
</g>
</g>
<!-- Node2&#45;&gt;Node1 -->
<g id="edge3_Node000001_Node000002" class="edge">
<title>Node2&#45;&gt;Node1</title>
<g id="a_edge3_Node000001_Node000002"><a xlink:title=" ">
<path fill="none" stroke="#63b8ff" d="M55,-119.61C55,-111.48 55,-102.66 55,-94.08"/>
<polygon fill="none" stroke="#63b8ff" points="51.5,-119.82 55,-129.82 58.5,-119.82 51.5,-119.82"/>
</a>
</g>
</g>
</g>
</svg>
