<?xml version="1.0" encoding="UTF-8" standalone="no"?>
<!DOCTYPE svg PUBLIC "-//W3C//DTD SVG 1.1//EN"
 "http://www.w3.org/Graphics/SVG/1.1/DTD/svg11.dtd">
<!-- Generated by graphviz version 2.43.0 (0)
 -->
<!-- Title: chat.permission.CanCreateRoom Pages: 1 -->
<svg width="179pt" height="142pt"
 viewBox="0.00 0.00 179.00 142.00" xmlns="http://www.w3.org/2000/svg" xmlns:xlink="http://www.w3.org/1999/xlink">
<g id="graph0" class="graph" transform="scale(1 1) rotate(0) translate(4 138)">
<title>chat.permission.CanCreateRoom</title>
<!-- Node1 -->
<g id="Node000001" class="node">
<title>Node1</title>
<g id="a_Node000001"><a xlink:title=" ">
<polygon fill="#999999" stroke="transparent" points="171,-49 0,-49 0,0 171,0 171,-49"/>
<text text-anchor="start" x="5.5" y="-36.5" font-family="Helvetica,sans-Serif" font-size="10.00">chat.permission.CanCreateRoom</text>
<text text-anchor="start" x="84" y="-21.5" font-family="Helvetica,sans-Serif" font-size="10.00"> </text>
<text text-anchor="start" x="20.5" y="-6.5" font-family="Helvetica,sans-Serif" font-size="10.00">+</text>
<text text-anchor="start" x="49.5" y="-6.5" font-family="Helvetica,sans-Serif" font-size="10.00">has_permission()</text>
<polygon fill="#666666" stroke="#666666" points="0.5,-31.5 0.5,-31.5 171.5,-31.5 171.5,-31.5 0.5,-31.5"/>
<polygon fill="#666666" stroke="#666666" points="0.5,-16.5 0.5,-16.5 171.5,-16.5 171.5,-16.5 0.5,-16.5"/>
<polygon fill="none" stroke="#666666" points="0,0 0,-49 171,-49 171,0 0,0"/>
</a>
</g>
</g>
<!-- Node2 -->
<g id="Node000002" class="node">
<title>Node2</title>
<g id="a_Node000002"><a xlink:title=" ">
<polygon fill="white" stroke="transparent" points="161,-134 10,-134 10,-85 161,-85 161,-134"/>
<text text-anchor="start" x="15.5" y="-121.5" font-family="Helvetica,sans-Serif" font-size="10.00">permissions.BasePermission</text>
<text text-anchor="start" x="84" y="-106.5" font-family="Helvetica,sans-Serif" font-size="10.00"> </text>
<text text-anchor="start" x="84" y="-91.5" font-family="Helvetica,sans-Serif" font-size="10.00"> </text>
<polygon fill="#666666" stroke="#666666" points="10.5,-116.5 10.5,-116.5 161.5,-116.5 161.5,-116.5 10.5,-116.5"/>
<polygon fill="#666666" stroke="#666666" points="10.5,-101.5 10.5,-101.5 161.5,-101.5 161.5,-101.5 10.5,-101.5"/>
<polygon fill="none" stroke="#666666" points="10,-85 10,-134 161,-134 161,-85 10,-85"/>
</a>
</g>
</g>
<!-- Node2&#45;&gt;Node1 -->
<g id="edge3_Node000001_Node000002" class="edge">
<title>Node2&#45;&gt;Node1</title>
<g id="a_edge3_Node000001_Node000002"><a xlink:title=" ">
<path fill="none" stroke="#63b8ff" d="M85.5,-74.77C85.5,-66.17 85.5,-57.1 85.5,-49.12"/>
<polygon fill="none" stroke="#63b8ff" points="82,-74.94 85.5,-84.94 89,-74.94 82,-74.94"/>
</a>
</g>
</g>
</g>
</svg>
